<?xml version="1.0" encoding="utf-8" standalone="no"?>
<!DOCTYPE svg PUBLIC "-//W3C//DTD SVG 1.1//EN"
  "http://www.w3.org/Graphics/SVG/1.1/DTD/svg11.dtd">
<svg height="288pt" version="1.1" viewBox="0 0 288 288" width="288pt" xmlns="http://www.w3.org/2000/svg" xmlns:xlink="http://www.w3.org/1999/xlink">
 <metadata>
  <rdf:RDF xmlns:cc="http://creativecommons.org/ns#" xmlns:dc="http://purl.org/dc/elements/1.1/" xmlns:rdf="http://www.w3.org/1999/02/22-rdf-syntax-ns#">
   <cc:Work>
    <dc:type rdf:resource="http://purl.org/dc/dcmitype/StillImage"/>
    <dc:date>2022-04-19T01:39:28.166444</dc:date>
    <dc:format>image/svg+xml</dc:format>
    <dc:creator>
     <cc:Agent>
      <dc:title>Matplotlib v3.4.1, https://matplotlib.org/</dc:title>
     </cc:Agent>
    </dc:creator>
   </cc:Work>
  </rdf:RDF>
 </metadata>
 <defs>
  <style type="text/css">*{stroke-linecap:butt;stroke-linejoin:round;}</style>
 </defs>
 <g id="figure_1">
  <g id="patch_1">
   <path d="M 0 288 
L 288 288 
L 288 0 
L 0 0 
z
" style="fill:none;"/>
  </g>
  <g id="axes_1">
   <g id="patch_2">
    <path d="M 57.14 235 
L 272.960811 235 
L 272.960811 10.8 
L 57.14 10.8 
z
" style="fill:none;"/>
   </g>
   <g id="matplotlib.axis_1">
    <g id="xtick_1">
     <g id="line2d_1">
      <defs>
       <path d="M 0 0 
L 0 3.5 
" id="m6acff3e920" style="stroke:#000000;stroke-width:0.8;"/>
      </defs>
      <g>
       <use style="stroke:#000000;stroke-width:0.8;" x="66.950037" xlink:href="#m6acff3e920" y="235"/>
      </g>
     </g>
     <g id="text_1">
      <!-- 0 -->
      <g transform="translate(62.496287 252.637812)scale(0.14 -0.14)">
       <defs>
        <path d="M 2034 4250 
Q 1547 4250 1301 3770 
Q 1056 3291 1056 2328 
Q 1056 1369 1301 889 
Q 1547 409 2034 409 
Q 2525 409 2770 889 
Q 3016 1369 3016 2328 
Q 3016 3291 2770 3770 
Q 2525 4250 2034 4250 
z
M 2034 4750 
Q 2819 4750 3233 4129 
Q 3647 3509 3647 2328 
Q 3647 1150 3233 529 
Q 2819 -91 2034 -91 
Q 1250 -91 836 529 
Q 422 1150 422 2328 
Q 422 3509 836 4129 
Q 1250 4750 2034 4750 
z
" id="DejaVuSans-30" transform="scale(0.015625)"/>
       </defs>
       <use xlink:href="#DejaVuSans-30"/>
      </g>
     </g>
    </g>
    <g id="xtick_2">
     <g id="line2d_2">
      <g>
       <use style="stroke:#000000;stroke-width:0.8;" x="116.246704" xlink:href="#m6acff3e920" y="235"/>
      </g>
     </g>
     <g id="text_2">
      <!-- 50 -->
      <g transform="translate(107.339204 252.637812)scale(0.14 -0.14)">
       <defs>
        <path d="M 691 4666 
L 3169 4666 
L 3169 4134 
L 1269 4134 
L 1269 2991 
Q 1406 3038 1543 3061 
Q 1681 3084 1819 3084 
Q 2600 3084 3056 2656 
Q 3513 2228 3513 1497 
Q 3513 744 3044 326 
Q 2575 -91 1722 -91 
Q 1428 -91 1123 -41 
Q 819 9 494 109 
L 494 744 
Q 775 591 1075 516 
Q 1375 441 1709 441 
Q 2250 441 2565 725 
Q 2881 1009 2881 1497 
Q 2881 1984 2565 2268 
Q 2250 2553 1709 2553 
Q 1456 2553 1204 2497 
Q 953 2441 691 2322 
L 691 4666 
z
" id="DejaVuSans-35" transform="scale(0.015625)"/>
       </defs>
       <use xlink:href="#DejaVuSans-35"/>
       <use x="63.623047" xlink:href="#DejaVuSans-30"/>
      </g>
     </g>
    </g>
    <g id="xtick_3">
     <g id="line2d_3">
      <g>
       <use style="stroke:#000000;stroke-width:0.8;" x="165.543372" xlink:href="#m6acff3e920" y="235"/>
      </g>
     </g>
     <g id="text_3">
      <!-- 100 -->
      <g transform="translate(152.182122 252.637812)scale(0.14 -0.14)">
       <defs>
        <path d="M 794 531 
L 1825 531 
L 1825 4091 
L 703 3866 
L 703 4441 
L 1819 4666 
L 2450 4666 
L 2450 531 
L 3481 531 
L 3481 0 
L 794 0 
L 794 531 
z
" id="DejaVuSans-31" transform="scale(0.015625)"/>
       </defs>
       <use xlink:href="#DejaVuSans-31"/>
       <use x="63.623047" xlink:href="#DejaVuSans-30"/>
       <use x="127.246094" xlink:href="#DejaVuSans-30"/>
      </g>
     </g>
    </g>
    <g id="xtick_4">
     <g id="line2d_4">
      <g>
       <use style="stroke:#000000;stroke-width:0.8;" x="214.84004" xlink:href="#m6acff3e920" y="235"/>
      </g>
     </g>
     <g id="text_4">
      <!-- 150 -->
      <g transform="translate(201.47879 252.637812)scale(0.14 -0.14)">
       <use xlink:href="#DejaVuSans-31"/>
       <use x="63.623047" xlink:href="#DejaVuSans-35"/>
       <use x="127.246094" xlink:href="#DejaVuSans-30"/>
      </g>
     </g>
    </g>
    <g id="xtick_5">
     <g id="line2d_5">
      <g>
       <use style="stroke:#000000;stroke-width:0.8;" x="264.136707" xlink:href="#m6acff3e920" y="235"/>
      </g>
     </g>
     <g id="text_5">
      <!-- 200 -->
      <g transform="translate(250.775457 252.637812)scale(0.14 -0.14)">
       <defs>
        <path d="M 1228 531 
L 3431 531 
L 3431 0 
L 469 0 
L 469 531 
Q 828 903 1448 1529 
Q 2069 2156 2228 2338 
Q 2531 2678 2651 2914 
Q 2772 3150 2772 3378 
Q 2772 3750 2511 3984 
Q 2250 4219 1831 4219 
Q 1534 4219 1204 4116 
Q 875 4013 500 3803 
L 500 4441 
Q 881 4594 1212 4672 
Q 1544 4750 1819 4750 
Q 2544 4750 2975 4387 
Q 3406 4025 3406 3419 
Q 3406 3131 3298 2873 
Q 3191 2616 2906 2266 
Q 2828 2175 2409 1742 
Q 1991 1309 1228 531 
z
" id="DejaVuSans-32" transform="scale(0.015625)"/>
       </defs>
       <use xlink:href="#DejaVuSans-32"/>
       <use x="63.623047" xlink:href="#DejaVuSans-30"/>
       <use x="127.246094" xlink:href="#DejaVuSans-30"/>
      </g>
     </g>
    </g>
    <g id="text_6">
     <!-- Time -->
     <g transform="translate(143.029937 273.226562)scale(0.18 -0.18)">
      <defs>
       <path d="M -19 4666 
L 3928 4666 
L 3928 4134 
L 2272 4134 
L 2272 0 
L 1638 0 
L 1638 4134 
L -19 4134 
L -19 4666 
z
" id="DejaVuSans-54" transform="scale(0.015625)"/>
       <path d="M 603 3500 
L 1178 3500 
L 1178 0 
L 603 0 
L 603 3500 
z
M 603 4863 
L 1178 4863 
L 1178 4134 
L 603 4134 
L 603 4863 
z
" id="DejaVuSans-69" transform="scale(0.015625)"/>
       <path d="M 3328 2828 
Q 3544 3216 3844 3400 
Q 4144 3584 4550 3584 
Q 5097 3584 5394 3201 
Q 5691 2819 5691 2113 
L 5691 0 
L 5113 0 
L 5113 2094 
Q 5113 2597 4934 2840 
Q 4756 3084 4391 3084 
Q 3944 3084 3684 2787 
Q 3425 2491 3425 1978 
L 3425 0 
L 2847 0 
L 2847 2094 
Q 2847 2600 2669 2842 
Q 2491 3084 2119 3084 
Q 1678 3084 1418 2786 
Q 1159 2488 1159 1978 
L 1159 0 
L 581 0 
L 581 3500 
L 1159 3500 
L 1159 2956 
Q 1356 3278 1631 3431 
Q 1906 3584 2284 3584 
Q 2666 3584 2933 3390 
Q 3200 3197 3328 2828 
z
" id="DejaVuSans-6d" transform="scale(0.015625)"/>
       <path d="M 3597 1894 
L 3597 1613 
L 953 1613 
Q 991 1019 1311 708 
Q 1631 397 2203 397 
Q 2534 397 2845 478 
Q 3156 559 3463 722 
L 3463 178 
Q 3153 47 2828 -22 
Q 2503 -91 2169 -91 
Q 1331 -91 842 396 
Q 353 884 353 1716 
Q 353 2575 817 3079 
Q 1281 3584 2069 3584 
Q 2775 3584 3186 3129 
Q 3597 2675 3597 1894 
z
M 3022 2063 
Q 3016 2534 2758 2815 
Q 2500 3097 2075 3097 
Q 1594 3097 1305 2825 
Q 1016 2553 972 2059 
L 3022 2063 
z
" id="DejaVuSans-65" transform="scale(0.015625)"/>
      </defs>
      <use xlink:href="#DejaVuSans-54"/>
      <use x="57.958984" xlink:href="#DejaVuSans-69"/>
      <use x="85.742188" xlink:href="#DejaVuSans-6d"/>
      <use x="183.154297" xlink:href="#DejaVuSans-65"/>
     </g>
    </g>
   </g>
   <g id="matplotlib.axis_2">
    <g id="ytick_1">
     <g id="line2d_6">
      <defs>
       <path d="M 0 0 
L -3.5 0 
" id="mf9d477cba6" style="stroke:#000000;stroke-width:0.8;"/>
      </defs>
      <g>
       <use style="stroke:#000000;stroke-width:0.8;" x="57.14" xlink:href="#mf9d477cba6" y="188.680304"/>
      </g>
     </g>
     <g id="text_7">
      <!-- 20 -->
      <g transform="translate(32.325 193.99921)scale(0.14 -0.14)">
       <use xlink:href="#DejaVuSans-32"/>
       <use x="63.623047" xlink:href="#DejaVuSans-30"/>
      </g>
     </g>
    </g>
    <g id="ytick_2">
     <g id="line2d_7">
      <g>
       <use style="stroke:#000000;stroke-width:0.8;" x="57.14" xlink:href="#mf9d477cba6" y="142.176109"/>
      </g>
     </g>
     <g id="text_8">
      <!-- 40 -->
      <g transform="translate(32.325 147.495016)scale(0.14 -0.14)">
       <defs>
        <path d="M 2419 4116 
L 825 1625 
L 2419 1625 
L 2419 4116 
z
M 2253 4666 
L 3047 4666 
L 3047 1625 
L 3713 1625 
L 3713 1100 
L 3047 1100 
L 3047 0 
L 2419 0 
L 2419 1100 
L 313 1100 
L 313 1709 
L 2253 4666 
z
" id="DejaVuSans-34" transform="scale(0.015625)"/>
       </defs>
       <use xlink:href="#DejaVuSans-34"/>
       <use x="63.623047" xlink:href="#DejaVuSans-30"/>
      </g>
     </g>
    </g>
    <g id="ytick_3">
     <g id="line2d_8">
      <g>
       <use style="stroke:#000000;stroke-width:0.8;" x="57.14" xlink:href="#mf9d477cba6" y="95.671915"/>
      </g>
     </g>
     <g id="text_9">
      <!-- 60 -->
      <g transform="translate(32.325 100.990821)scale(0.14 -0.14)">
       <defs>
        <path d="M 2113 2584 
Q 1688 2584 1439 2293 
Q 1191 2003 1191 1497 
Q 1191 994 1439 701 
Q 1688 409 2113 409 
Q 2538 409 2786 701 
Q 3034 994 3034 1497 
Q 3034 2003 2786 2293 
Q 2538 2584 2113 2584 
z
M 3366 4563 
L 3366 3988 
Q 3128 4100 2886 4159 
Q 2644 4219 2406 4219 
Q 1781 4219 1451 3797 
Q 1122 3375 1075 2522 
Q 1259 2794 1537 2939 
Q 1816 3084 2150 3084 
Q 2853 3084 3261 2657 
Q 3669 2231 3669 1497 
Q 3669 778 3244 343 
Q 2819 -91 2113 -91 
Q 1303 -91 875 529 
Q 447 1150 447 2328 
Q 447 3434 972 4092 
Q 1497 4750 2381 4750 
Q 2619 4750 2861 4703 
Q 3103 4656 3366 4563 
z
" id="DejaVuSans-36" transform="scale(0.015625)"/>
       </defs>
       <use xlink:href="#DejaVuSans-36"/>
       <use x="63.623047" xlink:href="#DejaVuSans-30"/>
      </g>
     </g>
    </g>
    <g id="ytick_4">
     <g id="line2d_9">
      <g>
       <use style="stroke:#000000;stroke-width:0.8;" x="57.14" xlink:href="#mf9d477cba6" y="49.167721"/>
      </g>
     </g>
     <g id="text_10">
      <!-- 80 -->
      <g transform="translate(32.325 54.486627)scale(0.14 -0.14)">
       <defs>
        <path d="M 2034 2216 
Q 1584 2216 1326 1975 
Q 1069 1734 1069 1313 
Q 1069 891 1326 650 
Q 1584 409 2034 409 
Q 2484 409 2743 651 
Q 3003 894 3003 1313 
Q 3003 1734 2745 1975 
Q 2488 2216 2034 2216 
z
M 1403 2484 
Q 997 2584 770 2862 
Q 544 3141 544 3541 
Q 544 4100 942 4425 
Q 1341 4750 2034 4750 
Q 2731 4750 3128 4425 
Q 3525 4100 3525 3541 
Q 3525 3141 3298 2862 
Q 3072 2584 2669 2484 
Q 3125 2378 3379 2068 
Q 3634 1759 3634 1313 
Q 3634 634 3220 271 
Q 2806 -91 2034 -91 
Q 1263 -91 848 271 
Q 434 634 434 1313 
Q 434 1759 690 2068 
Q 947 2378 1403 2484 
z
M 1172 3481 
Q 1172 3119 1398 2916 
Q 1625 2713 2034 2713 
Q 2441 2713 2670 2916 
Q 2900 3119 2900 3481 
Q 2900 3844 2670 4047 
Q 2441 4250 2034 4250 
Q 1625 4250 1398 4047 
Q 1172 3844 1172 3481 
z
" id="DejaVuSans-38" transform="scale(0.015625)"/>
       </defs>
       <use xlink:href="#DejaVuSans-38"/>
       <use x="63.623047" xlink:href="#DejaVuSans-30"/>
      </g>
     </g>
    </g>
    <g id="text_11">
     <!-- Mean Payoff -->
     <g transform="translate(24.581563 177.989844)rotate(-90)scale(0.18 -0.18)">
      <defs>
       <path d="M 628 4666 
L 1569 4666 
L 2759 1491 
L 3956 4666 
L 4897 4666 
L 4897 0 
L 4281 0 
L 4281 4097 
L 3078 897 
L 2444 897 
L 1241 4097 
L 1241 0 
L 628 0 
L 628 4666 
z
" id="DejaVuSans-4d" transform="scale(0.015625)"/>
       <path d="M 2194 1759 
Q 1497 1759 1228 1600 
Q 959 1441 959 1056 
Q 959 750 1161 570 
Q 1363 391 1709 391 
Q 2188 391 2477 730 
Q 2766 1069 2766 1631 
L 2766 1759 
L 2194 1759 
z
M 3341 1997 
L 3341 0 
L 2766 0 
L 2766 531 
Q 2569 213 2275 61 
Q 1981 -91 1556 -91 
Q 1019 -91 701 211 
Q 384 513 384 1019 
Q 384 1609 779 1909 
Q 1175 2209 1959 2209 
L 2766 2209 
L 2766 2266 
Q 2766 2663 2505 2880 
Q 2244 3097 1772 3097 
Q 1472 3097 1187 3025 
Q 903 2953 641 2809 
L 641 3341 
Q 956 3463 1253 3523 
Q 1550 3584 1831 3584 
Q 2591 3584 2966 3190 
Q 3341 2797 3341 1997 
z
" id="DejaVuSans-61" transform="scale(0.015625)"/>
       <path d="M 3513 2113 
L 3513 0 
L 2938 0 
L 2938 2094 
Q 2938 2591 2744 2837 
Q 2550 3084 2163 3084 
Q 1697 3084 1428 2787 
Q 1159 2491 1159 1978 
L 1159 0 
L 581 0 
L 581 3500 
L 1159 3500 
L 1159 2956 
Q 1366 3272 1645 3428 
Q 1925 3584 2291 3584 
Q 2894 3584 3203 3211 
Q 3513 2838 3513 2113 
z
" id="DejaVuSans-6e" transform="scale(0.015625)"/>
       <path id="DejaVuSans-20" transform="scale(0.015625)"/>
       <path d="M 1259 4147 
L 1259 2394 
L 2053 2394 
Q 2494 2394 2734 2622 
Q 2975 2850 2975 3272 
Q 2975 3691 2734 3919 
Q 2494 4147 2053 4147 
L 1259 4147 
z
M 628 4666 
L 2053 4666 
Q 2838 4666 3239 4311 
Q 3641 3956 3641 3272 
Q 3641 2581 3239 2228 
Q 2838 1875 2053 1875 
L 1259 1875 
L 1259 0 
L 628 0 
L 628 4666 
z
" id="DejaVuSans-50" transform="scale(0.015625)"/>
       <path d="M 2059 -325 
Q 1816 -950 1584 -1140 
Q 1353 -1331 966 -1331 
L 506 -1331 
L 506 -850 
L 844 -850 
Q 1081 -850 1212 -737 
Q 1344 -625 1503 -206 
L 1606 56 
L 191 3500 
L 800 3500 
L 1894 763 
L 2988 3500 
L 3597 3500 
L 2059 -325 
z
" id="DejaVuSans-79" transform="scale(0.015625)"/>
       <path d="M 1959 3097 
Q 1497 3097 1228 2736 
Q 959 2375 959 1747 
Q 959 1119 1226 758 
Q 1494 397 1959 397 
Q 2419 397 2687 759 
Q 2956 1122 2956 1747 
Q 2956 2369 2687 2733 
Q 2419 3097 1959 3097 
z
M 1959 3584 
Q 2709 3584 3137 3096 
Q 3566 2609 3566 1747 
Q 3566 888 3137 398 
Q 2709 -91 1959 -91 
Q 1206 -91 779 398 
Q 353 888 353 1747 
Q 353 2609 779 3096 
Q 1206 3584 1959 3584 
z
" id="DejaVuSans-6f" transform="scale(0.015625)"/>
       <path d="M 2375 4863 
L 2375 4384 
L 1825 4384 
Q 1516 4384 1395 4259 
Q 1275 4134 1275 3809 
L 1275 3500 
L 2222 3500 
L 2222 3053 
L 1275 3053 
L 1275 0 
L 697 0 
L 697 3053 
L 147 3053 
L 147 3500 
L 697 3500 
L 697 3744 
Q 697 4328 969 4595 
Q 1241 4863 1831 4863 
L 2375 4863 
z
" id="DejaVuSans-66" transform="scale(0.015625)"/>
      </defs>
      <use xlink:href="#DejaVuSans-4d"/>
      <use x="86.279297" xlink:href="#DejaVuSans-65"/>
      <use x="147.802734" xlink:href="#DejaVuSans-61"/>
      <use x="209.082031" xlink:href="#DejaVuSans-6e"/>
      <use x="272.460938" xlink:href="#DejaVuSans-20"/>
      <use x="304.248047" xlink:href="#DejaVuSans-50"/>
      <use x="360.050781" xlink:href="#DejaVuSans-61"/>
      <use x="421.330078" xlink:href="#DejaVuSans-79"/>
      <use x="480.509766" xlink:href="#DejaVuSans-6f"/>
      <use x="541.691406" xlink:href="#DejaVuSans-66"/>
      <use x="576.896484" xlink:href="#DejaVuSans-66"/>
     </g>
    </g>
   </g>
   <g id="line2d_10">
    <path clip-path="url(#p28a3084021)" d="M 66.950037 213.63879 
L 67.93597 199.992009 
L 70.89377 150.921821 
L 71.879704 137.161356 
L 72.865637 125.450954 
L 73.85157 115.515105 
L 74.837504 107.168533 
L 75.823437 100.330681 
L 76.80937 94.719032 
L 77.795304 90.109663 
L 78.781237 86.299141 
L 79.76717 83.109712 
L 80.753104 80.417463 
L 82.72497 75.956577 
L 84.696837 72.404544 
L 86.668704 69.548519 
L 88.640571 67.10392 
L 90.612437 64.96356 
L 96.528037 59.353304 
L 99.485837 56.944947 
L 101.457704 55.539784 
L 105.401438 53.085569 
L 110.331104 50.498447 
L 116.246704 47.692751 
L 126.106038 43.351326 
L 132.021638 41.211019 
L 141.880972 38.041548 
L 147.796572 36.490492 
L 157.655905 34.256785 
L 165.543372 32.57463 
L 169.487106 31.833917 
L 198.079173 27.365154 
L 210.896306 25.708563 
L 217.79784 24.939661 
L 225.685307 24.202424 
L 243.432107 22.4946 
L 254.277374 21.619258 
L 262.164841 21.05158 
L 263.150774 20.990909 
L 263.150774 20.990909 
" style="fill:none;stroke:#151d3b;stroke-linecap:square;stroke-width:3;"/>
   </g>
   <g id="line2d_11">
    <path clip-path="url(#p28a3084021)" d="M 66.950037 211.654726 
L 68.921904 172.957743 
L 69.907837 160.180714 
L 70.89377 157.362236 
L 71.879704 157.175532 
L 78.781237 157.157996 
L 263.150774 157.157996 
L 263.150774 157.157996 
" style="fill:none;stroke:#98042d;stroke-dasharray:4,3;stroke-dashoffset:0;stroke-width:2;"/>
   </g>
   <g id="line2d_12">
    <path clip-path="url(#p28a3084021)" d="M 66.950037 210.637114 
L 67.93597 190.216725 
L 68.921904 167.248879 
L 69.907837 148.291387 
L 70.89377 133.940332 
L 71.879704 121.485651 
L 72.865637 112.569024 
L 73.85157 106.901653 
L 74.837504 103.290111 
L 75.823437 101.185915 
L 76.80937 99.936571 
L 77.795304 99.302944 
L 78.781237 98.995103 
L 80.753104 98.828188 
L 86.668704 98.802137 
L 263.150774 98.802137 
L 263.150774 98.802137 
" style="fill:none;stroke:#ff0f39;stroke-dasharray:4,3;stroke-dashoffset:0;stroke-width:2;"/>
   </g>
   <g id="line2d_13">
    <path clip-path="url(#p28a3084021)" d="M 66.950037 211.054912 
L 69.907837 153.70999 
L 71.879704 133.208214 
L 72.865637 123.900172 
L 73.85157 116.686642 
L 74.837504 111.075897 
L 75.823437 106.75592 
L 76.80937 103.551039 
L 77.795304 101.059021 
L 78.781237 98.871385 
L 79.76717 97.054309 
L 80.753104 95.472953 
L 82.72497 93.0323 
L 84.696837 91.232991 
L 86.668704 89.77428 
L 90.612437 87.38243 
L 92.584304 86.581374 
L 96.528037 85.41264 
L 99.485837 84.644838 
L 101.457704 84.005756 
L 105.401438 83.071908 
L 110.331104 82.177442 
L 114.274838 81.504389 
L 127.091971 79.466531 
L 131.035705 78.812246 
L 133.993505 78.417958 
L 148.782505 76.553118 
L 158.641839 75.732415 
L 168.501172 75.094185 
L 182.304239 73.886308 
L 190.191706 73.401511 
L 227.657173 71.557124 
L 263.150774 70.061789 
L 263.150774 70.061789 
" style="fill:none;stroke:#f16745;stroke-dasharray:4,3;stroke-dashoffset:0;stroke-width:2;"/>
   </g>
   <g id="line2d_14">
    <path clip-path="url(#p28a3084021)" d="M 66.950037 210.956436 
L 68.921904 170.786325 
L 69.907837 156.078334 
L 70.89377 149.58093 
L 72.865637 139.368089 
L 74.837504 128.012566 
L 75.823437 123.215828 
L 76.80937 119.168823 
L 78.781237 112.431167 
L 80.753104 106.571779 
L 82.72497 101.738674 
L 84.696837 97.467011 
L 86.668704 93.761279 
L 89.626504 88.988977 
L 91.598371 86.240741 
L 94.556171 82.494225 
L 98.499904 78.014659 
L 101.457704 74.956701 
L 103.429571 73.126684 
L 109.345171 68.016108 
L 115.260771 64.163152 
L 119.204505 61.87509 
L 122.162305 60.185555 
L 127.091971 57.230223 
L 129.063838 56.328555 
L 132.021638 55.188338 
L 134.979438 54.001749 
L 136.951305 53.165026 
L 144.838772 50.285213 
L 156.669972 46.783189 
L 160.613705 45.727857 
L 163.571505 44.904227 
L 165.543372 44.278681 
L 178.360506 41.051537 
L 190.191706 38.662765 
L 192.163573 38.327924 
L 200.051039 36.576442 
L 207.938506 35.103104 
L 224.699373 31.95744 
L 232.58684 30.690116 
L 242.446174 28.944524 
L 250.33364 27.879063 
L 254.277374 27.354563 
L 263.150774 26.449135 
L 263.150774 26.449135 
" style="fill:none;stroke:#ffc65d;stroke-dasharray:4,3;stroke-dashoffset:0;stroke-width:2;"/>
   </g>
   <g id="line2d_15">
    <path clip-path="url(#p28a3084021)" d="M 66.950037 224.809091 
L 89.626504 224.69716 
L 115.260771 224.406849 
L 145.824705 224.225305 
L 263.150774 224.16244 
L 263.150774 224.16244 
" style="fill:none;stroke:#3a6351;stroke-dasharray:4,3;stroke-dashoffset:0;stroke-width:2;"/>
   </g>
   <g id="line2d_16">
    <path clip-path="url(#p28a3084021)" d="M 66.950037 220.524339 
L 68.921904 212.612555 
L 70.89377 205.766467 
L 72.865637 199.845664 
L 74.837504 194.697861 
L 76.80937 190.121488 
L 78.781237 186.055794 
L 80.753104 182.386057 
L 83.710904 177.404069 
L 90.612437 166.283316 
L 93.570237 160.675126 
L 95.542104 156.375913 
L 97.513971 151.606077 
L 99.485837 146.326555 
L 102.443638 137.627091 
L 106.387371 125.106967 
L 112.302971 106.116758 
L 115.260771 97.689647 
L 117.232638 92.621833 
L 119.204505 87.979849 
L 121.176371 83.843329 
L 123.148238 80.184662 
L 126.106038 75.335572 
L 128.077905 72.595496 
L 131.035705 68.952032 
L 133.993505 65.807964 
L 135.965372 63.901452 
L 137.937238 62.313763 
L 140.895038 60.219456 
L 142.866905 59.058874 
L 146.810638 57.207906 
L 150.754372 55.61603 
L 154.698105 54.338311 
L 159.627772 52.905952 
L 162.585572 52.343614 
L 174.416772 50.701693 
L 179.346439 50.276893 
L 189.205773 49.70242 
L 208.92444 49.218404 
L 229.62904 48.986152 
L 263.150774 48.881522 
L 263.150774 48.881522 
" style="fill:none;stroke:#019267;stroke-dasharray:4,3;stroke-dashoffset:0;stroke-width:2;"/>
   </g>
   <g id="line2d_17">
    <path clip-path="url(#p28a3084021)" d="M 66.950037 221.786123 
L 68.921904 216.34071 
L 70.89377 211.519623 
L 72.865637 207.259421 
L 74.837504 203.415933 
L 76.80937 199.93215 
L 79.76717 195.21525 
L 83.710904 189.664671 
L 88.640571 183.39035 
L 93.570237 177.039478 
L 98.499904 170.136099 
L 101.457704 165.429102 
L 105.401438 158.526615 
L 108.359238 152.525805 
L 113.288904 142.017887 
L 117.232638 132.883715 
L 129.063838 105.339004 
L 132.021638 99.185044 
L 135.965372 91.792394 
L 138.923172 86.812082 
L 142.866905 80.972776 
L 144.838772 78.411962 
L 147.796572 75.065571 
L 150.754372 72.215649 
L 154.698105 68.734948 
L 157.655905 66.587883 
L 160.613705 64.789124 
L 166.529305 61.33427 
L 169.487106 59.811225 
L 172.444906 58.717575 
L 178.360506 56.85057 
L 184.276106 55.262792 
L 189.205773 54.187007 
L 196.107306 52.978668 
L 202.022906 52.123905 
L 215.825973 50.22841 
L 223.71344 49.508257 
L 234.558707 48.575863 
L 263.150774 46.973911 
L 263.150774 46.973911 
" style="fill:none;stroke:#00c897;stroke-dasharray:4,3;stroke-dashoffset:0;stroke-width:2;"/>
   </g>
   <g id="line2d_18">
    <path clip-path="url(#p28a3084021)" d="M 66.950037 219.06759 
L 67.93597 214.932041 
L 68.921904 211.656103 
L 69.907837 208.91116 
L 71.879704 204.439269 
L 73.85157 200.844671 
L 75.823437 197.840394 
L 77.795304 195.214585 
L 79.76717 192.880319 
L 82.72497 189.776033 
L 86.668704 186.070936 
L 94.556171 179.089465 
L 98.499904 175.452959 
L 102.443638 171.612439 
L 108.359238 165.424193 
L 118.218571 154.683407 
L 134.979438 137.261657 
L 145.824705 127.35814 
L 150.754372 123.190486 
L 154.698105 120.160247 
L 160.613705 116.043196 
L 166.529305 111.975587 
L 171.458972 108.953659 
L 186.247973 100.675705 
L 191.177639 97.993053 
L 195.121373 95.946379 
L 203.00884 91.984393 
L 208.92444 89.395231 
L 225.685307 82.796691 
L 233.572773 79.981681 
L 255.263307 73.110629 
L 262.164841 71.022549 
L 263.150774 70.769968 
L 263.150774 70.769968 
" style="fill:none;stroke:#85c88a;stroke-dasharray:4,3;stroke-dashoffset:0;stroke-width:2;"/>
   </g>
   <g id="line2d_19">
    <path clip-path="url(#p28a3084021)" d="M 66.950037 220.522222 
L 68.921904 212.623425 
L 70.89377 205.810014 
L 72.865637 199.909678 
L 74.837504 194.773836 
L 76.80937 190.27967 
L 78.781237 186.299918 
L 80.753104 182.753699 
L 82.72497 179.59909 
L 84.696837 176.724412 
L 86.668704 174.120716 
L 88.640571 171.799431 
L 91.598371 168.697647 
L 94.556171 166.00204 
L 97.513971 163.682601 
L 100.471771 161.663387 
L 103.429571 159.872314 
L 107.373304 157.868197 
L 111.317038 156.157916 
L 115.260771 154.726338 
L 119.204505 153.522984 
L 124.134171 152.264238 
L 129.063838 151.248502 
L 134.979438 150.30519 
L 141.880972 149.472627 
L 149.768438 148.79921 
L 159.627772 148.20682 
L 169.487106 147.834131 
L 186.247973 147.490668 
L 208.92444 147.305277 
L 254.277374 147.217455 
L 263.150774 147.213712 
L 263.150774 147.213712 
" style="fill:none;stroke:#495371;stroke-dasharray:4,3;stroke-dashoffset:0;stroke-width:2;"/>
   </g>
   <g id="line2d_20">
    <path clip-path="url(#p28a3084021)" d="M 66.950037 221.784937 
L 68.921904 216.306144 
L 70.89377 211.508753 
L 72.865637 207.263813 
L 74.837504 203.423105 
L 76.80937 199.91106 
L 79.76717 195.26682 
L 82.72497 191.144124 
L 85.682771 187.453325 
L 88.640571 184.080332 
L 91.598371 181.039546 
L 95.542104 177.394809 
L 99.485837 174.08195 
L 103.429571 171.067597 
L 107.373304 168.327294 
L 110.331104 166.433219 
L 116.246704 163.001861 
L 121.176371 160.436976 
L 126.106038 158.121506 
L 132.021638 155.609707 
L 139.909105 152.633859 
L 147.796572 150.042567 
L 153.712172 148.290686 
L 161.599639 146.196521 
L 171.458972 143.874443 
L 184.276106 141.300546 
L 195.121373 139.402735 
L 208.92444 137.308784 
L 221.741573 135.62866 
L 240.474307 133.548306 
L 250.33364 132.560697 
L 263.150774 131.386987 
L 263.150774 131.386987 
" style="fill:none;stroke:#488fb1;stroke-dasharray:4,3;stroke-dashoffset:0;stroke-width:2;"/>
   </g>
   <g id="line2d_21">
    <path clip-path="url(#p28a3084021)" d="M 66.950037 219.069985 
L 67.93597 214.923238 
L 68.921904 211.642821 
L 69.907837 208.899478 
L 70.89377 206.530333 
L 72.865637 202.603012 
L 74.837504 199.355449 
L 76.80937 196.60192 
L 78.781237 194.189931 
L 80.753104 192.03714 
L 83.710904 189.191072 
L 86.668704 186.684879 
L 89.626504 184.44966 
L 93.570237 181.802187 
L 97.513971 179.444677 
L 102.443638 176.785051 
L 106.387371 174.884465 
L 111.317038 172.713686 
L 119.204505 169.654286 
L 126.106038 167.285374 
L 132.021638 165.374942 
L 137.937238 163.627966 
L 144.838772 161.762988 
L 153.712172 159.528975 
L 160.613705 157.9451 
L 176.388639 154.67004 
L 191.177639 151.961213 
L 208.92444 149.05424 
L 221.741573 147.135585 
L 235.54464 145.23687 
L 253.29144 142.979667 
L 263.150774 141.801859 
L 263.150774 141.801859 
" style="fill:none;stroke:#2fa4ff;stroke-dasharray:4,3;stroke-dashoffset:0;stroke-width:2;"/>
   </g>
   <g id="line2d_22">
    <path clip-path="url(#p28a3084021)" d="M 66.950037 219.07635 
L 67.93597 211.765495 
L 69.907837 193.371827 
L 71.879704 174.007376 
L 72.865637 166.563878 
L 73.85157 161.672656 
L 74.837504 159.078017 
L 75.823437 157.909921 
L 76.80937 157.437578 
L 77.795304 157.255628 
L 80.753104 157.158945 
L 197.093239 157.157996 
L 263.150774 157.157996 
L 263.150774 157.157996 
" style="fill:none;stroke:#8267be;stroke-dasharray:4,3;stroke-dashoffset:0;stroke-width:2;"/>
   </g>
   <g id="line2d_23"/>
   <g id="patch_3">
    <path d="M 57.14 235 
L 57.14 10.8 
" style="fill:none;stroke:#000000;stroke-linecap:square;stroke-linejoin:miter;stroke-width:0.8;"/>
   </g>
   <g id="patch_4">
    <path d="M 272.960811 235 
L 272.960811 10.8 
" style="fill:none;stroke:#000000;stroke-linecap:square;stroke-linejoin:miter;stroke-width:0.8;"/>
   </g>
   <g id="patch_5">
    <path d="M 57.14 235 
L 272.960811 235 
" style="fill:none;stroke:#000000;stroke-linecap:square;stroke-linejoin:miter;stroke-width:0.8;"/>
   </g>
   <g id="patch_6">
    <path d="M 57.14 10.8 
L 272.960811 10.8 
" style="fill:none;stroke:#000000;stroke-linecap:square;stroke-linejoin:miter;stroke-width:0.8;"/>
   </g>
   <g id="legend_1">
    <g id="patch_7">
     <path d="M 146.268324 212.58 
L 257.719262 212.58 
Q 260.519262 212.58 260.519262 209.78 
L 260.519262 170.08125 
Q 260.519262 167.28125 257.719262 167.28125 
L 146.268324 167.28125 
Q 143.468324 167.28125 143.468324 170.08125 
L 143.468324 209.78 
Q 143.468324 212.58 146.268324 212.58 
z
" style="fill:#ffffff;opacity:0.8;stroke:#cccccc;stroke-linejoin:miter;"/>
    </g>
    <g id="line2d_24">
     <path d="M 149.068324 178.619062 
L 177.068324 178.619062 
" style="fill:none;stroke:#151d3b;stroke-linecap:square;stroke-width:3;"/>
    </g>
    <g id="line2d_25"/>
    <g id="text_12">
     <!-- RL -->
     <g transform="translate(188.268324 183.519062)scale(0.14 -0.14)">
      <defs>
       <path d="M 2841 2188 
Q 3044 2119 3236 1894 
Q 3428 1669 3622 1275 
L 4263 0 
L 3584 0 
L 2988 1197 
Q 2756 1666 2539 1819 
Q 2322 1972 1947 1972 
L 1259 1972 
L 1259 0 
L 628 0 
L 628 4666 
L 2053 4666 
Q 2853 4666 3247 4331 
Q 3641 3997 3641 3322 
Q 3641 2881 3436 2590 
Q 3231 2300 2841 2188 
z
M 1259 4147 
L 1259 2491 
L 2053 2491 
Q 2509 2491 2742 2702 
Q 2975 2913 2975 3322 
Q 2975 3731 2742 3939 
Q 2509 4147 2053 4147 
L 1259 4147 
z
" id="DejaVuSans-52" transform="scale(0.015625)"/>
       <path d="M 628 4666 
L 1259 4666 
L 1259 531 
L 3531 531 
L 3531 0 
L 628 0 
L 628 4666 
z
" id="DejaVuSans-4c" transform="scale(0.015625)"/>
      </defs>
      <use xlink:href="#DejaVuSans-52"/>
      <use x="69.482422" xlink:href="#DejaVuSans-4c"/>
     </g>
    </g>
    <g id="line2d_26">
     <path d="M 149.068324 199.168437 
L 177.068324 199.168437 
" style="fill:none;stroke:#747474;stroke-dasharray:5,3.75;stroke-dashoffset:0;stroke-width:2.5;"/>
    </g>
    <g id="line2d_27"/>
    <g id="text_13">
     <!-- Baselines -->
     <g transform="translate(188.268324 204.068437)scale(0.14 -0.14)">
      <defs>
       <path d="M 1259 2228 
L 1259 519 
L 2272 519 
Q 2781 519 3026 730 
Q 3272 941 3272 1375 
Q 3272 1813 3026 2020 
Q 2781 2228 2272 2228 
L 1259 2228 
z
M 1259 4147 
L 1259 2741 
L 2194 2741 
Q 2656 2741 2882 2914 
Q 3109 3088 3109 3444 
Q 3109 3797 2882 3972 
Q 2656 4147 2194 4147 
L 1259 4147 
z
M 628 4666 
L 2241 4666 
Q 2963 4666 3353 4366 
Q 3744 4066 3744 3513 
Q 3744 3084 3544 2831 
Q 3344 2578 2956 2516 
Q 3422 2416 3680 2098 
Q 3938 1781 3938 1306 
Q 3938 681 3513 340 
Q 3088 0 2303 0 
L 628 0 
L 628 4666 
z
" id="DejaVuSans-42" transform="scale(0.015625)"/>
       <path d="M 2834 3397 
L 2834 2853 
Q 2591 2978 2328 3040 
Q 2066 3103 1784 3103 
Q 1356 3103 1142 2972 
Q 928 2841 928 2578 
Q 928 2378 1081 2264 
Q 1234 2150 1697 2047 
L 1894 2003 
Q 2506 1872 2764 1633 
Q 3022 1394 3022 966 
Q 3022 478 2636 193 
Q 2250 -91 1575 -91 
Q 1294 -91 989 -36 
Q 684 19 347 128 
L 347 722 
Q 666 556 975 473 
Q 1284 391 1588 391 
Q 1994 391 2212 530 
Q 2431 669 2431 922 
Q 2431 1156 2273 1281 
Q 2116 1406 1581 1522 
L 1381 1569 
Q 847 1681 609 1914 
Q 372 2147 372 2553 
Q 372 3047 722 3315 
Q 1072 3584 1716 3584 
Q 2034 3584 2315 3537 
Q 2597 3491 2834 3397 
z
" id="DejaVuSans-73" transform="scale(0.015625)"/>
       <path d="M 603 4863 
L 1178 4863 
L 1178 0 
L 603 0 
L 603 4863 
z
" id="DejaVuSans-6c" transform="scale(0.015625)"/>
      </defs>
      <use xlink:href="#DejaVuSans-42"/>
      <use x="68.603516" xlink:href="#DejaVuSans-61"/>
      <use x="129.882812" xlink:href="#DejaVuSans-73"/>
      <use x="181.982422" xlink:href="#DejaVuSans-65"/>
      <use x="243.505859" xlink:href="#DejaVuSans-6c"/>
      <use x="271.289062" xlink:href="#DejaVuSans-69"/>
      <use x="299.072266" xlink:href="#DejaVuSans-6e"/>
      <use x="362.451172" xlink:href="#DejaVuSans-65"/>
      <use x="423.974609" xlink:href="#DejaVuSans-73"/>
     </g>
    </g>
   </g>
  </g>
 </g>
 <defs>
  <clipPath id="p28a3084021">
   <rect height="224.2" width="215.820811" x="57.14" y="10.8"/>
  </clipPath>
 </defs>
</svg>
