<?xml version="1.0" encoding="utf-8" standalone="no"?>
<!DOCTYPE svg PUBLIC "-//W3C//DTD SVG 1.1//EN"
  "http://www.w3.org/Graphics/SVG/1.1/DTD/svg11.dtd">
<svg height="288pt" version="1.1" viewBox="0 0 288 288" width="288pt" xmlns="http://www.w3.org/2000/svg" xmlns:xlink="http://www.w3.org/1999/xlink">
 <metadata>
  <rdf:RDF xmlns:cc="http://creativecommons.org/ns#" xmlns:dc="http://purl.org/dc/elements/1.1/" xmlns:rdf="http://www.w3.org/1999/02/22-rdf-syntax-ns#">
   <cc:Work>
    <dc:type rdf:resource="http://purl.org/dc/dcmitype/StillImage"/>
    <dc:date>2022-03-28T22:10:00.941550</dc:date>
    <dc:format>image/svg+xml</dc:format>
    <dc:creator>
     <cc:Agent>
      <dc:title>Matplotlib v3.4.1, https://matplotlib.org/</dc:title>
     </cc:Agent>
    </dc:creator>
   </cc:Work>
  </rdf:RDF>
 </metadata>
 <defs>
  <style type="text/css">*{stroke-linecap:butt;stroke-linejoin:round;}</style>
 </defs>
 <g id="figure_1">
  <g id="patch_1">
   <path d="M 0 288 
L 288 288 
L 288 0 
L 0 0 
z
" style="fill:none;"/>
  </g>
  <g id="axes_1">
   <g id="patch_2">
    <path d="M 61.58 235 
L 272.960811 235 
L 272.960811 10.8 
L 61.58 10.8 
z
" style="fill:none;"/>
   </g>
   <g id="matplotlib.axis_1">
    <g id="xtick_1">
     <g id="line2d_1">
      <defs>
       <path d="M 0 0 
L 0 3.5 
" id="m3b59490b52" style="stroke:#000000;stroke-width:0.8;"/>
      </defs>
      <g>
       <use style="stroke:#000000;stroke-width:0.8;" x="71.188219" xlink:href="#m3b59490b52" y="235"/>
      </g>
     </g>
     <g id="text_1">
      <!-- 0 -->
      <g transform="translate(66.734469 252.637812)scale(0.14 -0.14)">
       <defs>
        <path d="M 2034 4250 
Q 1547 4250 1301 3770 
Q 1056 3291 1056 2328 
Q 1056 1369 1301 889 
Q 1547 409 2034 409 
Q 2525 409 2770 889 
Q 3016 1369 3016 2328 
Q 3016 3291 2770 3770 
Q 2525 4250 2034 4250 
z
M 2034 4750 
Q 2819 4750 3233 4129 
Q 3647 3509 3647 2328 
Q 3647 1150 3233 529 
Q 2819 -91 2034 -91 
Q 1250 -91 836 529 
Q 422 1150 422 2328 
Q 422 3509 836 4129 
Q 1250 4750 2034 4750 
z
" id="DejaVuSans-30" transform="scale(0.015625)"/>
       </defs>
       <use xlink:href="#DejaVuSans-30"/>
      </g>
     </g>
    </g>
    <g id="xtick_2">
     <g id="line2d_2">
      <g>
       <use style="stroke:#000000;stroke-width:0.8;" x="119.470725" xlink:href="#m3b59490b52" y="235"/>
      </g>
     </g>
     <g id="text_2">
      <!-- 50 -->
      <g transform="translate(110.563225 252.637812)scale(0.14 -0.14)">
       <defs>
        <path d="M 691 4666 
L 3169 4666 
L 3169 4134 
L 1269 4134 
L 1269 2991 
Q 1406 3038 1543 3061 
Q 1681 3084 1819 3084 
Q 2600 3084 3056 2656 
Q 3513 2228 3513 1497 
Q 3513 744 3044 326 
Q 2575 -91 1722 -91 
Q 1428 -91 1123 -41 
Q 819 9 494 109 
L 494 744 
Q 775 591 1075 516 
Q 1375 441 1709 441 
Q 2250 441 2565 725 
Q 2881 1009 2881 1497 
Q 2881 1984 2565 2268 
Q 2250 2553 1709 2553 
Q 1456 2553 1204 2497 
Q 953 2441 691 2322 
L 691 4666 
z
" id="DejaVuSans-35" transform="scale(0.015625)"/>
       </defs>
       <use xlink:href="#DejaVuSans-35"/>
       <use x="63.623047" xlink:href="#DejaVuSans-30"/>
      </g>
     </g>
    </g>
    <g id="xtick_3">
     <g id="line2d_3">
      <g>
       <use style="stroke:#000000;stroke-width:0.8;" x="167.75323" xlink:href="#m3b59490b52" y="235"/>
      </g>
     </g>
     <g id="text_3">
      <!-- 100 -->
      <g transform="translate(154.39198 252.637812)scale(0.14 -0.14)">
       <defs>
        <path d="M 794 531 
L 1825 531 
L 1825 4091 
L 703 3866 
L 703 4441 
L 1819 4666 
L 2450 4666 
L 2450 531 
L 3481 531 
L 3481 0 
L 794 0 
L 794 531 
z
" id="DejaVuSans-31" transform="scale(0.015625)"/>
       </defs>
       <use xlink:href="#DejaVuSans-31"/>
       <use x="63.623047" xlink:href="#DejaVuSans-30"/>
       <use x="127.246094" xlink:href="#DejaVuSans-30"/>
      </g>
     </g>
    </g>
    <g id="xtick_4">
     <g id="line2d_4">
      <g>
       <use style="stroke:#000000;stroke-width:0.8;" x="216.035736" xlink:href="#m3b59490b52" y="235"/>
      </g>
     </g>
     <g id="text_4">
      <!-- 150 -->
      <g transform="translate(202.674486 252.637812)scale(0.14 -0.14)">
       <use xlink:href="#DejaVuSans-31"/>
       <use x="63.623047" xlink:href="#DejaVuSans-35"/>
       <use x="127.246094" xlink:href="#DejaVuSans-30"/>
      </g>
     </g>
    </g>
    <g id="xtick_5">
     <g id="line2d_5">
      <g>
       <use style="stroke:#000000;stroke-width:0.8;" x="264.318242" xlink:href="#m3b59490b52" y="235"/>
      </g>
     </g>
     <g id="text_5">
      <!-- 200 -->
      <g transform="translate(250.956992 252.637812)scale(0.14 -0.14)">
       <defs>
        <path d="M 1228 531 
L 3431 531 
L 3431 0 
L 469 0 
L 469 531 
Q 828 903 1448 1529 
Q 2069 2156 2228 2338 
Q 2531 2678 2651 2914 
Q 2772 3150 2772 3378 
Q 2772 3750 2511 3984 
Q 2250 4219 1831 4219 
Q 1534 4219 1204 4116 
Q 875 4013 500 3803 
L 500 4441 
Q 881 4594 1212 4672 
Q 1544 4750 1819 4750 
Q 2544 4750 2975 4387 
Q 3406 4025 3406 3419 
Q 3406 3131 3298 2873 
Q 3191 2616 2906 2266 
Q 2828 2175 2409 1742 
Q 1991 1309 1228 531 
z
" id="DejaVuSans-32" transform="scale(0.015625)"/>
       </defs>
       <use xlink:href="#DejaVuSans-32"/>
       <use x="63.623047" xlink:href="#DejaVuSans-30"/>
       <use x="127.246094" xlink:href="#DejaVuSans-30"/>
      </g>
     </g>
    </g>
    <g id="text_6">
     <!-- Time -->
     <g transform="translate(145.249937 273.226562)scale(0.18 -0.18)">
      <defs>
       <path d="M -19 4666 
L 3928 4666 
L 3928 4134 
L 2272 4134 
L 2272 0 
L 1638 0 
L 1638 4134 
L -19 4134 
L -19 4666 
z
" id="DejaVuSans-54" transform="scale(0.015625)"/>
       <path d="M 603 3500 
L 1178 3500 
L 1178 0 
L 603 0 
L 603 3500 
z
M 603 4863 
L 1178 4863 
L 1178 4134 
L 603 4134 
L 603 4863 
z
" id="DejaVuSans-69" transform="scale(0.015625)"/>
       <path d="M 3328 2828 
Q 3544 3216 3844 3400 
Q 4144 3584 4550 3584 
Q 5097 3584 5394 3201 
Q 5691 2819 5691 2113 
L 5691 0 
L 5113 0 
L 5113 2094 
Q 5113 2597 4934 2840 
Q 4756 3084 4391 3084 
Q 3944 3084 3684 2787 
Q 3425 2491 3425 1978 
L 3425 0 
L 2847 0 
L 2847 2094 
Q 2847 2600 2669 2842 
Q 2491 3084 2119 3084 
Q 1678 3084 1418 2786 
Q 1159 2488 1159 1978 
L 1159 0 
L 581 0 
L 581 3500 
L 1159 3500 
L 1159 2956 
Q 1356 3278 1631 3431 
Q 1906 3584 2284 3584 
Q 2666 3584 2933 3390 
Q 3200 3197 3328 2828 
z
" id="DejaVuSans-6d" transform="scale(0.015625)"/>
       <path d="M 3597 1894 
L 3597 1613 
L 953 1613 
Q 991 1019 1311 708 
Q 1631 397 2203 397 
Q 2534 397 2845 478 
Q 3156 559 3463 722 
L 3463 178 
Q 3153 47 2828 -22 
Q 2503 -91 2169 -91 
Q 1331 -91 842 396 
Q 353 884 353 1716 
Q 353 2575 817 3079 
Q 1281 3584 2069 3584 
Q 2775 3584 3186 3129 
Q 3597 2675 3597 1894 
z
M 3022 2063 
Q 3016 2534 2758 2815 
Q 2500 3097 2075 3097 
Q 1594 3097 1305 2825 
Q 1016 2553 972 2059 
L 3022 2063 
z
" id="DejaVuSans-65" transform="scale(0.015625)"/>
      </defs>
      <use xlink:href="#DejaVuSans-54"/>
      <use x="57.958984" xlink:href="#DejaVuSans-69"/>
      <use x="85.742188" xlink:href="#DejaVuSans-6d"/>
      <use x="183.154297" xlink:href="#DejaVuSans-65"/>
     </g>
    </g>
   </g>
   <g id="matplotlib.axis_2">
    <g id="ytick_1">
     <g id="line2d_6">
      <defs>
       <path d="M 0 0 
L -3.5 0 
" id="ma89874679e" style="stroke:#000000;stroke-width:0.8;"/>
      </defs>
      <g>
       <use style="stroke:#000000;stroke-width:0.8;" x="61.58" xlink:href="#ma89874679e" y="188.945011"/>
      </g>
     </g>
     <g id="text_7">
      <!-- 0.2 -->
      <g transform="translate(32.315625 194.263917)scale(0.14 -0.14)">
       <defs>
        <path d="M 684 794 
L 1344 794 
L 1344 0 
L 684 0 
L 684 794 
z
" id="DejaVuSans-2e" transform="scale(0.015625)"/>
       </defs>
       <use xlink:href="#DejaVuSans-30"/>
       <use x="63.623047" xlink:href="#DejaVuSans-2e"/>
       <use x="95.410156" xlink:href="#DejaVuSans-32"/>
      </g>
     </g>
    </g>
    <g id="ytick_2">
     <g id="line2d_7">
      <g>
       <use style="stroke:#000000;stroke-width:0.8;" x="61.58" xlink:href="#ma89874679e" y="142.781325"/>
      </g>
     </g>
     <g id="text_8">
      <!-- 0.4 -->
      <g transform="translate(32.315625 148.100232)scale(0.14 -0.14)">
       <defs>
        <path d="M 2419 4116 
L 825 1625 
L 2419 1625 
L 2419 4116 
z
M 2253 4666 
L 3047 4666 
L 3047 1625 
L 3713 1625 
L 3713 1100 
L 3047 1100 
L 3047 0 
L 2419 0 
L 2419 1100 
L 313 1100 
L 313 1709 
L 2253 4666 
z
" id="DejaVuSans-34" transform="scale(0.015625)"/>
       </defs>
       <use xlink:href="#DejaVuSans-30"/>
       <use x="63.623047" xlink:href="#DejaVuSans-2e"/>
       <use x="95.410156" xlink:href="#DejaVuSans-34"/>
      </g>
     </g>
    </g>
    <g id="ytick_3">
     <g id="line2d_8">
      <g>
       <use style="stroke:#000000;stroke-width:0.8;" x="61.58" xlink:href="#ma89874679e" y="96.61764"/>
      </g>
     </g>
     <g id="text_9">
      <!-- 0.6 -->
      <g transform="translate(32.315625 101.936546)scale(0.14 -0.14)">
       <defs>
        <path d="M 2113 2584 
Q 1688 2584 1439 2293 
Q 1191 2003 1191 1497 
Q 1191 994 1439 701 
Q 1688 409 2113 409 
Q 2538 409 2786 701 
Q 3034 994 3034 1497 
Q 3034 2003 2786 2293 
Q 2538 2584 2113 2584 
z
M 3366 4563 
L 3366 3988 
Q 3128 4100 2886 4159 
Q 2644 4219 2406 4219 
Q 1781 4219 1451 3797 
Q 1122 3375 1075 2522 
Q 1259 2794 1537 2939 
Q 1816 3084 2150 3084 
Q 2853 3084 3261 2657 
Q 3669 2231 3669 1497 
Q 3669 778 3244 343 
Q 2819 -91 2113 -91 
Q 1303 -91 875 529 
Q 447 1150 447 2328 
Q 447 3434 972 4092 
Q 1497 4750 2381 4750 
Q 2619 4750 2861 4703 
Q 3103 4656 3366 4563 
z
" id="DejaVuSans-36" transform="scale(0.015625)"/>
       </defs>
       <use xlink:href="#DejaVuSans-30"/>
       <use x="63.623047" xlink:href="#DejaVuSans-2e"/>
       <use x="95.410156" xlink:href="#DejaVuSans-36"/>
      </g>
     </g>
    </g>
    <g id="ytick_4">
     <g id="line2d_9">
      <g>
       <use style="stroke:#000000;stroke-width:0.8;" x="61.58" xlink:href="#ma89874679e" y="50.453954"/>
      </g>
     </g>
     <g id="text_10">
      <!-- 0.8 -->
      <g transform="translate(32.315625 55.77286)scale(0.14 -0.14)">
       <defs>
        <path d="M 2034 2216 
Q 1584 2216 1326 1975 
Q 1069 1734 1069 1313 
Q 1069 891 1326 650 
Q 1584 409 2034 409 
Q 2484 409 2743 651 
Q 3003 894 3003 1313 
Q 3003 1734 2745 1975 
Q 2488 2216 2034 2216 
z
M 1403 2484 
Q 997 2584 770 2862 
Q 544 3141 544 3541 
Q 544 4100 942 4425 
Q 1341 4750 2034 4750 
Q 2731 4750 3128 4425 
Q 3525 4100 3525 3541 
Q 3525 3141 3298 2862 
Q 3072 2584 2669 2484 
Q 3125 2378 3379 2068 
Q 3634 1759 3634 1313 
Q 3634 634 3220 271 
Q 2806 -91 2034 -91 
Q 1263 -91 848 271 
Q 434 634 434 1313 
Q 434 1759 690 2068 
Q 947 2378 1403 2484 
z
M 1172 3481 
Q 1172 3119 1398 2916 
Q 1625 2713 2034 2713 
Q 2441 2713 2670 2916 
Q 2900 3119 2900 3481 
Q 2900 3844 2670 4047 
Q 2441 4250 2034 4250 
Q 1625 4250 1398 4047 
Q 1172 3844 1172 3481 
z
" id="DejaVuSans-38" transform="scale(0.015625)"/>
       </defs>
       <use xlink:href="#DejaVuSans-30"/>
       <use x="63.623047" xlink:href="#DejaVuSans-2e"/>
       <use x="95.410156" xlink:href="#DejaVuSans-38"/>
      </g>
     </g>
    </g>
    <g id="text_11">
     <!-- Mean Payoff -->
     <g transform="translate(24.572188 177.989844)rotate(-90)scale(0.18 -0.18)">
      <defs>
       <path d="M 628 4666 
L 1569 4666 
L 2759 1491 
L 3956 4666 
L 4897 4666 
L 4897 0 
L 4281 0 
L 4281 4097 
L 3078 897 
L 2444 897 
L 1241 4097 
L 1241 0 
L 628 0 
L 628 4666 
z
" id="DejaVuSans-4d" transform="scale(0.015625)"/>
       <path d="M 2194 1759 
Q 1497 1759 1228 1600 
Q 959 1441 959 1056 
Q 959 750 1161 570 
Q 1363 391 1709 391 
Q 2188 391 2477 730 
Q 2766 1069 2766 1631 
L 2766 1759 
L 2194 1759 
z
M 3341 1997 
L 3341 0 
L 2766 0 
L 2766 531 
Q 2569 213 2275 61 
Q 1981 -91 1556 -91 
Q 1019 -91 701 211 
Q 384 513 384 1019 
Q 384 1609 779 1909 
Q 1175 2209 1959 2209 
L 2766 2209 
L 2766 2266 
Q 2766 2663 2505 2880 
Q 2244 3097 1772 3097 
Q 1472 3097 1187 3025 
Q 903 2953 641 2809 
L 641 3341 
Q 956 3463 1253 3523 
Q 1550 3584 1831 3584 
Q 2591 3584 2966 3190 
Q 3341 2797 3341 1997 
z
" id="DejaVuSans-61" transform="scale(0.015625)"/>
       <path d="M 3513 2113 
L 3513 0 
L 2938 0 
L 2938 2094 
Q 2938 2591 2744 2837 
Q 2550 3084 2163 3084 
Q 1697 3084 1428 2787 
Q 1159 2491 1159 1978 
L 1159 0 
L 581 0 
L 581 3500 
L 1159 3500 
L 1159 2956 
Q 1366 3272 1645 3428 
Q 1925 3584 2291 3584 
Q 2894 3584 3203 3211 
Q 3513 2838 3513 2113 
z
" id="DejaVuSans-6e" transform="scale(0.015625)"/>
       <path id="DejaVuSans-20" transform="scale(0.015625)"/>
       <path d="M 1259 4147 
L 1259 2394 
L 2053 2394 
Q 2494 2394 2734 2622 
Q 2975 2850 2975 3272 
Q 2975 3691 2734 3919 
Q 2494 4147 2053 4147 
L 1259 4147 
z
M 628 4666 
L 2053 4666 
Q 2838 4666 3239 4311 
Q 3641 3956 3641 3272 
Q 3641 2581 3239 2228 
Q 2838 1875 2053 1875 
L 1259 1875 
L 1259 0 
L 628 0 
L 628 4666 
z
" id="DejaVuSans-50" transform="scale(0.015625)"/>
       <path d="M 2059 -325 
Q 1816 -950 1584 -1140 
Q 1353 -1331 966 -1331 
L 506 -1331 
L 506 -850 
L 844 -850 
Q 1081 -850 1212 -737 
Q 1344 -625 1503 -206 
L 1606 56 
L 191 3500 
L 800 3500 
L 1894 763 
L 2988 3500 
L 3597 3500 
L 2059 -325 
z
" id="DejaVuSans-79" transform="scale(0.015625)"/>
       <path d="M 1959 3097 
Q 1497 3097 1228 2736 
Q 959 2375 959 1747 
Q 959 1119 1226 758 
Q 1494 397 1959 397 
Q 2419 397 2687 759 
Q 2956 1122 2956 1747 
Q 2956 2369 2687 2733 
Q 2419 3097 1959 3097 
z
M 1959 3584 
Q 2709 3584 3137 3096 
Q 3566 2609 3566 1747 
Q 3566 888 3137 398 
Q 2709 -91 1959 -91 
Q 1206 -91 779 398 
Q 353 888 353 1747 
Q 353 2609 779 3096 
Q 1206 3584 1959 3584 
z
" id="DejaVuSans-6f" transform="scale(0.015625)"/>
       <path d="M 2375 4863 
L 2375 4384 
L 1825 4384 
Q 1516 4384 1395 4259 
Q 1275 4134 1275 3809 
L 1275 3500 
L 2222 3500 
L 2222 3053 
L 1275 3053 
L 1275 0 
L 697 0 
L 697 3053 
L 147 3053 
L 147 3500 
L 697 3500 
L 697 3744 
Q 697 4328 969 4595 
Q 1241 4863 1831 4863 
L 2375 4863 
z
" id="DejaVuSans-66" transform="scale(0.015625)"/>
      </defs>
      <use xlink:href="#DejaVuSans-4d"/>
      <use x="86.279297" xlink:href="#DejaVuSans-65"/>
      <use x="147.802734" xlink:href="#DejaVuSans-61"/>
      <use x="209.082031" xlink:href="#DejaVuSans-6e"/>
      <use x="272.460938" xlink:href="#DejaVuSans-20"/>
      <use x="304.248047" xlink:href="#DejaVuSans-50"/>
      <use x="360.050781" xlink:href="#DejaVuSans-61"/>
      <use x="421.330078" xlink:href="#DejaVuSans-79"/>
      <use x="480.509766" xlink:href="#DejaVuSans-6f"/>
      <use x="541.691406" xlink:href="#DejaVuSans-66"/>
      <use x="576.896484" xlink:href="#DejaVuSans-66"/>
     </g>
    </g>
   </g>
   <g id="line2d_10">
    <path clip-path="url(#pe02f9df5b2)" d="M 71.188219 214.266482 
L 72.153869 200.964016 
L 75.050819 153.439902 
L 76.016469 139.983115 
L 76.982119 128.404405 
L 77.94777 118.538031 
L 78.91342 110.27834 
L 79.87907 103.412843 
L 80.84472 97.857794 
L 81.81037 93.363215 
L 82.77602 89.669163 
L 83.74167 86.481868 
L 85.67297 81.270766 
L 87.604271 77.125718 
L 89.535571 73.709011 
L 91.466871 70.689286 
L 94.363822 66.777806 
L 96.295122 64.531286 
L 99.192072 61.579402 
L 102.089022 59.011623 
L 105.951623 55.865918 
L 108.848573 53.772647 
L 113.676824 50.85989 
L 122.367675 46.392359 
L 125.264625 45.156532 
L 137.818077 40.589531 
L 146.508928 37.90869 
L 151.337178 36.559705 
L 160.02803 34.489933 
L 182.237982 30.116684 
L 190.928833 28.757078 
L 198.654034 27.620006 
L 210.241836 26.237933 
L 225.692238 24.612416 
L 233.417439 23.842843 
L 245.97089 22.494147 
L 253.696091 21.695476 
L 263.352592 20.990909 
L 263.352592 20.990909 
" style="fill:none;stroke:#151d3b;stroke-linecap:square;stroke-width:3;"/>
   </g>
   <g id="line2d_11">
    <path clip-path="url(#pe02f9df5b2)" d="M 71.188219 211.749445 
L 73.119519 173.343453 
L 74.085169 160.641339 
L 75.050819 157.841465 
L 76.016469 157.65786 
L 82.77602 157.640676 
L 263.352592 157.640676 
L 263.352592 157.640676 
" style="fill:none;stroke:#98042d;stroke-dasharray:4,3;stroke-dashoffset:0;stroke-width:2;"/>
   </g>
   <g id="line2d_12">
    <path clip-path="url(#pe02f9df5b2)" d="M 71.188219 210.739413 
L 72.153869 190.473023 
L 73.119519 167.668285 
L 74.085169 148.842696 
L 75.050819 134.593394 
L 76.016469 122.230205 
L 76.982119 113.388426 
L 77.94777 107.759704 
L 78.91342 104.170089 
L 79.87907 102.085843 
L 80.84472 100.854227 
L 81.81037 100.229139 
L 82.77602 99.924691 
L 84.70732 99.759927 
L 90.501221 99.733278 
L 263.352592 99.733278 
L 263.352592 99.733278 
" style="fill:none;stroke:#ff0f39;stroke-dasharray:4,3;stroke-dashoffset:0;stroke-width:2;"/>
   </g>
   <g id="line2d_13">
    <path clip-path="url(#pe02f9df5b2)" d="M 71.188219 211.154621 
L 74.085169 154.225042 
L 76.016469 133.871554 
L 76.982119 124.628762 
L 77.94777 117.467505 
L 78.91342 111.900762 
L 79.87907 107.62075 
L 80.84472 104.448038 
L 82.77602 99.811505 
L 83.74167 98.006448 
L 84.70732 96.442442 
L 86.638621 94.021707 
L 88.569921 92.239184 
L 90.501221 90.794514 
L 94.363822 88.428026 
L 96.295122 87.635409 
L 100.157722 86.472623 
L 103.054673 85.713987 
L 104.985973 85.079104 
L 108.848573 84.155347 
L 113.676824 83.268956 
L 117.539424 82.599155 
L 130.092876 80.57012 
L 134.921126 79.739682 
L 151.337178 77.649466 
L 160.99368 76.835359 
L 169.684531 76.276088 
L 173.547131 75.932114 
L 182.237982 75.160409 
L 194.791434 74.3512 
L 215.070086 73.340369 
L 221.829637 73.026924 
L 238.245689 72.236137 
L 245.00524 71.977338 
L 251.764791 71.610567 
L 260.455642 71.272454 
L 263.352592 71.20727 
L 263.352592 71.20727 
" style="fill:none;stroke:#f16745;stroke-dasharray:4,3;stroke-dashoffset:0;stroke-width:2;"/>
   </g>
   <g id="line2d_14">
    <path clip-path="url(#pe02f9df5b2)" d="M 71.188219 211.055842 
L 73.119519 171.179006 
L 74.085169 156.566683 
L 75.050819 150.115806 
L 76.982119 139.972934 
L 78.91342 128.710042 
L 79.87907 123.951332 
L 80.84472 119.943499 
L 82.77602 113.257314 
L 84.70732 107.424137 
L 86.638621 102.655955 
L 88.569921 98.42686 
L 90.501221 94.709654 
L 93.398171 89.950649 
L 95.329472 87.227681 
L 98.226422 83.501065 
L 102.089022 79.036353 
L 104.985973 75.980212 
L 106.917273 74.16606 
L 112.711174 69.104121 
L 118.505074 65.264924 
L 121.402025 63.549168 
L 127.195926 60.096677 
L 130.092876 58.379464 
L 132.024176 57.486565 
L 134.921126 56.364915 
L 137.818077 55.195498 
L 139.749377 54.369215 
L 148.440228 51.226441 
L 150.371528 50.695374 
L 153.268479 49.745917 
L 159.062379 48.098263 
L 162.92498 47.06066 
L 165.82193 46.247172 
L 167.75323 45.623515 
L 179.341032 42.671121 
L 182.237982 42.020953 
L 217.967037 34.724271 
L 222.795287 33.824067 
L 227.623538 33.070068 
L 233.417439 32.110623 
L 243.07394 30.398307 
L 250.799141 29.332583 
L 254.661741 28.814008 
L 263.352592 27.92726 
L 263.352592 27.92726 
" style="fill:none;stroke:#ffc65d;stroke-dasharray:4,3;stroke-dashoffset:0;stroke-width:2;"/>
   </g>
   <g id="line2d_15">
    <path clip-path="url(#pe02f9df5b2)" d="M 71.188219 224.809091 
L 93.398171 224.698137 
L 118.505074 224.409519 
L 148.440228 224.229315 
L 263.352592 224.166577 
L 263.352592 224.166577 
" style="fill:none;stroke:#3a6351;stroke-dasharray:4,3;stroke-dashoffset:0;stroke-width:2;"/>
   </g>
   <g id="line2d_16">
    <path clip-path="url(#pe02f9df5b2)" d="M 71.188219 220.555617 
L 73.119519 212.701348 
L 75.050819 205.905482 
L 76.982119 200.029862 
L 78.91342 194.920014 
L 80.84472 190.377134 
L 82.77602 186.342892 
L 84.70732 182.701595 
L 87.604271 177.756889 
L 94.363822 166.715739 
L 97.260772 161.145351 
L 99.192072 156.878354 
L 101.123372 152.150881 
L 103.054673 146.9141 
L 105.951623 138.260591 
L 109.814223 125.847054 
L 114.642474 110.024935 
L 116.573774 104.124192 
L 119.470725 96.061432 
L 121.402025 91.211666 
L 123.333325 86.880763 
L 125.264625 83.00625 
L 128.161576 77.983107 
L 130.092876 75.0184 
L 132.989826 71.237207 
L 134.921126 69.020157 
L 138.783727 65.115747 
L 140.715027 63.533402 
L 143.611978 61.460287 
L 145.543278 60.31855 
L 149.405878 58.479676 
L 153.268479 56.899078 
L 157.131079 55.630246 
L 161.95933 54.208015 
L 164.85628 53.644796 
L 176.444082 52.015825 
L 181.272332 51.593596 
L 190.928833 51.025067 
L 207.344885 50.613969 
L 226.657888 50.330708 
L 263.352592 50.216628 
L 263.352592 50.216628 
" style="fill:none;stroke:#019267;stroke-dasharray:4,3;stroke-dashoffset:0;stroke-width:2;"/>
   </g>
   <g id="line2d_17">
    <path clip-path="url(#pe02f9df5b2)" d="M 71.188219 221.808461 
L 73.119519 216.402528 
L 75.050819 211.616428 
L 76.982119 207.387325 
L 78.91342 203.572106 
L 81.81037 198.496226 
L 84.70732 194.006104 
L 87.604271 189.923077 
L 92.432521 183.69594 
L 97.260772 177.391955 
L 102.089022 170.538585 
L 104.985973 165.86483 
L 108.848573 159.011838 
L 111.745524 153.062387 
L 116.573774 142.61936 
L 120.436375 133.55167 
L 132.024176 106.207365 
L 134.921126 100.118402 
L 138.783727 92.776552 
L 141.680677 87.838777 
L 145.543278 82.059751 
L 147.474578 79.508481 
L 150.371528 76.181819 
L 153.268479 73.353797 
L 157.131079 69.90502 
L 160.02803 67.775993 
L 162.92498 65.976494 
L 168.718881 62.540415 
L 171.615831 61.031262 
L 174.512781 59.946524 
L 179.341032 58.395849 
L 184.169283 57.008164 
L 189.963183 55.656138 
L 193.825784 54.940345 
L 213.138786 51.965733 
L 217.001387 51.519896 
L 224.726587 50.813086 
L 234.383089 49.970005 
L 245.97089 49.281672 
L 263.352592 48.341626 
L 263.352592 48.341626 
" style="fill:none;stroke:#00c897;stroke-dasharray:4,3;stroke-dashoffset:0;stroke-width:2;"/>
   </g>
   <g id="line2d_18">
    <path clip-path="url(#pe02f9df5b2)" d="M 71.188219 219.109479 
L 72.153869 215.004305 
L 73.119519 211.751939 
L 74.085169 209.027582 
L 76.016469 204.588192 
L 77.94777 201.020637 
L 79.87907 198.038843 
L 81.81037 195.431723 
L 83.74167 193.114781 
L 86.638621 190.03456 
L 90.501221 186.358101 
L 104.985973 172.994382 
L 110.779874 166.897329 
L 115.608124 161.520968 
L 133.955476 141.789933 
L 136.852427 138.829842 
L 140.715027 135.235212 
L 152.302829 124.716056 
L 157.131079 120.92951 
L 162.92498 116.83796 
L 168.718881 112.795958 
L 173.547131 109.799498 
L 190.928833 99.955633 
L 196.722734 96.899945 
L 205.413585 92.493072 
L 209.276186 90.787621 
L 213.138786 89.195356 
L 217.001387 87.627305 
L 225.692238 84.164537 
L 232.451788 81.631139 
L 241.142639 78.913193 
L 246.93654 77.086783 
L 259.489992 72.929065 
L 263.352592 71.840984 
L 263.352592 71.840984 
" style="fill:none;stroke:#85c88a;stroke-dasharray:4,3;stroke-dashoffset:0;stroke-width:2;"/>
   </g>
   <g id="line2d_19">
    <path clip-path="url(#pe02f9df5b2)" d="M 71.188219 220.553911 
L 73.119519 212.712534 
L 75.050819 205.948142 
L 76.982119 200.093072 
L 78.91342 194.994114 
L 80.84472 190.533829 
L 82.77602 186.584094 
L 84.70732 183.063619 
L 86.638621 179.933171 
L 88.569921 177.08186 
L 90.501221 174.497978 
L 92.432521 172.193194 
L 95.329472 169.113671 
L 98.226422 166.435423 
L 101.123372 164.132648 
L 104.020323 162.128287 
L 106.917273 160.349046 
L 110.779874 158.358684 
L 114.642474 156.662555 
L 118.505074 155.2428 
L 122.367675 154.048921 
L 127.195926 152.798195 
L 132.024176 151.789868 
L 137.818077 150.85194 
L 144.577628 150.025802 
L 152.302829 149.358209 
L 161.95933 148.771286 
L 171.615831 148.401138 
L 188.031883 148.060252 
L 210.241836 147.876028 
L 254.661741 147.788803 
L 263.352592 147.785137 
L 263.352592 147.785137 
" style="fill:none;stroke:#495371;stroke-dasharray:4,3;stroke-dashoffset:0;stroke-width:2;"/>
   </g>
   <g id="line2d_20">
    <path clip-path="url(#pe02f9df5b2)" d="M 71.188219 221.80718 
L 73.119519 216.368052 
L 75.050819 211.60534 
L 76.982119 207.39139 
L 78.91342 203.578696 
L 80.84472 200.094087 
L 83.74167 195.483535 
L 86.638621 191.391906 
L 89.535571 187.729315 
L 92.432521 184.382082 
L 95.329472 181.362031 
L 99.192072 177.745807 
L 103.054673 174.458052 
L 106.917273 171.465699 
L 110.779874 168.745524 
L 113.676824 166.864544 
L 119.470725 163.457275 
L 124.298975 160.911694 
L 129.127226 158.612441 
L 134.921126 156.121287 
L 142.646327 153.167462 
L 150.371528 150.594194 
L 156.165429 148.858105 
L 163.89063 146.77994 
L 173.547131 144.468594 
L 186.100583 141.911277 
L 196.722734 140.025503 
L 209.276186 138.080493 
L 223.760937 136.163757 
L 238.245689 134.51245 
L 263.352592 132.071106 
L 263.352592 132.071106 
" style="fill:none;stroke:#488fb1;stroke-dasharray:4,3;stroke-dashoffset:0;stroke-width:2;"/>
   </g>
   <g id="line2d_21">
    <path clip-path="url(#pe02f9df5b2)" d="M 71.188219 219.112069 
L 72.153869 214.995344 
L 73.119519 211.738929 
L 74.085169 209.015239 
L 75.050819 206.663797 
L 76.982119 202.765359 
L 78.91342 199.542758 
L 80.84472 196.809913 
L 82.77602 194.415025 
L 84.70732 192.277929 
L 87.604271 189.453205 
L 90.501221 186.966377 
L 93.398171 184.749382 
L 97.260772 182.121072 
L 101.123372 179.781821 
L 105.951623 177.142876 
L 109.814223 175.25664 
L 114.642474 173.100937 
L 122.367675 170.063822 
L 129.127226 167.710879 
L 134.921126 165.812468 
L 140.715027 164.075979 
L 147.474578 162.223017 
L 156.165429 160.003394 
L 162.92498 158.4307 
L 178.375382 155.180607 
L 192.860134 152.489895 
L 210.241836 149.604179 
L 222.795287 147.700471 
L 236.314389 145.814497 
L 253.696091 143.567984 
L 263.352592 142.398457 
L 263.352592 142.398457 
" style="fill:none;stroke:#2fa4ff;stroke-dasharray:4,3;stroke-dashoffset:0;stroke-width:2;"/>
   </g>
   <g id="line2d_22">
    <path clip-path="url(#pe02f9df5b2)" d="M 71.188219 219.118236 
L 72.153869 211.85996 
L 74.085169 193.602139 
L 76.016469 174.381731 
L 76.982119 166.985373 
L 77.94777 162.124862 
L 78.91342 159.547026 
L 79.87907 158.385292 
L 80.84472 157.917044 
L 81.81037 157.736837 
L 84.70732 157.641653 
L 194.791434 157.640676 
L 263.352592 157.640676 
L 263.352592 157.640676 
" style="fill:none;stroke:#8267be;stroke-dasharray:4,3;stroke-dashoffset:0;stroke-width:2;"/>
   </g>
   <g id="line2d_23"/>
   <g id="patch_3">
    <path d="M 61.58 235 
L 61.58 10.8 
" style="fill:none;stroke:#000000;stroke-linecap:square;stroke-linejoin:miter;stroke-width:0.8;"/>
   </g>
   <g id="patch_4">
    <path d="M 272.960811 235 
L 272.960811 10.8 
" style="fill:none;stroke:#000000;stroke-linecap:square;stroke-linejoin:miter;stroke-width:0.8;"/>
   </g>
   <g id="patch_5">
    <path d="M 61.58 235 
L 272.960811 235 
" style="fill:none;stroke:#000000;stroke-linecap:square;stroke-linejoin:miter;stroke-width:0.8;"/>
   </g>
   <g id="patch_6">
    <path d="M 61.58 10.8 
L 272.960811 10.8 
" style="fill:none;stroke:#000000;stroke-linecap:square;stroke-linejoin:miter;stroke-width:0.8;"/>
   </g>
   <g id="legend_1">
    <g id="patch_7">
     <path d="M 148.932324 212.58 
L 260.383262 212.58 
Q 263.183262 212.58 263.183262 209.78 
L 263.183262 170.08125 
Q 263.183262 167.28125 260.383262 167.28125 
L 148.932324 167.28125 
Q 146.132324 167.28125 146.132324 170.08125 
L 146.132324 209.78 
Q 146.132324 212.58 148.932324 212.58 
z
" style="fill:#ffffff;opacity:0.8;stroke:#cccccc;stroke-linejoin:miter;"/>
    </g>
    <g id="line2d_24">
     <path d="M 151.732324 178.619062 
L 179.732324 178.619062 
" style="fill:none;stroke:#151d3b;stroke-linecap:square;stroke-width:3;"/>
    </g>
    <g id="line2d_25"/>
    <g id="text_12">
     <!-- RL -->
     <g transform="translate(190.932324 183.519062)scale(0.14 -0.14)">
      <defs>
       <path d="M 2841 2188 
Q 3044 2119 3236 1894 
Q 3428 1669 3622 1275 
L 4263 0 
L 3584 0 
L 2988 1197 
Q 2756 1666 2539 1819 
Q 2322 1972 1947 1972 
L 1259 1972 
L 1259 0 
L 628 0 
L 628 4666 
L 2053 4666 
Q 2853 4666 3247 4331 
Q 3641 3997 3641 3322 
Q 3641 2881 3436 2590 
Q 3231 2300 2841 2188 
z
M 1259 4147 
L 1259 2491 
L 2053 2491 
Q 2509 2491 2742 2702 
Q 2975 2913 2975 3322 
Q 2975 3731 2742 3939 
Q 2509 4147 2053 4147 
L 1259 4147 
z
" id="DejaVuSans-52" transform="scale(0.015625)"/>
       <path d="M 628 4666 
L 1259 4666 
L 1259 531 
L 3531 531 
L 3531 0 
L 628 0 
L 628 4666 
z
" id="DejaVuSans-4c" transform="scale(0.015625)"/>
      </defs>
      <use xlink:href="#DejaVuSans-52"/>
      <use x="69.482422" xlink:href="#DejaVuSans-4c"/>
     </g>
    </g>
    <g id="line2d_26">
     <path d="M 151.732324 199.168437 
L 179.732324 199.168437 
" style="fill:none;stroke:#747474;stroke-dasharray:5,3.75;stroke-dashoffset:0;stroke-width:2.5;"/>
    </g>
    <g id="line2d_27"/>
    <g id="text_13">
     <!-- Baselines -->
     <g transform="translate(190.932324 204.068437)scale(0.14 -0.14)">
      <defs>
       <path d="M 1259 2228 
L 1259 519 
L 2272 519 
Q 2781 519 3026 730 
Q 3272 941 3272 1375 
Q 3272 1813 3026 2020 
Q 2781 2228 2272 2228 
L 1259 2228 
z
M 1259 4147 
L 1259 2741 
L 2194 2741 
Q 2656 2741 2882 2914 
Q 3109 3088 3109 3444 
Q 3109 3797 2882 3972 
Q 2656 4147 2194 4147 
L 1259 4147 
z
M 628 4666 
L 2241 4666 
Q 2963 4666 3353 4366 
Q 3744 4066 3744 3513 
Q 3744 3084 3544 2831 
Q 3344 2578 2956 2516 
Q 3422 2416 3680 2098 
Q 3938 1781 3938 1306 
Q 3938 681 3513 340 
Q 3088 0 2303 0 
L 628 0 
L 628 4666 
z
" id="DejaVuSans-42" transform="scale(0.015625)"/>
       <path d="M 2834 3397 
L 2834 2853 
Q 2591 2978 2328 3040 
Q 2066 3103 1784 3103 
Q 1356 3103 1142 2972 
Q 928 2841 928 2578 
Q 928 2378 1081 2264 
Q 1234 2150 1697 2047 
L 1894 2003 
Q 2506 1872 2764 1633 
Q 3022 1394 3022 966 
Q 3022 478 2636 193 
Q 2250 -91 1575 -91 
Q 1294 -91 989 -36 
Q 684 19 347 128 
L 347 722 
Q 666 556 975 473 
Q 1284 391 1588 391 
Q 1994 391 2212 530 
Q 2431 669 2431 922 
Q 2431 1156 2273 1281 
Q 2116 1406 1581 1522 
L 1381 1569 
Q 847 1681 609 1914 
Q 372 2147 372 2553 
Q 372 3047 722 3315 
Q 1072 3584 1716 3584 
Q 2034 3584 2315 3537 
Q 2597 3491 2834 3397 
z
" id="DejaVuSans-73" transform="scale(0.015625)"/>
       <path d="M 603 4863 
L 1178 4863 
L 1178 0 
L 603 0 
L 603 4863 
z
" id="DejaVuSans-6c" transform="scale(0.015625)"/>
      </defs>
      <use xlink:href="#DejaVuSans-42"/>
      <use x="68.603516" xlink:href="#DejaVuSans-61"/>
      <use x="129.882812" xlink:href="#DejaVuSans-73"/>
      <use x="181.982422" xlink:href="#DejaVuSans-65"/>
      <use x="243.505859" xlink:href="#DejaVuSans-6c"/>
      <use x="271.289062" xlink:href="#DejaVuSans-69"/>
      <use x="299.072266" xlink:href="#DejaVuSans-6e"/>
      <use x="362.451172" xlink:href="#DejaVuSans-65"/>
      <use x="423.974609" xlink:href="#DejaVuSans-73"/>
     </g>
    </g>
   </g>
  </g>
 </g>
 <defs>
  <clipPath id="pe02f9df5b2">
   <rect height="224.2" width="211.380811" x="61.58" y="10.8"/>
  </clipPath>
 </defs>
</svg>
