<?xml version="1.0" encoding="utf-8" standalone="no"?>
<!DOCTYPE svg PUBLIC "-//W3C//DTD SVG 1.1//EN"
  "http://www.w3.org/Graphics/SVG/1.1/DTD/svg11.dtd">
<svg height="288pt" version="1.1" viewBox="0 0 288 288" width="288pt" xmlns="http://www.w3.org/2000/svg" xmlns:xlink="http://www.w3.org/1999/xlink">
 <metadata>
  <rdf:RDF xmlns:cc="http://creativecommons.org/ns#" xmlns:dc="http://purl.org/dc/elements/1.1/" xmlns:rdf="http://www.w3.org/1999/02/22-rdf-syntax-ns#">
   <cc:Work>
    <dc:type rdf:resource="http://purl.org/dc/dcmitype/StillImage"/>
    <dc:date>2022-03-27T17:05:21.410156</dc:date>
    <dc:format>image/svg+xml</dc:format>
    <dc:creator>
     <cc:Agent>
      <dc:title>Matplotlib v3.4.1, https://matplotlib.org/</dc:title>
     </cc:Agent>
    </dc:creator>
   </cc:Work>
  </rdf:RDF>
 </metadata>
 <defs>
  <style type="text/css">*{stroke-linecap:butt;stroke-linejoin:round;}</style>
 </defs>
 <g id="figure_1">
  <g id="patch_1">
   <path d="M 0 288 
L 288 288 
L 288 0 
L 0 0 
z
" style="fill:none;"/>
  </g>
  <g id="axes_1">
   <g id="patch_2">
    <path d="M 61.58 235 
L 273.47191 235 
L 273.47191 10.8 
L 61.58 10.8 
z
" style="fill:none;"/>
   </g>
   <g id="matplotlib.axis_1">
    <g id="xtick_1">
     <g id="line2d_1">
      <defs>
       <path d="M 0 0 
L 0 3.5 
" id="m34e49bc8f5" style="stroke:#000000;stroke-width:0.8;"/>
      </defs>
      <g>
       <use style="stroke:#000000;stroke-width:0.8;" x="71.21145" xlink:href="#m34e49bc8f5" y="235"/>
      </g>
     </g>
     <g id="text_1">
      <!-- 0 -->
      <g transform="translate(66.7577 252.637812)scale(0.14 -0.14)">
       <defs>
        <path d="M 2034 4250 
Q 1547 4250 1301 3770 
Q 1056 3291 1056 2328 
Q 1056 1369 1301 889 
Q 1547 409 2034 409 
Q 2525 409 2770 889 
Q 3016 1369 3016 2328 
Q 3016 3291 2770 3770 
Q 2525 4250 2034 4250 
z
M 2034 4750 
Q 2819 4750 3233 4129 
Q 3647 3509 3647 2328 
Q 3647 1150 3233 529 
Q 2819 -91 2034 -91 
Q 1250 -91 836 529 
Q 422 1150 422 2328 
Q 422 3509 836 4129 
Q 1250 4750 2034 4750 
z
" id="DejaVuSans-30" transform="scale(0.015625)"/>
       </defs>
       <use xlink:href="#DejaVuSans-30"/>
      </g>
     </g>
    </g>
    <g id="xtick_2">
     <g id="line2d_2">
      <g>
       <use style="stroke:#000000;stroke-width:0.8;" x="119.489398" xlink:href="#m34e49bc8f5" y="235"/>
      </g>
     </g>
     <g id="text_2">
      <!-- 100 -->
      <g transform="translate(106.128148 252.637812)scale(0.14 -0.14)">
       <defs>
        <path d="M 794 531 
L 1825 531 
L 1825 4091 
L 703 3866 
L 703 4441 
L 1819 4666 
L 2450 4666 
L 2450 531 
L 3481 531 
L 3481 0 
L 794 0 
L 794 531 
z
" id="DejaVuSans-31" transform="scale(0.015625)"/>
       </defs>
       <use xlink:href="#DejaVuSans-31"/>
       <use x="63.623047" xlink:href="#DejaVuSans-30"/>
       <use x="127.246094" xlink:href="#DejaVuSans-30"/>
      </g>
     </g>
    </g>
    <g id="xtick_3">
     <g id="line2d_3">
      <g>
       <use style="stroke:#000000;stroke-width:0.8;" x="167.767345" xlink:href="#m34e49bc8f5" y="235"/>
      </g>
     </g>
     <g id="text_3">
      <!-- 200 -->
      <g transform="translate(154.406095 252.637812)scale(0.14 -0.14)">
       <defs>
        <path d="M 1228 531 
L 3431 531 
L 3431 0 
L 469 0 
L 469 531 
Q 828 903 1448 1529 
Q 2069 2156 2228 2338 
Q 2531 2678 2651 2914 
Q 2772 3150 2772 3378 
Q 2772 3750 2511 3984 
Q 2250 4219 1831 4219 
Q 1534 4219 1204 4116 
Q 875 4013 500 3803 
L 500 4441 
Q 881 4594 1212 4672 
Q 1544 4750 1819 4750 
Q 2544 4750 2975 4387 
Q 3406 4025 3406 3419 
Q 3406 3131 3298 2873 
Q 3191 2616 2906 2266 
Q 2828 2175 2409 1742 
Q 1991 1309 1228 531 
z
" id="DejaVuSans-32" transform="scale(0.015625)"/>
       </defs>
       <use xlink:href="#DejaVuSans-32"/>
       <use x="63.623047" xlink:href="#DejaVuSans-30"/>
       <use x="127.246094" xlink:href="#DejaVuSans-30"/>
      </g>
     </g>
    </g>
    <g id="xtick_4">
     <g id="line2d_4">
      <g>
       <use style="stroke:#000000;stroke-width:0.8;" x="216.045292" xlink:href="#m34e49bc8f5" y="235"/>
      </g>
     </g>
     <g id="text_4">
      <!-- 300 -->
      <g transform="translate(202.684042 252.637812)scale(0.14 -0.14)">
       <defs>
        <path d="M 2597 2516 
Q 3050 2419 3304 2112 
Q 3559 1806 3559 1356 
Q 3559 666 3084 287 
Q 2609 -91 1734 -91 
Q 1441 -91 1130 -33 
Q 819 25 488 141 
L 488 750 
Q 750 597 1062 519 
Q 1375 441 1716 441 
Q 2309 441 2620 675 
Q 2931 909 2931 1356 
Q 2931 1769 2642 2001 
Q 2353 2234 1838 2234 
L 1294 2234 
L 1294 2753 
L 1863 2753 
Q 2328 2753 2575 2939 
Q 2822 3125 2822 3475 
Q 2822 3834 2567 4026 
Q 2313 4219 1838 4219 
Q 1578 4219 1281 4162 
Q 984 4106 628 3988 
L 628 4550 
Q 988 4650 1302 4700 
Q 1616 4750 1894 4750 
Q 2613 4750 3031 4423 
Q 3450 4097 3450 3541 
Q 3450 3153 3228 2886 
Q 3006 2619 2597 2516 
z
" id="DejaVuSans-33" transform="scale(0.015625)"/>
       </defs>
       <use xlink:href="#DejaVuSans-33"/>
       <use x="63.623047" xlink:href="#DejaVuSans-30"/>
       <use x="127.246094" xlink:href="#DejaVuSans-30"/>
      </g>
     </g>
    </g>
    <g id="xtick_5">
     <g id="line2d_5">
      <g>
       <use style="stroke:#000000;stroke-width:0.8;" x="264.323239" xlink:href="#m34e49bc8f5" y="235"/>
      </g>
     </g>
     <g id="text_5">
      <!-- 400 -->
      <g transform="translate(250.961989 252.637812)scale(0.14 -0.14)">
       <defs>
        <path d="M 2419 4116 
L 825 1625 
L 2419 1625 
L 2419 4116 
z
M 2253 4666 
L 3047 4666 
L 3047 1625 
L 3713 1625 
L 3713 1100 
L 3047 1100 
L 3047 0 
L 2419 0 
L 2419 1100 
L 313 1100 
L 313 1709 
L 2253 4666 
z
" id="DejaVuSans-34" transform="scale(0.015625)"/>
       </defs>
       <use xlink:href="#DejaVuSans-34"/>
       <use x="63.623047" xlink:href="#DejaVuSans-30"/>
       <use x="127.246094" xlink:href="#DejaVuSans-30"/>
      </g>
     </g>
    </g>
    <g id="text_6">
     <!-- Time -->
     <g transform="translate(145.505486 273.226562)scale(0.18 -0.18)">
      <defs>
       <path d="M -19 4666 
L 3928 4666 
L 3928 4134 
L 2272 4134 
L 2272 0 
L 1638 0 
L 1638 4134 
L -19 4134 
L -19 4666 
z
" id="DejaVuSans-54" transform="scale(0.015625)"/>
       <path d="M 603 3500 
L 1178 3500 
L 1178 0 
L 603 0 
L 603 3500 
z
M 603 4863 
L 1178 4863 
L 1178 4134 
L 603 4134 
L 603 4863 
z
" id="DejaVuSans-69" transform="scale(0.015625)"/>
       <path d="M 3328 2828 
Q 3544 3216 3844 3400 
Q 4144 3584 4550 3584 
Q 5097 3584 5394 3201 
Q 5691 2819 5691 2113 
L 5691 0 
L 5113 0 
L 5113 2094 
Q 5113 2597 4934 2840 
Q 4756 3084 4391 3084 
Q 3944 3084 3684 2787 
Q 3425 2491 3425 1978 
L 3425 0 
L 2847 0 
L 2847 2094 
Q 2847 2600 2669 2842 
Q 2491 3084 2119 3084 
Q 1678 3084 1418 2786 
Q 1159 2488 1159 1978 
L 1159 0 
L 581 0 
L 581 3500 
L 1159 3500 
L 1159 2956 
Q 1356 3278 1631 3431 
Q 1906 3584 2284 3584 
Q 2666 3584 2933 3390 
Q 3200 3197 3328 2828 
z
" id="DejaVuSans-6d" transform="scale(0.015625)"/>
       <path d="M 3597 1894 
L 3597 1613 
L 953 1613 
Q 991 1019 1311 708 
Q 1631 397 2203 397 
Q 2534 397 2845 478 
Q 3156 559 3463 722 
L 3463 178 
Q 3153 47 2828 -22 
Q 2503 -91 2169 -91 
Q 1331 -91 842 396 
Q 353 884 353 1716 
Q 353 2575 817 3079 
Q 1281 3584 2069 3584 
Q 2775 3584 3186 3129 
Q 3597 2675 3597 1894 
z
M 3022 2063 
Q 3016 2534 2758 2815 
Q 2500 3097 2075 3097 
Q 1594 3097 1305 2825 
Q 1016 2553 972 2059 
L 3022 2063 
z
" id="DejaVuSans-65" transform="scale(0.015625)"/>
      </defs>
      <use xlink:href="#DejaVuSans-54"/>
      <use x="57.958984" xlink:href="#DejaVuSans-69"/>
      <use x="85.742188" xlink:href="#DejaVuSans-6d"/>
      <use x="183.154297" xlink:href="#DejaVuSans-65"/>
     </g>
    </g>
   </g>
   <g id="matplotlib.axis_2">
    <g id="ytick_1">
     <g id="line2d_6">
      <defs>
       <path d="M 0 0 
L -3.5 0 
" id="m405690168b" style="stroke:#000000;stroke-width:0.8;"/>
      </defs>
      <g>
       <use style="stroke:#000000;stroke-width:0.8;" x="61.58" xlink:href="#m405690168b" y="193.08199"/>
      </g>
     </g>
     <g id="text_7">
      <!-- 0.2 -->
      <g transform="translate(32.315625 198.400896)scale(0.14 -0.14)">
       <defs>
        <path d="M 684 794 
L 1344 794 
L 1344 0 
L 684 0 
L 684 794 
z
" id="DejaVuSans-2e" transform="scale(0.015625)"/>
       </defs>
       <use xlink:href="#DejaVuSans-30"/>
       <use x="63.623047" xlink:href="#DejaVuSans-2e"/>
       <use x="95.410156" xlink:href="#DejaVuSans-32"/>
      </g>
     </g>
    </g>
    <g id="ytick_2">
     <g id="line2d_7">
      <g>
       <use style="stroke:#000000;stroke-width:0.8;" x="61.58" xlink:href="#m405690168b" y="149.439965"/>
      </g>
     </g>
     <g id="text_8">
      <!-- 0.4 -->
      <g transform="translate(32.315625 154.758872)scale(0.14 -0.14)">
       <use xlink:href="#DejaVuSans-30"/>
       <use x="63.623047" xlink:href="#DejaVuSans-2e"/>
       <use x="95.410156" xlink:href="#DejaVuSans-34"/>
      </g>
     </g>
    </g>
    <g id="ytick_3">
     <g id="line2d_8">
      <g>
       <use style="stroke:#000000;stroke-width:0.8;" x="61.58" xlink:href="#m405690168b" y="105.797941"/>
      </g>
     </g>
     <g id="text_9">
      <!-- 0.6 -->
      <g transform="translate(32.315625 111.116847)scale(0.14 -0.14)">
       <defs>
        <path d="M 2113 2584 
Q 1688 2584 1439 2293 
Q 1191 2003 1191 1497 
Q 1191 994 1439 701 
Q 1688 409 2113 409 
Q 2538 409 2786 701 
Q 3034 994 3034 1497 
Q 3034 2003 2786 2293 
Q 2538 2584 2113 2584 
z
M 3366 4563 
L 3366 3988 
Q 3128 4100 2886 4159 
Q 2644 4219 2406 4219 
Q 1781 4219 1451 3797 
Q 1122 3375 1075 2522 
Q 1259 2794 1537 2939 
Q 1816 3084 2150 3084 
Q 2853 3084 3261 2657 
Q 3669 2231 3669 1497 
Q 3669 778 3244 343 
Q 2819 -91 2113 -91 
Q 1303 -91 875 529 
Q 447 1150 447 2328 
Q 447 3434 972 4092 
Q 1497 4750 2381 4750 
Q 2619 4750 2861 4703 
Q 3103 4656 3366 4563 
z
" id="DejaVuSans-36" transform="scale(0.015625)"/>
       </defs>
       <use xlink:href="#DejaVuSans-30"/>
       <use x="63.623047" xlink:href="#DejaVuSans-2e"/>
       <use x="95.410156" xlink:href="#DejaVuSans-36"/>
      </g>
     </g>
    </g>
    <g id="ytick_4">
     <g id="line2d_9">
      <g>
       <use style="stroke:#000000;stroke-width:0.8;" x="61.58" xlink:href="#m405690168b" y="62.155916"/>
      </g>
     </g>
     <g id="text_10">
      <!-- 0.8 -->
      <g transform="translate(32.315625 67.474822)scale(0.14 -0.14)">
       <defs>
        <path d="M 2034 2216 
Q 1584 2216 1326 1975 
Q 1069 1734 1069 1313 
Q 1069 891 1326 650 
Q 1584 409 2034 409 
Q 2484 409 2743 651 
Q 3003 894 3003 1313 
Q 3003 1734 2745 1975 
Q 2488 2216 2034 2216 
z
M 1403 2484 
Q 997 2584 770 2862 
Q 544 3141 544 3541 
Q 544 4100 942 4425 
Q 1341 4750 2034 4750 
Q 2731 4750 3128 4425 
Q 3525 4100 3525 3541 
Q 3525 3141 3298 2862 
Q 3072 2584 2669 2484 
Q 3125 2378 3379 2068 
Q 3634 1759 3634 1313 
Q 3634 634 3220 271 
Q 2806 -91 2034 -91 
Q 1263 -91 848 271 
Q 434 634 434 1313 
Q 434 1759 690 2068 
Q 947 2378 1403 2484 
z
M 1172 3481 
Q 1172 3119 1398 2916 
Q 1625 2713 2034 2713 
Q 2441 2713 2670 2916 
Q 2900 3119 2900 3481 
Q 2900 3844 2670 4047 
Q 2441 4250 2034 4250 
Q 1625 4250 1398 4047 
Q 1172 3844 1172 3481 
z
" id="DejaVuSans-38" transform="scale(0.015625)"/>
       </defs>
       <use xlink:href="#DejaVuSans-30"/>
       <use x="63.623047" xlink:href="#DejaVuSans-2e"/>
       <use x="95.410156" xlink:href="#DejaVuSans-38"/>
      </g>
     </g>
    </g>
    <g id="ytick_5">
     <g id="line2d_10">
      <g>
       <use style="stroke:#000000;stroke-width:0.8;" x="61.58" xlink:href="#m405690168b" y="18.513891"/>
      </g>
     </g>
     <g id="text_11">
      <!-- 1.0 -->
      <g transform="translate(32.315625 23.832797)scale(0.14 -0.14)">
       <use xlink:href="#DejaVuSans-31"/>
       <use x="63.623047" xlink:href="#DejaVuSans-2e"/>
       <use x="95.410156" xlink:href="#DejaVuSans-30"/>
      </g>
     </g>
    </g>
    <g id="text_12">
     <!-- Mean Payoff -->
     <g transform="translate(24.572188 177.989844)rotate(-90)scale(0.18 -0.18)">
      <defs>
       <path d="M 628 4666 
L 1569 4666 
L 2759 1491 
L 3956 4666 
L 4897 4666 
L 4897 0 
L 4281 0 
L 4281 4097 
L 3078 897 
L 2444 897 
L 1241 4097 
L 1241 0 
L 628 0 
L 628 4666 
z
" id="DejaVuSans-4d" transform="scale(0.015625)"/>
       <path d="M 2194 1759 
Q 1497 1759 1228 1600 
Q 959 1441 959 1056 
Q 959 750 1161 570 
Q 1363 391 1709 391 
Q 2188 391 2477 730 
Q 2766 1069 2766 1631 
L 2766 1759 
L 2194 1759 
z
M 3341 1997 
L 3341 0 
L 2766 0 
L 2766 531 
Q 2569 213 2275 61 
Q 1981 -91 1556 -91 
Q 1019 -91 701 211 
Q 384 513 384 1019 
Q 384 1609 779 1909 
Q 1175 2209 1959 2209 
L 2766 2209 
L 2766 2266 
Q 2766 2663 2505 2880 
Q 2244 3097 1772 3097 
Q 1472 3097 1187 3025 
Q 903 2953 641 2809 
L 641 3341 
Q 956 3463 1253 3523 
Q 1550 3584 1831 3584 
Q 2591 3584 2966 3190 
Q 3341 2797 3341 1997 
z
" id="DejaVuSans-61" transform="scale(0.015625)"/>
       <path d="M 3513 2113 
L 3513 0 
L 2938 0 
L 2938 2094 
Q 2938 2591 2744 2837 
Q 2550 3084 2163 3084 
Q 1697 3084 1428 2787 
Q 1159 2491 1159 1978 
L 1159 0 
L 581 0 
L 581 3500 
L 1159 3500 
L 1159 2956 
Q 1366 3272 1645 3428 
Q 1925 3584 2291 3584 
Q 2894 3584 3203 3211 
Q 3513 2838 3513 2113 
z
" id="DejaVuSans-6e" transform="scale(0.015625)"/>
       <path id="DejaVuSans-20" transform="scale(0.015625)"/>
       <path d="M 1259 4147 
L 1259 2394 
L 2053 2394 
Q 2494 2394 2734 2622 
Q 2975 2850 2975 3272 
Q 2975 3691 2734 3919 
Q 2494 4147 2053 4147 
L 1259 4147 
z
M 628 4666 
L 2053 4666 
Q 2838 4666 3239 4311 
Q 3641 3956 3641 3272 
Q 3641 2581 3239 2228 
Q 2838 1875 2053 1875 
L 1259 1875 
L 1259 0 
L 628 0 
L 628 4666 
z
" id="DejaVuSans-50" transform="scale(0.015625)"/>
       <path d="M 2059 -325 
Q 1816 -950 1584 -1140 
Q 1353 -1331 966 -1331 
L 506 -1331 
L 506 -850 
L 844 -850 
Q 1081 -850 1212 -737 
Q 1344 -625 1503 -206 
L 1606 56 
L 191 3500 
L 800 3500 
L 1894 763 
L 2988 3500 
L 3597 3500 
L 2059 -325 
z
" id="DejaVuSans-79" transform="scale(0.015625)"/>
       <path d="M 1959 3097 
Q 1497 3097 1228 2736 
Q 959 2375 959 1747 
Q 959 1119 1226 758 
Q 1494 397 1959 397 
Q 2419 397 2687 759 
Q 2956 1122 2956 1747 
Q 2956 2369 2687 2733 
Q 2419 3097 1959 3097 
z
M 1959 3584 
Q 2709 3584 3137 3096 
Q 3566 2609 3566 1747 
Q 3566 888 3137 398 
Q 2709 -91 1959 -91 
Q 1206 -91 779 398 
Q 353 888 353 1747 
Q 353 2609 779 3096 
Q 1206 3584 1959 3584 
z
" id="DejaVuSans-6f" transform="scale(0.015625)"/>
       <path d="M 2375 4863 
L 2375 4384 
L 1825 4384 
Q 1516 4384 1395 4259 
Q 1275 4134 1275 3809 
L 1275 3500 
L 2222 3500 
L 2222 3053 
L 1275 3053 
L 1275 0 
L 697 0 
L 697 3053 
L 147 3053 
L 147 3500 
L 697 3500 
L 697 3744 
Q 697 4328 969 4595 
Q 1241 4863 1831 4863 
L 2375 4863 
z
" id="DejaVuSans-66" transform="scale(0.015625)"/>
      </defs>
      <use xlink:href="#DejaVuSans-4d"/>
      <use x="86.279297" xlink:href="#DejaVuSans-65"/>
      <use x="147.802734" xlink:href="#DejaVuSans-61"/>
      <use x="209.082031" xlink:href="#DejaVuSans-6e"/>
      <use x="272.460938" xlink:href="#DejaVuSans-20"/>
      <use x="304.248047" xlink:href="#DejaVuSans-50"/>
      <use x="360.050781" xlink:href="#DejaVuSans-61"/>
      <use x="421.330078" xlink:href="#DejaVuSans-79"/>
      <use x="480.509766" xlink:href="#DejaVuSans-6f"/>
      <use x="541.691406" xlink:href="#DejaVuSans-66"/>
      <use x="576.896484" xlink:href="#DejaVuSans-66"/>
     </g>
    </g>
   </g>
   <g id="line2d_11">
    <path clip-path="url(#p0c4cae693c)" d="M 71.21145 212.870863 
L 72.177009 180.321625 
L 73.625348 125.640741 
L 74.590907 95.990962 
L 75.556466 73.982406 
L 76.522025 59.378943 
L 77.487584 50.340372 
L 78.453143 44.911891 
L 79.418702 41.503307 
L 80.38426 39.311518 
L 81.349819 37.768043 
L 82.315378 36.630015 
L 83.763717 35.264831 
L 85.212055 34.252508 
L 87.625953 32.924184 
L 90.522629 31.722802 
L 94.384865 30.491635 
L 98.247101 29.50712 
L 102.109337 28.82023 
L 119.489398 26.348531 
L 130.110546 25.385347 
L 152.318402 23.756004 
L 167.767345 23.02285 
L 188.044083 22.271409 
L 213.631395 21.604353 
L 226.183661 21.391855 
L 263.84046 20.990909 
L 263.84046 20.990909 
" style="fill:none;stroke:#151d3b;stroke-linecap:square;stroke-width:3;"/>
   </g>
   <g id="line2d_12">
    <path clip-path="url(#p0c4cae693c)" d="M 71.21145 210.322289 
L 72.177009 169.24364 
L 72.659789 156.235073 
L 73.142568 153.476695 
L 73.625348 153.24264 
L 78.453143 153.229627 
L 263.84046 153.229627 
L 263.84046 153.229627 
" style="fill:none;stroke:#98042d;stroke-dasharray:4,3;stroke-dashoffset:0;stroke-width:2;"/>
   </g>
   <g id="line2d_13">
    <path clip-path="url(#p0c4cae693c)" d="M 71.21145 209.252027 
L 73.142568 121.481029 
L 74.108127 89.835557 
L 74.590907 78.834407 
L 75.073686 70.880733 
L 75.556466 65.429062 
L 76.039245 61.842526 
L 76.522025 59.800232 
L 77.004804 58.637413 
L 77.487584 57.967236 
L 77.970363 57.59714 
L 78.935922 57.275038 
L 80.38426 57.199576 
L 93.419306 57.194659 
L 263.84046 57.194659 
L 263.84046 57.194659 
" style="fill:none;stroke:#ff0f39;stroke-dasharray:4,3;stroke-dashoffset:0;stroke-width:2;"/>
   </g>
   <g id="line2d_14">
    <path clip-path="url(#p0c4cae693c)" d="M 71.21145 209.615094 
L 72.659789 146.691543 
L 74.590907 91.614798 
L 75.556466 74.636872 
L 76.522025 63.964913 
L 77.004804 60.454984 
L 77.970363 55.691543 
L 78.935922 52.521079 
L 79.901481 50.375892 
L 80.86704 48.748474 
L 81.832599 47.429319 
L 82.798158 46.504257 
L 84.246496 45.541697 
L 86.660394 44.499681 
L 88.108732 44.047646 
L 91.005409 43.340764 
L 95.833204 42.381521 
L 98.247101 41.991903 
L 101.626557 41.426804 
L 106.937131 40.720091 
L 109.833808 40.430414 
L 116.109941 39.921268 
L 122.386075 39.349718 
L 130.110546 38.978322 
L 135.9039 38.732047 
L 162.93955 37.553152 
L 172.11236 37.270148 
L 183.699068 36.915946 
L 193.354657 36.678541 
L 214.114174 36.257123 
L 241.149825 35.886859 
L 258.529886 35.682737 
L 263.84046 35.600524 
L 263.84046 35.600524 
" style="fill:none;stroke:#f16745;stroke-dasharray:4,3;stroke-dashoffset:0;stroke-width:2;"/>
   </g>
   <g id="line2d_15">
    <path clip-path="url(#p0c4cae693c)" d="M 71.21145 209.524388 
L 72.177009 166.913997 
L 72.659789 152.129642 
L 73.142568 145.460714 
L 74.590907 129.693301 
L 75.556466 119.37088 
L 76.522025 111.86149 
L 77.487584 106.13199 
L 78.453143 101.341496 
L 80.38426 93.251021 
L 81.832599 88.802204 
L 83.280937 85.020507 
L 86.177614 78.563733 
L 88.591511 74.488379 
L 90.03985 72.398586 
L 91.488188 70.239742 
L 92.936527 68.351898 
L 95.350424 65.535259 
L 96.798763 64.066245 
L 100.660998 60.800172 
L 109.351029 54.495103 
L 112.247706 52.808584 
L 119.006618 49.519373 
L 122.386075 48.246781 
L 128.179428 46.146062 
L 137.835018 43.11145 
L 144.111151 41.437157 
L 149.904504 40.09606 
L 157.628976 38.548775 
L 159.560094 38.209738 
L 161.973991 37.808961 
L 169.215683 36.464184 
L 179.836832 34.769653 
L 182.733509 34.380569 
L 189.975201 33.370041 
L 193.837436 32.85356 
L 225.218102 29.567886 
L 234.390912 28.826512 
L 241.632604 28.282171 
L 246.943178 27.852194 
L 259.495445 26.885745 
L 263.84046 26.555215 
L 263.84046 26.555215 
" style="fill:none;stroke:#ffc65d;stroke-dasharray:4,3;stroke-dashoffset:0;stroke-width:2;"/>
   </g>
   <g id="line2d_16">
    <path clip-path="url(#p0c4cae693c)" d="M 71.21145 224.809091 
L 80.86704 224.696589 
L 100.660998 224.068831 
L 142.180033 223.918426 
L 263.84046 223.911458 
L 263.84046 223.911458 
" style="fill:none;stroke:#3a6351;stroke-dasharray:4,3;stroke-dashoffset:0;stroke-width:2;"/>
   </g>
   <g id="line2d_17">
    <path clip-path="url(#p0c4cae693c)" d="M 71.21145 221.311236 
L 75.073686 192.165462 
L 77.004804 179.563909 
L 79.418702 165.592066 
L 81.349819 154.215605 
L 82.798158 143.926721 
L 83.763717 135.232798 
L 84.729276 124.774324 
L 86.177614 106.114952 
L 88.591511 74.303949 
L 89.55707 63.580263 
L 90.522629 54.946735 
L 91.488188 48.392178 
L 92.453747 43.332271 
L 93.419306 39.582557 
L 94.384865 36.745368 
L 95.350424 34.398504 
L 96.315983 32.524226 
L 97.281542 31.150523 
L 98.72988 29.736318 
L 100.178219 28.589523 
L 101.626557 27.659245 
L 103.074896 26.968062 
L 105.971572 25.960669 
L 108.868249 25.236893 
L 111.282147 24.891288 
L 118.041059 24.232413 
L 124.799972 23.895224 
L 134.455561 23.791121 
L 261.426563 23.734193 
L 263.84046 23.734193 
L 263.84046 23.734193 
" style="fill:none;stroke:#019267;stroke-dasharray:4,3;stroke-dashoffset:0;stroke-width:2;"/>
   </g>
   <g id="line2d_18">
    <path clip-path="url(#p0c4cae693c)" d="M 71.21145 222.188066 
L 74.108127 206.938369 
L 76.522025 195.555922 
L 78.453143 187.297372 
L 82.315378 172.401104 
L 84.246496 164.640054 
L 85.694835 157.928257 
L 87.143173 149.808369 
L 88.591511 140.086769 
L 90.03985 128.948812 
L 91.970968 111.707365 
L 95.350424 81.100514 
L 96.798763 69.40917 
L 98.247101 59.836584 
L 99.695439 51.923386 
L 100.660998 47.698394 
L 102.109337 42.634338 
L 103.074896 39.817764 
L 104.523234 36.59335 
L 105.971572 34.022361 
L 107.419911 32.01975 
L 108.868249 30.380678 
L 110.316588 29.063955 
L 111.764926 28.134353 
L 113.213265 27.405387 
L 115.144382 26.631536 
L 118.523839 25.721691 
L 120.937736 25.235241 
L 124.317192 24.828741 
L 134.455561 23.775202 
L 145.07671 23.135173 
L 168.732904 22.517749 
L 173.560699 22.397974 
L 187.078524 22.121719 
L 204.458585 21.907661 
L 252.736532 21.586846 
L 263.84046 21.548647 
L 263.84046 21.548647 
" style="fill:none;stroke:#00c897;stroke-dasharray:4,3;stroke-dashoffset:0;stroke-width:2;"/>
   </g>
   <g id="line2d_19">
    <path clip-path="url(#p0c4cae693c)" d="M 71.21145 218.425599 
L 72.177009 210.299221 
L 73.142568 204.772973 
L 74.108127 200.482205 
L 75.556466 195.408218 
L 77.004804 191.347812 
L 78.453143 187.905224 
L 80.38426 183.89523 
L 83.280937 178.375298 
L 86.177614 172.905568 
L 91.970968 160.998267 
L 94.867645 154.702361 
L 97.764321 148.278342 
L 104.040455 134.927129 
L 106.937131 129.162259 
L 109.351029 124.776795 
L 112.247706 120.094527 
L 117.55828 112.551736 
L 120.937736 108.350884 
L 125.765531 102.739821 
L 130.110546 98.17444 
L 136.386679 92.564222 
L 138.317797 90.987138 
L 144.111151 86.87023 
L 152.318402 81.272042 
L 158.111756 77.929231 
L 161.008432 76.567728 
L 163.905109 75.077449 
L 167.767345 72.99122 
L 173.560699 70.038625 
L 177.905714 68.084709 
L 180.319611 66.915114 
L 182.250729 66.106302 
L 184.664627 65.233005 
L 189.975201 63.512943 
L 204.458585 58.584243 
L 216.528072 55.075966 
L 232.942574 50.998206 
L 236.32203 50.225461 
L 242.115384 48.981274 
L 263.84046 45.039873 
L 263.84046 45.039873 
" style="fill:none;stroke:#85c88a;stroke-dasharray:4,3;stroke-dashoffset:0;stroke-width:2;"/>
   </g>
   <g id="line2d_20">
    <path clip-path="url(#p0c4cae693c)" d="M 71.21145 221.299169 
L 75.556466 188.9907 
L 77.487584 177.109171 
L 79.418702 167.022112 
L 80.86704 160.43675 
L 82.315378 154.63647 
L 83.763717 149.58118 
L 85.212055 145.10092 
L 87.143173 139.988539 
L 88.591511 136.656029 
L 90.522629 132.868766 
L 92.453747 129.64828 
L 94.384865 126.9401 
L 96.315983 124.664538 
L 98.247101 122.760722 
L 100.178219 121.150199 
L 102.592116 119.479744 
L 105.006014 118.127293 
L 107.419911 117.069318 
L 110.799367 115.899489 
L 113.696044 115.141324 
L 117.0755 114.47895 
L 120.937736 113.936768 
L 124.799972 113.555487 
L 131.076105 113.15817 
L 139.766136 112.88743 
L 153.76674 112.731237 
L 200.596349 112.679328 
L 263.84046 112.678704 
L 263.84046 112.678704 
" style="fill:none;stroke:#495371;stroke-dasharray:4,3;stroke-dashoffset:0;stroke-width:2;"/>
   </g>
   <g id="line2d_21">
    <path clip-path="url(#p0c4cae693c)" d="M 71.21145 221.888797 
L 74.108127 206.245147 
L 76.522025 194.703639 
L 78.453143 186.42574 
L 80.38426 178.942921 
L 82.315378 172.207323 
L 84.246496 166.066693 
L 86.660394 159.211137 
L 89.074291 153.138205 
L 91.488188 147.665256 
L 93.902086 142.759838 
L 96.315983 138.352465 
L 98.72988 134.358811 
L 101.143778 130.771422 
L 104.040455 126.897986 
L 106.454352 124.036501 
L 109.351029 120.90689 
L 112.247706 118.085009 
L 115.627162 115.139997 
L 119.006618 112.491569 
L 122.386075 110.150558 
L 126.73109 107.492492 
L 131.558885 104.952198 
L 135.42112 103.168874 
L 140.731695 101.009679 
L 146.525048 98.962832 
L 152.318402 97.196897 
L 159.077314 95.424445 
L 167.767345 93.491743 
L 174.526258 92.17571 
L 184.664627 90.445385 
L 195.768554 88.811191 
L 208.8036 87.158372 
L 226.666441 85.221676 
L 250.805414 82.986173 
L 263.84046 81.927132 
L 263.84046 81.927132 
" style="fill:none;stroke:#488fb1;stroke-dasharray:4,3;stroke-dashoffset:0;stroke-width:2;"/>
   </g>
   <g id="line2d_22">
    <path clip-path="url(#p0c4cae693c)" d="M 71.21145 218.028492 
L 72.177009 209.717434 
L 73.142568 204.041587 
L 74.108127 199.676862 
L 75.073686 196.116638 
L 76.522025 191.725084 
L 77.970363 188.090993 
L 79.418702 184.992438 
L 81.349819 181.4573 
L 83.280937 178.431629 
L 85.694835 175.168241 
L 88.591511 171.764945 
L 91.488188 168.791495 
L 94.867645 165.77007 
L 98.72988 162.711806 
L 102.109337 160.334046 
L 106.454352 157.594859 
L 111.764926 154.612116 
L 115.144382 152.893933 
L 120.454957 150.418125 
L 126.73109 147.790631 
L 130.110546 146.478434 
L 136.869459 144.055796 
L 143.145592 142.029038 
L 148.938946 140.280342 
L 155.697858 138.394359 
L 160.525653 137.107212 
L 170.181242 134.763178 
L 185.147406 131.49252 
L 202.044688 128.291478 
L 209.769159 126.947605 
L 239.701486 122.353897 
L 257.564327 119.96847 
L 263.84046 119.195438 
L 263.84046 119.195438 
" style="fill:none;stroke:#2fa4ff;stroke-dasharray:4,3;stroke-dashoffset:0;stroke-width:2;"/>
   </g>
   <g id="line2d_23">
    <path clip-path="url(#p0c4cae693c)" d="M 71.21145 217.995439 
L 72.177009 200.070841 
L 73.625348 168.759382 
L 74.108127 161.005979 
L 74.590907 155.999626 
L 75.073686 153.334575 
L 75.556466 152.10694 
L 76.039245 151.62497 
L 77.004804 151.393132 
L 79.901481 151.348729 
L 263.84046 151.348729 
L 263.84046 151.348729 
" style="fill:none;stroke:#8267be;stroke-dasharray:4,3;stroke-dashoffset:0;stroke-width:2;"/>
   </g>
   <g id="line2d_24"/>
   <g id="patch_3">
    <path d="M 61.58 235 
L 61.58 10.8 
" style="fill:none;stroke:#000000;stroke-linecap:square;stroke-linejoin:miter;stroke-width:0.8;"/>
   </g>
   <g id="patch_4">
    <path d="M 273.47191 235 
L 273.47191 10.8 
" style="fill:none;stroke:#000000;stroke-linecap:square;stroke-linejoin:miter;stroke-width:0.8;"/>
   </g>
   <g id="patch_5">
    <path d="M 61.58 235 
L 273.47191 235 
" style="fill:none;stroke:#000000;stroke-linecap:square;stroke-linejoin:miter;stroke-width:0.8;"/>
   </g>
   <g id="patch_6">
    <path d="M 61.58 10.8 
L 273.47191 10.8 
" style="fill:none;stroke:#000000;stroke-linecap:square;stroke-linejoin:miter;stroke-width:0.8;"/>
   </g>
   <g id="legend_1">
    <g id="patch_7">
     <path d="M 149.136764 212.58 
L 260.587702 212.58 
Q 263.387702 212.58 263.387702 209.78 
L 263.387702 170.08125 
Q 263.387702 167.28125 260.587702 167.28125 
L 149.136764 167.28125 
Q 146.336764 167.28125 146.336764 170.08125 
L 146.336764 209.78 
Q 146.336764 212.58 149.136764 212.58 
z
" style="fill:#ffffff;opacity:0.8;stroke:#cccccc;stroke-linejoin:miter;"/>
    </g>
    <g id="line2d_25">
     <path d="M 151.936764 178.619062 
L 179.936764 178.619062 
" style="fill:none;stroke:#151d3b;stroke-linecap:square;stroke-width:3;"/>
    </g>
    <g id="line2d_26"/>
    <g id="text_13">
     <!-- RL -->
     <g transform="translate(191.136764 183.519062)scale(0.14 -0.14)">
      <defs>
       <path d="M 2841 2188 
Q 3044 2119 3236 1894 
Q 3428 1669 3622 1275 
L 4263 0 
L 3584 0 
L 2988 1197 
Q 2756 1666 2539 1819 
Q 2322 1972 1947 1972 
L 1259 1972 
L 1259 0 
L 628 0 
L 628 4666 
L 2053 4666 
Q 2853 4666 3247 4331 
Q 3641 3997 3641 3322 
Q 3641 2881 3436 2590 
Q 3231 2300 2841 2188 
z
M 1259 4147 
L 1259 2491 
L 2053 2491 
Q 2509 2491 2742 2702 
Q 2975 2913 2975 3322 
Q 2975 3731 2742 3939 
Q 2509 4147 2053 4147 
L 1259 4147 
z
" id="DejaVuSans-52" transform="scale(0.015625)"/>
       <path d="M 628 4666 
L 1259 4666 
L 1259 531 
L 3531 531 
L 3531 0 
L 628 0 
L 628 4666 
z
" id="DejaVuSans-4c" transform="scale(0.015625)"/>
      </defs>
      <use xlink:href="#DejaVuSans-52"/>
      <use x="69.482422" xlink:href="#DejaVuSans-4c"/>
     </g>
    </g>
    <g id="line2d_27">
     <path d="M 151.936764 199.168437 
L 179.936764 199.168437 
" style="fill:none;stroke:#747474;stroke-dasharray:5,3.75;stroke-dashoffset:0;stroke-width:2.5;"/>
    </g>
    <g id="line2d_28"/>
    <g id="text_14">
     <!-- Baselines -->
     <g transform="translate(191.136764 204.068437)scale(0.14 -0.14)">
      <defs>
       <path d="M 1259 2228 
L 1259 519 
L 2272 519 
Q 2781 519 3026 730 
Q 3272 941 3272 1375 
Q 3272 1813 3026 2020 
Q 2781 2228 2272 2228 
L 1259 2228 
z
M 1259 4147 
L 1259 2741 
L 2194 2741 
Q 2656 2741 2882 2914 
Q 3109 3088 3109 3444 
Q 3109 3797 2882 3972 
Q 2656 4147 2194 4147 
L 1259 4147 
z
M 628 4666 
L 2241 4666 
Q 2963 4666 3353 4366 
Q 3744 4066 3744 3513 
Q 3744 3084 3544 2831 
Q 3344 2578 2956 2516 
Q 3422 2416 3680 2098 
Q 3938 1781 3938 1306 
Q 3938 681 3513 340 
Q 3088 0 2303 0 
L 628 0 
L 628 4666 
z
" id="DejaVuSans-42" transform="scale(0.015625)"/>
       <path d="M 2834 3397 
L 2834 2853 
Q 2591 2978 2328 3040 
Q 2066 3103 1784 3103 
Q 1356 3103 1142 2972 
Q 928 2841 928 2578 
Q 928 2378 1081 2264 
Q 1234 2150 1697 2047 
L 1894 2003 
Q 2506 1872 2764 1633 
Q 3022 1394 3022 966 
Q 3022 478 2636 193 
Q 2250 -91 1575 -91 
Q 1294 -91 989 -36 
Q 684 19 347 128 
L 347 722 
Q 666 556 975 473 
Q 1284 391 1588 391 
Q 1994 391 2212 530 
Q 2431 669 2431 922 
Q 2431 1156 2273 1281 
Q 2116 1406 1581 1522 
L 1381 1569 
Q 847 1681 609 1914 
Q 372 2147 372 2553 
Q 372 3047 722 3315 
Q 1072 3584 1716 3584 
Q 2034 3584 2315 3537 
Q 2597 3491 2834 3397 
z
" id="DejaVuSans-73" transform="scale(0.015625)"/>
       <path d="M 603 4863 
L 1178 4863 
L 1178 0 
L 603 0 
L 603 4863 
z
" id="DejaVuSans-6c" transform="scale(0.015625)"/>
      </defs>
      <use xlink:href="#DejaVuSans-42"/>
      <use x="68.603516" xlink:href="#DejaVuSans-61"/>
      <use x="129.882812" xlink:href="#DejaVuSans-73"/>
      <use x="181.982422" xlink:href="#DejaVuSans-65"/>
      <use x="243.505859" xlink:href="#DejaVuSans-6c"/>
      <use x="271.289062" xlink:href="#DejaVuSans-69"/>
      <use x="299.072266" xlink:href="#DejaVuSans-6e"/>
      <use x="362.451172" xlink:href="#DejaVuSans-65"/>
      <use x="423.974609" xlink:href="#DejaVuSans-73"/>
     </g>
    </g>
   </g>
  </g>
 </g>
 <defs>
  <clipPath id="p0c4cae693c">
   <rect height="224.2" width="211.89191" x="61.58" y="10.8"/>
  </clipPath>
 </defs>
</svg>
