<?xml version="1.0" encoding="utf-8" standalone="no"?>
<!DOCTYPE svg PUBLIC "-//W3C//DTD SVG 1.1//EN"
  "http://www.w3.org/Graphics/SVG/1.1/DTD/svg11.dtd">
<svg height="288pt" version="1.1" viewBox="0 0 288 288" width="288pt" xmlns="http://www.w3.org/2000/svg" xmlns:xlink="http://www.w3.org/1999/xlink">
 <metadata>
  <rdf:RDF xmlns:cc="http://creativecommons.org/ns#" xmlns:dc="http://purl.org/dc/elements/1.1/" xmlns:rdf="http://www.w3.org/1999/02/22-rdf-syntax-ns#">
   <cc:Work>
    <dc:type rdf:resource="http://purl.org/dc/dcmitype/StillImage"/>
    <dc:date>2022-03-30T22:58:51.796890</dc:date>
    <dc:format>image/svg+xml</dc:format>
    <dc:creator>
     <cc:Agent>
      <dc:title>Matplotlib v3.4.1, https://matplotlib.org/</dc:title>
     </cc:Agent>
    </dc:creator>
   </cc:Work>
  </rdf:RDF>
 </metadata>
 <defs>
  <style type="text/css">*{stroke-linecap:butt;stroke-linejoin:round;}</style>
 </defs>
 <g id="figure_1">
  <g id="patch_1">
   <path d="M 0 288 
L 288 288 
L 288 0 
L 0 0 
z
" style="fill:none;"/>
  </g>
  <g id="axes_1">
   <g id="patch_2">
    <path d="M 61.58 235 
L 272.960811 235 
L 272.960811 10.8 
L 61.58 10.8 
z
" style="fill:none;"/>
   </g>
   <g id="matplotlib.axis_1">
    <g id="xtick_1">
     <g id="line2d_1">
      <defs>
       <path d="M 0 0 
L 0 3.5 
" id="mf769dd41eb" style="stroke:#000000;stroke-width:0.8;"/>
      </defs>
      <g>
       <use style="stroke:#000000;stroke-width:0.8;" x="71.188219" xlink:href="#mf769dd41eb" y="235"/>
      </g>
     </g>
     <g id="text_1">
      <!-- 0 -->
      <g transform="translate(66.734469 252.637812)scale(0.14 -0.14)">
       <defs>
        <path d="M 2034 4250 
Q 1547 4250 1301 3770 
Q 1056 3291 1056 2328 
Q 1056 1369 1301 889 
Q 1547 409 2034 409 
Q 2525 409 2770 889 
Q 3016 1369 3016 2328 
Q 3016 3291 2770 3770 
Q 2525 4250 2034 4250 
z
M 2034 4750 
Q 2819 4750 3233 4129 
Q 3647 3509 3647 2328 
Q 3647 1150 3233 529 
Q 2819 -91 2034 -91 
Q 1250 -91 836 529 
Q 422 1150 422 2328 
Q 422 3509 836 4129 
Q 1250 4750 2034 4750 
z
" id="DejaVuSans-30" transform="scale(0.015625)"/>
       </defs>
       <use xlink:href="#DejaVuSans-30"/>
      </g>
     </g>
    </g>
    <g id="xtick_2">
     <g id="line2d_2">
      <g>
       <use style="stroke:#000000;stroke-width:0.8;" x="119.470725" xlink:href="#mf769dd41eb" y="235"/>
      </g>
     </g>
     <g id="text_2">
      <!-- 50 -->
      <g transform="translate(110.563225 252.637812)scale(0.14 -0.14)">
       <defs>
        <path d="M 691 4666 
L 3169 4666 
L 3169 4134 
L 1269 4134 
L 1269 2991 
Q 1406 3038 1543 3061 
Q 1681 3084 1819 3084 
Q 2600 3084 3056 2656 
Q 3513 2228 3513 1497 
Q 3513 744 3044 326 
Q 2575 -91 1722 -91 
Q 1428 -91 1123 -41 
Q 819 9 494 109 
L 494 744 
Q 775 591 1075 516 
Q 1375 441 1709 441 
Q 2250 441 2565 725 
Q 2881 1009 2881 1497 
Q 2881 1984 2565 2268 
Q 2250 2553 1709 2553 
Q 1456 2553 1204 2497 
Q 953 2441 691 2322 
L 691 4666 
z
" id="DejaVuSans-35" transform="scale(0.015625)"/>
       </defs>
       <use xlink:href="#DejaVuSans-35"/>
       <use x="63.623047" xlink:href="#DejaVuSans-30"/>
      </g>
     </g>
    </g>
    <g id="xtick_3">
     <g id="line2d_3">
      <g>
       <use style="stroke:#000000;stroke-width:0.8;" x="167.75323" xlink:href="#mf769dd41eb" y="235"/>
      </g>
     </g>
     <g id="text_3">
      <!-- 100 -->
      <g transform="translate(154.39198 252.637812)scale(0.14 -0.14)">
       <defs>
        <path d="M 794 531 
L 1825 531 
L 1825 4091 
L 703 3866 
L 703 4441 
L 1819 4666 
L 2450 4666 
L 2450 531 
L 3481 531 
L 3481 0 
L 794 0 
L 794 531 
z
" id="DejaVuSans-31" transform="scale(0.015625)"/>
       </defs>
       <use xlink:href="#DejaVuSans-31"/>
       <use x="63.623047" xlink:href="#DejaVuSans-30"/>
       <use x="127.246094" xlink:href="#DejaVuSans-30"/>
      </g>
     </g>
    </g>
    <g id="xtick_4">
     <g id="line2d_4">
      <g>
       <use style="stroke:#000000;stroke-width:0.8;" x="216.035736" xlink:href="#mf769dd41eb" y="235"/>
      </g>
     </g>
     <g id="text_4">
      <!-- 150 -->
      <g transform="translate(202.674486 252.637812)scale(0.14 -0.14)">
       <use xlink:href="#DejaVuSans-31"/>
       <use x="63.623047" xlink:href="#DejaVuSans-35"/>
       <use x="127.246094" xlink:href="#DejaVuSans-30"/>
      </g>
     </g>
    </g>
    <g id="xtick_5">
     <g id="line2d_5">
      <g>
       <use style="stroke:#000000;stroke-width:0.8;" x="264.318242" xlink:href="#mf769dd41eb" y="235"/>
      </g>
     </g>
     <g id="text_5">
      <!-- 200 -->
      <g transform="translate(250.956992 252.637812)scale(0.14 -0.14)">
       <defs>
        <path d="M 1228 531 
L 3431 531 
L 3431 0 
L 469 0 
L 469 531 
Q 828 903 1448 1529 
Q 2069 2156 2228 2338 
Q 2531 2678 2651 2914 
Q 2772 3150 2772 3378 
Q 2772 3750 2511 3984 
Q 2250 4219 1831 4219 
Q 1534 4219 1204 4116 
Q 875 4013 500 3803 
L 500 4441 
Q 881 4594 1212 4672 
Q 1544 4750 1819 4750 
Q 2544 4750 2975 4387 
Q 3406 4025 3406 3419 
Q 3406 3131 3298 2873 
Q 3191 2616 2906 2266 
Q 2828 2175 2409 1742 
Q 1991 1309 1228 531 
z
" id="DejaVuSans-32" transform="scale(0.015625)"/>
       </defs>
       <use xlink:href="#DejaVuSans-32"/>
       <use x="63.623047" xlink:href="#DejaVuSans-30"/>
       <use x="127.246094" xlink:href="#DejaVuSans-30"/>
      </g>
     </g>
    </g>
    <g id="text_6">
     <!-- Time -->
     <g transform="translate(145.249937 273.226562)scale(0.18 -0.18)">
      <defs>
       <path d="M -19 4666 
L 3928 4666 
L 3928 4134 
L 2272 4134 
L 2272 0 
L 1638 0 
L 1638 4134 
L -19 4134 
L -19 4666 
z
" id="DejaVuSans-54" transform="scale(0.015625)"/>
       <path d="M 603 3500 
L 1178 3500 
L 1178 0 
L 603 0 
L 603 3500 
z
M 603 4863 
L 1178 4863 
L 1178 4134 
L 603 4134 
L 603 4863 
z
" id="DejaVuSans-69" transform="scale(0.015625)"/>
       <path d="M 3328 2828 
Q 3544 3216 3844 3400 
Q 4144 3584 4550 3584 
Q 5097 3584 5394 3201 
Q 5691 2819 5691 2113 
L 5691 0 
L 5113 0 
L 5113 2094 
Q 5113 2597 4934 2840 
Q 4756 3084 4391 3084 
Q 3944 3084 3684 2787 
Q 3425 2491 3425 1978 
L 3425 0 
L 2847 0 
L 2847 2094 
Q 2847 2600 2669 2842 
Q 2491 3084 2119 3084 
Q 1678 3084 1418 2786 
Q 1159 2488 1159 1978 
L 1159 0 
L 581 0 
L 581 3500 
L 1159 3500 
L 1159 2956 
Q 1356 3278 1631 3431 
Q 1906 3584 2284 3584 
Q 2666 3584 2933 3390 
Q 3200 3197 3328 2828 
z
" id="DejaVuSans-6d" transform="scale(0.015625)"/>
       <path d="M 3597 1894 
L 3597 1613 
L 953 1613 
Q 991 1019 1311 708 
Q 1631 397 2203 397 
Q 2534 397 2845 478 
Q 3156 559 3463 722 
L 3463 178 
Q 3153 47 2828 -22 
Q 2503 -91 2169 -91 
Q 1331 -91 842 396 
Q 353 884 353 1716 
Q 353 2575 817 3079 
Q 1281 3584 2069 3584 
Q 2775 3584 3186 3129 
Q 3597 2675 3597 1894 
z
M 3022 2063 
Q 3016 2534 2758 2815 
Q 2500 3097 2075 3097 
Q 1594 3097 1305 2825 
Q 1016 2553 972 2059 
L 3022 2063 
z
" id="DejaVuSans-65" transform="scale(0.015625)"/>
      </defs>
      <use xlink:href="#DejaVuSans-54"/>
      <use x="57.958984" xlink:href="#DejaVuSans-69"/>
      <use x="85.742188" xlink:href="#DejaVuSans-6d"/>
      <use x="183.154297" xlink:href="#DejaVuSans-65"/>
     </g>
    </g>
   </g>
   <g id="matplotlib.axis_2">
    <g id="ytick_1">
     <g id="line2d_6">
      <defs>
       <path d="M 0 0 
L -3.5 0 
" id="m173f942101" style="stroke:#000000;stroke-width:0.8;"/>
      </defs>
      <g>
       <use style="stroke:#000000;stroke-width:0.8;" x="61.58" xlink:href="#m173f942101" y="183.41217"/>
      </g>
     </g>
     <g id="text_7">
      <!-- 0.2 -->
      <g transform="translate(32.315625 188.731076)scale(0.14 -0.14)">
       <defs>
        <path d="M 684 794 
L 1344 794 
L 1344 0 
L 684 0 
L 684 794 
z
" id="DejaVuSans-2e" transform="scale(0.015625)"/>
       </defs>
       <use xlink:href="#DejaVuSans-30"/>
       <use x="63.623047" xlink:href="#DejaVuSans-2e"/>
       <use x="95.410156" xlink:href="#DejaVuSans-32"/>
      </g>
     </g>
    </g>
    <g id="ytick_2">
     <g id="line2d_7">
      <g>
       <use style="stroke:#000000;stroke-width:0.8;" x="61.58" xlink:href="#m173f942101" y="130.242402"/>
      </g>
     </g>
     <g id="text_8">
      <!-- 0.4 -->
      <g transform="translate(32.315625 135.561309)scale(0.14 -0.14)">
       <defs>
        <path d="M 2419 4116 
L 825 1625 
L 2419 1625 
L 2419 4116 
z
M 2253 4666 
L 3047 4666 
L 3047 1625 
L 3713 1625 
L 3713 1100 
L 3047 1100 
L 3047 0 
L 2419 0 
L 2419 1100 
L 313 1100 
L 313 1709 
L 2253 4666 
z
" id="DejaVuSans-34" transform="scale(0.015625)"/>
       </defs>
       <use xlink:href="#DejaVuSans-30"/>
       <use x="63.623047" xlink:href="#DejaVuSans-2e"/>
       <use x="95.410156" xlink:href="#DejaVuSans-34"/>
      </g>
     </g>
    </g>
    <g id="ytick_3">
     <g id="line2d_8">
      <g>
       <use style="stroke:#000000;stroke-width:0.8;" x="61.58" xlink:href="#m173f942101" y="77.072635"/>
      </g>
     </g>
     <g id="text_9">
      <!-- 0.6 -->
      <g transform="translate(32.315625 82.391541)scale(0.14 -0.14)">
       <defs>
        <path d="M 2113 2584 
Q 1688 2584 1439 2293 
Q 1191 2003 1191 1497 
Q 1191 994 1439 701 
Q 1688 409 2113 409 
Q 2538 409 2786 701 
Q 3034 994 3034 1497 
Q 3034 2003 2786 2293 
Q 2538 2584 2113 2584 
z
M 3366 4563 
L 3366 3988 
Q 3128 4100 2886 4159 
Q 2644 4219 2406 4219 
Q 1781 4219 1451 3797 
Q 1122 3375 1075 2522 
Q 1259 2794 1537 2939 
Q 1816 3084 2150 3084 
Q 2853 3084 3261 2657 
Q 3669 2231 3669 1497 
Q 3669 778 3244 343 
Q 2819 -91 2113 -91 
Q 1303 -91 875 529 
Q 447 1150 447 2328 
Q 447 3434 972 4092 
Q 1497 4750 2381 4750 
Q 2619 4750 2861 4703 
Q 3103 4656 3366 4563 
z
" id="DejaVuSans-36" transform="scale(0.015625)"/>
       </defs>
       <use xlink:href="#DejaVuSans-30"/>
       <use x="63.623047" xlink:href="#DejaVuSans-2e"/>
       <use x="95.410156" xlink:href="#DejaVuSans-36"/>
      </g>
     </g>
    </g>
    <g id="ytick_4">
     <g id="line2d_9">
      <g>
       <use style="stroke:#000000;stroke-width:0.8;" x="61.58" xlink:href="#m173f942101" y="23.902868"/>
      </g>
     </g>
     <g id="text_10">
      <!-- 0.8 -->
      <g transform="translate(32.315625 29.221774)scale(0.14 -0.14)">
       <defs>
        <path d="M 2034 2216 
Q 1584 2216 1326 1975 
Q 1069 1734 1069 1313 
Q 1069 891 1326 650 
Q 1584 409 2034 409 
Q 2484 409 2743 651 
Q 3003 894 3003 1313 
Q 3003 1734 2745 1975 
Q 2488 2216 2034 2216 
z
M 1403 2484 
Q 997 2584 770 2862 
Q 544 3141 544 3541 
Q 544 4100 942 4425 
Q 1341 4750 2034 4750 
Q 2731 4750 3128 4425 
Q 3525 4100 3525 3541 
Q 3525 3141 3298 2862 
Q 3072 2584 2669 2484 
Q 3125 2378 3379 2068 
Q 3634 1759 3634 1313 
Q 3634 634 3220 271 
Q 2806 -91 2034 -91 
Q 1263 -91 848 271 
Q 434 634 434 1313 
Q 434 1759 690 2068 
Q 947 2378 1403 2484 
z
M 1172 3481 
Q 1172 3119 1398 2916 
Q 1625 2713 2034 2713 
Q 2441 2713 2670 2916 
Q 2900 3119 2900 3481 
Q 2900 3844 2670 4047 
Q 2441 4250 2034 4250 
Q 1625 4250 1398 4047 
Q 1172 3844 1172 3481 
z
" id="DejaVuSans-38" transform="scale(0.015625)"/>
       </defs>
       <use xlink:href="#DejaVuSans-30"/>
       <use x="63.623047" xlink:href="#DejaVuSans-2e"/>
       <use x="95.410156" xlink:href="#DejaVuSans-38"/>
      </g>
     </g>
    </g>
    <g id="text_11">
     <!-- Mean Payoff -->
     <g transform="translate(24.572188 177.989844)rotate(-90)scale(0.18 -0.18)">
      <defs>
       <path d="M 628 4666 
L 1569 4666 
L 2759 1491 
L 3956 4666 
L 4897 4666 
L 4897 0 
L 4281 0 
L 4281 4097 
L 3078 897 
L 2444 897 
L 1241 4097 
L 1241 0 
L 628 0 
L 628 4666 
z
" id="DejaVuSans-4d" transform="scale(0.015625)"/>
       <path d="M 2194 1759 
Q 1497 1759 1228 1600 
Q 959 1441 959 1056 
Q 959 750 1161 570 
Q 1363 391 1709 391 
Q 2188 391 2477 730 
Q 2766 1069 2766 1631 
L 2766 1759 
L 2194 1759 
z
M 3341 1997 
L 3341 0 
L 2766 0 
L 2766 531 
Q 2569 213 2275 61 
Q 1981 -91 1556 -91 
Q 1019 -91 701 211 
Q 384 513 384 1019 
Q 384 1609 779 1909 
Q 1175 2209 1959 2209 
L 2766 2209 
L 2766 2266 
Q 2766 2663 2505 2880 
Q 2244 3097 1772 3097 
Q 1472 3097 1187 3025 
Q 903 2953 641 2809 
L 641 3341 
Q 956 3463 1253 3523 
Q 1550 3584 1831 3584 
Q 2591 3584 2966 3190 
Q 3341 2797 3341 1997 
z
" id="DejaVuSans-61" transform="scale(0.015625)"/>
       <path d="M 3513 2113 
L 3513 0 
L 2938 0 
L 2938 2094 
Q 2938 2591 2744 2837 
Q 2550 3084 2163 3084 
Q 1697 3084 1428 2787 
Q 1159 2491 1159 1978 
L 1159 0 
L 581 0 
L 581 3500 
L 1159 3500 
L 1159 2956 
Q 1366 3272 1645 3428 
Q 1925 3584 2291 3584 
Q 2894 3584 3203 3211 
Q 3513 2838 3513 2113 
z
" id="DejaVuSans-6e" transform="scale(0.015625)"/>
       <path id="DejaVuSans-20" transform="scale(0.015625)"/>
       <path d="M 1259 4147 
L 1259 2394 
L 2053 2394 
Q 2494 2394 2734 2622 
Q 2975 2850 2975 3272 
Q 2975 3691 2734 3919 
Q 2494 4147 2053 4147 
L 1259 4147 
z
M 628 4666 
L 2053 4666 
Q 2838 4666 3239 4311 
Q 3641 3956 3641 3272 
Q 3641 2581 3239 2228 
Q 2838 1875 2053 1875 
L 1259 1875 
L 1259 0 
L 628 0 
L 628 4666 
z
" id="DejaVuSans-50" transform="scale(0.015625)"/>
       <path d="M 2059 -325 
Q 1816 -950 1584 -1140 
Q 1353 -1331 966 -1331 
L 506 -1331 
L 506 -850 
L 844 -850 
Q 1081 -850 1212 -737 
Q 1344 -625 1503 -206 
L 1606 56 
L 191 3500 
L 800 3500 
L 1894 763 
L 2988 3500 
L 3597 3500 
L 2059 -325 
z
" id="DejaVuSans-79" transform="scale(0.015625)"/>
       <path d="M 1959 3097 
Q 1497 3097 1228 2736 
Q 959 2375 959 1747 
Q 959 1119 1226 758 
Q 1494 397 1959 397 
Q 2419 397 2687 759 
Q 2956 1122 2956 1747 
Q 2956 2369 2687 2733 
Q 2419 3097 1959 3097 
z
M 1959 3584 
Q 2709 3584 3137 3096 
Q 3566 2609 3566 1747 
Q 3566 888 3137 398 
Q 2709 -91 1959 -91 
Q 1206 -91 779 398 
Q 353 888 353 1747 
Q 353 2609 779 3096 
Q 1206 3584 1959 3584 
z
" id="DejaVuSans-6f" transform="scale(0.015625)"/>
       <path d="M 2375 4863 
L 2375 4384 
L 1825 4384 
Q 1516 4384 1395 4259 
Q 1275 4134 1275 3809 
L 1275 3500 
L 2222 3500 
L 2222 3053 
L 1275 3053 
L 1275 0 
L 697 0 
L 697 3053 
L 147 3053 
L 147 3500 
L 697 3500 
L 697 3744 
Q 697 4328 969 4595 
Q 1241 4863 1831 4863 
L 2375 4863 
z
" id="DejaVuSans-66" transform="scale(0.015625)"/>
      </defs>
      <use xlink:href="#DejaVuSans-4d"/>
      <use x="86.279297" xlink:href="#DejaVuSans-65"/>
      <use x="147.802734" xlink:href="#DejaVuSans-61"/>
      <use x="209.082031" xlink:href="#DejaVuSans-6e"/>
      <use x="272.460938" xlink:href="#DejaVuSans-20"/>
      <use x="304.248047" xlink:href="#DejaVuSans-50"/>
      <use x="360.050781" xlink:href="#DejaVuSans-61"/>
      <use x="421.330078" xlink:href="#DejaVuSans-79"/>
      <use x="480.509766" xlink:href="#DejaVuSans-6f"/>
      <use x="541.691406" xlink:href="#DejaVuSans-66"/>
      <use x="576.896484" xlink:href="#DejaVuSans-66"/>
     </g>
    </g>
   </g>
   <g id="line2d_10">
    <path clip-path="url(#pc1880259a0)" d="M 71.188219 213.270844 
L 72.153869 197.693481 
L 75.050819 131.948085 
L 76.016469 115.534535 
L 76.982119 102.382611 
L 77.94777 91.858337 
L 78.91342 83.530595 
L 79.87907 77.049605 
L 80.84472 72.041151 
L 81.81037 67.868423 
L 82.77602 64.404383 
L 83.74167 61.51084 
L 84.70732 59.034217 
L 86.638621 54.885716 
L 88.569921 51.391743 
L 90.501221 48.431125 
L 94.363822 43.131964 
L 96.295122 40.956522 
L 99.192072 38.085322 
L 103.054673 34.549786 
L 105.951623 32.422737 
L 111.745524 28.380055 
L 118.505074 24.594123 
L 119.470725 218.651041 
L 120.436375 210.369343 
L 121.402025 197.424664 
L 122.367675 178.46065 
L 124.298975 137.231868 
L 125.264625 121.573158 
L 126.230275 108.828875 
L 127.195926 98.572023 
L 128.161576 90.288855 
L 129.127226 83.61022 
L 130.092876 78.164517 
L 131.058526 73.820146 
L 132.024176 70.249131 
L 132.989826 67.251038 
L 134.921126 62.282928 
L 136.852427 58.220597 
L 138.783727 54.707229 
L 140.715027 51.69218 
L 142.646327 49.330344 
L 146.508928 45.214153 
L 149.405878 42.367799 
L 151.337178 40.710199 
L 155.199779 37.777612 
L 158.096729 35.800069 
L 161.95933 33.10959 
L 163.89063 32.059836 
L 166.78758 30.544373 
L 167.75323 217.271396 
L 168.718881 208.301385 
L 169.684531 194.485442 
L 170.650181 174.457895 
L 171.615831 151.633315 
L 172.581481 131.696818 
L 173.547131 116.06217 
L 174.512781 103.860813 
L 175.478431 94.362817 
L 176.444082 86.893063 
L 177.409732 80.941847 
L 178.375382 76.153825 
L 179.341032 72.201749 
L 180.306682 68.946636 
L 182.237982 63.642468 
L 183.203632 61.441229 
L 185.134933 57.759515 
L 187.066233 54.355752 
L 188.997533 51.432816 
L 190.928833 49.029099 
L 193.825784 45.83447 
L 196.722734 43.050929 
L 199.619684 40.564877 
L 207.344885 34.657775 
L 210.241836 32.566633 
L 212.173136 31.344064 
L 215.070086 29.801774 
L 216.035736 218.021791 
L 217.001387 208.932012 
L 217.967037 194.876319 
L 218.932687 174.2946 
L 220.863987 129.713927 
L 221.829637 112.731932 
L 222.795287 98.996453 
L 223.760937 88.215524 
L 224.726587 79.691231 
L 225.692238 72.870918 
L 226.657888 67.403982 
L 227.623538 63.019347 
L 228.589188 59.468852 
L 229.554838 56.494955 
L 230.520488 54.074362 
L 232.451788 50.027402 
L 234.383089 46.509755 
L 236.314389 43.393167 
L 238.245689 40.675005 
L 240.176989 38.291365 
L 245.00524 33.331432 
L 248.86784 30.039224 
L 251.764791 27.998931 
L 258.524342 23.725597 
L 263.352592 20.990909 
L 263.352592 20.990909 
" style="fill:none;stroke:#151d3b;stroke-linecap:square;stroke-width:3;"/>
   </g>
   <g id="line2d_11">
    <path clip-path="url(#pc1880259a0)" d="M 71.188219 210.610756 
L 73.119519 167.881735 
L 74.085169 153.678424 
L 75.050819 150.600618 
L 76.016469 150.376693 
L 80.84472 150.351966 
L 118.505074 150.351966 
L 119.470725 223.720196 
L 166.78758 223.720196 
L 167.75323 224.418575 
L 263.352592 224.395967 
L 263.352592 224.395967 
" style="fill:none;stroke:#98042d;stroke-dasharray:4,3;stroke-dashoffset:0;stroke-width:2;"/>
   </g>
   <g id="line2d_12">
    <path clip-path="url(#pc1880259a0)" d="M 71.188219 208.528775 
L 72.153869 185.303697 
L 73.119519 159.307899 
L 74.085169 137.560589 
L 75.050819 120.439436 
L 76.016469 105.435214 
L 76.982119 95.11738 
L 77.94777 88.335081 
L 78.91342 83.976037 
L 79.87907 81.398888 
L 80.84472 79.94985 
L 81.81037 79.249544 
L 82.77602 78.920062 
L 84.70732 78.687255 
L 89.535571 78.623 
L 118.505074 78.621352 
L 119.470725 220.000591 
L 120.436375 210.330358 
L 124.298975 158.142605 
L 125.264625 147.642393 
L 126.230275 138.4019 
L 127.195926 131.33894 
L 128.161576 126.171212 
L 129.127226 122.648828 
L 130.092876 120.509166 
L 131.058526 119.056175 
L 132.024176 118.124235 
L 132.989826 117.500511 
L 133.955476 117.129933 
L 135.886777 116.856149 
L 139.749377 116.705257 
L 157.131079 116.689443 
L 166.78758 116.689443 
L 167.75323 219.516215 
L 168.718881 209.048863 
L 172.581481 152.673506 
L 173.547131 141.457807 
L 174.512781 131.844889 
L 175.478431 124.627971 
L 176.444082 119.500793 
L 177.409732 116.017984 
L 178.375382 113.751944 
L 179.341032 112.284493 
L 180.306682 111.392484 
L 181.272332 110.923464 
L 183.203632 110.503098 
L 186.100583 110.327661 
L 192.860134 110.273032 
L 215.070086 110.273032 
L 216.035736 219.713798 
L 217.001387 209.312272 
L 219.898337 167.549892 
L 220.863987 154.150503 
L 221.829637 143.053901 
L 222.795287 133.414997 
L 223.760937 126.52394 
L 224.726587 121.553279 
L 225.692238 117.987675 
L 226.657888 115.726745 
L 227.623538 114.417159 
L 228.589188 113.573504 
L 229.554838 113.077616 
L 231.486138 112.655389 
L 234.383089 112.516658 
L 243.07394 112.45299 
L 263.352592 112.45299 
L 263.352592 112.45299 
" style="fill:none;stroke:#ff0f39;stroke-dasharray:4,3;stroke-dashoffset:0;stroke-width:2;"/>
   </g>
   <g id="line2d_13">
    <path clip-path="url(#pc1880259a0)" d="M 71.188219 208.600816 
L 74.085169 141.676756 
L 76.982119 106.803993 
L 77.94777 98.50219 
L 78.91342 92.476498 
L 79.87907 87.625156 
L 80.84472 83.544634 
L 81.81037 80.410441 
L 82.77602 78.10321 
L 83.74167 76.158182 
L 84.70732 74.50906 
L 85.67297 73.16527 
L 87.604271 70.956552 
L 89.535571 69.032711 
L 91.466871 67.57846 
L 93.398171 66.487079 
L 97.260772 64.713661 
L 100.157722 63.557344 
L 104.985973 61.856168 
L 111.745524 60.234411 
L 118.505074 58.931948 
L 119.470725 221.303688 
L 120.436375 212.428256 
L 123.333325 166.286868 
L 125.264625 143.711733 
L 126.230275 133.805224 
L 127.195926 125.299335 
L 128.161576 118.34652 
L 129.127226 112.465651 
L 130.092876 107.61846 
L 131.058526 103.890056 
L 132.024176 100.803226 
L 132.989826 98.105997 
L 133.955476 95.850708 
L 135.886777 92.22539 
L 137.818077 89.465047 
L 138.783727 88.291584 
L 140.715027 86.406153 
L 142.646327 84.687689 
L 146.508928 81.907555 
L 149.405878 80.472525 
L 152.302829 79.069536 
L 154.234129 78.16935 
L 159.062379 76.350535 
L 162.92498 75.068433 
L 166.78758 73.992311 
L 167.75323 221.300271 
L 168.718881 212.301872 
L 171.615831 165.220848 
L 173.547131 142.320493 
L 174.512781 132.520809 
L 175.478431 124.426983 
L 176.444082 117.750622 
L 177.409732 112.254362 
L 178.375382 107.778376 
L 179.341032 104.014684 
L 180.306682 100.8668 
L 181.272332 98.137008 
L 183.203632 93.67842 
L 185.134933 90.126642 
L 187.066233 87.210408 
L 188.997533 84.942426 
L 190.928833 83.161086 
L 194.791434 80.094253 
L 197.688384 78.557478 
L 205.413585 75.226321 
L 213.138786 72.525796 
L 215.070086 71.888635 
L 216.035736 220.72748 
L 217.001387 212.028009 
L 217.967037 196.4951 
L 218.932687 179.161162 
L 219.898337 165.197531 
L 221.829637 142.395278 
L 222.795287 132.375677 
L 223.760937 124.182173 
L 224.726587 117.517989 
L 225.692238 112.124316 
L 226.657888 107.603003 
L 227.623538 103.785418 
L 228.589188 100.65746 
L 229.554838 98.04656 
L 230.520488 95.838887 
L 232.451788 92.382422 
L 233.417439 91.011267 
L 236.314389 87.723036 
L 239.211339 85.122894 
L 242.10829 83.073047 
L 244.03959 82.000538 
L 246.93654 80.599593 
L 251.764791 79.185226 
L 256.593041 77.70849 
L 260.455642 76.491325 
L 263.352592 75.846225 
L 263.352592 75.846225 
" style="fill:none;stroke:#f16745;stroke-dasharray:4,3;stroke-dashoffset:0;stroke-width:2;"/>
   </g>
   <g id="line2d_14">
    <path clip-path="url(#pc1880259a0)" d="M 71.188219 209.171585 
L 73.119519 163.648229 
L 74.085169 147.074162 
L 75.050819 139.688335 
L 76.982119 128.219222 
L 78.91342 115.715376 
L 79.87907 110.275829 
L 80.84472 105.543085 
L 82.77602 97.729421 
L 84.70732 91.044432 
L 86.638621 85.338398 
L 88.569921 80.283405 
L 91.466871 73.849176 
L 93.398171 69.988452 
L 95.329472 66.669797 
L 97.260772 63.794318 
L 101.123372 58.90127 
L 104.020323 55.740456 
L 112.711174 46.826339 
L 114.642474 45.007476 
L 118.505074 42.025973 
L 119.470725 218.195277 
L 120.436375 205.158188 
L 121.402025 184.563 
L 122.367675 161.058419 
L 123.333325 144.230074 
L 124.298975 136.285943 
L 126.230275 125.344638 
L 129.127226 107.80064 
L 130.092876 103.075533 
L 131.058526 98.934956 
L 132.989826 91.976341 
L 134.921126 86.005349 
L 136.852427 80.928172 
L 139.749377 74.369585 
L 141.680677 70.334968 
L 143.611978 66.827732 
L 145.543278 63.5865 
L 148.440228 59.15474 
L 151.337178 55.288263 
L 156.165429 49.614317 
L 159.062379 46.520118 
L 166.78758 40.039176 
L 167.75323 216.705979 
L 168.718881 204.233401 
L 169.684531 183.799786 
L 170.650181 160.082903 
L 171.615831 142.503283 
L 172.581481 134.035472 
L 174.512781 122.49346 
L 176.444082 109.882702 
L 177.409732 104.334643 
L 178.375382 99.665306 
L 180.306682 92.130093 
L 182.237982 85.793252 
L 184.169283 80.454477 
L 187.066233 73.497922 
L 188.997533 69.291457 
L 190.928833 65.477557 
L 193.825784 60.524675 
L 195.757084 57.500721 
L 197.688384 54.98171 
L 199.619684 52.745817 
L 208.310535 44.207864 
L 210.241836 42.316744 
L 212.173136 40.82768 
L 215.070086 38.762145 
L 216.035736 218.125274 
L 217.001387 205.662845 
L 217.967037 185.665457 
L 218.932687 162.663443 
L 219.898337 146.024241 
L 220.863987 138.148731 
L 222.795287 127.305979 
L 225.692238 109.646694 
L 226.657888 105.053869 
L 228.589188 97.645359 
L 230.520488 91.365072 
L 232.451788 86.084007 
L 234.383089 81.349829 
L 236.314389 77.160827 
L 239.211339 71.556016 
L 242.10829 66.330173 
L 243.07394 64.678404 
L 245.00524 62.010126 
L 248.86784 57.197876 
L 251.764791 53.953522 
L 259.489992 46.992657 
L 263.352592 44.180704 
L 263.352592 44.180704 
" style="fill:none;stroke:#ffc65d;stroke-dasharray:4,3;stroke-dashoffset:0;stroke-width:2;"/>
   </g>
   <g id="line2d_15">
    <path clip-path="url(#pc1880259a0)" d="M 71.188219 224.406511 
L 89.535571 224.297611 
L 114.642474 223.741276 
L 118.505074 223.697311 
L 119.470725 224.726683 
L 126.230275 224.596282 
L 151.337178 224.242827 
L 166.78758 224.157024 
L 167.75323 224.588152 
L 172.581481 224.506225 
L 215.070086 224.335792 
L 216.035736 224.809091 
L 220.863987 224.740038 
L 253.696091 224.711169 
L 263.352592 224.709957 
L 263.352592 224.709957 
" style="fill:none;stroke:#3a6351;stroke-dasharray:4,3;stroke-dashoffset:0;stroke-width:2;"/>
   </g>
   <g id="line2d_16">
    <path clip-path="url(#pc1880259a0)" d="M 71.188219 219.431523 
L 73.119519 210.172435 
L 75.050819 202.216818 
L 76.982119 195.301474 
L 78.91342 189.311186 
L 80.84472 183.987067 
L 82.77602 179.257913 
L 84.70732 174.939751 
L 86.638621 170.965269 
L 91.466871 161.894057 
L 94.363822 156.341299 
L 96.295122 152.247942 
L 98.226422 147.574272 
L 100.157722 142.280269 
L 102.089022 136.272696 
L 104.985973 126.328577 
L 106.917273 119.235439 
L 112.711174 96.635647 
L 115.608124 85.625318 
L 118.505074 75.807562 
L 119.470725 219.041995 
L 123.333325 198.361053 
L 125.264625 188.371588 
L 129.127226 170.901759 
L 131.058526 162.718737 
L 132.989826 155.356394 
L 135.886777 145.257691 
L 137.818077 139.062869 
L 139.749377 133.402304 
L 141.680677 128.302444 
L 143.611978 123.768835 
L 145.543278 119.795129 
L 148.440228 114.54612 
L 150.371528 111.499729 
L 153.268479 107.483676 
L 157.131079 102.750488 
L 159.062379 100.707216 
L 162.92498 97.170222 
L 164.85628 95.613211 
L 166.78758 94.322505 
L 167.75323 220.610302 
L 171.615831 200.640582 
L 173.547131 190.628774 
L 179.341032 163.538418 
L 182.237982 151.651434 
L 184.169283 144.585139 
L 186.100583 138.376594 
L 188.031883 132.669046 
L 189.963183 127.466949 
L 191.894483 122.87063 
L 193.825784 118.931532 
L 195.757084 115.52708 
L 197.688384 112.471015 
L 199.619684 109.77537 
L 202.516635 106.473615 
L 204.447935 104.646433 
L 206.379235 103.144843 
L 210.241836 100.739906 
L 214.104436 98.54255 
L 215.070086 98.017308 
L 216.035736 218.75795 
L 218.932687 202.672837 
L 221.829637 186.115174 
L 225.692238 166.925859 
L 227.623538 158.030045 
L 229.554838 149.808089 
L 231.486138 142.314194 
L 233.417439 135.755172 
L 235.348739 129.959846 
L 237.280039 124.957509 
L 240.176989 118.368165 
L 242.10829 114.58724 
L 244.03959 111.434595 
L 245.97089 108.851194 
L 248.86784 105.651558 
L 251.764791 102.942064 
L 253.696091 101.360524 
L 255.627391 100.070895 
L 258.524342 98.535451 
L 263.352592 96.409004 
L 263.352592 96.409004 
" style="fill:none;stroke:#019267;stroke-dasharray:4,3;stroke-dashoffset:0;stroke-width:2;"/>
   </g>
   <g id="line2d_17">
    <path clip-path="url(#pc1880259a0)" d="M 71.188219 220.601016 
L 73.119519 214.076497 
L 75.050819 208.354497 
L 76.982119 203.315643 
L 78.91342 198.771714 
L 80.84472 194.657056 
L 83.74167 189.121028 
L 86.638621 184.153556 
L 89.535571 179.576699 
L 100.157722 163.332026 
L 103.054673 158.452122 
L 104.985973 154.899686 
L 107.882923 148.905416 
L 110.779874 142.323306 
L 114.642474 132.830436 
L 118.505074 122.298833 
L 119.470725 220.103284 
L 121.402025 213.06303 
L 124.298975 203.871378 
L 129.127226 189.555001 
L 132.989826 179.385852 
L 135.886777 171.987456 
L 143.611978 153.757194 
L 149.405878 140.786015 
L 162.92498 111.888673 
L 166.78758 104.049846 
L 167.75323 220.865435 
L 169.684531 214.108981 
L 178.375382 186.054167 
L 187.066233 161.937356 
L 193.825784 144.807297 
L 199.619684 131.728684 
L 202.516635 125.595557 
L 205.413585 119.755958 
L 208.310535 114.389239 
L 213.138786 106.452619 
L 215.070086 103.466529 
L 216.035736 220.477233 
L 217.967037 213.503786 
L 221.829637 200.320318 
L 225.692238 186.453609 
L 232.451788 166.037542 
L 236.314389 154.712206 
L 240.176989 144.158958 
L 243.07394 136.706373 
L 246.93654 127.383481 
L 249.833491 121.065941 
L 253.696091 113.380605 
L 256.593041 108.409563 
L 263.352592 97.898734 
L 263.352592 97.898734 
" style="fill:none;stroke:#00c897;stroke-dasharray:4,3;stroke-dashoffset:0;stroke-width:2;"/>
   </g>
   <g id="line2d_18">
    <path clip-path="url(#pc1880259a0)" d="M 71.188219 217.921705 
L 72.153869 213.133936 
L 73.119519 209.366423 
L 74.085169 206.1771 
L 76.016469 201.024356 
L 77.94777 196.880004 
L 79.87907 193.377787 
L 81.81037 190.324047 
L 83.74167 187.640109 
L 86.638621 184.0265 
L 89.535571 180.77883 
L 104.985973 164.023197 
L 108.848573 159.614429 
L 118.505074 147.750778 
L 119.470725 216.964653 
L 120.436375 211.873393 
L 121.402025 207.841922 
L 122.367675 204.520496 
L 124.298975 199.077891 
L 126.230275 194.631394 
L 128.161576 190.886558 
L 130.092876 187.629868 
L 132.024176 184.784901 
L 134.921126 180.99681 
L 137.818077 177.665213 
L 143.611978 171.36273 
L 148.440228 166.085515 
L 151.337178 162.724473 
L 161.95933 150.011613 
L 166.78758 144.040954 
L 167.75323 217.577007 
L 168.718881 212.697253 
L 169.684531 208.844667 
L 170.650181 205.662255 
L 172.581481 200.458237 
L 174.512781 196.27976 
L 176.444082 192.755169 
L 178.375382 189.658661 
L 180.306682 186.918097 
L 183.203632 183.302009 
L 187.066233 179.023204 
L 194.791434 170.824721 
L 209.276186 154.786151 
L 214.104436 148.798013 
L 215.070086 147.594 
L 216.035736 217.535205 
L 217.001387 212.555057 
L 217.967037 208.634007 
L 218.932687 205.374358 
L 220.863987 200.122919 
L 222.795287 195.842241 
L 224.726587 192.25982 
L 226.657888 189.175026 
L 229.554838 185.110735 
L 232.451788 181.586373 
L 236.314389 177.389278 
L 251.764791 161.044158 
L 263.352592 146.998426 
L 263.352592 146.998426 
" style="fill:none;stroke:#85c88a;stroke-dasharray:4,3;stroke-dashoffset:0;stroke-width:2;"/>
   </g>
   <g id="line2d_19">
    <path clip-path="url(#pc1880259a0)" d="M 71.188219 219.585416 
L 73.119519 210.44613 
L 75.050819 202.575841 
L 76.982119 195.793776 
L 78.91342 189.936925 
L 80.84472 184.775714 
L 82.77602 180.239403 
L 84.70732 176.247138 
L 86.638621 172.632044 
L 88.569921 169.391802 
L 90.501221 166.484949 
L 93.398171 162.597921 
L 96.295122 159.31034 
L 99.192072 156.459929 
L 102.089022 153.968839 
L 104.985973 151.795813 
L 107.882923 149.904709 
L 110.779874 148.270672 
L 113.676824 146.815875 
L 116.573774 145.549326 
L 118.505074 144.791507 
L 119.470725 219.369764 
L 121.402025 210.093045 
L 123.333325 202.141055 
L 125.264625 195.320501 
L 127.195926 189.320432 
L 129.127226 184.125096 
L 131.058526 179.45692 
L 132.989826 175.351592 
L 134.921126 171.663741 
L 136.852427 168.346945 
L 138.783727 165.349675 
L 141.680677 161.400642 
L 144.577628 158.020149 
L 146.508928 155.9975 
L 149.405878 153.305334 
L 152.302829 150.993381 
L 155.199779 148.940261 
L 158.096729 147.147987 
L 161.95933 145.070552 
L 165.82193 143.32439 
L 166.78758 142.944026 
L 167.75323 218.850322 
L 169.684531 209.27258 
L 171.615831 200.978209 
L 173.547131 193.84447 
L 175.478431 187.635751 
L 177.409732 182.199686 
L 179.341032 177.402497 
L 181.272332 173.142723 
L 183.203632 169.344186 
L 185.134933 165.890517 
L 187.066233 162.827408 
L 189.963183 158.784845 
L 192.860134 155.268711 
L 195.757084 152.218025 
L 198.654034 149.537411 
L 201.550985 147.248315 
L 204.447935 145.223266 
L 207.344885 143.462636 
L 210.241836 141.919467 
L 213.138786 140.600516 
L 215.070086 139.806561 
L 216.035736 218.862382 
L 217.967037 209.323807 
L 219.898337 201.152795 
L 221.829637 194.122501 
L 223.760937 188.019981 
L 225.692238 182.669863 
L 227.623538 177.921151 
L 229.554838 173.718557 
L 231.486138 169.996495 
L 233.417439 166.638258 
L 236.314389 162.19695 
L 239.211339 158.357879 
L 242.10829 155.050039 
L 245.00524 152.203439 
L 247.90219 149.711794 
L 250.799141 147.5372 
L 253.696091 145.628967 
L 256.593041 143.981373 
L 259.489992 142.524833 
L 262.386942 141.267467 
L 263.352592 140.88109 
L 263.352592 140.88109 
" style="fill:none;stroke:#495371;stroke-dasharray:4,3;stroke-dashoffset:0;stroke-width:2;"/>
   </g>
   <g id="line2d_20">
    <path clip-path="url(#pc1880259a0)" d="M 71.188219 221.304701 
L 73.119519 215.04403 
L 75.050819 209.588344 
L 76.982119 204.742609 
L 78.91342 200.406377 
L 81.81037 194.649454 
L 84.70732 189.568767 
L 87.604271 185.042443 
L 90.501221 180.985626 
L 93.398171 177.327859 
L 96.295122 173.935347 
L 100.157722 169.855174 
L 103.054673 167.083264 
L 106.917273 163.695949 
L 109.814223 161.364188 
L 114.642474 157.822765 
L 118.505074 155.242439 
L 119.470725 221.001773 
L 121.402025 214.710053 
L 123.333325 209.1682 
L 125.264625 204.261254 
L 127.195926 199.867243 
L 130.092876 194.055449 
L 132.989826 188.988818 
L 135.886777 184.461682 
L 138.783727 180.409678 
L 141.680677 176.739036 
L 144.577628 173.369374 
L 147.474578 170.28912 
L 150.371528 167.45465 
L 154.234129 163.990539 
L 158.096729 160.845919 
L 161.95933 157.964966 
L 165.82193 155.29336 
L 166.78758 154.6758 
L 167.75323 221.200596 
L 169.684531 214.886615 
L 171.615831 209.359116 
L 173.547131 204.439837 
L 175.478431 200.087092 
L 178.375382 194.257111 
L 181.272332 189.158923 
L 184.169283 184.606029 
L 187.066233 180.488713 
L 189.963183 176.779324 
L 193.825784 172.368437 
L 196.722734 169.369563 
L 200.585335 165.689996 
L 205.413585 161.576546 
L 209.276186 158.613092 
L 213.138786 155.883244 
L 215.070086 154.613835 
L 216.035736 221.609685 
L 217.967037 215.503527 
L 219.898337 210.163803 
L 221.829637 205.416562 
L 223.760937 201.105725 
L 225.692238 197.213725 
L 228.589188 191.933083 
L 231.486138 187.263065 
L 234.383089 183.047727 
L 237.280039 179.251527 
L 240.176989 175.786116 
L 244.03959 171.594554 
L 247.90219 167.822178 
L 250.799141 165.207744 
L 254.661741 162.034609 
L 258.524342 159.131448 
L 263.352592 155.850942 
L 263.352592 155.850942 
" style="fill:none;stroke:#488fb1;stroke-dasharray:4,3;stroke-dashoffset:0;stroke-width:2;"/>
   </g>
   <g id="line2d_21">
    <path clip-path="url(#pc1880259a0)" d="M 71.188219 218.287082 
L 72.153869 213.637225 
L 73.119519 209.939374 
L 74.085169 206.844647 
L 75.050819 204.175067 
L 76.982119 199.725078 
L 78.91342 196.066328 
L 80.84472 192.93698 
L 82.77602 190.219033 
L 84.70732 187.758445 
L 87.604271 184.58129 
L 90.501221 181.791355 
L 93.398171 179.27686 
L 96.295122 177.012963 
L 100.157722 174.269563 
L 104.985973 171.241082 
L 109.814223 168.539115 
L 113.676824 166.552912 
L 118.505074 164.264854 
L 119.470725 217.839627 
L 120.436375 213.016428 
L 121.402025 209.205057 
L 122.367675 206.032471 
L 123.333325 203.258966 
L 125.264625 198.649459 
L 127.195926 194.830687 
L 129.127226 191.609912 
L 131.058526 188.780188 
L 132.989826 186.225991 
L 135.886777 182.912099 
L 138.783727 179.965555 
L 142.646327 176.555462 
L 145.543278 174.253092 
L 149.405878 171.477656 
L 153.268479 168.990158 
L 157.131079 166.738522 
L 160.99368 164.658829 
L 166.78758 161.831648 
L 167.75323 218.316244 
L 168.718881 213.645863 
L 169.684531 209.932778 
L 170.650181 206.842217 
L 172.581481 201.842857 
L 174.512781 197.824862 
L 176.444082 194.449951 
L 178.375382 191.560607 
L 181.272332 187.809643 
L 184.169283 184.614633 
L 187.066233 181.817623 
L 189.963183 179.31346 
L 192.860134 177.03832 
L 196.722734 174.30671 
L 200.585335 171.85254 
L 205.413585 169.082199 
L 210.241836 166.604419 
L 215.070086 164.331787 
L 216.035736 217.302775 
L 217.001387 212.397761 
L 217.967037 208.440759 
L 218.932687 205.159982 
L 220.863987 199.830742 
L 222.795287 195.580614 
L 224.726587 192.010645 
L 226.657888 188.922915 
L 229.554838 184.964054 
L 232.451788 181.571601 
L 235.348739 178.590993 
L 239.211339 175.084685 
L 242.10829 172.766615 
L 245.97089 169.959693 
L 249.833491 167.433433 
L 254.661741 164.54649 
L 259.489992 161.988712 
L 263.352592 160.090105 
L 263.352592 160.090105 
" style="fill:none;stroke:#2fa4ff;stroke-dasharray:4,3;stroke-dashoffset:0;stroke-width:2;"/>
   </g>
   <g id="line2d_22">
    <path clip-path="url(#pc1880259a0)" d="M 71.188219 218.219357 
L 72.153869 209.905656 
L 74.085169 189.179966 
L 76.016469 167.638082 
L 76.982119 159.363859 
L 77.94777 153.929272 
L 78.91342 151.016643 
L 79.87907 149.722942 
L 80.84472 149.187139 
L 81.81037 148.973109 
L 83.74167 148.863298 
L 96.295122 148.849005 
L 118.505074 148.849005 
L 119.470725 224.671327 
L 263.352592 224.662218 
L 263.352592 224.662218 
" style="fill:none;stroke:#8267be;stroke-dasharray:4,3;stroke-dashoffset:0;stroke-width:2;"/>
   </g>
   <g id="line2d_23"/>
   <g id="patch_3">
    <path d="M 61.58 235 
L 61.58 10.8 
" style="fill:none;stroke:#000000;stroke-linecap:square;stroke-linejoin:miter;stroke-width:0.8;"/>
   </g>
   <g id="patch_4">
    <path d="M 272.960811 235 
L 272.960811 10.8 
" style="fill:none;stroke:#000000;stroke-linecap:square;stroke-linejoin:miter;stroke-width:0.8;"/>
   </g>
   <g id="patch_5">
    <path d="M 61.58 235 
L 272.960811 235 
" style="fill:none;stroke:#000000;stroke-linecap:square;stroke-linejoin:miter;stroke-width:0.8;"/>
   </g>
   <g id="patch_6">
    <path d="M 61.58 10.8 
L 272.960811 10.8 
" style="fill:none;stroke:#000000;stroke-linecap:square;stroke-linejoin:miter;stroke-width:0.8;"/>
   </g>
   <g id="legend_1">
    <g id="patch_7">
     <path d="M 148.932324 212.58 
L 260.383262 212.58 
Q 263.183262 212.58 263.183262 209.78 
L 263.183262 170.08125 
Q 263.183262 167.28125 260.383262 167.28125 
L 148.932324 167.28125 
Q 146.132324 167.28125 146.132324 170.08125 
L 146.132324 209.78 
Q 146.132324 212.58 148.932324 212.58 
z
" style="fill:#ffffff;opacity:0.8;stroke:#cccccc;stroke-linejoin:miter;"/>
    </g>
    <g id="line2d_24">
     <path d="M 151.732324 178.619062 
L 179.732324 178.619062 
" style="fill:none;stroke:#151d3b;stroke-linecap:square;stroke-width:3;"/>
    </g>
    <g id="line2d_25"/>
    <g id="text_12">
     <!-- RL -->
     <g transform="translate(190.932324 183.519062)scale(0.14 -0.14)">
      <defs>
       <path d="M 2841 2188 
Q 3044 2119 3236 1894 
Q 3428 1669 3622 1275 
L 4263 0 
L 3584 0 
L 2988 1197 
Q 2756 1666 2539 1819 
Q 2322 1972 1947 1972 
L 1259 1972 
L 1259 0 
L 628 0 
L 628 4666 
L 2053 4666 
Q 2853 4666 3247 4331 
Q 3641 3997 3641 3322 
Q 3641 2881 3436 2590 
Q 3231 2300 2841 2188 
z
M 1259 4147 
L 1259 2491 
L 2053 2491 
Q 2509 2491 2742 2702 
Q 2975 2913 2975 3322 
Q 2975 3731 2742 3939 
Q 2509 4147 2053 4147 
L 1259 4147 
z
" id="DejaVuSans-52" transform="scale(0.015625)"/>
       <path d="M 628 4666 
L 1259 4666 
L 1259 531 
L 3531 531 
L 3531 0 
L 628 0 
L 628 4666 
z
" id="DejaVuSans-4c" transform="scale(0.015625)"/>
      </defs>
      <use xlink:href="#DejaVuSans-52"/>
      <use x="69.482422" xlink:href="#DejaVuSans-4c"/>
     </g>
    </g>
    <g id="line2d_26">
     <path d="M 151.732324 199.168437 
L 179.732324 199.168437 
" style="fill:none;stroke:#747474;stroke-dasharray:5,3.75;stroke-dashoffset:0;stroke-width:2.5;"/>
    </g>
    <g id="line2d_27"/>
    <g id="text_13">
     <!-- Baselines -->
     <g transform="translate(190.932324 204.068437)scale(0.14 -0.14)">
      <defs>
       <path d="M 1259 2228 
L 1259 519 
L 2272 519 
Q 2781 519 3026 730 
Q 3272 941 3272 1375 
Q 3272 1813 3026 2020 
Q 2781 2228 2272 2228 
L 1259 2228 
z
M 1259 4147 
L 1259 2741 
L 2194 2741 
Q 2656 2741 2882 2914 
Q 3109 3088 3109 3444 
Q 3109 3797 2882 3972 
Q 2656 4147 2194 4147 
L 1259 4147 
z
M 628 4666 
L 2241 4666 
Q 2963 4666 3353 4366 
Q 3744 4066 3744 3513 
Q 3744 3084 3544 2831 
Q 3344 2578 2956 2516 
Q 3422 2416 3680 2098 
Q 3938 1781 3938 1306 
Q 3938 681 3513 340 
Q 3088 0 2303 0 
L 628 0 
L 628 4666 
z
" id="DejaVuSans-42" transform="scale(0.015625)"/>
       <path d="M 2834 3397 
L 2834 2853 
Q 2591 2978 2328 3040 
Q 2066 3103 1784 3103 
Q 1356 3103 1142 2972 
Q 928 2841 928 2578 
Q 928 2378 1081 2264 
Q 1234 2150 1697 2047 
L 1894 2003 
Q 2506 1872 2764 1633 
Q 3022 1394 3022 966 
Q 3022 478 2636 193 
Q 2250 -91 1575 -91 
Q 1294 -91 989 -36 
Q 684 19 347 128 
L 347 722 
Q 666 556 975 473 
Q 1284 391 1588 391 
Q 1994 391 2212 530 
Q 2431 669 2431 922 
Q 2431 1156 2273 1281 
Q 2116 1406 1581 1522 
L 1381 1569 
Q 847 1681 609 1914 
Q 372 2147 372 2553 
Q 372 3047 722 3315 
Q 1072 3584 1716 3584 
Q 2034 3584 2315 3537 
Q 2597 3491 2834 3397 
z
" id="DejaVuSans-73" transform="scale(0.015625)"/>
       <path d="M 603 4863 
L 1178 4863 
L 1178 0 
L 603 0 
L 603 4863 
z
" id="DejaVuSans-6c" transform="scale(0.015625)"/>
      </defs>
      <use xlink:href="#DejaVuSans-42"/>
      <use x="68.603516" xlink:href="#DejaVuSans-61"/>
      <use x="129.882812" xlink:href="#DejaVuSans-73"/>
      <use x="181.982422" xlink:href="#DejaVuSans-65"/>
      <use x="243.505859" xlink:href="#DejaVuSans-6c"/>
      <use x="271.289062" xlink:href="#DejaVuSans-69"/>
      <use x="299.072266" xlink:href="#DejaVuSans-6e"/>
      <use x="362.451172" xlink:href="#DejaVuSans-65"/>
      <use x="423.974609" xlink:href="#DejaVuSans-73"/>
     </g>
    </g>
   </g>
  </g>
 </g>
 <defs>
  <clipPath id="pc1880259a0">
   <rect height="224.2" width="211.380811" x="61.58" y="10.8"/>
  </clipPath>
 </defs>
</svg>
