<?xml version="1.0" encoding="utf-8" standalone="no"?>
<!DOCTYPE svg PUBLIC "-//W3C//DTD SVG 1.1//EN"
  "http://www.w3.org/Graphics/SVG/1.1/DTD/svg11.dtd">
<svg height="288pt" version="1.1" viewBox="0 0 288 288" width="288pt" xmlns="http://www.w3.org/2000/svg" xmlns:xlink="http://www.w3.org/1999/xlink">
 <metadata>
  <rdf:RDF xmlns:cc="http://creativecommons.org/ns#" xmlns:dc="http://purl.org/dc/elements/1.1/" xmlns:rdf="http://www.w3.org/1999/02/22-rdf-syntax-ns#">
   <cc:Work>
    <dc:type rdf:resource="http://purl.org/dc/dcmitype/StillImage"/>
    <dc:date>2022-04-19T01:56:07.806920</dc:date>
    <dc:format>image/svg+xml</dc:format>
    <dc:creator>
     <cc:Agent>
      <dc:title>Matplotlib v3.4.1, https://matplotlib.org/</dc:title>
     </cc:Agent>
    </dc:creator>
   </cc:Work>
  </rdf:RDF>
 </metadata>
 <defs>
  <style type="text/css">*{stroke-linecap:butt;stroke-linejoin:round;}</style>
 </defs>
 <g id="figure_1">
  <g id="patch_1">
   <path d="M 0 288 
L 288 288 
L 288 0 
L 0 0 
z
" style="fill:none;"/>
  </g>
  <g id="axes_1">
   <g id="patch_2">
    <path d="M 57.14 235 
L 272.960811 235 
L 272.960811 10.8 
L 57.14 10.8 
z
" style="fill:none;"/>
   </g>
   <g id="matplotlib.axis_1">
    <g id="xtick_1">
     <g id="line2d_1">
      <defs>
       <path d="M 0 0 
L 0 3.5 
" id="m9308b86558" style="stroke:#000000;stroke-width:0.8;"/>
      </defs>
      <g>
       <use style="stroke:#000000;stroke-width:0.8;" x="66.950037" xlink:href="#m9308b86558" y="235"/>
      </g>
     </g>
     <g id="text_1">
      <!-- 0 -->
      <g transform="translate(62.496287 252.637812)scale(0.14 -0.14)">
       <defs>
        <path d="M 2034 4250 
Q 1547 4250 1301 3770 
Q 1056 3291 1056 2328 
Q 1056 1369 1301 889 
Q 1547 409 2034 409 
Q 2525 409 2770 889 
Q 3016 1369 3016 2328 
Q 3016 3291 2770 3770 
Q 2525 4250 2034 4250 
z
M 2034 4750 
Q 2819 4750 3233 4129 
Q 3647 3509 3647 2328 
Q 3647 1150 3233 529 
Q 2819 -91 2034 -91 
Q 1250 -91 836 529 
Q 422 1150 422 2328 
Q 422 3509 836 4129 
Q 1250 4750 2034 4750 
z
" id="DejaVuSans-30" transform="scale(0.015625)"/>
       </defs>
       <use xlink:href="#DejaVuSans-30"/>
      </g>
     </g>
    </g>
    <g id="xtick_2">
     <g id="line2d_2">
      <g>
       <use style="stroke:#000000;stroke-width:0.8;" x="116.246704" xlink:href="#m9308b86558" y="235"/>
      </g>
     </g>
     <g id="text_2">
      <!-- 50 -->
      <g transform="translate(107.339204 252.637812)scale(0.14 -0.14)">
       <defs>
        <path d="M 691 4666 
L 3169 4666 
L 3169 4134 
L 1269 4134 
L 1269 2991 
Q 1406 3038 1543 3061 
Q 1681 3084 1819 3084 
Q 2600 3084 3056 2656 
Q 3513 2228 3513 1497 
Q 3513 744 3044 326 
Q 2575 -91 1722 -91 
Q 1428 -91 1123 -41 
Q 819 9 494 109 
L 494 744 
Q 775 591 1075 516 
Q 1375 441 1709 441 
Q 2250 441 2565 725 
Q 2881 1009 2881 1497 
Q 2881 1984 2565 2268 
Q 2250 2553 1709 2553 
Q 1456 2553 1204 2497 
Q 953 2441 691 2322 
L 691 4666 
z
" id="DejaVuSans-35" transform="scale(0.015625)"/>
       </defs>
       <use xlink:href="#DejaVuSans-35"/>
       <use x="63.623047" xlink:href="#DejaVuSans-30"/>
      </g>
     </g>
    </g>
    <g id="xtick_3">
     <g id="line2d_3">
      <g>
       <use style="stroke:#000000;stroke-width:0.8;" x="165.543372" xlink:href="#m9308b86558" y="235"/>
      </g>
     </g>
     <g id="text_3">
      <!-- 100 -->
      <g transform="translate(152.182122 252.637812)scale(0.14 -0.14)">
       <defs>
        <path d="M 794 531 
L 1825 531 
L 1825 4091 
L 703 3866 
L 703 4441 
L 1819 4666 
L 2450 4666 
L 2450 531 
L 3481 531 
L 3481 0 
L 794 0 
L 794 531 
z
" id="DejaVuSans-31" transform="scale(0.015625)"/>
       </defs>
       <use xlink:href="#DejaVuSans-31"/>
       <use x="63.623047" xlink:href="#DejaVuSans-30"/>
       <use x="127.246094" xlink:href="#DejaVuSans-30"/>
      </g>
     </g>
    </g>
    <g id="xtick_4">
     <g id="line2d_4">
      <g>
       <use style="stroke:#000000;stroke-width:0.8;" x="214.84004" xlink:href="#m9308b86558" y="235"/>
      </g>
     </g>
     <g id="text_4">
      <!-- 150 -->
      <g transform="translate(201.47879 252.637812)scale(0.14 -0.14)">
       <use xlink:href="#DejaVuSans-31"/>
       <use x="63.623047" xlink:href="#DejaVuSans-35"/>
       <use x="127.246094" xlink:href="#DejaVuSans-30"/>
      </g>
     </g>
    </g>
    <g id="xtick_5">
     <g id="line2d_5">
      <g>
       <use style="stroke:#000000;stroke-width:0.8;" x="264.136707" xlink:href="#m9308b86558" y="235"/>
      </g>
     </g>
     <g id="text_5">
      <!-- 200 -->
      <g transform="translate(250.775457 252.637812)scale(0.14 -0.14)">
       <defs>
        <path d="M 1228 531 
L 3431 531 
L 3431 0 
L 469 0 
L 469 531 
Q 828 903 1448 1529 
Q 2069 2156 2228 2338 
Q 2531 2678 2651 2914 
Q 2772 3150 2772 3378 
Q 2772 3750 2511 3984 
Q 2250 4219 1831 4219 
Q 1534 4219 1204 4116 
Q 875 4013 500 3803 
L 500 4441 
Q 881 4594 1212 4672 
Q 1544 4750 1819 4750 
Q 2544 4750 2975 4387 
Q 3406 4025 3406 3419 
Q 3406 3131 3298 2873 
Q 3191 2616 2906 2266 
Q 2828 2175 2409 1742 
Q 1991 1309 1228 531 
z
" id="DejaVuSans-32" transform="scale(0.015625)"/>
       </defs>
       <use xlink:href="#DejaVuSans-32"/>
       <use x="63.623047" xlink:href="#DejaVuSans-30"/>
       <use x="127.246094" xlink:href="#DejaVuSans-30"/>
      </g>
     </g>
    </g>
    <g id="text_6">
     <!-- Time -->
     <g transform="translate(143.029937 273.226562)scale(0.18 -0.18)">
      <defs>
       <path d="M -19 4666 
L 3928 4666 
L 3928 4134 
L 2272 4134 
L 2272 0 
L 1638 0 
L 1638 4134 
L -19 4134 
L -19 4666 
z
" id="DejaVuSans-54" transform="scale(0.015625)"/>
       <path d="M 603 3500 
L 1178 3500 
L 1178 0 
L 603 0 
L 603 3500 
z
M 603 4863 
L 1178 4863 
L 1178 4134 
L 603 4134 
L 603 4863 
z
" id="DejaVuSans-69" transform="scale(0.015625)"/>
       <path d="M 3328 2828 
Q 3544 3216 3844 3400 
Q 4144 3584 4550 3584 
Q 5097 3584 5394 3201 
Q 5691 2819 5691 2113 
L 5691 0 
L 5113 0 
L 5113 2094 
Q 5113 2597 4934 2840 
Q 4756 3084 4391 3084 
Q 3944 3084 3684 2787 
Q 3425 2491 3425 1978 
L 3425 0 
L 2847 0 
L 2847 2094 
Q 2847 2600 2669 2842 
Q 2491 3084 2119 3084 
Q 1678 3084 1418 2786 
Q 1159 2488 1159 1978 
L 1159 0 
L 581 0 
L 581 3500 
L 1159 3500 
L 1159 2956 
Q 1356 3278 1631 3431 
Q 1906 3584 2284 3584 
Q 2666 3584 2933 3390 
Q 3200 3197 3328 2828 
z
" id="DejaVuSans-6d" transform="scale(0.015625)"/>
       <path d="M 3597 1894 
L 3597 1613 
L 953 1613 
Q 991 1019 1311 708 
Q 1631 397 2203 397 
Q 2534 397 2845 478 
Q 3156 559 3463 722 
L 3463 178 
Q 3153 47 2828 -22 
Q 2503 -91 2169 -91 
Q 1331 -91 842 396 
Q 353 884 353 1716 
Q 353 2575 817 3079 
Q 1281 3584 2069 3584 
Q 2775 3584 3186 3129 
Q 3597 2675 3597 1894 
z
M 3022 2063 
Q 3016 2534 2758 2815 
Q 2500 3097 2075 3097 
Q 1594 3097 1305 2825 
Q 1016 2553 972 2059 
L 3022 2063 
z
" id="DejaVuSans-65" transform="scale(0.015625)"/>
      </defs>
      <use xlink:href="#DejaVuSans-54"/>
      <use x="57.958984" xlink:href="#DejaVuSans-69"/>
      <use x="85.742188" xlink:href="#DejaVuSans-6d"/>
      <use x="183.154297" xlink:href="#DejaVuSans-65"/>
     </g>
    </g>
   </g>
   <g id="matplotlib.axis_2">
    <g id="ytick_1">
     <g id="line2d_6">
      <defs>
       <path d="M 0 0 
L -3.5 0 
" id="m122cca2251" style="stroke:#000000;stroke-width:0.8;"/>
      </defs>
      <g>
       <use style="stroke:#000000;stroke-width:0.8;" x="57.14" xlink:href="#m122cca2251" y="183.400199"/>
      </g>
     </g>
     <g id="text_7">
      <!-- 20 -->
      <g transform="translate(32.325 188.719105)scale(0.14 -0.14)">
       <use xlink:href="#DejaVuSans-32"/>
       <use x="63.623047" xlink:href="#DejaVuSans-30"/>
      </g>
     </g>
    </g>
    <g id="ytick_2">
     <g id="line2d_7">
      <g>
       <use style="stroke:#000000;stroke-width:0.8;" x="57.14" xlink:href="#m122cca2251" y="130.215529"/>
      </g>
     </g>
     <g id="text_8">
      <!-- 40 -->
      <g transform="translate(32.325 135.534435)scale(0.14 -0.14)">
       <defs>
        <path d="M 2419 4116 
L 825 1625 
L 2419 1625 
L 2419 4116 
z
M 2253 4666 
L 3047 4666 
L 3047 1625 
L 3713 1625 
L 3713 1100 
L 3047 1100 
L 3047 0 
L 2419 0 
L 2419 1100 
L 313 1100 
L 313 1709 
L 2253 4666 
z
" id="DejaVuSans-34" transform="scale(0.015625)"/>
       </defs>
       <use xlink:href="#DejaVuSans-34"/>
       <use x="63.623047" xlink:href="#DejaVuSans-30"/>
      </g>
     </g>
    </g>
    <g id="ytick_3">
     <g id="line2d_8">
      <g>
       <use style="stroke:#000000;stroke-width:0.8;" x="57.14" xlink:href="#m122cca2251" y="77.030859"/>
      </g>
     </g>
     <g id="text_9">
      <!-- 60 -->
      <g transform="translate(32.325 82.349765)scale(0.14 -0.14)">
       <defs>
        <path d="M 2113 2584 
Q 1688 2584 1439 2293 
Q 1191 2003 1191 1497 
Q 1191 994 1439 701 
Q 1688 409 2113 409 
Q 2538 409 2786 701 
Q 3034 994 3034 1497 
Q 3034 2003 2786 2293 
Q 2538 2584 2113 2584 
z
M 3366 4563 
L 3366 3988 
Q 3128 4100 2886 4159 
Q 2644 4219 2406 4219 
Q 1781 4219 1451 3797 
Q 1122 3375 1075 2522 
Q 1259 2794 1537 2939 
Q 1816 3084 2150 3084 
Q 2853 3084 3261 2657 
Q 3669 2231 3669 1497 
Q 3669 778 3244 343 
Q 2819 -91 2113 -91 
Q 1303 -91 875 529 
Q 447 1150 447 2328 
Q 447 3434 972 4092 
Q 1497 4750 2381 4750 
Q 2619 4750 2861 4703 
Q 3103 4656 3366 4563 
z
" id="DejaVuSans-36" transform="scale(0.015625)"/>
       </defs>
       <use xlink:href="#DejaVuSans-36"/>
       <use x="63.623047" xlink:href="#DejaVuSans-30"/>
      </g>
     </g>
    </g>
    <g id="ytick_4">
     <g id="line2d_9">
      <g>
       <use style="stroke:#000000;stroke-width:0.8;" x="57.14" xlink:href="#m122cca2251" y="23.846189"/>
      </g>
     </g>
     <g id="text_10">
      <!-- 80 -->
      <g transform="translate(32.325 29.165095)scale(0.14 -0.14)">
       <defs>
        <path d="M 2034 2216 
Q 1584 2216 1326 1975 
Q 1069 1734 1069 1313 
Q 1069 891 1326 650 
Q 1584 409 2034 409 
Q 2484 409 2743 651 
Q 3003 894 3003 1313 
Q 3003 1734 2745 1975 
Q 2488 2216 2034 2216 
z
M 1403 2484 
Q 997 2584 770 2862 
Q 544 3141 544 3541 
Q 544 4100 942 4425 
Q 1341 4750 2034 4750 
Q 2731 4750 3128 4425 
Q 3525 4100 3525 3541 
Q 3525 3141 3298 2862 
Q 3072 2584 2669 2484 
Q 3125 2378 3379 2068 
Q 3634 1759 3634 1313 
Q 3634 634 3220 271 
Q 2806 -91 2034 -91 
Q 1263 -91 848 271 
Q 434 634 434 1313 
Q 434 1759 690 2068 
Q 947 2378 1403 2484 
z
M 1172 3481 
Q 1172 3119 1398 2916 
Q 1625 2713 2034 2713 
Q 2441 2713 2670 2916 
Q 2900 3119 2900 3481 
Q 2900 3844 2670 4047 
Q 2441 4250 2034 4250 
Q 1625 4250 1398 4047 
Q 1172 3844 1172 3481 
z
" id="DejaVuSans-38" transform="scale(0.015625)"/>
       </defs>
       <use xlink:href="#DejaVuSans-38"/>
       <use x="63.623047" xlink:href="#DejaVuSans-30"/>
      </g>
     </g>
    </g>
    <g id="text_11">
     <!-- Mean Payoff -->
     <g transform="translate(24.581563 177.989844)rotate(-90)scale(0.18 -0.18)">
      <defs>
       <path d="M 628 4666 
L 1569 4666 
L 2759 1491 
L 3956 4666 
L 4897 4666 
L 4897 0 
L 4281 0 
L 4281 4097 
L 3078 897 
L 2444 897 
L 1241 4097 
L 1241 0 
L 628 0 
L 628 4666 
z
" id="DejaVuSans-4d" transform="scale(0.015625)"/>
       <path d="M 2194 1759 
Q 1497 1759 1228 1600 
Q 959 1441 959 1056 
Q 959 750 1161 570 
Q 1363 391 1709 391 
Q 2188 391 2477 730 
Q 2766 1069 2766 1631 
L 2766 1759 
L 2194 1759 
z
M 3341 1997 
L 3341 0 
L 2766 0 
L 2766 531 
Q 2569 213 2275 61 
Q 1981 -91 1556 -91 
Q 1019 -91 701 211 
Q 384 513 384 1019 
Q 384 1609 779 1909 
Q 1175 2209 1959 2209 
L 2766 2209 
L 2766 2266 
Q 2766 2663 2505 2880 
Q 2244 3097 1772 3097 
Q 1472 3097 1187 3025 
Q 903 2953 641 2809 
L 641 3341 
Q 956 3463 1253 3523 
Q 1550 3584 1831 3584 
Q 2591 3584 2966 3190 
Q 3341 2797 3341 1997 
z
" id="DejaVuSans-61" transform="scale(0.015625)"/>
       <path d="M 3513 2113 
L 3513 0 
L 2938 0 
L 2938 2094 
Q 2938 2591 2744 2837 
Q 2550 3084 2163 3084 
Q 1697 3084 1428 2787 
Q 1159 2491 1159 1978 
L 1159 0 
L 581 0 
L 581 3500 
L 1159 3500 
L 1159 2956 
Q 1366 3272 1645 3428 
Q 1925 3584 2291 3584 
Q 2894 3584 3203 3211 
Q 3513 2838 3513 2113 
z
" id="DejaVuSans-6e" transform="scale(0.015625)"/>
       <path id="DejaVuSans-20" transform="scale(0.015625)"/>
       <path d="M 1259 4147 
L 1259 2394 
L 2053 2394 
Q 2494 2394 2734 2622 
Q 2975 2850 2975 3272 
Q 2975 3691 2734 3919 
Q 2494 4147 2053 4147 
L 1259 4147 
z
M 628 4666 
L 2053 4666 
Q 2838 4666 3239 4311 
Q 3641 3956 3641 3272 
Q 3641 2581 3239 2228 
Q 2838 1875 2053 1875 
L 1259 1875 
L 1259 0 
L 628 0 
L 628 4666 
z
" id="DejaVuSans-50" transform="scale(0.015625)"/>
       <path d="M 2059 -325 
Q 1816 -950 1584 -1140 
Q 1353 -1331 966 -1331 
L 506 -1331 
L 506 -850 
L 844 -850 
Q 1081 -850 1212 -737 
Q 1344 -625 1503 -206 
L 1606 56 
L 191 3500 
L 800 3500 
L 1894 763 
L 2988 3500 
L 3597 3500 
L 2059 -325 
z
" id="DejaVuSans-79" transform="scale(0.015625)"/>
       <path d="M 1959 3097 
Q 1497 3097 1228 2736 
Q 959 2375 959 1747 
Q 959 1119 1226 758 
Q 1494 397 1959 397 
Q 2419 397 2687 759 
Q 2956 1122 2956 1747 
Q 2956 2369 2687 2733 
Q 2419 3097 1959 3097 
z
M 1959 3584 
Q 2709 3584 3137 3096 
Q 3566 2609 3566 1747 
Q 3566 888 3137 398 
Q 2709 -91 1959 -91 
Q 1206 -91 779 398 
Q 353 888 353 1747 
Q 353 2609 779 3096 
Q 1206 3584 1959 3584 
z
" id="DejaVuSans-6f" transform="scale(0.015625)"/>
       <path d="M 2375 4863 
L 2375 4384 
L 1825 4384 
Q 1516 4384 1395 4259 
Q 1275 4134 1275 3809 
L 1275 3500 
L 2222 3500 
L 2222 3053 
L 1275 3053 
L 1275 0 
L 697 0 
L 697 3053 
L 147 3053 
L 147 3500 
L 697 3500 
L 697 3744 
Q 697 4328 969 4595 
Q 1241 4863 1831 4863 
L 2375 4863 
z
" id="DejaVuSans-66" transform="scale(0.015625)"/>
      </defs>
      <use xlink:href="#DejaVuSans-4d"/>
      <use x="86.279297" xlink:href="#DejaVuSans-65"/>
      <use x="147.802734" xlink:href="#DejaVuSans-61"/>
      <use x="209.082031" xlink:href="#DejaVuSans-6e"/>
      <use x="272.460938" xlink:href="#DejaVuSans-20"/>
      <use x="304.248047" xlink:href="#DejaVuSans-50"/>
      <use x="360.050781" xlink:href="#DejaVuSans-61"/>
      <use x="421.330078" xlink:href="#DejaVuSans-79"/>
      <use x="480.509766" xlink:href="#DejaVuSans-6f"/>
      <use x="541.691406" xlink:href="#DejaVuSans-66"/>
      <use x="576.896484" xlink:href="#DejaVuSans-66"/>
     </g>
    </g>
   </g>
   <g id="line2d_10">
    <path clip-path="url(#p342c321910)" d="M 66.950037 213.266999 
L 67.93597 197.686846 
L 68.921904 176.338908 
L 69.907837 152.579282 
L 70.89377 131.913866 
L 71.879704 115.473158 
L 72.865637 102.311005 
L 73.85157 91.785444 
L 74.837504 83.440159 
L 75.823437 76.92823 
L 76.80937 71.91563 
L 77.795304 67.73398 
L 78.781237 64.259409 
L 79.76717 61.358582 
L 80.753104 58.888131 
L 82.72497 54.749188 
L 84.696837 51.267221 
L 86.668704 48.294229 
L 90.612437 43.005302 
L 92.584304 40.837675 
L 95.542104 37.975599 
L 99.485837 34.453015 
L 102.443638 32.339112 
L 108.359238 28.317841 
L 115.260771 24.536642 
L 116.246704 218.647197 
L 117.232638 210.365259 
L 118.218571 197.411138 
L 119.204505 178.428673 
L 121.176371 137.218314 
L 122.162305 121.548461 
L 123.148238 108.778563 
L 124.134171 98.503025 
L 125.120105 90.236571 
L 126.106038 83.552272 
L 127.091971 78.114409 
L 128.077905 73.766586 
L 129.063838 70.1833 
L 130.049771 67.178911 
L 132.021638 62.1986 
L 133.993505 58.12249 
L 135.965372 54.59457 
L 137.937238 51.594452 
L 139.909105 49.237495 
L 143.852838 45.160694 
L 146.810638 42.334752 
L 148.782505 40.693019 
L 152.726239 37.762754 
L 155.684039 35.80503 
L 159.627772 33.117129 
L 161.599639 32.057307 
L 164.557439 30.542031 
L 165.543372 217.268661 
L 166.529305 208.296799 
L 167.515239 194.488612 
L 168.501172 174.437642 
L 169.487106 151.601683 
L 170.473039 131.683157 
L 171.458972 116.049976 
L 172.444906 103.847106 
L 173.430839 94.336926 
L 174.416772 86.857497 
L 175.402706 80.904441 
L 176.388639 76.124153 
L 177.374572 72.181458 
L 178.360506 68.945417 
L 180.332372 63.60655 
L 181.318306 61.400822 
L 183.290172 57.706538 
L 185.262039 54.291645 
L 187.233906 51.370083 
L 189.205773 48.953559 
L 192.163573 45.743213 
L 195.121373 42.952836 
L 198.079173 40.463943 
L 205.96664 34.560279 
L 208.92444 32.473887 
L 210.896306 31.265899 
L 213.854106 29.719745 
L 214.84004 218.025684 
L 215.825973 208.928469 
L 216.811906 194.87039 
L 217.79784 174.28276 
L 218.783773 150.626006 
L 219.769707 129.680799 
L 220.75564 112.6856 
L 221.741573 98.94314 
L 222.727507 88.198932 
L 223.71344 79.650226 
L 224.699373 72.80214 
L 225.685307 67.31741 
L 226.67124 62.933363 
L 227.657173 59.383532 
L 228.643107 56.419243 
L 229.62904 54.012336 
L 231.600907 49.997151 
L 233.572773 46.500841 
L 235.54464 43.41121 
L 237.516507 40.701621 
L 239.488374 38.316037 
L 244.41804 33.358723 
L 248.361774 30.060995 
L 251.319574 28.032587 
L 258.221107 23.742475 
L 263.150774 20.990909 
L 263.150774 20.990909 
" style="fill:none;stroke:#151d3b;stroke-linecap:square;stroke-width:3;"/>
   </g>
   <g id="line2d_11">
    <path clip-path="url(#p342c321910)" d="M 66.950037 210.606442 
L 68.921904 167.864325 
L 69.907837 153.651652 
L 70.89377 150.566024 
L 71.879704 150.340519 
L 76.80937 150.315889 
L 115.260771 150.315889 
L 116.246704 223.718723 
L 164.557439 223.718723 
L 165.543372 224.418989 
L 263.150774 224.393922 
L 263.150774 224.393922 
" style="fill:none;stroke:#98042d;stroke-dasharray:4,3;stroke-dashoffset:0;stroke-width:2;"/>
   </g>
   <g id="line2d_12">
    <path clip-path="url(#p342c321910)" d="M 66.950037 208.523473 
L 67.93597 185.288902 
L 68.921904 159.294494 
L 69.907837 137.543292 
L 70.89377 120.397828 
L 71.879704 105.384364 
L 72.865637 95.048884 
L 73.85157 88.283017 
L 74.837504 83.929676 
L 75.823437 81.362004 
L 76.80937 79.918458 
L 77.795304 79.220955 
L 78.781237 78.891401 
L 80.753104 78.658623 
L 85.682771 78.595262 
L 115.260771 78.59365 
L 116.246704 219.996038 
L 117.232638 210.324479 
L 121.176371 158.110335 
L 122.162305 147.590089 
L 123.148238 138.334599 
L 124.134171 131.283964 
L 125.120105 126.113338 
L 126.106038 122.589192 
L 127.091971 120.441306 
L 128.077905 118.985171 
L 129.063838 118.050589 
L 130.049771 117.427513 
L 131.035705 117.057982 
L 133.007571 116.787568 
L 136.951305 116.636796 
L 154.698105 116.621539 
L 164.557439 116.621539 
L 165.543372 219.515552 
L 166.529305 209.043547 
L 170.473039 152.643428 
L 171.458972 141.411914 
L 172.444906 131.818014 
L 173.430839 124.610591 
L 174.416772 119.48327 
L 175.402706 116.005189 
L 176.388639 113.737592 
L 177.374572 112.273747 
L 178.360506 111.384093 
L 179.346439 110.918121 
L 181.318306 110.500648 
L 184.276106 110.322861 
L 191.177639 110.268447 
L 213.854106 110.268447 
L 214.84004 219.711862 
L 215.825973 209.315395 
L 218.783773 167.552012 
L 219.769707 154.147144 
L 220.75564 143.056507 
L 221.741573 133.407737 
L 222.727507 126.508737 
L 223.71344 121.553736 
L 224.699373 118.006664 
L 225.685307 115.753959 
L 226.67124 114.446101 
L 227.657173 113.602836 
L 228.643107 113.105863 
L 229.62904 112.835684 
L 231.600907 112.60392 
L 237.516507 112.483559 
L 263.150774 112.481307 
L 263.150774 112.481307 
" style="fill:none;stroke:#ff0f39;stroke-dasharray:4,3;stroke-dashoffset:0;stroke-width:2;"/>
   </g>
   <g id="line2d_13">
    <path clip-path="url(#p342c321910)" d="M 66.950037 208.595933 
L 69.907837 141.660446 
L 72.865637 106.790508 
L 73.85157 98.499241 
L 74.837504 92.4881 
L 75.823437 87.622225 
L 76.80937 83.527399 
L 77.795304 80.382483 
L 78.781237 78.064012 
L 79.76717 76.123686 
L 80.753104 74.466352 
L 81.739037 73.120362 
L 83.710904 70.913569 
L 85.682771 68.994454 
L 87.654637 67.539334 
L 89.626504 66.439137 
L 93.570237 64.654829 
L 97.513971 63.153146 
L 104.415504 61.079881 
L 111.317038 59.668603 
L 113.288904 59.315424 
L 115.260771 58.88099 
L 116.246704 221.301907 
L 117.232638 212.426199 
L 120.190438 166.275256 
L 122.162305 143.687576 
L 123.148238 133.793723 
L 124.134171 125.285259 
L 125.120105 118.319014 
L 126.106038 112.436368 
L 127.091971 107.583894 
L 128.077905 103.843485 
L 129.063838 100.747748 
L 130.049771 98.054237 
L 131.035705 95.799228 
L 133.007571 92.196394 
L 134.979438 89.427776 
L 135.965372 88.255242 
L 137.937238 86.365849 
L 139.909105 84.638388 
L 143.852838 81.851196 
L 146.810638 80.420828 
L 149.768438 79.016814 
L 151.740305 78.114956 
L 154.698105 77.064061 
L 159.627772 75.277835 
L 164.557439 73.922482 
L 165.543372 221.298683 
L 166.529305 212.301591 
L 169.487106 165.178032 
L 171.458972 142.280843 
L 172.444906 132.481098 
L 173.430839 124.393576 
L 174.416772 117.717261 
L 175.402706 112.202657 
L 176.388639 107.715281 
L 177.374572 103.94233 
L 178.360506 100.795963 
L 179.346439 98.06711 
L 181.318306 93.618942 
L 183.290172 90.060813 
L 185.262039 87.148543 
L 187.233906 84.86222 
L 189.205773 83.063932 
L 193.149506 79.984841 
L 196.107306 78.43537 
L 203.994773 75.121736 
L 210.896306 72.748335 
L 213.854106 71.797786 
L 214.84004 220.726353 
L 215.825973 212.024528 
L 216.811906 196.485746 
L 217.79784 179.153636 
L 218.783773 165.174061 
L 220.75564 142.362007 
L 221.741573 132.345338 
L 222.727507 124.149264 
L 223.71344 117.47933 
L 224.699373 112.089549 
L 225.685307 107.573811 
L 226.67124 103.75028 
L 227.657173 100.619789 
L 228.643107 98.014594 
L 229.62904 95.815145 
L 231.600907 92.345077 
L 232.58684 90.966505 
L 235.54464 87.665866 
L 238.50244 85.07054 
L 241.46024 83.043218 
L 243.432107 81.985921 
L 246.389907 80.58637 
L 251.319574 79.177426 
L 256.249241 77.699644 
L 260.192974 76.483581 
L 263.150774 75.843068 
L 263.150774 75.843068 
" style="fill:none;stroke:#f16745;stroke-dasharray:4,3;stroke-dashoffset:0;stroke-width:2;"/>
   </g>
   <g id="line2d_14">
    <path clip-path="url(#p342c321910)" d="M 66.950037 209.165706 
L 68.921904 163.628165 
L 69.907837 147.046271 
L 70.89377 139.674167 
L 72.865637 128.21729 
L 74.837504 115.70061 
L 75.823437 110.254946 
L 76.80937 105.531962 
L 78.781237 97.707043 
L 80.753104 91.022886 
L 82.72497 85.302456 
L 84.696837 80.244613 
L 87.654637 73.806423 
L 89.626504 69.95531 
L 91.598371 66.665687 
L 93.570237 63.805619 
L 97.513971 58.897504 
L 101.457704 54.687329 
L 107.373304 48.651446 
L 111.317038 44.885463 
L 115.260771 41.872198 
L 116.246704 218.186414 
L 117.232638 205.154378 
L 118.218571 184.552841 
L 119.204505 161.030619 
L 120.190438 144.195748 
L 121.176371 136.262033 
L 123.148238 125.35003 
L 126.106038 107.77429 
L 127.091971 103.054674 
L 128.077905 98.912596 
L 130.049771 91.952234 
L 132.021638 85.949005 
L 133.993505 80.864037 
L 135.965372 76.398228 
L 138.923172 70.279163 
L 140.895038 66.778622 
L 142.866905 63.550737 
L 145.824705 59.106718 
L 148.782505 55.23905 
L 153.712172 49.573652 
L 156.669972 46.486558 
L 164.557439 40.020826 
L 165.543372 216.702071 
L 166.529305 204.225964 
L 167.515239 183.794863 
L 168.501172 160.075875 
L 169.487106 142.485654 
L 170.473039 134.039658 
L 172.444906 122.465098 
L 174.416772 109.83587 
L 175.402706 104.274764 
L 176.388639 99.603587 
L 178.360506 92.082353 
L 180.332372 85.745554 
L 182.304239 80.407914 
L 185.262039 73.436373 
L 187.233906 69.253009 
L 189.205773 65.442767 
L 192.163573 60.487968 
L 194.135439 57.475839 
L 197.093239 53.775307 
L 199.065106 51.760979 
L 205.96664 45.086743 
L 209.910373 41.486882 
L 213.854106 38.700927 
L 214.84004 218.114802 
L 215.825973 205.664833 
L 216.811906 185.647569 
L 217.79784 162.640909 
L 218.783773 146.005103 
L 219.769707 138.146779 
L 221.741573 127.297102 
L 224.699373 109.615782 
L 225.685307 105.022694 
L 227.657173 97.591724 
L 229.62904 91.266894 
L 231.600907 85.978738 
L 233.572773 81.243226 
L 235.54464 77.058522 
L 237.516507 73.286767 
L 240.474307 67.990567 
L 242.446174 64.592909 
L 244.41804 61.940614 
L 248.361774 57.162628 
L 251.319574 53.968675 
L 259.207041 46.992326 
L 263.150774 44.183953 
L 263.150774 44.183953 
" style="fill:none;stroke:#ffc65d;stroke-dasharray:4,3;stroke-dashoffset:0;stroke-width:2;"/>
   </g>
   <g id="line2d_15">
    <path clip-path="url(#p342c321910)" d="M 66.950037 224.406153 
L 85.682771 224.297163 
L 111.317038 223.740586 
L 115.260771 223.696689 
L 116.246704 224.725871 
L 123.148238 224.595292 
L 148.782505 224.241626 
L 164.557439 224.15622 
L 165.543372 224.587072 
L 170.473039 224.505082 
L 213.854106 224.334905 
L 214.84004 224.809091 
L 219.769707 224.740001 
L 253.29144 224.711111 
L 263.150774 224.709887 
L 263.150774 224.709887 
" style="fill:none;stroke:#3a6351;stroke-dasharray:4,3;stroke-dashoffset:0;stroke-width:2;"/>
   </g>
   <g id="line2d_16">
    <path clip-path="url(#p342c321910)" d="M 66.950037 219.430171 
L 68.921904 210.168231 
L 70.89377 202.209916 
L 72.865637 195.291967 
L 74.837504 189.298228 
L 76.80937 183.971174 
L 78.781237 179.240298 
L 80.753104 174.921767 
L 82.72497 170.944643 
L 87.654637 161.870079 
L 90.612437 156.315857 
L 92.584304 152.218829 
L 94.556171 147.546469 
L 96.528037 142.256487 
L 98.499904 136.248389 
L 101.457704 126.303998 
L 103.429571 119.208221 
L 109.345171 96.619456 
L 112.302971 85.599417 
L 115.260771 75.777577 
L 116.246704 219.039576 
L 119.204505 203.447969 
L 122.162305 188.370386 
L 126.106038 170.879832 
L 128.077905 162.683378 
L 130.049771 155.326217 
L 133.007571 145.228151 
L 134.979438 139.010403 
L 136.951305 133.346953 
L 138.923172 128.242112 
L 140.895038 123.705477 
L 142.866905 119.730484 
L 145.824705 114.48898 
L 147.796572 111.433597 
L 150.754372 107.421385 
L 154.698105 102.675465 
L 156.669972 100.628736 
L 160.613705 97.088938 
L 162.585572 95.533502 
L 164.557439 94.242798 
L 165.543372 220.609897 
L 169.487106 200.630844 
L 171.458972 190.612973 
L 177.374572 163.518532 
L 180.332372 151.625045 
L 182.304239 144.54134 
L 184.276106 138.335035 
L 186.247973 132.636466 
L 188.219839 127.44686 
L 190.191706 122.857931 
L 192.163573 118.93583 
L 194.135439 115.522438 
L 196.107306 112.476194 
L 198.079173 109.78804 
L 201.036973 106.488993 
L 203.00884 104.661206 
L 204.980706 103.158104 
L 208.92444 100.742919 
L 212.868173 98.54135 
L 213.854106 98.015405 
L 214.84004 218.761158 
L 217.79784 202.669901 
L 220.75564 186.094425 
L 224.699373 166.906117 
L 226.67124 158.016836 
L 228.643107 149.781636 
L 230.614973 142.269218 
L 232.58684 135.721643 
L 234.558707 129.944162 
L 236.530573 124.939272 
L 239.488374 118.363019 
L 241.46024 114.601094 
L 243.432107 111.462071 
L 245.403974 108.875937 
L 248.361774 105.68034 
L 251.319574 102.969717 
L 253.29144 101.388748 
L 255.263307 100.095244 
L 258.221107 98.559498 
L 262.164841 96.822004 
L 263.150774 96.430277 
L 263.150774 96.430277 
" style="fill:none;stroke:#019267;stroke-dasharray:4,3;stroke-dashoffset:0;stroke-width:2;"/>
   </g>
   <g id="line2d_17">
    <path clip-path="url(#p342c321910)" d="M 66.950037 220.599219 
L 68.921904 214.073275 
L 70.89377 208.349873 
L 72.865637 203.309303 
L 74.837504 198.763551 
L 76.80937 194.647079 
L 79.76717 189.108304 
L 82.72497 184.13905 
L 85.682771 179.561001 
L 96.528037 163.310693 
L 99.485837 158.431905 
L 101.457704 154.875709 
L 104.415504 148.881716 
L 107.373304 142.283511 
L 111.317038 132.781558 
L 115.260771 122.243458 
L 116.246704 220.102374 
L 118.218571 213.060027 
L 121.176371 203.864319 
L 126.106038 189.536383 
L 130.049771 179.373587 
L 133.007571 171.979658 
L 139.909105 155.965502 
L 145.824705 142.838347 
L 150.754372 132.335285 
L 154.698105 124.085234 
L 162.585572 107.90378 
L 164.557439 104.020998 
L 165.543372 220.862704 
L 167.515239 214.107393 
L 176.388639 186.043826 
L 185.262039 161.918416 
L 192.163573 144.777151 
L 197.093239 133.852397 
L 200.051039 127.575823 
L 203.994773 119.704352 
L 206.952573 114.337853 
L 211.88224 106.417842 
L 213.854106 103.421386 
L 214.84004 220.476654 
L 216.811906 213.496612 
L 220.75564 200.309223 
L 224.699373 186.439114 
L 231.600907 166.026831 
L 235.54464 154.697126 
L 239.488374 144.158103 
L 242.446174 136.697198 
L 246.389907 127.398848 
L 249.347707 121.088443 
L 252.305507 115.254318 
L 254.277374 111.683732 
L 257.235174 106.902378 
L 262.164841 99.393369 
L 263.150774 97.938411 
L 263.150774 97.938411 
" style="fill:none;stroke:#00c897;stroke-dasharray:4,3;stroke-dashoffset:0;stroke-width:2;"/>
   </g>
   <g id="line2d_18">
    <path clip-path="url(#p342c321910)" d="M 66.950037 217.919346 
L 67.93597 213.130233 
L 68.921904 209.361907 
L 69.907837 206.171456 
L 71.879704 201.018055 
L 73.85157 196.872964 
L 75.823437 193.369834 
L 77.795304 190.315206 
L 79.76717 187.62938 
L 82.72497 184.014084 
L 85.682771 180.763765 
L 101.457704 164.005173 
L 105.401438 159.595553 
L 115.260771 147.727989 
L 116.246704 216.961673 
L 117.232638 211.869655 
L 118.218571 207.838075 
L 119.204505 204.515615 
L 121.176371 199.070394 
L 123.148238 194.623697 
L 125.120105 190.876093 
L 127.091971 187.616801 
L 129.063838 184.768343 
L 132.021638 180.979166 
L 134.979438 177.646385 
L 140.895038 171.345886 
L 145.824705 166.072758 
L 148.782505 162.712385 
L 159.627772 149.997595 
L 164.557439 144.032711 
L 165.543372 217.574338 
L 166.529305 212.693557 
L 167.515239 208.839324 
L 168.501172 205.656132 
L 170.473039 200.450255 
L 172.444906 196.270943 
L 174.416772 192.745024 
L 176.388639 189.649059 
L 178.360506 186.908084 
L 181.318306 183.289653 
L 185.262039 179.009924 
L 193.149506 170.809995 
L 207.938506 154.766547 
L 212.868173 148.780011 
L 213.854106 147.574802 
L 214.84004 217.533815 
L 215.825973 212.552398 
L 216.811906 208.631207 
L 217.79784 205.370183 
L 219.769707 200.116185 
L 221.741573 195.83415 
L 223.71344 192.249553 
L 225.685307 189.16259 
L 228.643107 185.096279 
L 231.600907 181.569704 
L 235.54464 177.371721 
L 251.319574 161.028407 
L 263.150774 146.97656 
L 263.150774 146.97656 
" style="fill:none;stroke:#85c88a;stroke-dasharray:4,3;stroke-dashoffset:0;stroke-width:2;"/>
   </g>
   <g id="line2d_19">
    <path clip-path="url(#p342c321910)" d="M 66.950037 219.58351 
L 68.921904 210.441578 
L 70.89377 202.5685 
L 72.865637 195.78418 
L 74.837504 189.926056 
L 76.80937 184.764996 
L 78.781237 180.228091 
L 80.753104 176.235523 
L 82.72497 172.61799 
L 84.696837 169.376908 
L 86.668704 166.467392 
L 89.626504 162.582159 
L 92.584304 159.29738 
L 95.542104 156.449288 
L 98.499904 153.958346 
L 101.457704 151.784395 
L 104.415504 149.892441 
L 107.373304 148.259422 
L 110.331104 146.8042 
L 113.288904 145.537741 
L 115.260771 144.778602 
L 116.246704 219.367578 
L 118.218571 210.088516 
L 120.190438 202.134129 
L 122.162305 195.311482 
L 124.134171 189.307601 
L 126.106038 184.109789 
L 128.077905 179.442973 
L 130.049771 175.33673 
L 132.021638 171.647934 
L 133.993505 168.330891 
L 135.965372 165.331803 
L 138.923172 161.379964 
L 140.895038 159.066712 
L 143.852838 155.971634 
L 146.810638 153.276942 
L 149.768438 150.964223 
L 152.726239 148.912514 
L 155.684039 147.121956 
L 159.627772 145.042746 
L 163.571505 143.295474 
L 164.557439 142.913616 
L 165.543372 218.848107 
L 167.515239 209.267193 
L 169.487106 200.971944 
L 171.458972 193.83745 
L 173.430839 187.627143 
L 175.402706 182.18725 
L 177.374572 177.387293 
L 179.346439 173.125305 
L 181.318306 169.325127 
L 183.290172 165.870149 
L 185.262039 162.805088 
L 188.219839 158.764984 
L 191.177639 155.248117 
L 194.135439 152.194255 
L 196.107306 150.361791 
L 199.065106 147.965596 
L 202.022906 145.854452 
L 204.980706 144.001995 
L 207.938506 142.385339 
L 210.896306 140.988791 
L 213.854106 139.775609 
L 214.84004 218.861413 
L 216.811906 209.319222 
L 218.783773 201.145374 
L 220.75564 194.111535 
L 222.727507 188.007468 
L 224.699373 182.656053 
L 226.67124 177.904579 
L 228.643107 173.700652 
L 230.614973 169.977965 
L 232.58684 166.619818 
L 235.54464 162.178289 
L 238.50244 158.339842 
L 241.46024 155.03058 
L 244.41804 152.183786 
L 247.37584 149.692256 
L 250.33364 147.516848 
L 253.29144 145.609217 
L 256.249241 143.962524 
L 259.207041 142.506886 
L 263.150774 140.859868 
L 263.150774 140.859868 
" style="fill:none;stroke:#495371;stroke-dasharray:4,3;stroke-dashoffset:0;stroke-width:2;"/>
   </g>
   <g id="line2d_20">
    <path clip-path="url(#p342c321910)" d="M 66.950037 221.303538 
L 68.921904 215.041402 
L 70.89377 209.585005 
L 72.865637 204.738361 
L 74.837504 200.400475 
L 77.795304 194.641863 
L 80.753104 189.560997 
L 83.710904 185.032629 
L 86.668704 180.973622 
L 89.626504 177.313823 
L 92.584304 173.918985 
L 96.528037 169.837306 
L 99.485837 167.063301 
L 103.429571 163.67319 
L 106.387371 161.342303 
L 111.317038 157.79686 
L 115.260771 155.215539 
L 116.246704 220.999656 
L 118.218571 214.706393 
L 120.190438 209.164298 
L 122.162305 204.25668 
L 124.134171 199.86223 
L 126.106038 195.896765 
L 128.077905 192.308328 
L 131.035705 187.412873 
L 133.993505 183.053989 
L 136.951305 179.135336 
L 139.909105 175.564091 
L 142.866905 172.283045 
L 146.810638 168.359219 
L 150.754372 164.810499 
L 154.698105 161.582619 
L 159.627772 157.94605 
L 163.571505 155.27582 
L 164.557439 154.658761 
L 165.543372 221.198778 
L 167.515239 214.883942 
L 169.487106 209.355118 
L 171.458972 204.434713 
L 173.430839 200.080492 
L 176.388639 194.247919 
L 179.346439 189.147176 
L 182.304239 184.594122 
L 185.262039 180.474666 
L 188.219839 176.764329 
L 192.163573 172.352457 
L 195.121373 169.351091 
L 199.065106 165.671496 
L 203.994773 161.557679 
L 207.938506 158.594395 
L 211.88224 155.864441 
L 213.854106 154.595375 
L 214.84004 221.60866 
L 216.811906 215.502002 
L 218.783773 210.158904 
L 220.75564 205.410169 
L 222.727507 201.097669 
L 224.699373 197.20411 
L 227.657173 191.922352 
L 230.614973 187.252139 
L 233.572773 183.036541 
L 236.530573 179.239075 
L 239.488374 175.77299 
L 243.432107 171.580815 
L 247.37584 167.807447 
L 250.33364 165.193264 
L 254.277374 162.01966 
L 258.221107 159.117458 
L 263.150774 155.836484 
L 263.150774 155.836484 
" style="fill:none;stroke:#488fb1;stroke-dasharray:4,3;stroke-dashoffset:0;stroke-width:2;"/>
   </g>
   <g id="line2d_21">
    <path clip-path="url(#p342c321910)" d="M 66.950037 218.284663 
L 67.93597 213.633908 
L 68.921904 209.93489 
L 69.907837 206.839216 
L 70.89377 204.168791 
L 72.865637 199.718348 
L 74.837504 196.058126 
L 76.80937 192.927508 
L 78.781237 190.208378 
L 80.753104 187.746013 
L 83.710904 184.566784 
L 86.668704 181.774667 
L 89.626504 179.258598 
L 92.584304 176.994312 
L 96.528037 174.250892 
L 101.457704 171.221716 
L 106.387371 168.519248 
L 110.331104 166.533638 
L 115.260771 164.246569 
L 116.246704 217.836846 
L 117.232638 213.013504 
L 118.218571 209.200655 
L 119.204505 206.026503 
L 120.190438 203.252742 
L 122.162305 198.641448 
L 124.134171 194.822381 
L 126.106038 191.600879 
L 128.077905 188.772227 
L 130.049771 186.217798 
L 133.007571 182.902409 
L 135.965372 179.955198 
L 139.909105 176.545301 
L 142.866905 174.243142 
L 146.810638 171.466546 
L 150.754372 168.979129 
L 154.698105 166.727757 
L 159.627772 164.156859 
L 164.557439 161.820986 
L 165.543372 218.313834 
L 166.529305 213.641446 
L 167.515239 209.927206 
L 168.501172 206.835422 
L 170.473039 201.835267 
L 172.444906 197.814825 
L 174.416772 194.439991 
L 176.388639 191.550797 
L 179.346439 187.799346 
L 182.304239 184.603343 
L 185.262039 181.806793 
L 188.219839 179.302274 
L 191.177639 177.026779 
L 195.121373 174.293802 
L 199.065106 171.839359 
L 203.994773 169.067597 
L 208.92444 166.59073 
L 213.854106 164.315905 
L 214.84004 217.301194 
L 215.825973 212.394423 
L 216.811906 208.436035 
L 217.79784 205.153841 
L 218.783773 202.316529 
L 220.75564 197.606215 
L 222.727507 193.711794 
L 224.699373 190.403374 
L 226.67124 187.531235 
L 228.643107 184.952435 
L 231.600907 181.558139 
L 234.558707 178.577214 
L 238.50244 175.070744 
L 241.46024 172.751691 
L 245.403974 169.944012 
L 249.347707 167.417023 
L 254.277374 164.529465 
L 259.207041 161.971267 
L 263.150774 160.072892 
L 263.150774 160.072892 
" style="fill:none;stroke:#2fa4ff;stroke-dasharray:4,3;stroke-dashoffset:0;stroke-width:2;"/>
   </g>
   <g id="line2d_22">
    <path clip-path="url(#p342c321910)" d="M 66.950037 218.217392 
L 67.93597 209.900899 
L 69.907837 189.172486 
L 71.879704 167.627292 
L 72.865637 159.354756 
L 73.85157 153.915639 
L 74.837504 151.005368 
L 75.823437 149.711235 
L 76.80937 149.171292 
L 77.795304 148.957868 
L 79.76717 148.847794 
L 92.584304 148.833592 
L 115.260771 148.833592 
L 116.246704 224.671739 
L 263.150774 224.659476 
L 263.150774 224.659476 
" style="fill:none;stroke:#8267be;stroke-dasharray:4,3;stroke-dashoffset:0;stroke-width:2;"/>
   </g>
   <g id="line2d_23"/>
   <g id="patch_3">
    <path d="M 57.14 235 
L 57.14 10.8 
" style="fill:none;stroke:#000000;stroke-linecap:square;stroke-linejoin:miter;stroke-width:0.8;"/>
   </g>
   <g id="patch_4">
    <path d="M 272.960811 235 
L 272.960811 10.8 
" style="fill:none;stroke:#000000;stroke-linecap:square;stroke-linejoin:miter;stroke-width:0.8;"/>
   </g>
   <g id="patch_5">
    <path d="M 57.14 235 
L 272.960811 235 
" style="fill:none;stroke:#000000;stroke-linecap:square;stroke-linejoin:miter;stroke-width:0.8;"/>
   </g>
   <g id="patch_6">
    <path d="M 57.14 10.8 
L 272.960811 10.8 
" style="fill:none;stroke:#000000;stroke-linecap:square;stroke-linejoin:miter;stroke-width:0.8;"/>
   </g>
   <g id="legend_1">
    <g id="patch_7">
     <path d="M 146.268324 212.58 
L 257.719262 212.58 
Q 260.519262 212.58 260.519262 209.78 
L 260.519262 170.08125 
Q 260.519262 167.28125 257.719262 167.28125 
L 146.268324 167.28125 
Q 143.468324 167.28125 143.468324 170.08125 
L 143.468324 209.78 
Q 143.468324 212.58 146.268324 212.58 
z
" style="fill:#ffffff;opacity:0.8;stroke:#cccccc;stroke-linejoin:miter;"/>
    </g>
    <g id="line2d_24">
     <path d="M 149.068324 178.619062 
L 177.068324 178.619062 
" style="fill:none;stroke:#151d3b;stroke-linecap:square;stroke-width:3;"/>
    </g>
    <g id="line2d_25"/>
    <g id="text_12">
     <!-- RL -->
     <g transform="translate(188.268324 183.519062)scale(0.14 -0.14)">
      <defs>
       <path d="M 2841 2188 
Q 3044 2119 3236 1894 
Q 3428 1669 3622 1275 
L 4263 0 
L 3584 0 
L 2988 1197 
Q 2756 1666 2539 1819 
Q 2322 1972 1947 1972 
L 1259 1972 
L 1259 0 
L 628 0 
L 628 4666 
L 2053 4666 
Q 2853 4666 3247 4331 
Q 3641 3997 3641 3322 
Q 3641 2881 3436 2590 
Q 3231 2300 2841 2188 
z
M 1259 4147 
L 1259 2491 
L 2053 2491 
Q 2509 2491 2742 2702 
Q 2975 2913 2975 3322 
Q 2975 3731 2742 3939 
Q 2509 4147 2053 4147 
L 1259 4147 
z
" id="DejaVuSans-52" transform="scale(0.015625)"/>
       <path d="M 628 4666 
L 1259 4666 
L 1259 531 
L 3531 531 
L 3531 0 
L 628 0 
L 628 4666 
z
" id="DejaVuSans-4c" transform="scale(0.015625)"/>
      </defs>
      <use xlink:href="#DejaVuSans-52"/>
      <use x="69.482422" xlink:href="#DejaVuSans-4c"/>
     </g>
    </g>
    <g id="line2d_26">
     <path d="M 149.068324 199.168437 
L 177.068324 199.168437 
" style="fill:none;stroke:#747474;stroke-dasharray:5,3.75;stroke-dashoffset:0;stroke-width:2.5;"/>
    </g>
    <g id="line2d_27"/>
    <g id="text_13">
     <!-- Baselines -->
     <g transform="translate(188.268324 204.068437)scale(0.14 -0.14)">
      <defs>
       <path d="M 1259 2228 
L 1259 519 
L 2272 519 
Q 2781 519 3026 730 
Q 3272 941 3272 1375 
Q 3272 1813 3026 2020 
Q 2781 2228 2272 2228 
L 1259 2228 
z
M 1259 4147 
L 1259 2741 
L 2194 2741 
Q 2656 2741 2882 2914 
Q 3109 3088 3109 3444 
Q 3109 3797 2882 3972 
Q 2656 4147 2194 4147 
L 1259 4147 
z
M 628 4666 
L 2241 4666 
Q 2963 4666 3353 4366 
Q 3744 4066 3744 3513 
Q 3744 3084 3544 2831 
Q 3344 2578 2956 2516 
Q 3422 2416 3680 2098 
Q 3938 1781 3938 1306 
Q 3938 681 3513 340 
Q 3088 0 2303 0 
L 628 0 
L 628 4666 
z
" id="DejaVuSans-42" transform="scale(0.015625)"/>
       <path d="M 2834 3397 
L 2834 2853 
Q 2591 2978 2328 3040 
Q 2066 3103 1784 3103 
Q 1356 3103 1142 2972 
Q 928 2841 928 2578 
Q 928 2378 1081 2264 
Q 1234 2150 1697 2047 
L 1894 2003 
Q 2506 1872 2764 1633 
Q 3022 1394 3022 966 
Q 3022 478 2636 193 
Q 2250 -91 1575 -91 
Q 1294 -91 989 -36 
Q 684 19 347 128 
L 347 722 
Q 666 556 975 473 
Q 1284 391 1588 391 
Q 1994 391 2212 530 
Q 2431 669 2431 922 
Q 2431 1156 2273 1281 
Q 2116 1406 1581 1522 
L 1381 1569 
Q 847 1681 609 1914 
Q 372 2147 372 2553 
Q 372 3047 722 3315 
Q 1072 3584 1716 3584 
Q 2034 3584 2315 3537 
Q 2597 3491 2834 3397 
z
" id="DejaVuSans-73" transform="scale(0.015625)"/>
       <path d="M 603 4863 
L 1178 4863 
L 1178 0 
L 603 0 
L 603 4863 
z
" id="DejaVuSans-6c" transform="scale(0.015625)"/>
      </defs>
      <use xlink:href="#DejaVuSans-42"/>
      <use x="68.603516" xlink:href="#DejaVuSans-61"/>
      <use x="129.882812" xlink:href="#DejaVuSans-73"/>
      <use x="181.982422" xlink:href="#DejaVuSans-65"/>
      <use x="243.505859" xlink:href="#DejaVuSans-6c"/>
      <use x="271.289062" xlink:href="#DejaVuSans-69"/>
      <use x="299.072266" xlink:href="#DejaVuSans-6e"/>
      <use x="362.451172" xlink:href="#DejaVuSans-65"/>
      <use x="423.974609" xlink:href="#DejaVuSans-73"/>
     </g>
    </g>
   </g>
  </g>
 </g>
 <defs>
  <clipPath id="p342c321910">
   <rect height="224.2" width="215.820811" x="57.14" y="10.8"/>
  </clipPath>
 </defs>
</svg>
