<?xml version="1.0" encoding="utf-8" standalone="no"?>
<!DOCTYPE svg PUBLIC "-//W3C//DTD SVG 1.1//EN"
  "http://www.w3.org/Graphics/SVG/1.1/DTD/svg11.dtd">
<svg height="288pt" version="1.1" viewBox="0 0 288 288" width="288pt" xmlns="http://www.w3.org/2000/svg" xmlns:xlink="http://www.w3.org/1999/xlink">
 <metadata>
  <rdf:RDF xmlns:cc="http://creativecommons.org/ns#" xmlns:dc="http://purl.org/dc/elements/1.1/" xmlns:rdf="http://www.w3.org/1999/02/22-rdf-syntax-ns#">
   <cc:Work>
    <dc:type rdf:resource="http://purl.org/dc/dcmitype/StillImage"/>
    <dc:date>2022-04-19T01:51:41.100388</dc:date>
    <dc:format>image/svg+xml</dc:format>
    <dc:creator>
     <cc:Agent>
      <dc:title>Matplotlib v3.4.1, https://matplotlib.org/</dc:title>
     </cc:Agent>
    </dc:creator>
   </cc:Work>
  </rdf:RDF>
 </metadata>
 <defs>
  <style type="text/css">*{stroke-linecap:butt;stroke-linejoin:round;}</style>
 </defs>
 <g id="figure_1">
  <g id="patch_1">
   <path d="M 0 288 
L 288 288 
L 288 0 
L 0 0 
z
" style="fill:none;"/>
  </g>
  <g id="axes_1">
   <g id="patch_2">
    <path d="M 57.14 235 
L 272.960811 235 
L 272.960811 10.8 
L 57.14 10.8 
z
" style="fill:none;"/>
   </g>
   <g id="matplotlib.axis_1">
    <g id="xtick_1">
     <g id="line2d_1">
      <defs>
       <path d="M 0 0 
L 0 3.5 
" id="m9a82e3e6fb" style="stroke:#000000;stroke-width:0.8;"/>
      </defs>
      <g>
       <use style="stroke:#000000;stroke-width:0.8;" x="66.950037" xlink:href="#m9a82e3e6fb" y="235"/>
      </g>
     </g>
     <g id="text_1">
      <!-- 0 -->
      <g transform="translate(62.496287 252.637812)scale(0.14 -0.14)">
       <defs>
        <path d="M 2034 4250 
Q 1547 4250 1301 3770 
Q 1056 3291 1056 2328 
Q 1056 1369 1301 889 
Q 1547 409 2034 409 
Q 2525 409 2770 889 
Q 3016 1369 3016 2328 
Q 3016 3291 2770 3770 
Q 2525 4250 2034 4250 
z
M 2034 4750 
Q 2819 4750 3233 4129 
Q 3647 3509 3647 2328 
Q 3647 1150 3233 529 
Q 2819 -91 2034 -91 
Q 1250 -91 836 529 
Q 422 1150 422 2328 
Q 422 3509 836 4129 
Q 1250 4750 2034 4750 
z
" id="DejaVuSans-30" transform="scale(0.015625)"/>
       </defs>
       <use xlink:href="#DejaVuSans-30"/>
      </g>
     </g>
    </g>
    <g id="xtick_2">
     <g id="line2d_2">
      <g>
       <use style="stroke:#000000;stroke-width:0.8;" x="116.246704" xlink:href="#m9a82e3e6fb" y="235"/>
      </g>
     </g>
     <g id="text_2">
      <!-- 50 -->
      <g transform="translate(107.339204 252.637812)scale(0.14 -0.14)">
       <defs>
        <path d="M 691 4666 
L 3169 4666 
L 3169 4134 
L 1269 4134 
L 1269 2991 
Q 1406 3038 1543 3061 
Q 1681 3084 1819 3084 
Q 2600 3084 3056 2656 
Q 3513 2228 3513 1497 
Q 3513 744 3044 326 
Q 2575 -91 1722 -91 
Q 1428 -91 1123 -41 
Q 819 9 494 109 
L 494 744 
Q 775 591 1075 516 
Q 1375 441 1709 441 
Q 2250 441 2565 725 
Q 2881 1009 2881 1497 
Q 2881 1984 2565 2268 
Q 2250 2553 1709 2553 
Q 1456 2553 1204 2497 
Q 953 2441 691 2322 
L 691 4666 
z
" id="DejaVuSans-35" transform="scale(0.015625)"/>
       </defs>
       <use xlink:href="#DejaVuSans-35"/>
       <use x="63.623047" xlink:href="#DejaVuSans-30"/>
      </g>
     </g>
    </g>
    <g id="xtick_3">
     <g id="line2d_3">
      <g>
       <use style="stroke:#000000;stroke-width:0.8;" x="165.543372" xlink:href="#m9a82e3e6fb" y="235"/>
      </g>
     </g>
     <g id="text_3">
      <!-- 100 -->
      <g transform="translate(152.182122 252.637812)scale(0.14 -0.14)">
       <defs>
        <path d="M 794 531 
L 1825 531 
L 1825 4091 
L 703 3866 
L 703 4441 
L 1819 4666 
L 2450 4666 
L 2450 531 
L 3481 531 
L 3481 0 
L 794 0 
L 794 531 
z
" id="DejaVuSans-31" transform="scale(0.015625)"/>
       </defs>
       <use xlink:href="#DejaVuSans-31"/>
       <use x="63.623047" xlink:href="#DejaVuSans-30"/>
       <use x="127.246094" xlink:href="#DejaVuSans-30"/>
      </g>
     </g>
    </g>
    <g id="xtick_4">
     <g id="line2d_4">
      <g>
       <use style="stroke:#000000;stroke-width:0.8;" x="214.84004" xlink:href="#m9a82e3e6fb" y="235"/>
      </g>
     </g>
     <g id="text_4">
      <!-- 150 -->
      <g transform="translate(201.47879 252.637812)scale(0.14 -0.14)">
       <use xlink:href="#DejaVuSans-31"/>
       <use x="63.623047" xlink:href="#DejaVuSans-35"/>
       <use x="127.246094" xlink:href="#DejaVuSans-30"/>
      </g>
     </g>
    </g>
    <g id="xtick_5">
     <g id="line2d_5">
      <g>
       <use style="stroke:#000000;stroke-width:0.8;" x="264.136707" xlink:href="#m9a82e3e6fb" y="235"/>
      </g>
     </g>
     <g id="text_5">
      <!-- 200 -->
      <g transform="translate(250.775457 252.637812)scale(0.14 -0.14)">
       <defs>
        <path d="M 1228 531 
L 3431 531 
L 3431 0 
L 469 0 
L 469 531 
Q 828 903 1448 1529 
Q 2069 2156 2228 2338 
Q 2531 2678 2651 2914 
Q 2772 3150 2772 3378 
Q 2772 3750 2511 3984 
Q 2250 4219 1831 4219 
Q 1534 4219 1204 4116 
Q 875 4013 500 3803 
L 500 4441 
Q 881 4594 1212 4672 
Q 1544 4750 1819 4750 
Q 2544 4750 2975 4387 
Q 3406 4025 3406 3419 
Q 3406 3131 3298 2873 
Q 3191 2616 2906 2266 
Q 2828 2175 2409 1742 
Q 1991 1309 1228 531 
z
" id="DejaVuSans-32" transform="scale(0.015625)"/>
       </defs>
       <use xlink:href="#DejaVuSans-32"/>
       <use x="63.623047" xlink:href="#DejaVuSans-30"/>
       <use x="127.246094" xlink:href="#DejaVuSans-30"/>
      </g>
     </g>
    </g>
    <g id="text_6">
     <!-- Time -->
     <g transform="translate(143.029937 273.226562)scale(0.18 -0.18)">
      <defs>
       <path d="M -19 4666 
L 3928 4666 
L 3928 4134 
L 2272 4134 
L 2272 0 
L 1638 0 
L 1638 4134 
L -19 4134 
L -19 4666 
z
" id="DejaVuSans-54" transform="scale(0.015625)"/>
       <path d="M 603 3500 
L 1178 3500 
L 1178 0 
L 603 0 
L 603 3500 
z
M 603 4863 
L 1178 4863 
L 1178 4134 
L 603 4134 
L 603 4863 
z
" id="DejaVuSans-69" transform="scale(0.015625)"/>
       <path d="M 3328 2828 
Q 3544 3216 3844 3400 
Q 4144 3584 4550 3584 
Q 5097 3584 5394 3201 
Q 5691 2819 5691 2113 
L 5691 0 
L 5113 0 
L 5113 2094 
Q 5113 2597 4934 2840 
Q 4756 3084 4391 3084 
Q 3944 3084 3684 2787 
Q 3425 2491 3425 1978 
L 3425 0 
L 2847 0 
L 2847 2094 
Q 2847 2600 2669 2842 
Q 2491 3084 2119 3084 
Q 1678 3084 1418 2786 
Q 1159 2488 1159 1978 
L 1159 0 
L 581 0 
L 581 3500 
L 1159 3500 
L 1159 2956 
Q 1356 3278 1631 3431 
Q 1906 3584 2284 3584 
Q 2666 3584 2933 3390 
Q 3200 3197 3328 2828 
z
" id="DejaVuSans-6d" transform="scale(0.015625)"/>
       <path d="M 3597 1894 
L 3597 1613 
L 953 1613 
Q 991 1019 1311 708 
Q 1631 397 2203 397 
Q 2534 397 2845 478 
Q 3156 559 3463 722 
L 3463 178 
Q 3153 47 2828 -22 
Q 2503 -91 2169 -91 
Q 1331 -91 842 396 
Q 353 884 353 1716 
Q 353 2575 817 3079 
Q 1281 3584 2069 3584 
Q 2775 3584 3186 3129 
Q 3597 2675 3597 1894 
z
M 3022 2063 
Q 3016 2534 2758 2815 
Q 2500 3097 2075 3097 
Q 1594 3097 1305 2825 
Q 1016 2553 972 2059 
L 3022 2063 
z
" id="DejaVuSans-65" transform="scale(0.015625)"/>
      </defs>
      <use xlink:href="#DejaVuSans-54"/>
      <use x="57.958984" xlink:href="#DejaVuSans-69"/>
      <use x="85.742188" xlink:href="#DejaVuSans-6d"/>
      <use x="183.154297" xlink:href="#DejaVuSans-65"/>
     </g>
    </g>
   </g>
   <g id="matplotlib.axis_2">
    <g id="ytick_1">
     <g id="line2d_6">
      <defs>
       <path d="M 0 0 
L -3.5 0 
" id="m9edac9c893" style="stroke:#000000;stroke-width:0.8;"/>
      </defs>
      <g>
       <use style="stroke:#000000;stroke-width:0.8;" x="57.14" xlink:href="#m9edac9c893" y="187.852169"/>
      </g>
     </g>
     <g id="text_7">
      <!-- 20 -->
      <g transform="translate(32.325 193.171075)scale(0.14 -0.14)">
       <use xlink:href="#DejaVuSans-32"/>
       <use x="63.623047" xlink:href="#DejaVuSans-30"/>
      </g>
     </g>
    </g>
    <g id="ytick_2">
     <g id="line2d_7">
      <g>
       <use style="stroke:#000000;stroke-width:0.8;" x="57.14" xlink:href="#m9edac9c893" y="140.118094"/>
      </g>
     </g>
     <g id="text_8">
      <!-- 40 -->
      <g transform="translate(32.325 145.437)scale(0.14 -0.14)">
       <defs>
        <path d="M 2419 4116 
L 825 1625 
L 2419 1625 
L 2419 4116 
z
M 2253 4666 
L 3047 4666 
L 3047 1625 
L 3713 1625 
L 3713 1100 
L 3047 1100 
L 3047 0 
L 2419 0 
L 2419 1100 
L 313 1100 
L 313 1709 
L 2253 4666 
z
" id="DejaVuSans-34" transform="scale(0.015625)"/>
       </defs>
       <use xlink:href="#DejaVuSans-34"/>
       <use x="63.623047" xlink:href="#DejaVuSans-30"/>
      </g>
     </g>
    </g>
    <g id="ytick_3">
     <g id="line2d_8">
      <g>
       <use style="stroke:#000000;stroke-width:0.8;" x="57.14" xlink:href="#m9edac9c893" y="92.384019"/>
      </g>
     </g>
     <g id="text_9">
      <!-- 60 -->
      <g transform="translate(32.325 97.702925)scale(0.14 -0.14)">
       <defs>
        <path d="M 2113 2584 
Q 1688 2584 1439 2293 
Q 1191 2003 1191 1497 
Q 1191 994 1439 701 
Q 1688 409 2113 409 
Q 2538 409 2786 701 
Q 3034 994 3034 1497 
Q 3034 2003 2786 2293 
Q 2538 2584 2113 2584 
z
M 3366 4563 
L 3366 3988 
Q 3128 4100 2886 4159 
Q 2644 4219 2406 4219 
Q 1781 4219 1451 3797 
Q 1122 3375 1075 2522 
Q 1259 2794 1537 2939 
Q 1816 3084 2150 3084 
Q 2853 3084 3261 2657 
Q 3669 2231 3669 1497 
Q 3669 778 3244 343 
Q 2819 -91 2113 -91 
Q 1303 -91 875 529 
Q 447 1150 447 2328 
Q 447 3434 972 4092 
Q 1497 4750 2381 4750 
Q 2619 4750 2861 4703 
Q 3103 4656 3366 4563 
z
" id="DejaVuSans-36" transform="scale(0.015625)"/>
       </defs>
       <use xlink:href="#DejaVuSans-36"/>
       <use x="63.623047" xlink:href="#DejaVuSans-30"/>
      </g>
     </g>
    </g>
    <g id="ytick_4">
     <g id="line2d_9">
      <g>
       <use style="stroke:#000000;stroke-width:0.8;" x="57.14" xlink:href="#m9edac9c893" y="44.649944"/>
      </g>
     </g>
     <g id="text_10">
      <!-- 80 -->
      <g transform="translate(32.325 49.96885)scale(0.14 -0.14)">
       <defs>
        <path d="M 2034 2216 
Q 1584 2216 1326 1975 
Q 1069 1734 1069 1313 
Q 1069 891 1326 650 
Q 1584 409 2034 409 
Q 2484 409 2743 651 
Q 3003 894 3003 1313 
Q 3003 1734 2745 1975 
Q 2488 2216 2034 2216 
z
M 1403 2484 
Q 997 2584 770 2862 
Q 544 3141 544 3541 
Q 544 4100 942 4425 
Q 1341 4750 2034 4750 
Q 2731 4750 3128 4425 
Q 3525 4100 3525 3541 
Q 3525 3141 3298 2862 
Q 3072 2584 2669 2484 
Q 3125 2378 3379 2068 
Q 3634 1759 3634 1313 
Q 3634 634 3220 271 
Q 2806 -91 2034 -91 
Q 1263 -91 848 271 
Q 434 634 434 1313 
Q 434 1759 690 2068 
Q 947 2378 1403 2484 
z
M 1172 3481 
Q 1172 3119 1398 2916 
Q 1625 2713 2034 2713 
Q 2441 2713 2670 2916 
Q 2900 3119 2900 3481 
Q 2900 3844 2670 4047 
Q 2441 4250 2034 4250 
Q 1625 4250 1398 4047 
Q 1172 3844 1172 3481 
z
" id="DejaVuSans-38" transform="scale(0.015625)"/>
       </defs>
       <use xlink:href="#DejaVuSans-38"/>
       <use x="63.623047" xlink:href="#DejaVuSans-30"/>
      </g>
     </g>
    </g>
    <g id="text_11">
     <!-- Mean Payoff -->
     <g transform="translate(24.581563 177.989844)rotate(-90)scale(0.18 -0.18)">
      <defs>
       <path d="M 628 4666 
L 1569 4666 
L 2759 1491 
L 3956 4666 
L 4897 4666 
L 4897 0 
L 4281 0 
L 4281 4097 
L 3078 897 
L 2444 897 
L 1241 4097 
L 1241 0 
L 628 0 
L 628 4666 
z
" id="DejaVuSans-4d" transform="scale(0.015625)"/>
       <path d="M 2194 1759 
Q 1497 1759 1228 1600 
Q 959 1441 959 1056 
Q 959 750 1161 570 
Q 1363 391 1709 391 
Q 2188 391 2477 730 
Q 2766 1069 2766 1631 
L 2766 1759 
L 2194 1759 
z
M 3341 1997 
L 3341 0 
L 2766 0 
L 2766 531 
Q 2569 213 2275 61 
Q 1981 -91 1556 -91 
Q 1019 -91 701 211 
Q 384 513 384 1019 
Q 384 1609 779 1909 
Q 1175 2209 1959 2209 
L 2766 2209 
L 2766 2266 
Q 2766 2663 2505 2880 
Q 2244 3097 1772 3097 
Q 1472 3097 1187 3025 
Q 903 2953 641 2809 
L 641 3341 
Q 956 3463 1253 3523 
Q 1550 3584 1831 3584 
Q 2591 3584 2966 3190 
Q 3341 2797 3341 1997 
z
" id="DejaVuSans-61" transform="scale(0.015625)"/>
       <path d="M 3513 2113 
L 3513 0 
L 2938 0 
L 2938 2094 
Q 2938 2591 2744 2837 
Q 2550 3084 2163 3084 
Q 1697 3084 1428 2787 
Q 1159 2491 1159 1978 
L 1159 0 
L 581 0 
L 581 3500 
L 1159 3500 
L 1159 2956 
Q 1366 3272 1645 3428 
Q 1925 3584 2291 3584 
Q 2894 3584 3203 3211 
Q 3513 2838 3513 2113 
z
" id="DejaVuSans-6e" transform="scale(0.015625)"/>
       <path id="DejaVuSans-20" transform="scale(0.015625)"/>
       <path d="M 1259 4147 
L 1259 2394 
L 2053 2394 
Q 2494 2394 2734 2622 
Q 2975 2850 2975 3272 
Q 2975 3691 2734 3919 
Q 2494 4147 2053 4147 
L 1259 4147 
z
M 628 4666 
L 2053 4666 
Q 2838 4666 3239 4311 
Q 3641 3956 3641 3272 
Q 3641 2581 3239 2228 
Q 2838 1875 2053 1875 
L 1259 1875 
L 1259 0 
L 628 0 
L 628 4666 
z
" id="DejaVuSans-50" transform="scale(0.015625)"/>
       <path d="M 2059 -325 
Q 1816 -950 1584 -1140 
Q 1353 -1331 966 -1331 
L 506 -1331 
L 506 -850 
L 844 -850 
Q 1081 -850 1212 -737 
Q 1344 -625 1503 -206 
L 1606 56 
L 191 3500 
L 800 3500 
L 1894 763 
L 2988 3500 
L 3597 3500 
L 2059 -325 
z
" id="DejaVuSans-79" transform="scale(0.015625)"/>
       <path d="M 1959 3097 
Q 1497 3097 1228 2736 
Q 959 2375 959 1747 
Q 959 1119 1226 758 
Q 1494 397 1959 397 
Q 2419 397 2687 759 
Q 2956 1122 2956 1747 
Q 2956 2369 2687 2733 
Q 2419 3097 1959 3097 
z
M 1959 3584 
Q 2709 3584 3137 3096 
Q 3566 2609 3566 1747 
Q 3566 888 3137 398 
Q 2709 -91 1959 -91 
Q 1206 -91 779 398 
Q 353 888 353 1747 
Q 353 2609 779 3096 
Q 1206 3584 1959 3584 
z
" id="DejaVuSans-6f" transform="scale(0.015625)"/>
       <path d="M 2375 4863 
L 2375 4384 
L 1825 4384 
Q 1516 4384 1395 4259 
Q 1275 4134 1275 3809 
L 1275 3500 
L 2222 3500 
L 2222 3053 
L 1275 3053 
L 1275 0 
L 697 0 
L 697 3053 
L 147 3053 
L 147 3500 
L 697 3500 
L 697 3744 
Q 697 4328 969 4595 
Q 1241 4863 1831 4863 
L 2375 4863 
z
" id="DejaVuSans-66" transform="scale(0.015625)"/>
      </defs>
      <use xlink:href="#DejaVuSans-4d"/>
      <use x="86.279297" xlink:href="#DejaVuSans-65"/>
      <use x="147.802734" xlink:href="#DejaVuSans-61"/>
      <use x="209.082031" xlink:href="#DejaVuSans-6e"/>
      <use x="272.460938" xlink:href="#DejaVuSans-20"/>
      <use x="304.248047" xlink:href="#DejaVuSans-50"/>
      <use x="360.050781" xlink:href="#DejaVuSans-61"/>
      <use x="421.330078" xlink:href="#DejaVuSans-79"/>
      <use x="480.509766" xlink:href="#DejaVuSans-6f"/>
      <use x="541.691406" xlink:href="#DejaVuSans-66"/>
      <use x="576.896484" xlink:href="#DejaVuSans-66"/>
     </g>
    </g>
   </g>
   <g id="line2d_10">
    <path clip-path="url(#p4ff276322b)" d="M 66.950037 214.055089 
L 68.921904 189.029611 
L 69.907837 178.03565 
L 70.89377 168.47506 
L 72.865637 152.702342 
L 74.837504 140.058614 
L 76.80937 129.490887 
L 78.781237 120.506752 
L 80.753104 112.654066 
L 82.72497 105.692853 
L 84.696837 99.535417 
L 86.668704 93.934989 
L 89.626504 86.305538 
L 92.584304 79.819136 
L 95.542104 74.088403 
L 97.513971 70.718936 
L 100.471771 66.284855 
L 102.443638 63.604347 
L 105.401438 59.939328 
L 108.359238 56.819343 
L 111.317038 54.05105 
L 114.274838 51.493708 
L 118.218571 48.485783 
L 120.190438 47.174218 
L 123.148238 45.503022 
L 127.091971 43.571364 
L 132.021638 41.491957 
L 136.951305 39.715149 
L 145.824705 36.93562 
L 150.754372 35.693869 
L 161.599639 33.232508 
L 172.444906 31.196693 
L 195.121373 27.699143 
L 211.88224 25.544697 
L 222.727507 24.360486 
L 230.614973 23.643702 
L 241.46024 22.723196 
L 263.150774 21.064893 
L 263.150774 21.064893 
" style="fill:none;stroke:#151d3b;stroke-linecap:square;stroke-width:3;"/>
   </g>
   <g id="line2d_11">
    <path clip-path="url(#p4ff276322b)" d="M 66.950037 211.208839 
L 67.93597 195.714155 
L 68.921904 187.680302 
L 70.89377 184.129896 
L 74.837504 174.268327 
L 76.80937 170.628405 
L 78.781237 167.419642 
L 79.76717 165.856481 
L 82.72497 161.983418 
L 83.710904 160.992451 
L 86.668704 158.518194 
L 88.640571 157.42532 
L 91.598371 156.146886 
L 94.556171 155.376085 
L 96.528037 155.220698 
L 103.429571 155.054931 
L 112.302971 155.013569 
L 263.150774 155.013569 
L 263.150774 155.013569 
" style="fill:none;stroke:#98042d;stroke-dasharray:4,3;stroke-dashoffset:0;stroke-width:2;"/>
   </g>
   <g id="line2d_12">
    <path clip-path="url(#p4ff276322b)" d="M 66.950037 210.168175 
L 67.93597 192.459464 
L 68.921904 178.809691 
L 70.89377 156.4536 
L 71.879704 146.864285 
L 73.85157 131.139458 
L 74.837504 124.53446 
L 75.823437 118.952814 
L 77.795304 109.441024 
L 79.76717 101.826478 
L 80.753104 98.168259 
L 81.739037 95.297157 
L 83.710904 90.626239 
L 85.682771 86.415166 
L 87.654637 83.154834 
L 89.626504 80.694484 
L 90.612437 79.682313 
L 93.570237 77.376731 
L 94.556171 76.717251 
L 97.513971 75.264893 
L 99.485837 74.620819 
L 102.443638 74.042953 
L 106.387371 73.792869 
L 117.232638 73.548248 
L 263.150774 73.547483 
L 263.150774 73.547483 
" style="fill:none;stroke:#ff0f39;stroke-dasharray:4,3;stroke-dashoffset:0;stroke-width:2;"/>
   </g>
   <g id="line2d_13">
    <path clip-path="url(#p4ff276322b)" d="M 66.950037 210.579032 
L 67.93597 193.849583 
L 68.921904 182.65611 
L 69.907837 174.569164 
L 72.865637 147.854387 
L 74.837504 132.989694 
L 76.80937 120.654582 
L 78.781237 110.537904 
L 80.753104 101.279695 
L 82.72497 93.643342 
L 83.710904 90.281277 
L 85.682771 84.785715 
L 88.640571 77.313836 
L 89.626504 75.538157 
L 92.584304 71.10424 
L 93.570237 69.700063 
L 95.542104 67.615613 
L 97.513971 65.90758 
L 99.485837 64.608288 
L 103.429571 62.579794 
L 105.401438 61.973576 
L 112.302971 60.352292 
L 115.260771 59.812228 
L 120.190438 59.156191 
L 123.148238 58.80237 
L 132.021638 58.007961 
L 143.852838 57.130555 
L 162.585572 56.045748 
L 175.402706 55.329839 
L 196.107306 54.265061 
L 234.558707 52.994139 
L 252.305507 52.603535 
L 263.150774 52.399721 
L 263.150774 52.399721 
" style="fill:none;stroke:#f16745;stroke-dasharray:4,3;stroke-dashoffset:0;stroke-width:2;"/>
   </g>
   <g id="line2d_14">
    <path clip-path="url(#p4ff276322b)" d="M 66.950037 210.508069 
L 67.93597 194.077338 
L 68.921904 183.643763 
L 70.89377 171.52498 
L 72.865637 158.544369 
L 74.837504 148.166345 
L 76.80937 138.577412 
L 78.781237 130.129025 
L 80.753104 122.935355 
L 82.72497 116.375507 
L 84.696837 110.395018 
L 86.668704 104.839028 
L 88.640571 100.219916 
L 91.598371 93.785383 
L 94.556171 88.438543 
L 99.485837 80.762896 
L 101.457704 77.830611 
L 104.415504 74.109125 
L 107.373304 71.007331 
L 109.345171 69.382242 
L 112.302971 66.539527 
L 117.232638 62.515151 
L 124.134171 57.494683 
L 128.077905 55.060399 
L 140.895038 48.749578 
L 147.796572 45.798866 
L 151.740305 44.365081 
L 158.641839 42.009697 
L 161.599639 41.070307 
L 169.487106 38.522253 
L 174.416772 37.013992 
L 180.332372 35.242702 
L 198.079173 31.13196 
L 207.938506 29.276252 
L 223.71344 26.436633 
L 232.58684 25.044784 
L 263.150774 20.990909 
L 263.150774 20.990909 
" style="fill:none;stroke:#ffc65d;stroke-dasharray:4,3;stroke-dashoffset:0;stroke-width:2;"/>
   </g>
   <g id="line2d_15">
    <path clip-path="url(#p4ff276322b)" d="M 66.950037 224.809091 
L 263.150774 224.778805 
L 263.150774 224.778805 
" style="fill:none;stroke:#3a6351;stroke-dasharray:4,3;stroke-dashoffset:0;stroke-width:2;"/>
   </g>
   <g id="line2d_16">
    <path clip-path="url(#p4ff276322b)" d="M 66.950037 220.358967 
L 68.921904 212.178661 
L 70.89377 205.100252 
L 72.865637 199.003324 
L 74.837504 193.606264 
L 76.80937 188.837741 
L 78.781237 184.518077 
L 80.753104 180.572915 
L 83.710904 175.18415 
L 86.668704 170.222228 
L 91.598371 162.582639 
L 94.556171 158.349049 
L 98.499904 153.254524 
L 101.457704 149.786864 
L 105.401438 145.538635 
L 109.345171 141.613881 
L 112.302971 138.981418 
L 116.246704 135.926904 
L 119.204505 133.828287 
L 122.162305 131.916977 
L 125.120105 130.231734 
L 129.063838 128.166539 
L 133.007571 126.334357 
L 136.951305 124.79109 
L 141.880972 123.12249 
L 147.796572 121.378194 
L 151.740305 120.353713 
L 156.669972 119.277337 
L 162.585572 118.21662 
L 178.360506 115.867245 
L 185.262039 115.126608 
L 201.036973 113.888307 
L 221.741573 112.882436 
L 247.37584 111.845336 
L 263.150774 111.416603 
L 263.150774 111.416603 
" style="fill:none;stroke:#019267;stroke-dasharray:4,3;stroke-dashoffset:0;stroke-width:2;"/>
   </g>
   <g id="line2d_17">
    <path clip-path="url(#p4ff276322b)" d="M 66.950037 221.668564 
L 68.921904 215.9998 
L 70.89377 211.06306 
L 72.865637 206.647094 
L 74.837504 202.659071 
L 77.795304 197.340278 
L 80.753104 192.550295 
L 83.710904 188.186898 
L 86.668704 184.161393 
L 91.598371 177.9173 
L 95.542104 173.343082 
L 99.485837 169.003611 
L 104.415504 163.79267 
L 110.331104 158.022487 
L 118.218571 150.840862 
L 126.106038 144.236893 
L 134.979438 137.45738 
L 138.923172 134.623378 
L 144.838772 130.66999 
L 152.726239 125.69641 
L 159.627772 121.785768 
L 167.515239 117.551751 
L 180.332372 111.597529 
L 186.247973 109.194245 
L 197.093239 105.130419 
L 208.92444 101.131482 
L 218.783773 98.173904 
L 225.685307 96.327792 
L 233.572773 94.479259 
L 243.432107 92.395017 
L 257.235174 89.53596 
L 263.150774 88.462224 
L 263.150774 88.462224 
" style="fill:none;stroke:#00c897;stroke-dasharray:4,3;stroke-dashoffset:0;stroke-width:2;"/>
   </g>
   <g id="line2d_18">
    <path clip-path="url(#p4ff276322b)" d="M 66.950037 218.854372 
L 67.93597 214.563443 
L 68.921904 211.154736 
L 69.907837 208.338611 
L 71.879704 203.719703 
L 73.85157 200.031747 
L 75.823437 196.864597 
L 77.795304 194.099107 
L 79.76717 191.651289 
L 81.739037 189.460169 
L 84.696837 186.493182 
L 87.654637 183.85258 
L 90.612437 181.434297 
L 94.556171 178.563682 
L 98.499904 175.912354 
L 104.415504 172.344107 
L 110.331104 169.151928 
L 116.246704 166.254787 
L 121.176371 164.029216 
L 133.993505 158.713186 
L 139.909105 156.485648 
L 159.627772 149.704095 
L 169.487106 146.736694 
L 179.346439 143.883054 
L 194.135439 139.922382 
L 216.811906 134.336867 
L 226.67124 132.08777 
L 232.58684 130.736008 
L 240.474307 129.030734 
L 263.150774 124.382387 
L 263.150774 124.382387 
" style="fill:none;stroke:#85c88a;stroke-dasharray:4,3;stroke-dashoffset:0;stroke-width:2;"/>
   </g>
   <g id="line2d_19">
    <path clip-path="url(#p4ff276322b)" d="M 66.950037 220.361917 
L 68.921904 212.168962 
L 70.89377 205.102407 
L 72.865637 199.027171 
L 74.837504 193.708754 
L 76.80937 189.061372 
L 78.781237 184.945645 
L 80.753104 181.262276 
L 82.72497 177.977262 
L 84.696837 175.038941 
L 87.654637 171.168942 
L 90.612437 167.819027 
L 93.570237 164.903712 
L 96.528037 162.386322 
L 99.485837 160.169942 
L 103.429571 157.657349 
L 106.387371 156.029228 
L 110.331104 154.188515 
L 114.274838 152.643791 
L 117.232638 151.638894 
L 122.162305 150.244104 
L 127.091971 149.119956 
L 133.007571 148.061106 
L 137.937238 147.354611 
L 144.838772 146.614547 
L 152.726239 145.997204 
L 161.599639 145.516056 
L 173.430839 145.125889 
L 189.205773 144.856504 
L 211.88224 144.686285 
L 260.192974 144.613676 
L 263.150774 144.613057 
L 263.150774 144.613057 
" style="fill:none;stroke:#495371;stroke-dasharray:4,3;stroke-dashoffset:0;stroke-width:2;"/>
   </g>
   <g id="line2d_20">
    <path clip-path="url(#p4ff276322b)" d="M 66.950037 221.668075 
L 68.921904 215.998576 
L 70.89377 211.024629 
L 72.865637 206.653226 
L 74.837504 202.698616 
L 77.795304 197.482457 
L 80.753104 192.863774 
L 83.710904 188.76755 
L 86.668704 185.073446 
L 89.626504 181.712587 
L 92.584304 178.63401 
L 96.528037 174.95909 
L 100.471771 171.6202 
L 104.415504 168.615274 
L 109.345171 165.249007 
L 114.274838 162.186641 
L 121.176371 158.441014 
L 126.106038 156.043595 
L 132.021638 153.459495 
L 136.951305 151.481185 
L 143.852838 149.005412 
L 149.768438 147.077186 
L 155.684039 145.309519 
L 163.571505 143.182887 
L 174.416772 140.652804 
L 188.219839 137.900352 
L 200.051039 135.888902 
L 212.868173 133.9769 
L 223.71344 132.58425 
L 244.41804 130.236705 
L 261.178907 128.617588 
L 263.150774 128.438456 
L 263.150774 128.438456 
" style="fill:none;stroke:#488fb1;stroke-dasharray:4,3;stroke-dashoffset:0;stroke-width:2;"/>
   </g>
   <g id="line2d_21">
    <path clip-path="url(#p4ff276322b)" d="M 66.950037 218.85949 
L 67.93597 214.563949 
L 68.921904 211.171932 
L 69.907837 208.343348 
L 71.879704 203.735413 
L 73.85157 200.043847 
L 75.823437 196.941011 
L 77.795304 194.252168 
L 80.753104 190.830969 
L 83.710904 187.868093 
L 86.668704 185.278039 
L 89.626504 182.980337 
L 93.570237 180.272565 
L 97.513971 177.83794 
L 102.443638 175.14312 
L 107.373304 172.70122 
L 113.288904 170.099066 
L 118.218571 168.109202 
L 124.134171 165.940216 
L 131.035705 163.635571 
L 140.895038 160.692374 
L 148.782505 158.548275 
L 158.641839 156.103075 
L 168.501172 153.876939 
L 181.318306 151.251605 
L 199.065106 148.016985 
L 217.79784 144.990004 
L 241.46024 141.606761 
L 260.192974 139.22196 
L 263.150774 138.868321 
L 263.150774 138.868321 
" style="fill:none;stroke:#2fa4ff;stroke-dasharray:4,3;stroke-dashoffset:0;stroke-width:2;"/>
   </g>
   <g id="line2d_22">
    <path clip-path="url(#p4ff276322b)" d="M 66.950037 218.866385 
L 69.907837 197.310911 
L 70.89377 192.137937 
L 71.879704 188.97156 
L 72.865637 187.252948 
L 73.85157 186.207937 
L 77.795304 182.773836 
L 82.72497 178.203674 
L 85.682771 175.776528 
L 88.640571 173.680997 
L 94.556171 169.989875 
L 101.457704 165.825284 
L 104.415504 164.329912 
L 108.359238 162.646302 
L 112.302971 161.188086 
L 119.204505 159.058203 
L 123.148238 158.154585 
L 129.063838 157.15089 
L 134.979438 156.455913 
L 143.852838 155.776849 
L 150.754372 155.456979 
L 162.585572 155.201314 
L 186.247973 155.040783 
L 234.558707 155.013597 
L 263.150774 155.013569 
L 263.150774 155.013569 
" style="fill:none;stroke:#8267be;stroke-dasharray:4,3;stroke-dashoffset:0;stroke-width:2;"/>
   </g>
   <g id="line2d_23"/>
   <g id="patch_3">
    <path d="M 57.14 235 
L 57.14 10.8 
" style="fill:none;stroke:#000000;stroke-linecap:square;stroke-linejoin:miter;stroke-width:0.8;"/>
   </g>
   <g id="patch_4">
    <path d="M 272.960811 235 
L 272.960811 10.8 
" style="fill:none;stroke:#000000;stroke-linecap:square;stroke-linejoin:miter;stroke-width:0.8;"/>
   </g>
   <g id="patch_5">
    <path d="M 57.14 235 
L 272.960811 235 
" style="fill:none;stroke:#000000;stroke-linecap:square;stroke-linejoin:miter;stroke-width:0.8;"/>
   </g>
   <g id="patch_6">
    <path d="M 57.14 10.8 
L 272.960811 10.8 
" style="fill:none;stroke:#000000;stroke-linecap:square;stroke-linejoin:miter;stroke-width:0.8;"/>
   </g>
   <g id="legend_1">
    <g id="patch_7">
     <path d="M 146.268324 212.58 
L 257.719262 212.58 
Q 260.519262 212.58 260.519262 209.78 
L 260.519262 170.08125 
Q 260.519262 167.28125 257.719262 167.28125 
L 146.268324 167.28125 
Q 143.468324 167.28125 143.468324 170.08125 
L 143.468324 209.78 
Q 143.468324 212.58 146.268324 212.58 
z
" style="fill:#ffffff;opacity:0.8;stroke:#cccccc;stroke-linejoin:miter;"/>
    </g>
    <g id="line2d_24">
     <path d="M 149.068324 178.619062 
L 177.068324 178.619062 
" style="fill:none;stroke:#151d3b;stroke-linecap:square;stroke-width:3;"/>
    </g>
    <g id="line2d_25"/>
    <g id="text_12">
     <!-- RL -->
     <g transform="translate(188.268324 183.519062)scale(0.14 -0.14)">
      <defs>
       <path d="M 2841 2188 
Q 3044 2119 3236 1894 
Q 3428 1669 3622 1275 
L 4263 0 
L 3584 0 
L 2988 1197 
Q 2756 1666 2539 1819 
Q 2322 1972 1947 1972 
L 1259 1972 
L 1259 0 
L 628 0 
L 628 4666 
L 2053 4666 
Q 2853 4666 3247 4331 
Q 3641 3997 3641 3322 
Q 3641 2881 3436 2590 
Q 3231 2300 2841 2188 
z
M 1259 4147 
L 1259 2491 
L 2053 2491 
Q 2509 2491 2742 2702 
Q 2975 2913 2975 3322 
Q 2975 3731 2742 3939 
Q 2509 4147 2053 4147 
L 1259 4147 
z
" id="DejaVuSans-52" transform="scale(0.015625)"/>
       <path d="M 628 4666 
L 1259 4666 
L 1259 531 
L 3531 531 
L 3531 0 
L 628 0 
L 628 4666 
z
" id="DejaVuSans-4c" transform="scale(0.015625)"/>
      </defs>
      <use xlink:href="#DejaVuSans-52"/>
      <use x="69.482422" xlink:href="#DejaVuSans-4c"/>
     </g>
    </g>
    <g id="line2d_26">
     <path d="M 149.068324 199.168437 
L 177.068324 199.168437 
" style="fill:none;stroke:#747474;stroke-dasharray:5,3.75;stroke-dashoffset:0;stroke-width:2.5;"/>
    </g>
    <g id="line2d_27"/>
    <g id="text_13">
     <!-- Baselines -->
     <g transform="translate(188.268324 204.068437)scale(0.14 -0.14)">
      <defs>
       <path d="M 1259 2228 
L 1259 519 
L 2272 519 
Q 2781 519 3026 730 
Q 3272 941 3272 1375 
Q 3272 1813 3026 2020 
Q 2781 2228 2272 2228 
L 1259 2228 
z
M 1259 4147 
L 1259 2741 
L 2194 2741 
Q 2656 2741 2882 2914 
Q 3109 3088 3109 3444 
Q 3109 3797 2882 3972 
Q 2656 4147 2194 4147 
L 1259 4147 
z
M 628 4666 
L 2241 4666 
Q 2963 4666 3353 4366 
Q 3744 4066 3744 3513 
Q 3744 3084 3544 2831 
Q 3344 2578 2956 2516 
Q 3422 2416 3680 2098 
Q 3938 1781 3938 1306 
Q 3938 681 3513 340 
Q 3088 0 2303 0 
L 628 0 
L 628 4666 
z
" id="DejaVuSans-42" transform="scale(0.015625)"/>
       <path d="M 2834 3397 
L 2834 2853 
Q 2591 2978 2328 3040 
Q 2066 3103 1784 3103 
Q 1356 3103 1142 2972 
Q 928 2841 928 2578 
Q 928 2378 1081 2264 
Q 1234 2150 1697 2047 
L 1894 2003 
Q 2506 1872 2764 1633 
Q 3022 1394 3022 966 
Q 3022 478 2636 193 
Q 2250 -91 1575 -91 
Q 1294 -91 989 -36 
Q 684 19 347 128 
L 347 722 
Q 666 556 975 473 
Q 1284 391 1588 391 
Q 1994 391 2212 530 
Q 2431 669 2431 922 
Q 2431 1156 2273 1281 
Q 2116 1406 1581 1522 
L 1381 1569 
Q 847 1681 609 1914 
Q 372 2147 372 2553 
Q 372 3047 722 3315 
Q 1072 3584 1716 3584 
Q 2034 3584 2315 3537 
Q 2597 3491 2834 3397 
z
" id="DejaVuSans-73" transform="scale(0.015625)"/>
       <path d="M 603 4863 
L 1178 4863 
L 1178 0 
L 603 0 
L 603 4863 
z
" id="DejaVuSans-6c" transform="scale(0.015625)"/>
      </defs>
      <use xlink:href="#DejaVuSans-42"/>
      <use x="68.603516" xlink:href="#DejaVuSans-61"/>
      <use x="129.882812" xlink:href="#DejaVuSans-73"/>
      <use x="181.982422" xlink:href="#DejaVuSans-65"/>
      <use x="243.505859" xlink:href="#DejaVuSans-6c"/>
      <use x="271.289062" xlink:href="#DejaVuSans-69"/>
      <use x="299.072266" xlink:href="#DejaVuSans-6e"/>
      <use x="362.451172" xlink:href="#DejaVuSans-65"/>
      <use x="423.974609" xlink:href="#DejaVuSans-73"/>
     </g>
    </g>
   </g>
  </g>
 </g>
 <defs>
  <clipPath id="p4ff276322b">
   <rect height="224.2" width="215.820811" x="57.14" y="10.8"/>
  </clipPath>
 </defs>
</svg>
