<?xml version="1.0" encoding="utf-8" standalone="no"?>
<!DOCTYPE svg PUBLIC "-//W3C//DTD SVG 1.1//EN"
  "http://www.w3.org/Graphics/SVG/1.1/DTD/svg11.dtd">
<svg height="288pt" version="1.1" viewBox="0 0 432 288" width="432pt" xmlns="http://www.w3.org/2000/svg" xmlns:xlink="http://www.w3.org/1999/xlink">
 <metadata>
  <rdf:RDF xmlns:cc="http://creativecommons.org/ns#" xmlns:dc="http://purl.org/dc/elements/1.1/" xmlns:rdf="http://www.w3.org/1999/02/22-rdf-syntax-ns#">
   <cc:Work>
    <dc:type rdf:resource="http://purl.org/dc/dcmitype/StillImage"/>
    <dc:date>2022-04-19T01:52:37.834141</dc:date>
    <dc:format>image/svg+xml</dc:format>
    <dc:creator>
     <cc:Agent>
      <dc:title>Matplotlib v3.4.1, https://matplotlib.org/</dc:title>
     </cc:Agent>
    </dc:creator>
   </cc:Work>
  </rdf:RDF>
 </metadata>
 <defs>
  <style type="text/css">*{stroke-linecap:butt;stroke-linejoin:round;}</style>
 </defs>
 <g id="figure_1">
  <g id="patch_1">
   <path d="M 0 288 
L 432 288 
L 432 0 
L 0 0 
z
" style="fill:none;"/>
  </g>
  <g id="axes_1">
   <g id="patch_2">
    <path d="M 57.14 256.52 
L 421.2 256.52 
L 421.2 17.76 
L 57.14 17.76 
z
" style="fill:none;"/>
   </g>
   <g id="patch_3">
    <path clip-path="url(#p9abf2161bf)" d="M 65.808095 256.52 
L 83.144286 256.52 
L 83.144286 31.638942 
L 65.808095 31.638942 
z
" style="fill:#151d3b;"/>
   </g>
   <g id="patch_4">
    <path clip-path="url(#p9abf2161bf)" d="M 91.812381 256.52 
L 109.148571 256.52 
L 109.148571 162.864348 
L 91.812381 162.864348 
z
" style="fill:#98042d;"/>
   </g>
   <g id="patch_5">
    <path clip-path="url(#p9abf2161bf)" d="M 109.148571 256.52 
L 126.484762 256.52 
L 126.484762 70.118563 
L 109.148571 70.118563 
z
" style="fill:#ff0f39;"/>
   </g>
   <g id="patch_6">
    <path clip-path="url(#p9abf2161bf)" d="M 126.484762 256.52 
L 143.820952 256.52 
L 143.820952 52.319205 
L 126.484762 52.319205 
z
" style="fill:#f16745;"/>
   </g>
   <g id="patch_7">
    <path clip-path="url(#p9abf2161bf)" d="M 143.820952 256.52 
L 161.157143 256.52 
L 161.157143 39.411786 
L 143.820952 39.411786 
z
" style="fill:#ffc65d;"/>
   </g>
   <g id="patch_8">
    <path clip-path="url(#p9abf2161bf)" d="M 169.825238 256.52 
L 187.161429 256.52 
L 187.161429 243.636919 
L 169.825238 243.636919 
z
" style="fill:#3a6351;"/>
   </g>
   <g id="patch_9">
    <path clip-path="url(#p9abf2161bf)" d="M 187.161429 256.52 
L 204.497619 256.52 
L 204.497619 130.49456 
L 187.161429 130.49456 
z
" style="fill:#019267;"/>
   </g>
   <g id="patch_10">
    <path clip-path="url(#p9abf2161bf)" d="M 204.497619 256.52 
L 221.83381 256.52 
L 221.83381 129.811041 
L 204.497619 129.811041 
z
" style="fill:#00c897;"/>
   </g>
   <g id="patch_11">
    <path clip-path="url(#p9abf2161bf)" d="M 221.83381 256.52 
L 239.17 256.52 
L 239.17 157.860124 
L 221.83381 157.860124 
z
" style="fill:#85c88a;"/>
   </g>
   <g id="patch_12">
    <path clip-path="url(#p9abf2161bf)" d="M 247.838095 256.52 
L 265.174286 256.52 
L 265.174286 157.54477 
L 247.838095 157.54477 
z
" style="fill:#495371;"/>
   </g>
   <g id="patch_13">
    <path clip-path="url(#p9abf2161bf)" d="M 265.174286 256.52 
L 282.510476 256.52 
L 282.510476 155.445184 
L 265.174286 155.445184 
z
" style="fill:#488fb1;"/>
   </g>
   <g id="patch_14">
    <path clip-path="url(#p9abf2161bf)" d="M 282.510476 256.52 
L 299.846667 256.52 
L 299.846667 165.820422 
L 282.510476 165.820422 
z
" style="fill:#2fa4ff;"/>
   </g>
   <g id="patch_15">
    <path clip-path="url(#p9abf2161bf)" d="M 308.514762 256.52 
L 325.850952 256.52 
L 325.850952 166.871881 
L 308.514762 166.871881 
z
" style="fill:#8267be;"/>
   </g>
   <g id="matplotlib.axis_1">
    <g id="xtick_1">
     <g id="line2d_1">
      <defs>
       <path d="M 0 0 
L 0 3.5 
" id="mecb219ee06" style="stroke:#000000;stroke-width:0.8;"/>
      </defs>
      <g>
       <use style="stroke:#000000;stroke-width:0.8;" x="74.47619" xlink:href="#mecb219ee06" y="256.52"/>
      </g>
     </g>
     <g id="text_1">
      <!-- RL -->
      <g transform="translate(65.711972 274.157812)scale(0.14 -0.14)">
       <defs>
        <path d="M 2841 2188 
Q 3044 2119 3236 1894 
Q 3428 1669 3622 1275 
L 4263 0 
L 3584 0 
L 2988 1197 
Q 2756 1666 2539 1819 
Q 2322 1972 1947 1972 
L 1259 1972 
L 1259 0 
L 628 0 
L 628 4666 
L 2053 4666 
Q 2853 4666 3247 4331 
Q 3641 3997 3641 3322 
Q 3641 2881 3436 2590 
Q 3231 2300 2841 2188 
z
M 1259 4147 
L 1259 2491 
L 2053 2491 
Q 2509 2491 2742 2702 
Q 2975 2913 2975 3322 
Q 2975 3731 2742 3939 
Q 2509 4147 2053 4147 
L 1259 4147 
z
" id="DejaVuSans-52" transform="scale(0.015625)"/>
        <path d="M 628 4666 
L 1259 4666 
L 1259 531 
L 3531 531 
L 3531 0 
L 628 0 
L 628 4666 
z
" id="DejaVuSans-4c" transform="scale(0.015625)"/>
       </defs>
       <use xlink:href="#DejaVuSans-52"/>
       <use x="69.482422" xlink:href="#DejaVuSans-4c"/>
      </g>
     </g>
    </g>
    <g id="xtick_2">
     <g id="line2d_2">
      <g>
       <use style="stroke:#000000;stroke-width:0.8;" x="126.484762" xlink:href="#mecb219ee06" y="256.52"/>
      </g>
     </g>
     <g id="text_2">
      <!-- BI -->
      <g transform="translate(119.617106 274.157812)scale(0.14 -0.14)">
       <defs>
        <path d="M 1259 2228 
L 1259 519 
L 2272 519 
Q 2781 519 3026 730 
Q 3272 941 3272 1375 
Q 3272 1813 3026 2020 
Q 2781 2228 2272 2228 
L 1259 2228 
z
M 1259 4147 
L 1259 2741 
L 2194 2741 
Q 2656 2741 2882 2914 
Q 3109 3088 3109 3444 
Q 3109 3797 2882 3972 
Q 2656 4147 2194 4147 
L 1259 4147 
z
M 628 4666 
L 2241 4666 
Q 2963 4666 3353 4366 
Q 3744 4066 3744 3513 
Q 3744 3084 3544 2831 
Q 3344 2578 2956 2516 
Q 3422 2416 3680 2098 
Q 3938 1781 3938 1306 
Q 3938 681 3513 340 
Q 3088 0 2303 0 
L 628 0 
L 628 4666 
z
" id="DejaVuSans-42" transform="scale(0.015625)"/>
        <path d="M 628 4666 
L 1259 4666 
L 1259 0 
L 628 0 
L 628 4666 
z
" id="DejaVuSans-49" transform="scale(0.015625)"/>
       </defs>
       <use xlink:href="#DejaVuSans-42"/>
       <use x="68.603516" xlink:href="#DejaVuSans-49"/>
      </g>
     </g>
    </g>
    <g id="xtick_3">
     <g id="line2d_3">
      <g>
       <use style="stroke:#000000;stroke-width:0.8;" x="204.497619" xlink:href="#mecb219ee06" y="256.52"/>
      </g>
     </g>
     <g id="text_3">
      <!-- CF -->
      <g transform="translate(195.583557 274.157812)scale(0.14 -0.14)">
       <defs>
        <path d="M 4122 4306 
L 4122 3641 
Q 3803 3938 3442 4084 
Q 3081 4231 2675 4231 
Q 1875 4231 1450 3742 
Q 1025 3253 1025 2328 
Q 1025 1406 1450 917 
Q 1875 428 2675 428 
Q 3081 428 3442 575 
Q 3803 722 4122 1019 
L 4122 359 
Q 3791 134 3420 21 
Q 3050 -91 2638 -91 
Q 1578 -91 968 557 
Q 359 1206 359 2328 
Q 359 3453 968 4101 
Q 1578 4750 2638 4750 
Q 3056 4750 3426 4639 
Q 3797 4528 4122 4306 
z
" id="DejaVuSans-43" transform="scale(0.015625)"/>
        <path d="M 628 4666 
L 3309 4666 
L 3309 4134 
L 1259 4134 
L 1259 2759 
L 3109 2759 
L 3109 2228 
L 1259 2228 
L 1259 0 
L 628 0 
L 628 4666 
z
" id="DejaVuSans-46" transform="scale(0.015625)"/>
       </defs>
       <use xlink:href="#DejaVuSans-43"/>
       <use x="69.824219" xlink:href="#DejaVuSans-46"/>
      </g>
     </g>
    </g>
    <g id="xtick_4">
     <g id="line2d_4">
      <g>
       <use style="stroke:#000000;stroke-width:0.8;" x="273.842381" xlink:href="#mecb219ee06" y="256.52"/>
      </g>
     </g>
     <g id="text_4">
      <!-- PI -->
      <g transform="translate(267.5566 274.157812)scale(0.14 -0.14)">
       <defs>
        <path d="M 1259 4147 
L 1259 2394 
L 2053 2394 
Q 2494 2394 2734 2622 
Q 2975 2850 2975 3272 
Q 2975 3691 2734 3919 
Q 2494 4147 2053 4147 
L 1259 4147 
z
M 628 4666 
L 2053 4666 
Q 2838 4666 3239 4311 
Q 3641 3956 3641 3272 
Q 3641 2581 3239 2228 
Q 2838 1875 2053 1875 
L 1259 1875 
L 1259 0 
L 628 0 
L 628 4666 
z
" id="DejaVuSans-50" transform="scale(0.015625)"/>
       </defs>
       <use xlink:href="#DejaVuSans-50"/>
       <use x="60.302734" xlink:href="#DejaVuSans-49"/>
      </g>
     </g>
    </g>
    <g id="xtick_5">
     <g id="line2d_5">
      <g>
       <use style="stroke:#000000;stroke-width:0.8;" x="317.182857" xlink:href="#mecb219ee06" y="256.52"/>
      </g>
     </g>
     <g id="text_5">
      <!-- RI -->
      <g transform="translate(310.253951 274.157812)scale(0.14 -0.14)">
       <use xlink:href="#DejaVuSans-52"/>
       <use x="69.482422" xlink:href="#DejaVuSans-49"/>
      </g>
     </g>
    </g>
   </g>
   <g id="matplotlib.axis_2">
    <g id="ytick_1">
     <g id="line2d_6">
      <defs>
       <path d="M 0 0 
L -3.5 0 
" id="m8bf17e4068" style="stroke:#000000;stroke-width:0.8;"/>
      </defs>
      <g>
       <use style="stroke:#000000;stroke-width:0.8;" x="57.14" xlink:href="#m8bf17e4068" y="256.52"/>
      </g>
     </g>
     <g id="text_6">
      <!-- 0 -->
      <g transform="translate(41.2325 261.838906)scale(0.14 -0.14)">
       <defs>
        <path d="M 2034 4250 
Q 1547 4250 1301 3770 
Q 1056 3291 1056 2328 
Q 1056 1369 1301 889 
Q 1547 409 2034 409 
Q 2525 409 2770 889 
Q 3016 1369 3016 2328 
Q 3016 3291 2770 3770 
Q 2525 4250 2034 4250 
z
M 2034 4750 
Q 2819 4750 3233 4129 
Q 3647 3509 3647 2328 
Q 3647 1150 3233 529 
Q 2819 -91 2034 -91 
Q 1250 -91 836 529 
Q 422 1150 422 2328 
Q 422 3509 836 4129 
Q 1250 4750 2034 4750 
z
" id="DejaVuSans-30" transform="scale(0.015625)"/>
       </defs>
       <use xlink:href="#DejaVuSans-30"/>
      </g>
     </g>
    </g>
    <g id="ytick_2">
     <g id="line2d_7">
      <g>
       <use style="stroke:#000000;stroke-width:0.8;" x="57.14" xlink:href="#m8bf17e4068" y="199.59763"/>
      </g>
     </g>
     <g id="text_7">
      <!-- 20 -->
      <g transform="translate(32.325 204.916536)scale(0.14 -0.14)">
       <defs>
        <path d="M 1228 531 
L 3431 531 
L 3431 0 
L 469 0 
L 469 531 
Q 828 903 1448 1529 
Q 2069 2156 2228 2338 
Q 2531 2678 2651 2914 
Q 2772 3150 2772 3378 
Q 2772 3750 2511 3984 
Q 2250 4219 1831 4219 
Q 1534 4219 1204 4116 
Q 875 4013 500 3803 
L 500 4441 
Q 881 4594 1212 4672 
Q 1544 4750 1819 4750 
Q 2544 4750 2975 4387 
Q 3406 4025 3406 3419 
Q 3406 3131 3298 2873 
Q 3191 2616 2906 2266 
Q 2828 2175 2409 1742 
Q 1991 1309 1228 531 
z
" id="DejaVuSans-32" transform="scale(0.015625)"/>
       </defs>
       <use xlink:href="#DejaVuSans-32"/>
       <use x="63.623047" xlink:href="#DejaVuSans-30"/>
      </g>
     </g>
    </g>
    <g id="ytick_3">
     <g id="line2d_8">
      <g>
       <use style="stroke:#000000;stroke-width:0.8;" x="57.14" xlink:href="#m8bf17e4068" y="142.675259"/>
      </g>
     </g>
     <g id="text_8">
      <!-- 40 -->
      <g transform="translate(32.325 147.994166)scale(0.14 -0.14)">
       <defs>
        <path d="M 2419 4116 
L 825 1625 
L 2419 1625 
L 2419 4116 
z
M 2253 4666 
L 3047 4666 
L 3047 1625 
L 3713 1625 
L 3713 1100 
L 3047 1100 
L 3047 0 
L 2419 0 
L 2419 1100 
L 313 1100 
L 313 1709 
L 2253 4666 
z
" id="DejaVuSans-34" transform="scale(0.015625)"/>
       </defs>
       <use xlink:href="#DejaVuSans-34"/>
       <use x="63.623047" xlink:href="#DejaVuSans-30"/>
      </g>
     </g>
    </g>
    <g id="ytick_4">
     <g id="line2d_9">
      <g>
       <use style="stroke:#000000;stroke-width:0.8;" x="57.14" xlink:href="#m8bf17e4068" y="85.752889"/>
      </g>
     </g>
     <g id="text_9">
      <!-- 60 -->
      <g transform="translate(32.325 91.071795)scale(0.14 -0.14)">
       <defs>
        <path d="M 2113 2584 
Q 1688 2584 1439 2293 
Q 1191 2003 1191 1497 
Q 1191 994 1439 701 
Q 1688 409 2113 409 
Q 2538 409 2786 701 
Q 3034 994 3034 1497 
Q 3034 2003 2786 2293 
Q 2538 2584 2113 2584 
z
M 3366 4563 
L 3366 3988 
Q 3128 4100 2886 4159 
Q 2644 4219 2406 4219 
Q 1781 4219 1451 3797 
Q 1122 3375 1075 2522 
Q 1259 2794 1537 2939 
Q 1816 3084 2150 3084 
Q 2853 3084 3261 2657 
Q 3669 2231 3669 1497 
Q 3669 778 3244 343 
Q 2819 -91 2113 -91 
Q 1303 -91 875 529 
Q 447 1150 447 2328 
Q 447 3434 972 4092 
Q 1497 4750 2381 4750 
Q 2619 4750 2861 4703 
Q 3103 4656 3366 4563 
z
" id="DejaVuSans-36" transform="scale(0.015625)"/>
       </defs>
       <use xlink:href="#DejaVuSans-36"/>
       <use x="63.623047" xlink:href="#DejaVuSans-30"/>
      </g>
     </g>
    </g>
    <g id="ytick_5">
     <g id="line2d_10">
      <g>
       <use style="stroke:#000000;stroke-width:0.8;" x="57.14" xlink:href="#m8bf17e4068" y="28.830519"/>
      </g>
     </g>
     <g id="text_10">
      <!-- 80 -->
      <g transform="translate(32.325 34.149425)scale(0.14 -0.14)">
       <defs>
        <path d="M 2034 2216 
Q 1584 2216 1326 1975 
Q 1069 1734 1069 1313 
Q 1069 891 1326 650 
Q 1584 409 2034 409 
Q 2484 409 2743 651 
Q 3003 894 3003 1313 
Q 3003 1734 2745 1975 
Q 2488 2216 2034 2216 
z
M 1403 2484 
Q 997 2584 770 2862 
Q 544 3141 544 3541 
Q 544 4100 942 4425 
Q 1341 4750 2034 4750 
Q 2731 4750 3128 4425 
Q 3525 4100 3525 3541 
Q 3525 3141 3298 2862 
Q 3072 2584 2669 2484 
Q 3125 2378 3379 2068 
Q 3634 1759 3634 1313 
Q 3634 634 3220 271 
Q 2806 -91 2034 -91 
Q 1263 -91 848 271 
Q 434 634 434 1313 
Q 434 1759 690 2068 
Q 947 2378 1403 2484 
z
M 1172 3481 
Q 1172 3119 1398 2916 
Q 1625 2713 2034 2713 
Q 2441 2713 2670 2916 
Q 2900 3119 2900 3481 
Q 2900 3844 2670 4047 
Q 2441 4250 2034 4250 
Q 1625 4250 1398 4047 
Q 1172 3844 1172 3481 
z
" id="DejaVuSans-38" transform="scale(0.015625)"/>
       </defs>
       <use xlink:href="#DejaVuSans-38"/>
       <use x="63.623047" xlink:href="#DejaVuSans-30"/>
      </g>
     </g>
    </g>
    <g id="text_11">
     <!-- Average Mean Payoff -->
     <g transform="translate(24.581562 232.049219)rotate(-90)scale(0.18 -0.18)">
      <defs>
       <path d="M 2188 4044 
L 1331 1722 
L 3047 1722 
L 2188 4044 
z
M 1831 4666 
L 2547 4666 
L 4325 0 
L 3669 0 
L 3244 1197 
L 1141 1197 
L 716 0 
L 50 0 
L 1831 4666 
z
" id="DejaVuSans-41" transform="scale(0.015625)"/>
       <path d="M 191 3500 
L 800 3500 
L 1894 563 
L 2988 3500 
L 3597 3500 
L 2284 0 
L 1503 0 
L 191 3500 
z
" id="DejaVuSans-76" transform="scale(0.015625)"/>
       <path d="M 3597 1894 
L 3597 1613 
L 953 1613 
Q 991 1019 1311 708 
Q 1631 397 2203 397 
Q 2534 397 2845 478 
Q 3156 559 3463 722 
L 3463 178 
Q 3153 47 2828 -22 
Q 2503 -91 2169 -91 
Q 1331 -91 842 396 
Q 353 884 353 1716 
Q 353 2575 817 3079 
Q 1281 3584 2069 3584 
Q 2775 3584 3186 3129 
Q 3597 2675 3597 1894 
z
M 3022 2063 
Q 3016 2534 2758 2815 
Q 2500 3097 2075 3097 
Q 1594 3097 1305 2825 
Q 1016 2553 972 2059 
L 3022 2063 
z
" id="DejaVuSans-65" transform="scale(0.015625)"/>
       <path d="M 2631 2963 
Q 2534 3019 2420 3045 
Q 2306 3072 2169 3072 
Q 1681 3072 1420 2755 
Q 1159 2438 1159 1844 
L 1159 0 
L 581 0 
L 581 3500 
L 1159 3500 
L 1159 2956 
Q 1341 3275 1631 3429 
Q 1922 3584 2338 3584 
Q 2397 3584 2469 3576 
Q 2541 3569 2628 3553 
L 2631 2963 
z
" id="DejaVuSans-72" transform="scale(0.015625)"/>
       <path d="M 2194 1759 
Q 1497 1759 1228 1600 
Q 959 1441 959 1056 
Q 959 750 1161 570 
Q 1363 391 1709 391 
Q 2188 391 2477 730 
Q 2766 1069 2766 1631 
L 2766 1759 
L 2194 1759 
z
M 3341 1997 
L 3341 0 
L 2766 0 
L 2766 531 
Q 2569 213 2275 61 
Q 1981 -91 1556 -91 
Q 1019 -91 701 211 
Q 384 513 384 1019 
Q 384 1609 779 1909 
Q 1175 2209 1959 2209 
L 2766 2209 
L 2766 2266 
Q 2766 2663 2505 2880 
Q 2244 3097 1772 3097 
Q 1472 3097 1187 3025 
Q 903 2953 641 2809 
L 641 3341 
Q 956 3463 1253 3523 
Q 1550 3584 1831 3584 
Q 2591 3584 2966 3190 
Q 3341 2797 3341 1997 
z
" id="DejaVuSans-61" transform="scale(0.015625)"/>
       <path d="M 2906 1791 
Q 2906 2416 2648 2759 
Q 2391 3103 1925 3103 
Q 1463 3103 1205 2759 
Q 947 2416 947 1791 
Q 947 1169 1205 825 
Q 1463 481 1925 481 
Q 2391 481 2648 825 
Q 2906 1169 2906 1791 
z
M 3481 434 
Q 3481 -459 3084 -895 
Q 2688 -1331 1869 -1331 
Q 1566 -1331 1297 -1286 
Q 1028 -1241 775 -1147 
L 775 -588 
Q 1028 -725 1275 -790 
Q 1522 -856 1778 -856 
Q 2344 -856 2625 -561 
Q 2906 -266 2906 331 
L 2906 616 
Q 2728 306 2450 153 
Q 2172 0 1784 0 
Q 1141 0 747 490 
Q 353 981 353 1791 
Q 353 2603 747 3093 
Q 1141 3584 1784 3584 
Q 2172 3584 2450 3431 
Q 2728 3278 2906 2969 
L 2906 3500 
L 3481 3500 
L 3481 434 
z
" id="DejaVuSans-67" transform="scale(0.015625)"/>
       <path id="DejaVuSans-20" transform="scale(0.015625)"/>
       <path d="M 628 4666 
L 1569 4666 
L 2759 1491 
L 3956 4666 
L 4897 4666 
L 4897 0 
L 4281 0 
L 4281 4097 
L 3078 897 
L 2444 897 
L 1241 4097 
L 1241 0 
L 628 0 
L 628 4666 
z
" id="DejaVuSans-4d" transform="scale(0.015625)"/>
       <path d="M 3513 2113 
L 3513 0 
L 2938 0 
L 2938 2094 
Q 2938 2591 2744 2837 
Q 2550 3084 2163 3084 
Q 1697 3084 1428 2787 
Q 1159 2491 1159 1978 
L 1159 0 
L 581 0 
L 581 3500 
L 1159 3500 
L 1159 2956 
Q 1366 3272 1645 3428 
Q 1925 3584 2291 3584 
Q 2894 3584 3203 3211 
Q 3513 2838 3513 2113 
z
" id="DejaVuSans-6e" transform="scale(0.015625)"/>
       <path d="M 2059 -325 
Q 1816 -950 1584 -1140 
Q 1353 -1331 966 -1331 
L 506 -1331 
L 506 -850 
L 844 -850 
Q 1081 -850 1212 -737 
Q 1344 -625 1503 -206 
L 1606 56 
L 191 3500 
L 800 3500 
L 1894 763 
L 2988 3500 
L 3597 3500 
L 2059 -325 
z
" id="DejaVuSans-79" transform="scale(0.015625)"/>
       <path d="M 1959 3097 
Q 1497 3097 1228 2736 
Q 959 2375 959 1747 
Q 959 1119 1226 758 
Q 1494 397 1959 397 
Q 2419 397 2687 759 
Q 2956 1122 2956 1747 
Q 2956 2369 2687 2733 
Q 2419 3097 1959 3097 
z
M 1959 3584 
Q 2709 3584 3137 3096 
Q 3566 2609 3566 1747 
Q 3566 888 3137 398 
Q 2709 -91 1959 -91 
Q 1206 -91 779 398 
Q 353 888 353 1747 
Q 353 2609 779 3096 
Q 1206 3584 1959 3584 
z
" id="DejaVuSans-6f" transform="scale(0.015625)"/>
       <path d="M 2375 4863 
L 2375 4384 
L 1825 4384 
Q 1516 4384 1395 4259 
Q 1275 4134 1275 3809 
L 1275 3500 
L 2222 3500 
L 2222 3053 
L 1275 3053 
L 1275 0 
L 697 0 
L 697 3053 
L 147 3053 
L 147 3500 
L 697 3500 
L 697 3744 
Q 697 4328 969 4595 
Q 1241 4863 1831 4863 
L 2375 4863 
z
" id="DejaVuSans-66" transform="scale(0.015625)"/>
      </defs>
      <use xlink:href="#DejaVuSans-41"/>
      <use x="62.533203" xlink:href="#DejaVuSans-76"/>
      <use x="121.712891" xlink:href="#DejaVuSans-65"/>
      <use x="183.236328" xlink:href="#DejaVuSans-72"/>
      <use x="224.349609" xlink:href="#DejaVuSans-61"/>
      <use x="285.628906" xlink:href="#DejaVuSans-67"/>
      <use x="349.105469" xlink:href="#DejaVuSans-65"/>
      <use x="410.628906" xlink:href="#DejaVuSans-20"/>
      <use x="442.416016" xlink:href="#DejaVuSans-4d"/>
      <use x="528.695312" xlink:href="#DejaVuSans-65"/>
      <use x="590.21875" xlink:href="#DejaVuSans-61"/>
      <use x="651.498047" xlink:href="#DejaVuSans-6e"/>
      <use x="714.876953" xlink:href="#DejaVuSans-20"/>
      <use x="746.664062" xlink:href="#DejaVuSans-50"/>
      <use x="802.466797" xlink:href="#DejaVuSans-61"/>
      <use x="863.746094" xlink:href="#DejaVuSans-79"/>
      <use x="922.925781" xlink:href="#DejaVuSans-6f"/>
      <use x="984.107422" xlink:href="#DejaVuSans-66"/>
      <use x="1019.3125" xlink:href="#DejaVuSans-66"/>
     </g>
    </g>
   </g>
   <g id="LineCollection_1">
    <path clip-path="url(#p9abf2161bf)" d="M 74.47619 34.14836 
L 74.47619 29.129524 
" style="fill:none;stroke:#000000;stroke-width:1.5;"/>
   </g>
   <g id="LineCollection_2">
    <path clip-path="url(#p9abf2161bf)" d="M 100.480476 165.588947 
L 100.480476 160.139749 
" style="fill:none;stroke:#000000;stroke-width:1.5;"/>
   </g>
   <g id="LineCollection_3">
    <path clip-path="url(#p9abf2161bf)" d="M 117.816667 73.837997 
L 117.816667 66.399129 
" style="fill:none;stroke:#000000;stroke-width:1.5;"/>
   </g>
   <g id="LineCollection_4">
    <path clip-path="url(#p9abf2161bf)" d="M 135.152857 55.693153 
L 135.152857 48.945257 
" style="fill:none;stroke:#000000;stroke-width:1.5;"/>
   </g>
   <g id="LineCollection_5">
    <path clip-path="url(#p9abf2161bf)" d="M 152.489048 41.803668 
L 152.489048 37.019905 
" style="fill:none;stroke:#000000;stroke-width:1.5;"/>
   </g>
   <g id="LineCollection_6">
    <path clip-path="url(#p9abf2161bf)" d="M 178.493333 243.835905 
L 178.493333 243.437933 
" style="fill:none;stroke:#000000;stroke-width:1.5;"/>
   </g>
   <g id="LineCollection_7">
    <path clip-path="url(#p9abf2161bf)" d="M 195.829524 132.385294 
L 195.829524 128.603826 
" style="fill:none;stroke:#000000;stroke-width:1.5;"/>
   </g>
   <g id="LineCollection_8">
    <path clip-path="url(#p9abf2161bf)" d="M 213.165714 131.49173 
L 213.165714 128.130353 
" style="fill:none;stroke:#000000;stroke-width:1.5;"/>
   </g>
   <g id="LineCollection_9">
    <path clip-path="url(#p9abf2161bf)" d="M 230.501905 159.110658 
L 230.501905 156.609591 
" style="fill:none;stroke:#000000;stroke-width:1.5;"/>
   </g>
   <g id="LineCollection_10">
    <path clip-path="url(#p9abf2161bf)" d="M 256.50619 158.694116 
L 256.50619 156.395423 
" style="fill:none;stroke:#000000;stroke-width:1.5;"/>
   </g>
   <g id="LineCollection_11">
    <path clip-path="url(#p9abf2161bf)" d="M 273.842381 156.595377 
L 273.842381 154.294991 
" style="fill:none;stroke:#000000;stroke-width:1.5;"/>
   </g>
   <g id="LineCollection_12">
    <path clip-path="url(#p9abf2161bf)" d="M 291.178571 166.887845 
L 291.178571 164.752998 
" style="fill:none;stroke:#000000;stroke-width:1.5;"/>
   </g>
   <g id="LineCollection_13">
    <path clip-path="url(#p9abf2161bf)" d="M 317.182857 169.403317 
L 317.182857 164.340445 
" style="fill:none;stroke:#000000;stroke-width:1.5;"/>
   </g>
   <g id="LineCollection_14">
    <path clip-path="url(#p9abf2161bf)" d="M 57.14 39.411786 
L 213.165714 39.411786 
" style="fill:none;stroke:#444444;stroke-dasharray:4.5,3;stroke-dashoffset:0;stroke-width:1.5;"/>
   </g>
   <g id="patch_16">
    <path d="M 57.14 256.52 
L 57.14 17.76 
" style="fill:none;stroke:#000000;stroke-linecap:square;stroke-linejoin:miter;stroke-width:0.8;"/>
   </g>
   <g id="patch_17">
    <path d="M 421.2 256.52 
L 421.2 17.76 
" style="fill:none;stroke:#000000;stroke-linecap:square;stroke-linejoin:miter;stroke-width:0.8;"/>
   </g>
   <g id="patch_18">
    <path d="M 57.14 256.52 
L 421.2 256.52 
" style="fill:none;stroke:#000000;stroke-linecap:square;stroke-linejoin:miter;stroke-width:0.8;"/>
   </g>
   <g id="patch_19">
    <path d="M 57.14 17.76 
L 421.2 17.76 
" style="fill:none;stroke:#000000;stroke-linecap:square;stroke-linejoin:miter;stroke-width:0.8;"/>
   </g>
   <g id="legend_1">
    <g id="patch_20">
     <path d="M 346.45125 253.429375 
L 412.8 253.429375 
Q 415.2 253.429375 415.2 251.029375 
L 415.2 23.250625 
Q 415.2 20.850625 412.8 20.850625 
L 346.45125 20.850625 
Q 344.05125 20.850625 344.05125 23.250625 
L 344.05125 251.029375 
Q 344.05125 253.429375 346.45125 253.429375 
z
" style="fill:#ffffff;opacity:0.8;stroke:#cccccc;stroke-linejoin:miter;"/>
    </g>
    <g id="patch_21">
     <path d="M 348.85125 34.76875 
L 372.85125 34.76875 
L 372.85125 26.36875 
L 348.85125 26.36875 
z
" style="fill:#151d3b;"/>
    </g>
    <g id="text_12">
     <!-- RL -->
     <g transform="translate(382.45125 34.76875)scale(0.12 -0.12)">
      <use xlink:href="#DejaVuSans-52"/>
      <use x="69.482422" xlink:href="#DejaVuSans-4c"/>
     </g>
    </g>
    <g id="patch_22">
     <path d="M 348.85125 52.3825 
L 372.85125 52.3825 
L 372.85125 43.9825 
L 348.85125 43.9825 
z
" style="fill:#98042d;"/>
    </g>
    <g id="text_13">
     <!-- BI -->
     <g transform="translate(382.45125 52.3825)scale(0.12 -0.12)">
      <use xlink:href="#DejaVuSans-42"/>
      <use x="68.603516" xlink:href="#DejaVuSans-49"/>
     </g>
    </g>
    <g id="patch_23">
     <path d="M 348.85125 69.99625 
L 372.85125 69.99625 
L 372.85125 61.59625 
L 348.85125 61.59625 
z
" style="fill:#ff0f39;"/>
    </g>
    <g id="text_14">
     <!-- BI-I -->
     <g transform="translate(382.45125 69.99625)scale(0.12 -0.12)">
      <defs>
       <path d="M 313 2009 
L 1997 2009 
L 1997 1497 
L 313 1497 
L 313 2009 
z
" id="DejaVuSans-2d" transform="scale(0.015625)"/>
      </defs>
      <use xlink:href="#DejaVuSans-42"/>
      <use x="68.603516" xlink:href="#DejaVuSans-49"/>
      <use x="98.095703" xlink:href="#DejaVuSans-2d"/>
      <use x="134.179688" xlink:href="#DejaVuSans-49"/>
     </g>
    </g>
    <g id="patch_24">
     <path d="M 348.85125 87.61 
L 372.85125 87.61 
L 372.85125 79.21 
L 348.85125 79.21 
z
" style="fill:#f16745;"/>
    </g>
    <g id="text_15">
     <!-- BI-P -->
     <g transform="translate(382.45125 87.61)scale(0.12 -0.12)">
      <use xlink:href="#DejaVuSans-42"/>
      <use x="68.603516" xlink:href="#DejaVuSans-49"/>
      <use x="98.095703" xlink:href="#DejaVuSans-2d"/>
      <use x="134.179688" xlink:href="#DejaVuSans-50"/>
     </g>
    </g>
    <g id="patch_25">
     <path d="M 348.85125 105.22375 
L 372.85125 105.22375 
L 372.85125 96.82375 
L 348.85125 96.82375 
z
" style="fill:#ffc65d;"/>
    </g>
    <g id="text_16">
     <!-- BI-R -->
     <g transform="translate(382.45125 105.22375)scale(0.12 -0.12)">
      <use xlink:href="#DejaVuSans-42"/>
      <use x="68.603516" xlink:href="#DejaVuSans-49"/>
      <use x="98.095703" xlink:href="#DejaVuSans-2d"/>
      <use x="134.179688" xlink:href="#DejaVuSans-52"/>
     </g>
    </g>
    <g id="patch_26">
     <path d="M 348.85125 122.8375 
L 372.85125 122.8375 
L 372.85125 114.4375 
L 348.85125 114.4375 
z
" style="fill:#3a6351;"/>
    </g>
    <g id="text_17">
     <!-- CF -->
     <g transform="translate(382.45125 122.8375)scale(0.12 -0.12)">
      <use xlink:href="#DejaVuSans-43"/>
      <use x="69.824219" xlink:href="#DejaVuSans-46"/>
     </g>
    </g>
    <g id="patch_27">
     <path d="M 348.85125 140.45125 
L 372.85125 140.45125 
L 372.85125 132.05125 
L 348.85125 132.05125 
z
" style="fill:#019267;"/>
    </g>
    <g id="text_18">
     <!-- CF-I -->
     <g transform="translate(382.45125 140.45125)scale(0.12 -0.12)">
      <use xlink:href="#DejaVuSans-43"/>
      <use x="69.824219" xlink:href="#DejaVuSans-46"/>
      <use x="127.34375" xlink:href="#DejaVuSans-2d"/>
      <use x="163.427734" xlink:href="#DejaVuSans-49"/>
     </g>
    </g>
    <g id="patch_28">
     <path d="M 348.85125 158.065 
L 372.85125 158.065 
L 372.85125 149.665 
L 348.85125 149.665 
z
" style="fill:#00c897;"/>
    </g>
    <g id="text_19">
     <!-- CF-P -->
     <g transform="translate(382.45125 158.065)scale(0.12 -0.12)">
      <use xlink:href="#DejaVuSans-43"/>
      <use x="69.824219" xlink:href="#DejaVuSans-46"/>
      <use x="127.34375" xlink:href="#DejaVuSans-2d"/>
      <use x="163.427734" xlink:href="#DejaVuSans-50"/>
     </g>
    </g>
    <g id="patch_29">
     <path d="M 348.85125 175.67875 
L 372.85125 175.67875 
L 372.85125 167.27875 
L 348.85125 167.27875 
z
" style="fill:#85c88a;"/>
    </g>
    <g id="text_20">
     <!-- CF-R -->
     <g transform="translate(382.45125 175.67875)scale(0.12 -0.12)">
      <use xlink:href="#DejaVuSans-43"/>
      <use x="69.824219" xlink:href="#DejaVuSans-46"/>
      <use x="127.34375" xlink:href="#DejaVuSans-2d"/>
      <use x="163.427734" xlink:href="#DejaVuSans-52"/>
     </g>
    </g>
    <g id="patch_30">
     <path d="M 348.85125 193.2925 
L 372.85125 193.2925 
L 372.85125 184.8925 
L 348.85125 184.8925 
z
" style="fill:#495371;"/>
    </g>
    <g id="text_21">
     <!-- PI-I -->
     <g transform="translate(382.45125 193.2925)scale(0.12 -0.12)">
      <use xlink:href="#DejaVuSans-50"/>
      <use x="60.302734" xlink:href="#DejaVuSans-49"/>
      <use x="89.794922" xlink:href="#DejaVuSans-2d"/>
      <use x="125.878906" xlink:href="#DejaVuSans-49"/>
     </g>
    </g>
    <g id="patch_31">
     <path d="M 348.85125 210.90625 
L 372.85125 210.90625 
L 372.85125 202.50625 
L 348.85125 202.50625 
z
" style="fill:#488fb1;"/>
    </g>
    <g id="text_22">
     <!-- PI-P -->
     <g transform="translate(382.45125 210.90625)scale(0.12 -0.12)">
      <use xlink:href="#DejaVuSans-50"/>
      <use x="60.302734" xlink:href="#DejaVuSans-49"/>
      <use x="89.794922" xlink:href="#DejaVuSans-2d"/>
      <use x="125.878906" xlink:href="#DejaVuSans-50"/>
     </g>
    </g>
    <g id="patch_32">
     <path d="M 348.85125 228.52 
L 372.85125 228.52 
L 372.85125 220.12 
L 348.85125 220.12 
z
" style="fill:#2fa4ff;"/>
    </g>
    <g id="text_23">
     <!-- PI-R -->
     <g transform="translate(382.45125 228.52)scale(0.12 -0.12)">
      <use xlink:href="#DejaVuSans-50"/>
      <use x="60.302734" xlink:href="#DejaVuSans-49"/>
      <use x="89.794922" xlink:href="#DejaVuSans-2d"/>
      <use x="125.878906" xlink:href="#DejaVuSans-52"/>
     </g>
    </g>
    <g id="patch_33">
     <path d="M 348.85125 246.13375 
L 372.85125 246.13375 
L 372.85125 237.73375 
L 348.85125 237.73375 
z
" style="fill:#8267be;"/>
    </g>
    <g id="text_24">
     <!-- RI -->
     <g transform="translate(382.45125 246.13375)scale(0.12 -0.12)">
      <use xlink:href="#DejaVuSans-52"/>
      <use x="69.482422" xlink:href="#DejaVuSans-49"/>
     </g>
    </g>
   </g>
  </g>
 </g>
 <defs>
  <clipPath id="p9abf2161bf">
   <rect height="238.76" width="364.06" x="57.14" y="17.76"/>
  </clipPath>
 </defs>
</svg>
