<?xml version="1.0" encoding="utf-8" standalone="no"?>
<!DOCTYPE svg PUBLIC "-//W3C//DTD SVG 1.1//EN"
  "http://www.w3.org/Graphics/SVG/1.1/DTD/svg11.dtd">
<svg height="288pt" version="1.1" viewBox="0 0 288 288" width="288pt" xmlns="http://www.w3.org/2000/svg" xmlns:xlink="http://www.w3.org/1999/xlink">
 <metadata>
  <rdf:RDF xmlns:cc="http://creativecommons.org/ns#" xmlns:dc="http://purl.org/dc/elements/1.1/" xmlns:rdf="http://www.w3.org/1999/02/22-rdf-syntax-ns#">
   <cc:Work>
    <dc:type rdf:resource="http://purl.org/dc/dcmitype/StillImage"/>
    <dc:date>2022-03-29T11:09:52.210278</dc:date>
    <dc:format>image/svg+xml</dc:format>
    <dc:creator>
     <cc:Agent>
      <dc:title>Matplotlib v3.4.1, https://matplotlib.org/</dc:title>
     </cc:Agent>
    </dc:creator>
   </cc:Work>
  </rdf:RDF>
 </metadata>
 <defs>
  <style type="text/css">*{stroke-linecap:butt;stroke-linejoin:round;}</style>
 </defs>
 <g id="figure_1">
  <g id="patch_1">
   <path d="M 0 288 
L 288 288 
L 288 0 
L 0 0 
z
" style="fill:none;"/>
  </g>
  <g id="axes_1">
   <g id="patch_2">
    <path d="M 61.58 235 
L 272.960811 235 
L 272.960811 10.8 
L 61.58 10.8 
z
" style="fill:none;"/>
   </g>
   <g id="matplotlib.axis_1">
    <g id="xtick_1">
     <g id="line2d_1">
      <defs>
       <path d="M 0 0 
L 0 3.5 
" id="m9825ba2042" style="stroke:#000000;stroke-width:0.8;"/>
      </defs>
      <g>
       <use style="stroke:#000000;stroke-width:0.8;" x="71.188219" xlink:href="#m9825ba2042" y="235"/>
      </g>
     </g>
     <g id="text_1">
      <!-- 0 -->
      <g transform="translate(66.734469 252.637812)scale(0.14 -0.14)">
       <defs>
        <path d="M 2034 4250 
Q 1547 4250 1301 3770 
Q 1056 3291 1056 2328 
Q 1056 1369 1301 889 
Q 1547 409 2034 409 
Q 2525 409 2770 889 
Q 3016 1369 3016 2328 
Q 3016 3291 2770 3770 
Q 2525 4250 2034 4250 
z
M 2034 4750 
Q 2819 4750 3233 4129 
Q 3647 3509 3647 2328 
Q 3647 1150 3233 529 
Q 2819 -91 2034 -91 
Q 1250 -91 836 529 
Q 422 1150 422 2328 
Q 422 3509 836 4129 
Q 1250 4750 2034 4750 
z
" id="DejaVuSans-30" transform="scale(0.015625)"/>
       </defs>
       <use xlink:href="#DejaVuSans-30"/>
      </g>
     </g>
    </g>
    <g id="xtick_2">
     <g id="line2d_2">
      <g>
       <use style="stroke:#000000;stroke-width:0.8;" x="119.470725" xlink:href="#m9825ba2042" y="235"/>
      </g>
     </g>
     <g id="text_2">
      <!-- 50 -->
      <g transform="translate(110.563225 252.637812)scale(0.14 -0.14)">
       <defs>
        <path d="M 691 4666 
L 3169 4666 
L 3169 4134 
L 1269 4134 
L 1269 2991 
Q 1406 3038 1543 3061 
Q 1681 3084 1819 3084 
Q 2600 3084 3056 2656 
Q 3513 2228 3513 1497 
Q 3513 744 3044 326 
Q 2575 -91 1722 -91 
Q 1428 -91 1123 -41 
Q 819 9 494 109 
L 494 744 
Q 775 591 1075 516 
Q 1375 441 1709 441 
Q 2250 441 2565 725 
Q 2881 1009 2881 1497 
Q 2881 1984 2565 2268 
Q 2250 2553 1709 2553 
Q 1456 2553 1204 2497 
Q 953 2441 691 2322 
L 691 4666 
z
" id="DejaVuSans-35" transform="scale(0.015625)"/>
       </defs>
       <use xlink:href="#DejaVuSans-35"/>
       <use x="63.623047" xlink:href="#DejaVuSans-30"/>
      </g>
     </g>
    </g>
    <g id="xtick_3">
     <g id="line2d_3">
      <g>
       <use style="stroke:#000000;stroke-width:0.8;" x="167.75323" xlink:href="#m9825ba2042" y="235"/>
      </g>
     </g>
     <g id="text_3">
      <!-- 100 -->
      <g transform="translate(154.39198 252.637812)scale(0.14 -0.14)">
       <defs>
        <path d="M 794 531 
L 1825 531 
L 1825 4091 
L 703 3866 
L 703 4441 
L 1819 4666 
L 2450 4666 
L 2450 531 
L 3481 531 
L 3481 0 
L 794 0 
L 794 531 
z
" id="DejaVuSans-31" transform="scale(0.015625)"/>
       </defs>
       <use xlink:href="#DejaVuSans-31"/>
       <use x="63.623047" xlink:href="#DejaVuSans-30"/>
       <use x="127.246094" xlink:href="#DejaVuSans-30"/>
      </g>
     </g>
    </g>
    <g id="xtick_4">
     <g id="line2d_4">
      <g>
       <use style="stroke:#000000;stroke-width:0.8;" x="216.035736" xlink:href="#m9825ba2042" y="235"/>
      </g>
     </g>
     <g id="text_4">
      <!-- 150 -->
      <g transform="translate(202.674486 252.637812)scale(0.14 -0.14)">
       <use xlink:href="#DejaVuSans-31"/>
       <use x="63.623047" xlink:href="#DejaVuSans-35"/>
       <use x="127.246094" xlink:href="#DejaVuSans-30"/>
      </g>
     </g>
    </g>
    <g id="xtick_5">
     <g id="line2d_5">
      <g>
       <use style="stroke:#000000;stroke-width:0.8;" x="264.318242" xlink:href="#m9825ba2042" y="235"/>
      </g>
     </g>
     <g id="text_5">
      <!-- 200 -->
      <g transform="translate(250.956992 252.637812)scale(0.14 -0.14)">
       <defs>
        <path d="M 1228 531 
L 3431 531 
L 3431 0 
L 469 0 
L 469 531 
Q 828 903 1448 1529 
Q 2069 2156 2228 2338 
Q 2531 2678 2651 2914 
Q 2772 3150 2772 3378 
Q 2772 3750 2511 3984 
Q 2250 4219 1831 4219 
Q 1534 4219 1204 4116 
Q 875 4013 500 3803 
L 500 4441 
Q 881 4594 1212 4672 
Q 1544 4750 1819 4750 
Q 2544 4750 2975 4387 
Q 3406 4025 3406 3419 
Q 3406 3131 3298 2873 
Q 3191 2616 2906 2266 
Q 2828 2175 2409 1742 
Q 1991 1309 1228 531 
z
" id="DejaVuSans-32" transform="scale(0.015625)"/>
       </defs>
       <use xlink:href="#DejaVuSans-32"/>
       <use x="63.623047" xlink:href="#DejaVuSans-30"/>
       <use x="127.246094" xlink:href="#DejaVuSans-30"/>
      </g>
     </g>
    </g>
    <g id="text_6">
     <!-- Time -->
     <g transform="translate(145.249937 273.226562)scale(0.18 -0.18)">
      <defs>
       <path d="M -19 4666 
L 3928 4666 
L 3928 4134 
L 2272 4134 
L 2272 0 
L 1638 0 
L 1638 4134 
L -19 4134 
L -19 4666 
z
" id="DejaVuSans-54" transform="scale(0.015625)"/>
       <path d="M 603 3500 
L 1178 3500 
L 1178 0 
L 603 0 
L 603 3500 
z
M 603 4863 
L 1178 4863 
L 1178 4134 
L 603 4134 
L 603 4863 
z
" id="DejaVuSans-69" transform="scale(0.015625)"/>
       <path d="M 3328 2828 
Q 3544 3216 3844 3400 
Q 4144 3584 4550 3584 
Q 5097 3584 5394 3201 
Q 5691 2819 5691 2113 
L 5691 0 
L 5113 0 
L 5113 2094 
Q 5113 2597 4934 2840 
Q 4756 3084 4391 3084 
Q 3944 3084 3684 2787 
Q 3425 2491 3425 1978 
L 3425 0 
L 2847 0 
L 2847 2094 
Q 2847 2600 2669 2842 
Q 2491 3084 2119 3084 
Q 1678 3084 1418 2786 
Q 1159 2488 1159 1978 
L 1159 0 
L 581 0 
L 581 3500 
L 1159 3500 
L 1159 2956 
Q 1356 3278 1631 3431 
Q 1906 3584 2284 3584 
Q 2666 3584 2933 3390 
Q 3200 3197 3328 2828 
z
" id="DejaVuSans-6d" transform="scale(0.015625)"/>
       <path d="M 3597 1894 
L 3597 1613 
L 953 1613 
Q 991 1019 1311 708 
Q 1631 397 2203 397 
Q 2534 397 2845 478 
Q 3156 559 3463 722 
L 3463 178 
Q 3153 47 2828 -22 
Q 2503 -91 2169 -91 
Q 1331 -91 842 396 
Q 353 884 353 1716 
Q 353 2575 817 3079 
Q 1281 3584 2069 3584 
Q 2775 3584 3186 3129 
Q 3597 2675 3597 1894 
z
M 3022 2063 
Q 3016 2534 2758 2815 
Q 2500 3097 2075 3097 
Q 1594 3097 1305 2825 
Q 1016 2553 972 2059 
L 3022 2063 
z
" id="DejaVuSans-65" transform="scale(0.015625)"/>
      </defs>
      <use xlink:href="#DejaVuSans-54"/>
      <use x="57.958984" xlink:href="#DejaVuSans-69"/>
      <use x="85.742188" xlink:href="#DejaVuSans-6d"/>
      <use x="183.154297" xlink:href="#DejaVuSans-65"/>
     </g>
    </g>
   </g>
   <g id="matplotlib.axis_2">
    <g id="ytick_1">
     <g id="line2d_6">
      <defs>
       <path d="M 0 0 
L -3.5 0 
" id="m0e952f7b80" style="stroke:#000000;stroke-width:0.8;"/>
      </defs>
      <g>
       <use style="stroke:#000000;stroke-width:0.8;" x="61.58" xlink:href="#m0e952f7b80" y="187.855873"/>
      </g>
     </g>
     <g id="text_7">
      <!-- 0.2 -->
      <g transform="translate(32.315625 193.174779)scale(0.14 -0.14)">
       <defs>
        <path d="M 684 794 
L 1344 794 
L 1344 0 
L 684 0 
L 684 794 
z
" id="DejaVuSans-2e" transform="scale(0.015625)"/>
       </defs>
       <use xlink:href="#DejaVuSans-30"/>
       <use x="63.623047" xlink:href="#DejaVuSans-2e"/>
       <use x="95.410156" xlink:href="#DejaVuSans-32"/>
      </g>
     </g>
    </g>
    <g id="ytick_2">
     <g id="line2d_7">
      <g>
       <use style="stroke:#000000;stroke-width:0.8;" x="61.58" xlink:href="#m0e952f7b80" y="140.126566"/>
      </g>
     </g>
     <g id="text_8">
      <!-- 0.4 -->
      <g transform="translate(32.315625 145.445472)scale(0.14 -0.14)">
       <defs>
        <path d="M 2419 4116 
L 825 1625 
L 2419 1625 
L 2419 4116 
z
M 2253 4666 
L 3047 4666 
L 3047 1625 
L 3713 1625 
L 3713 1100 
L 3047 1100 
L 3047 0 
L 2419 0 
L 2419 1100 
L 313 1100 
L 313 1709 
L 2253 4666 
z
" id="DejaVuSans-34" transform="scale(0.015625)"/>
       </defs>
       <use xlink:href="#DejaVuSans-30"/>
       <use x="63.623047" xlink:href="#DejaVuSans-2e"/>
       <use x="95.410156" xlink:href="#DejaVuSans-34"/>
      </g>
     </g>
    </g>
    <g id="ytick_3">
     <g id="line2d_8">
      <g>
       <use style="stroke:#000000;stroke-width:0.8;" x="61.58" xlink:href="#m0e952f7b80" y="92.397258"/>
      </g>
     </g>
     <g id="text_9">
      <!-- 0.6 -->
      <g transform="translate(32.315625 97.716165)scale(0.14 -0.14)">
       <defs>
        <path d="M 2113 2584 
Q 1688 2584 1439 2293 
Q 1191 2003 1191 1497 
Q 1191 994 1439 701 
Q 1688 409 2113 409 
Q 2538 409 2786 701 
Q 3034 994 3034 1497 
Q 3034 2003 2786 2293 
Q 2538 2584 2113 2584 
z
M 3366 4563 
L 3366 3988 
Q 3128 4100 2886 4159 
Q 2644 4219 2406 4219 
Q 1781 4219 1451 3797 
Q 1122 3375 1075 2522 
Q 1259 2794 1537 2939 
Q 1816 3084 2150 3084 
Q 2853 3084 3261 2657 
Q 3669 2231 3669 1497 
Q 3669 778 3244 343 
Q 2819 -91 2113 -91 
Q 1303 -91 875 529 
Q 447 1150 447 2328 
Q 447 3434 972 4092 
Q 1497 4750 2381 4750 
Q 2619 4750 2861 4703 
Q 3103 4656 3366 4563 
z
" id="DejaVuSans-36" transform="scale(0.015625)"/>
       </defs>
       <use xlink:href="#DejaVuSans-30"/>
       <use x="63.623047" xlink:href="#DejaVuSans-2e"/>
       <use x="95.410156" xlink:href="#DejaVuSans-36"/>
      </g>
     </g>
    </g>
    <g id="ytick_4">
     <g id="line2d_9">
      <g>
       <use style="stroke:#000000;stroke-width:0.8;" x="61.58" xlink:href="#m0e952f7b80" y="44.667951"/>
      </g>
     </g>
     <g id="text_10">
      <!-- 0.8 -->
      <g transform="translate(32.315625 49.986857)scale(0.14 -0.14)">
       <defs>
        <path d="M 2034 2216 
Q 1584 2216 1326 1975 
Q 1069 1734 1069 1313 
Q 1069 891 1326 650 
Q 1584 409 2034 409 
Q 2484 409 2743 651 
Q 3003 894 3003 1313 
Q 3003 1734 2745 1975 
Q 2488 2216 2034 2216 
z
M 1403 2484 
Q 997 2584 770 2862 
Q 544 3141 544 3541 
Q 544 4100 942 4425 
Q 1341 4750 2034 4750 
Q 2731 4750 3128 4425 
Q 3525 4100 3525 3541 
Q 3525 3141 3298 2862 
Q 3072 2584 2669 2484 
Q 3125 2378 3379 2068 
Q 3634 1759 3634 1313 
Q 3634 634 3220 271 
Q 2806 -91 2034 -91 
Q 1263 -91 848 271 
Q 434 634 434 1313 
Q 434 1759 690 2068 
Q 947 2378 1403 2484 
z
M 1172 3481 
Q 1172 3119 1398 2916 
Q 1625 2713 2034 2713 
Q 2441 2713 2670 2916 
Q 2900 3119 2900 3481 
Q 2900 3844 2670 4047 
Q 2441 4250 2034 4250 
Q 1625 4250 1398 4047 
Q 1172 3844 1172 3481 
z
" id="DejaVuSans-38" transform="scale(0.015625)"/>
       </defs>
       <use xlink:href="#DejaVuSans-30"/>
       <use x="63.623047" xlink:href="#DejaVuSans-2e"/>
       <use x="95.410156" xlink:href="#DejaVuSans-38"/>
      </g>
     </g>
    </g>
    <g id="text_11">
     <!-- Mean Payoff -->
     <g transform="translate(24.572188 177.989844)rotate(-90)scale(0.18 -0.18)">
      <defs>
       <path d="M 628 4666 
L 1569 4666 
L 2759 1491 
L 3956 4666 
L 4897 4666 
L 4897 0 
L 4281 0 
L 4281 4097 
L 3078 897 
L 2444 897 
L 1241 4097 
L 1241 0 
L 628 0 
L 628 4666 
z
" id="DejaVuSans-4d" transform="scale(0.015625)"/>
       <path d="M 2194 1759 
Q 1497 1759 1228 1600 
Q 959 1441 959 1056 
Q 959 750 1161 570 
Q 1363 391 1709 391 
Q 2188 391 2477 730 
Q 2766 1069 2766 1631 
L 2766 1759 
L 2194 1759 
z
M 3341 1997 
L 3341 0 
L 2766 0 
L 2766 531 
Q 2569 213 2275 61 
Q 1981 -91 1556 -91 
Q 1019 -91 701 211 
Q 384 513 384 1019 
Q 384 1609 779 1909 
Q 1175 2209 1959 2209 
L 2766 2209 
L 2766 2266 
Q 2766 2663 2505 2880 
Q 2244 3097 1772 3097 
Q 1472 3097 1187 3025 
Q 903 2953 641 2809 
L 641 3341 
Q 956 3463 1253 3523 
Q 1550 3584 1831 3584 
Q 2591 3584 2966 3190 
Q 3341 2797 3341 1997 
z
" id="DejaVuSans-61" transform="scale(0.015625)"/>
       <path d="M 3513 2113 
L 3513 0 
L 2938 0 
L 2938 2094 
Q 2938 2591 2744 2837 
Q 2550 3084 2163 3084 
Q 1697 3084 1428 2787 
Q 1159 2491 1159 1978 
L 1159 0 
L 581 0 
L 581 3500 
L 1159 3500 
L 1159 2956 
Q 1366 3272 1645 3428 
Q 1925 3584 2291 3584 
Q 2894 3584 3203 3211 
Q 3513 2838 3513 2113 
z
" id="DejaVuSans-6e" transform="scale(0.015625)"/>
       <path id="DejaVuSans-20" transform="scale(0.015625)"/>
       <path d="M 1259 4147 
L 1259 2394 
L 2053 2394 
Q 2494 2394 2734 2622 
Q 2975 2850 2975 3272 
Q 2975 3691 2734 3919 
Q 2494 4147 2053 4147 
L 1259 4147 
z
M 628 4666 
L 2053 4666 
Q 2838 4666 3239 4311 
Q 3641 3956 3641 3272 
Q 3641 2581 3239 2228 
Q 2838 1875 2053 1875 
L 1259 1875 
L 1259 0 
L 628 0 
L 628 4666 
z
" id="DejaVuSans-50" transform="scale(0.015625)"/>
       <path d="M 2059 -325 
Q 1816 -950 1584 -1140 
Q 1353 -1331 966 -1331 
L 506 -1331 
L 506 -850 
L 844 -850 
Q 1081 -850 1212 -737 
Q 1344 -625 1503 -206 
L 1606 56 
L 191 3500 
L 800 3500 
L 1894 763 
L 2988 3500 
L 3597 3500 
L 2059 -325 
z
" id="DejaVuSans-79" transform="scale(0.015625)"/>
       <path d="M 1959 3097 
Q 1497 3097 1228 2736 
Q 959 2375 959 1747 
Q 959 1119 1226 758 
Q 1494 397 1959 397 
Q 2419 397 2687 759 
Q 2956 1122 2956 1747 
Q 2956 2369 2687 2733 
Q 2419 3097 1959 3097 
z
M 1959 3584 
Q 2709 3584 3137 3096 
Q 3566 2609 3566 1747 
Q 3566 888 3137 398 
Q 2709 -91 1959 -91 
Q 1206 -91 779 398 
Q 353 888 353 1747 
Q 353 2609 779 3096 
Q 1206 3584 1959 3584 
z
" id="DejaVuSans-6f" transform="scale(0.015625)"/>
       <path d="M 2375 4863 
L 2375 4384 
L 1825 4384 
Q 1516 4384 1395 4259 
Q 1275 4134 1275 3809 
L 1275 3500 
L 2222 3500 
L 2222 3053 
L 1275 3053 
L 1275 0 
L 697 0 
L 697 3053 
L 147 3053 
L 147 3500 
L 697 3500 
L 697 3744 
Q 697 4328 969 4595 
Q 1241 4863 1831 4863 
L 2375 4863 
z
" id="DejaVuSans-66" transform="scale(0.015625)"/>
      </defs>
      <use xlink:href="#DejaVuSans-4d"/>
      <use x="86.279297" xlink:href="#DejaVuSans-65"/>
      <use x="147.802734" xlink:href="#DejaVuSans-61"/>
      <use x="209.082031" xlink:href="#DejaVuSans-6e"/>
      <use x="272.460938" xlink:href="#DejaVuSans-20"/>
      <use x="304.248047" xlink:href="#DejaVuSans-50"/>
      <use x="360.050781" xlink:href="#DejaVuSans-61"/>
      <use x="421.330078" xlink:href="#DejaVuSans-79"/>
      <use x="480.509766" xlink:href="#DejaVuSans-6f"/>
      <use x="541.691406" xlink:href="#DejaVuSans-66"/>
      <use x="576.896484" xlink:href="#DejaVuSans-66"/>
     </g>
    </g>
   </g>
   <g id="line2d_10">
    <path clip-path="url(#pad098791e4)" d="M 71.188219 214.055702 
L 73.119519 189.038027 
L 74.085169 178.044254 
L 75.050819 168.479647 
L 76.982119 152.701313 
L 78.91342 140.060648 
L 80.84472 129.485238 
L 82.77602 120.504494 
L 84.70732 112.662161 
L 86.638621 105.701843 
L 88.569921 99.542631 
L 90.501221 93.918528 
L 93.398171 86.284341 
L 96.295122 79.805876 
L 99.192072 74.06243 
L 101.123372 70.679047 
L 104.020323 66.201435 
L 105.951623 63.506899 
L 108.848573 59.828003 
L 111.745524 56.686834 
L 114.642474 53.910592 
L 117.539424 51.375982 
L 121.402025 48.425036 
L 123.333325 47.119445 
L 126.230275 45.451345 
L 130.092876 43.529054 
L 133.955476 41.853443 
L 138.783727 40.023326 
L 147.474578 37.201524 
L 153.268479 35.690775 
L 162.92498 33.427993 
L 171.615831 31.696423 
L 179.341032 30.346239 
L 197.688384 27.485875 
L 215.070086 25.228143 
L 223.760937 24.294607 
L 231.486138 23.588719 
L 245.97089 22.380011 
L 258.524342 21.411042 
L 263.352592 21.063127 
L 263.352592 21.063127 
" style="fill:none;stroke:#151d3b;stroke-linecap:square;stroke-width:3;"/>
   </g>
   <g id="line2d_11">
    <path clip-path="url(#pad098791e4)" d="M 71.188219 211.210077 
L 72.153869 195.716534 
L 73.119519 187.685201 
L 75.050819 184.132219 
L 78.91342 174.272928 
L 80.84472 170.633462 
L 82.77602 167.419876 
L 83.74167 165.857435 
L 86.638621 161.993913 
L 87.604271 161.004525 
L 90.501221 158.5295 
L 92.432521 157.438564 
L 95.329472 156.160284 
L 98.226422 155.386887 
L 100.157722 155.230219 
L 107.882923 155.047791 
L 115.608124 155.022421 
L 263.352592 155.022421 
L 263.352592 155.022421 
" style="fill:none;stroke:#98042d;stroke-dasharray:4,3;stroke-dashoffset:0;stroke-width:2;"/>
   </g>
   <g id="line2d_12">
    <path clip-path="url(#pad098791e4)" d="M 71.188219 210.17117 
L 72.153869 192.463119 
L 73.119519 178.813139 
L 75.050819 156.465029 
L 76.016469 146.87922 
L 77.94777 131.142585 
L 78.91342 124.543468 
L 80.84472 114.020325 
L 81.81037 109.440695 
L 83.74167 101.820818 
L 84.70732 98.170072 
L 85.67297 95.296237 
L 87.604271 90.625826 
L 89.535571 86.422247 
L 91.466871 83.170696 
L 93.398171 80.704192 
L 94.363822 79.696362 
L 97.260772 77.399058 
L 98.226422 76.740936 
L 101.123372 75.298634 
L 103.054673 74.657638 
L 105.951623 74.090979 
L 109.814223 73.843118 
L 120.436375 73.597149 
L 263.352592 73.596367 
L 263.352592 73.596367 
" style="fill:none;stroke:#ff0f39;stroke-dasharray:4,3;stroke-dashoffset:0;stroke-width:2;"/>
   </g>
   <g id="line2d_13">
    <path clip-path="url(#pad098791e4)" d="M 71.188219 210.581362 
L 72.153869 193.852129 
L 73.119519 182.655356 
L 74.085169 174.572765 
L 76.982119 147.864085 
L 78.91342 132.984643 
L 80.84472 120.633176 
L 82.77602 110.520415 
L 84.70732 101.247274 
L 86.638621 93.614467 
L 87.604271 90.262434 
L 89.535571 84.788058 
L 92.432521 77.343597 
L 93.398171 75.580975 
L 96.295122 71.181512 
L 97.260772 69.786762 
L 99.192072 67.717191 
L 101.123372 66.005906 
L 103.054673 64.718181 
L 106.917273 62.692478 
L 108.848573 62.081169 
L 115.608124 60.472114 
L 118.505074 59.939238 
L 122.367675 59.421155 
L 128.161576 58.72935 
L 132.989826 58.301934 
L 151.337178 56.9533 
L 162.92498 56.281067 
L 211.207486 53.877407 
L 227.623538 53.353748 
L 263.352592 52.538773 
L 263.352592 52.538773 
" style="fill:none;stroke:#f16745;stroke-dasharray:4,3;stroke-dashoffset:0;stroke-width:2;"/>
   </g>
   <g id="line2d_14">
    <path clip-path="url(#pad098791e4)" d="M 71.188219 210.509854 
L 72.153869 194.081182 
L 73.119519 183.644399 
L 75.050819 171.525968 
L 76.982119 158.556463 
L 78.91342 148.185664 
L 80.84472 138.591242 
L 82.77602 130.144455 
L 84.70732 122.946489 
L 86.638621 116.378183 
L 88.569921 110.380745 
L 90.501221 104.798918 
L 92.432521 100.176586 
L 95.329472 93.747963 
L 98.226422 88.418534 
L 104.020323 79.243413 
L 105.951623 76.527128 
L 106.917273 75.194312 
L 109.814223 71.950741 
L 111.745524 70.192287 
L 113.676824 68.435199 
L 115.608124 66.548853 
L 120.436375 62.538072 
L 126.230275 58.191936 
L 131.058526 55.132173 
L 144.577628 48.358152 
L 148.440228 46.666055 
L 151.337178 45.444133 
L 159.062379 42.667579 
L 170.650181 38.871175 
L 183.203632 35.078583 
L 188.031883 33.854755 
L 190.928833 33.128924 
L 209.276186 29.320131 
L 224.726587 26.465755 
L 233.417439 25.059441 
L 262.386942 21.10287 
L 263.352592 20.990909 
L 263.352592 20.990909 
" style="fill:none;stroke:#ffc65d;stroke-dasharray:4,3;stroke-dashoffset:0;stroke-width:2;"/>
   </g>
   <g id="line2d_15">
    <path clip-path="url(#pad098791e4)" d="M 71.188219 224.809091 
L 263.352592 224.778756 
L 263.352592 224.778756 
" style="fill:none;stroke:#3a6351;stroke-dasharray:4,3;stroke-dashoffset:0;stroke-width:2;"/>
   </g>
   <g id="line2d_16">
    <path clip-path="url(#pad098791e4)" d="M 71.188219 220.358982 
L 73.119519 212.180143 
L 75.050819 205.103033 
L 76.982119 199.00483 
L 78.91342 193.609208 
L 80.84472 188.842067 
L 82.77602 184.522844 
L 84.70732 180.57884 
L 87.604271 175.191237 
L 90.501221 170.228514 
L 95.329472 162.596667 
L 98.226422 158.362242 
L 102.089022 153.265013 
L 104.985973 149.796582 
L 109.814223 144.529989 
L 113.676824 140.701715 
L 116.573774 138.189451 
L 120.436375 135.20239 
L 124.298975 132.535904 
L 127.195926 130.778289 
L 132.024176 128.171952 
L 135.886777 126.341942 
L 139.749377 124.80093 
L 144.577628 123.129515 
L 150.371528 121.384461 
L 154.234129 120.35944 
L 159.062379 119.283233 
L 164.85628 118.22512 
L 180.306682 115.882262 
L 187.066233 115.143658 
L 202.516635 113.908834 
L 222.795287 112.90473 
L 247.90219 111.871353 
L 263.352592 111.441462 
L 263.352592 111.441462 
" style="fill:none;stroke:#019267;stroke-dasharray:4,3;stroke-dashoffset:0;stroke-width:2;"/>
   </g>
   <g id="line2d_17">
    <path clip-path="url(#pad098791e4)" d="M 71.188219 221.668622 
L 73.119519 216.001052 
L 75.050819 211.065329 
L 76.982119 206.649396 
L 78.91342 202.661902 
L 81.81037 197.342505 
L 84.70732 192.553302 
L 87.604271 188.190264 
L 90.501221 184.164726 
L 95.329472 177.921956 
L 99.192072 173.348176 
L 103.054673 169.011719 
L 107.882923 163.805111 
L 113.676824 158.037605 
L 121.402025 150.852341 
L 129.127226 144.238474 
L 137.818077 137.457454 
L 141.680677 134.626698 
L 147.474578 130.67049 
L 155.199779 125.703578 
L 162.92498 121.246832 
L 169.684531 117.551863 
L 182.237982 111.60537 
L 188.031883 109.195181 
L 198.654034 105.116564 
L 210.241836 101.122099 
L 220.863987 97.893335 
L 228.589188 95.83924 
L 236.314389 94.036819 
L 251.764791 90.705355 
L 263.352592 88.470624 
L 263.352592 88.470624 
" style="fill:none;stroke:#00c897;stroke-dasharray:4,3;stroke-dashoffset:0;stroke-width:2;"/>
   </g>
   <g id="line2d_18">
    <path clip-path="url(#pad098791e4)" d="M 71.188219 218.854815 
L 72.153869 214.564652 
L 73.119519 211.157039 
L 74.085169 208.340787 
L 76.016469 203.722697 
L 77.94777 200.034477 
L 79.87907 196.866708 
L 81.81037 194.101594 
L 83.74167 191.653653 
L 85.67297 189.463579 
L 88.569921 186.496275 
L 91.466871 183.855383 
L 94.363822 181.438018 
L 98.226422 178.569172 
L 102.089022 175.919044 
L 107.882923 172.350359 
L 113.676824 169.156887 
L 119.470725 166.259019 
L 124.298975 164.035035 
L 136.852427 158.720072 
L 142.646327 156.491856 
L 160.99368 150.034272 
L 167.75323 147.901282 
L 184.169283 143.063812 
L 190.928833 141.201946 
L 204.447935 137.684277 
L 217.967037 134.343226 
L 227.623538 132.094534 
L 233.417439 130.742223 
L 242.10829 128.831084 
L 258.524342 125.396166 
L 263.352592 124.389438 
L 263.352592 124.389438 
" style="fill:none;stroke:#85c88a;stroke-dasharray:4,3;stroke-dashoffset:0;stroke-width:2;"/>
   </g>
   <g id="line2d_19">
    <path clip-path="url(#pad098791e4)" d="M 71.188219 220.361891 
L 73.119519 212.170206 
L 75.050819 205.104669 
L 76.982119 199.030395 
L 78.91342 193.712872 
L 80.84472 189.066757 
L 82.77602 184.949204 
L 84.70732 181.266794 
L 86.638621 177.98194 
L 88.569921 175.044326 
L 91.466871 171.174553 
L 94.363822 167.82533 
L 97.260772 164.911808 
L 100.157722 162.398335 
L 103.054673 160.18206 
L 106.917273 157.669441 
L 109.814223 156.040749 
L 113.676824 154.198122 
L 117.539424 152.650944 
L 120.436375 151.644536 
L 125.264625 150.248905 
L 130.092876 149.126006 
L 135.886777 148.068945 
L 140.715027 147.362709 
L 147.474578 146.61993 
L 155.199779 146.000669 
L 163.89063 145.518055 
L 175.478431 145.126754 
L 190.928833 144.857358 
L 213.138786 144.686764 
L 260.455642 144.614219 
L 263.352592 144.613622 
L 263.352592 144.613622 
" style="fill:none;stroke:#495371;stroke-dasharray:4,3;stroke-dashoffset:0;stroke-width:2;"/>
   </g>
   <g id="line2d_20">
    <path clip-path="url(#pad098791e4)" d="M 71.188219 221.668308 
L 73.119519 215.999107 
L 75.050819 211.02636 
L 76.982119 206.655656 
L 78.91342 202.701852 
L 81.81037 197.485418 
L 84.70732 192.867133 
L 87.604271 188.77087 
L 90.501221 185.076929 
L 93.398171 181.717009 
L 96.295122 178.639412 
L 100.157722 174.965367 
L 104.020323 171.626968 
L 107.882923 168.621543 
L 112.711174 165.25754 
L 117.539424 162.198076 
L 124.298975 158.450761 
L 129.127226 156.05188 
L 134.921126 153.467192 
L 139.749377 151.486474 
L 146.508928 149.011983 
L 152.302829 147.083149 
L 158.096729 145.31084 
L 165.82193 143.181228 
L 176.444082 140.649078 
L 188.997533 138.074582 
L 200.585335 136.044021 
L 213.138786 134.109889 
L 226.657888 132.338334 
L 248.86784 129.830842 
L 263.352592 128.437921 
L 263.352592 128.437921 
" style="fill:none;stroke:#488fb1;stroke-dasharray:4,3;stroke-dashoffset:0;stroke-width:2;"/>
   </g>
   <g id="line2d_21">
    <path clip-path="url(#pad098791e4)" d="M 71.188219 218.860018 
L 72.153869 214.564526 
L 73.119519 211.17368 
L 74.085169 208.345586 
L 76.016469 203.737779 
L 77.94777 200.045465 
L 79.87907 196.942667 
L 81.81037 194.254311 
L 84.70732 190.833923 
L 87.604271 187.87099 
L 90.501221 185.280409 
L 93.398171 182.982074 
L 97.260772 180.275614 
L 101.123372 177.840493 
L 105.951623 175.146373 
L 110.779874 172.704932 
L 116.573774 170.103979 
L 121.402025 168.113204 
L 127.195926 165.94441 
L 133.955476 163.641487 
L 143.611978 160.700563 
L 151.337178 158.557003 
L 160.99368 156.111573 
L 170.650181 153.885775 
L 183.203632 151.261209 
L 201.550985 147.863637 
L 210.241836 146.389942 
L 219.898337 144.852543 
L 241.142639 141.743179 
L 262.386942 138.985899 
L 263.352592 138.872402 
L 263.352592 138.872402 
" style="fill:none;stroke:#2fa4ff;stroke-dasharray:4,3;stroke-dashoffset:0;stroke-width:2;"/>
   </g>
   <g id="line2d_22">
    <path clip-path="url(#pad098791e4)" d="M 71.188219 218.86756 
L 74.085169 197.312666 
L 75.050819 192.138735 
L 76.016469 188.976517 
L 76.982119 187.25643 
L 77.94777 186.209824 
L 81.81037 182.774347 
L 86.638621 178.204368 
L 89.535571 175.777582 
L 92.432521 173.679385 
L 99.192072 169.377302 
L 104.985973 165.816774 
L 107.882923 164.326942 
L 111.745524 162.64823 
L 115.608124 161.195253 
L 122.367675 159.066203 
L 126.230275 158.166457 
L 132.024176 157.163506 
L 137.818077 156.470918 
L 147.474578 155.730009 
L 155.199779 155.411851 
L 164.85628 155.211919 
L 188.997533 155.046482 
L 238.245689 155.022421 
L 263.352592 155.022421 
L 263.352592 155.022421 
" style="fill:none;stroke:#8267be;stroke-dasharray:4,3;stroke-dashoffset:0;stroke-width:2;"/>
   </g>
   <g id="line2d_23"/>
   <g id="patch_3">
    <path d="M 61.58 235 
L 61.58 10.8 
" style="fill:none;stroke:#000000;stroke-linecap:square;stroke-linejoin:miter;stroke-width:0.8;"/>
   </g>
   <g id="patch_4">
    <path d="M 272.960811 235 
L 272.960811 10.8 
" style="fill:none;stroke:#000000;stroke-linecap:square;stroke-linejoin:miter;stroke-width:0.8;"/>
   </g>
   <g id="patch_5">
    <path d="M 61.58 235 
L 272.960811 235 
" style="fill:none;stroke:#000000;stroke-linecap:square;stroke-linejoin:miter;stroke-width:0.8;"/>
   </g>
   <g id="patch_6">
    <path d="M 61.58 10.8 
L 272.960811 10.8 
" style="fill:none;stroke:#000000;stroke-linecap:square;stroke-linejoin:miter;stroke-width:0.8;"/>
   </g>
   <g id="legend_1">
    <g id="patch_7">
     <path d="M 148.932324 212.58 
L 260.383262 212.58 
Q 263.183262 212.58 263.183262 209.78 
L 263.183262 170.08125 
Q 263.183262 167.28125 260.383262 167.28125 
L 148.932324 167.28125 
Q 146.132324 167.28125 146.132324 170.08125 
L 146.132324 209.78 
Q 146.132324 212.58 148.932324 212.58 
z
" style="fill:#ffffff;opacity:0.8;stroke:#cccccc;stroke-linejoin:miter;"/>
    </g>
    <g id="line2d_24">
     <path d="M 151.732324 178.619062 
L 179.732324 178.619062 
" style="fill:none;stroke:#151d3b;stroke-linecap:square;stroke-width:3;"/>
    </g>
    <g id="line2d_25"/>
    <g id="text_12">
     <!-- RL -->
     <g transform="translate(190.932324 183.519062)scale(0.14 -0.14)">
      <defs>
       <path d="M 2841 2188 
Q 3044 2119 3236 1894 
Q 3428 1669 3622 1275 
L 4263 0 
L 3584 0 
L 2988 1197 
Q 2756 1666 2539 1819 
Q 2322 1972 1947 1972 
L 1259 1972 
L 1259 0 
L 628 0 
L 628 4666 
L 2053 4666 
Q 2853 4666 3247 4331 
Q 3641 3997 3641 3322 
Q 3641 2881 3436 2590 
Q 3231 2300 2841 2188 
z
M 1259 4147 
L 1259 2491 
L 2053 2491 
Q 2509 2491 2742 2702 
Q 2975 2913 2975 3322 
Q 2975 3731 2742 3939 
Q 2509 4147 2053 4147 
L 1259 4147 
z
" id="DejaVuSans-52" transform="scale(0.015625)"/>
       <path d="M 628 4666 
L 1259 4666 
L 1259 531 
L 3531 531 
L 3531 0 
L 628 0 
L 628 4666 
z
" id="DejaVuSans-4c" transform="scale(0.015625)"/>
      </defs>
      <use xlink:href="#DejaVuSans-52"/>
      <use x="69.482422" xlink:href="#DejaVuSans-4c"/>
     </g>
    </g>
    <g id="line2d_26">
     <path d="M 151.732324 199.168437 
L 179.732324 199.168437 
" style="fill:none;stroke:#747474;stroke-dasharray:5,3.75;stroke-dashoffset:0;stroke-width:2.5;"/>
    </g>
    <g id="line2d_27"/>
    <g id="text_13">
     <!-- Baselines -->
     <g transform="translate(190.932324 204.068437)scale(0.14 -0.14)">
      <defs>
       <path d="M 1259 2228 
L 1259 519 
L 2272 519 
Q 2781 519 3026 730 
Q 3272 941 3272 1375 
Q 3272 1813 3026 2020 
Q 2781 2228 2272 2228 
L 1259 2228 
z
M 1259 4147 
L 1259 2741 
L 2194 2741 
Q 2656 2741 2882 2914 
Q 3109 3088 3109 3444 
Q 3109 3797 2882 3972 
Q 2656 4147 2194 4147 
L 1259 4147 
z
M 628 4666 
L 2241 4666 
Q 2963 4666 3353 4366 
Q 3744 4066 3744 3513 
Q 3744 3084 3544 2831 
Q 3344 2578 2956 2516 
Q 3422 2416 3680 2098 
Q 3938 1781 3938 1306 
Q 3938 681 3513 340 
Q 3088 0 2303 0 
L 628 0 
L 628 4666 
z
" id="DejaVuSans-42" transform="scale(0.015625)"/>
       <path d="M 2834 3397 
L 2834 2853 
Q 2591 2978 2328 3040 
Q 2066 3103 1784 3103 
Q 1356 3103 1142 2972 
Q 928 2841 928 2578 
Q 928 2378 1081 2264 
Q 1234 2150 1697 2047 
L 1894 2003 
Q 2506 1872 2764 1633 
Q 3022 1394 3022 966 
Q 3022 478 2636 193 
Q 2250 -91 1575 -91 
Q 1294 -91 989 -36 
Q 684 19 347 128 
L 347 722 
Q 666 556 975 473 
Q 1284 391 1588 391 
Q 1994 391 2212 530 
Q 2431 669 2431 922 
Q 2431 1156 2273 1281 
Q 2116 1406 1581 1522 
L 1381 1569 
Q 847 1681 609 1914 
Q 372 2147 372 2553 
Q 372 3047 722 3315 
Q 1072 3584 1716 3584 
Q 2034 3584 2315 3537 
Q 2597 3491 2834 3397 
z
" id="DejaVuSans-73" transform="scale(0.015625)"/>
       <path d="M 603 4863 
L 1178 4863 
L 1178 0 
L 603 0 
L 603 4863 
z
" id="DejaVuSans-6c" transform="scale(0.015625)"/>
      </defs>
      <use xlink:href="#DejaVuSans-42"/>
      <use x="68.603516" xlink:href="#DejaVuSans-61"/>
      <use x="129.882812" xlink:href="#DejaVuSans-73"/>
      <use x="181.982422" xlink:href="#DejaVuSans-65"/>
      <use x="243.505859" xlink:href="#DejaVuSans-6c"/>
      <use x="271.289062" xlink:href="#DejaVuSans-69"/>
      <use x="299.072266" xlink:href="#DejaVuSans-6e"/>
      <use x="362.451172" xlink:href="#DejaVuSans-65"/>
      <use x="423.974609" xlink:href="#DejaVuSans-73"/>
     </g>
    </g>
   </g>
  </g>
 </g>
 <defs>
  <clipPath id="pad098791e4">
   <rect height="224.2" width="211.380811" x="61.58" y="10.8"/>
  </clipPath>
 </defs>
</svg>
