<?xml version="1.0" encoding="utf-8" standalone="no"?>
<!DOCTYPE svg PUBLIC "-//W3C//DTD SVG 1.1//EN"
  "http://www.w3.org/Graphics/SVG/1.1/DTD/svg11.dtd">
<svg height="288pt" version="1.1" viewBox="0 0 288 288" width="288pt" xmlns="http://www.w3.org/2000/svg" xmlns:xlink="http://www.w3.org/1999/xlink">
 <metadata>
  <rdf:RDF xmlns:cc="http://creativecommons.org/ns#" xmlns:dc="http://purl.org/dc/elements/1.1/" xmlns:rdf="http://www.w3.org/1999/02/22-rdf-syntax-ns#">
   <cc:Work>
    <dc:type rdf:resource="http://purl.org/dc/dcmitype/StillImage"/>
    <dc:date>2022-04-19T01:59:55.414681</dc:date>
    <dc:format>image/svg+xml</dc:format>
    <dc:creator>
     <cc:Agent>
      <dc:title>Matplotlib v3.4.1, https://matplotlib.org/</dc:title>
     </cc:Agent>
    </dc:creator>
   </cc:Work>
  </rdf:RDF>
 </metadata>
 <defs>
  <style type="text/css">*{stroke-linecap:butt;stroke-linejoin:round;}</style>
 </defs>
 <g id="figure_1">
  <g id="patch_1">
   <path d="M 0 288 
L 288 288 
L 288 0 
L 0 0 
z
" style="fill:none;"/>
  </g>
  <g id="axes_1">
   <g id="patch_2">
    <path d="M 66.05 235 
L 273.47191 235 
L 273.47191 10.8 
L 66.05 10.8 
z
" style="fill:none;"/>
   </g>
   <g id="matplotlib.axis_1">
    <g id="xtick_1">
     <g id="line2d_1">
      <defs>
       <path d="M 0 0 
L 0 3.5 
" id="me0da17ed49" style="stroke:#000000;stroke-width:0.8;"/>
      </defs>
      <g>
       <use style="stroke:#000000;stroke-width:0.8;" x="75.478269" xlink:href="#me0da17ed49" y="235"/>
      </g>
     </g>
     <g id="text_1">
      <!-- 0 -->
      <g transform="translate(71.024519 252.637812)scale(0.14 -0.14)">
       <defs>
        <path d="M 2034 4250 
Q 1547 4250 1301 3770 
Q 1056 3291 1056 2328 
Q 1056 1369 1301 889 
Q 1547 409 2034 409 
Q 2525 409 2770 889 
Q 3016 1369 3016 2328 
Q 3016 3291 2770 3770 
Q 2525 4250 2034 4250 
z
M 2034 4750 
Q 2819 4750 3233 4129 
Q 3647 3509 3647 2328 
Q 3647 1150 3233 529 
Q 2819 -91 2034 -91 
Q 1250 -91 836 529 
Q 422 1150 422 2328 
Q 422 3509 836 4129 
Q 1250 4750 2034 4750 
z
" id="DejaVuSans-30" transform="scale(0.015625)"/>
       </defs>
       <use xlink:href="#DejaVuSans-30"/>
      </g>
     </g>
    </g>
    <g id="xtick_2">
     <g id="line2d_2">
      <g>
       <use style="stroke:#000000;stroke-width:0.8;" x="169.997253" xlink:href="#me0da17ed49" y="235"/>
      </g>
     </g>
     <g id="text_2">
      <!-- 200 -->
      <g transform="translate(156.636003 252.637812)scale(0.14 -0.14)">
       <defs>
        <path d="M 1228 531 
L 3431 531 
L 3431 0 
L 469 0 
L 469 531 
Q 828 903 1448 1529 
Q 2069 2156 2228 2338 
Q 2531 2678 2651 2914 
Q 2772 3150 2772 3378 
Q 2772 3750 2511 3984 
Q 2250 4219 1831 4219 
Q 1534 4219 1204 4116 
Q 875 4013 500 3803 
L 500 4441 
Q 881 4594 1212 4672 
Q 1544 4750 1819 4750 
Q 2544 4750 2975 4387 
Q 3406 4025 3406 3419 
Q 3406 3131 3298 2873 
Q 3191 2616 2906 2266 
Q 2828 2175 2409 1742 
Q 1991 1309 1228 531 
z
" id="DejaVuSans-32" transform="scale(0.015625)"/>
       </defs>
       <use xlink:href="#DejaVuSans-32"/>
       <use x="63.623047" xlink:href="#DejaVuSans-30"/>
       <use x="127.246094" xlink:href="#DejaVuSans-30"/>
      </g>
     </g>
    </g>
    <g id="xtick_3">
     <g id="line2d_3">
      <g>
       <use style="stroke:#000000;stroke-width:0.8;" x="264.516237" xlink:href="#me0da17ed49" y="235"/>
      </g>
     </g>
     <g id="text_3">
      <!-- 400 -->
      <g transform="translate(251.154987 252.637812)scale(0.14 -0.14)">
       <defs>
        <path d="M 2419 4116 
L 825 1625 
L 2419 1625 
L 2419 4116 
z
M 2253 4666 
L 3047 4666 
L 3047 1625 
L 3713 1625 
L 3713 1100 
L 3047 1100 
L 3047 0 
L 2419 0 
L 2419 1100 
L 313 1100 
L 313 1709 
L 2253 4666 
z
" id="DejaVuSans-34" transform="scale(0.015625)"/>
       </defs>
       <use xlink:href="#DejaVuSans-34"/>
       <use x="63.623047" xlink:href="#DejaVuSans-30"/>
       <use x="127.246094" xlink:href="#DejaVuSans-30"/>
      </g>
     </g>
    </g>
    <g id="text_4">
     <!-- Time -->
     <g transform="translate(147.740486 273.226562)scale(0.18 -0.18)">
      <defs>
       <path d="M -19 4666 
L 3928 4666 
L 3928 4134 
L 2272 4134 
L 2272 0 
L 1638 0 
L 1638 4134 
L -19 4134 
L -19 4666 
z
" id="DejaVuSans-54" transform="scale(0.015625)"/>
       <path d="M 603 3500 
L 1178 3500 
L 1178 0 
L 603 0 
L 603 3500 
z
M 603 4863 
L 1178 4863 
L 1178 4134 
L 603 4134 
L 603 4863 
z
" id="DejaVuSans-69" transform="scale(0.015625)"/>
       <path d="M 3328 2828 
Q 3544 3216 3844 3400 
Q 4144 3584 4550 3584 
Q 5097 3584 5394 3201 
Q 5691 2819 5691 2113 
L 5691 0 
L 5113 0 
L 5113 2094 
Q 5113 2597 4934 2840 
Q 4756 3084 4391 3084 
Q 3944 3084 3684 2787 
Q 3425 2491 3425 1978 
L 3425 0 
L 2847 0 
L 2847 2094 
Q 2847 2600 2669 2842 
Q 2491 3084 2119 3084 
Q 1678 3084 1418 2786 
Q 1159 2488 1159 1978 
L 1159 0 
L 581 0 
L 581 3500 
L 1159 3500 
L 1159 2956 
Q 1356 3278 1631 3431 
Q 1906 3584 2284 3584 
Q 2666 3584 2933 3390 
Q 3200 3197 3328 2828 
z
" id="DejaVuSans-6d" transform="scale(0.015625)"/>
       <path d="M 3597 1894 
L 3597 1613 
L 953 1613 
Q 991 1019 1311 708 
Q 1631 397 2203 397 
Q 2534 397 2845 478 
Q 3156 559 3463 722 
L 3463 178 
Q 3153 47 2828 -22 
Q 2503 -91 2169 -91 
Q 1331 -91 842 396 
Q 353 884 353 1716 
Q 353 2575 817 3079 
Q 1281 3584 2069 3584 
Q 2775 3584 3186 3129 
Q 3597 2675 3597 1894 
z
M 3022 2063 
Q 3016 2534 2758 2815 
Q 2500 3097 2075 3097 
Q 1594 3097 1305 2825 
Q 1016 2553 972 2059 
L 3022 2063 
z
" id="DejaVuSans-65" transform="scale(0.015625)"/>
      </defs>
      <use xlink:href="#DejaVuSans-54"/>
      <use x="57.958984" xlink:href="#DejaVuSans-69"/>
      <use x="85.742188" xlink:href="#DejaVuSans-6d"/>
      <use x="183.154297" xlink:href="#DejaVuSans-65"/>
     </g>
    </g>
   </g>
   <g id="matplotlib.axis_2">
    <g id="ytick_1">
     <g id="line2d_4">
      <defs>
       <path d="M 0 0 
L -3.5 0 
" id="mb6055c58ba" style="stroke:#000000;stroke-width:0.8;"/>
      </defs>
      <g>
       <use style="stroke:#000000;stroke-width:0.8;" x="66.05" xlink:href="#mb6055c58ba" y="193.087107"/>
      </g>
     </g>
     <g id="text_5">
      <!-- 20 -->
      <g transform="translate(41.235 198.406013)scale(0.14 -0.14)">
       <use xlink:href="#DejaVuSans-32"/>
       <use x="63.623047" xlink:href="#DejaVuSans-30"/>
      </g>
     </g>
    </g>
    <g id="ytick_2">
     <g id="line2d_5">
      <g>
       <use style="stroke:#000000;stroke-width:0.8;" x="66.05" xlink:href="#mb6055c58ba" y="149.452349"/>
      </g>
     </g>
     <g id="text_6">
      <!-- 40 -->
      <g transform="translate(41.235 154.771255)scale(0.14 -0.14)">
       <use xlink:href="#DejaVuSans-34"/>
       <use x="63.623047" xlink:href="#DejaVuSans-30"/>
      </g>
     </g>
    </g>
    <g id="ytick_3">
     <g id="line2d_6">
      <g>
       <use style="stroke:#000000;stroke-width:0.8;" x="66.05" xlink:href="#mb6055c58ba" y="105.81759"/>
      </g>
     </g>
     <g id="text_7">
      <!-- 60 -->
      <g transform="translate(41.235 111.136496)scale(0.14 -0.14)">
       <defs>
        <path d="M 2113 2584 
Q 1688 2584 1439 2293 
Q 1191 2003 1191 1497 
Q 1191 994 1439 701 
Q 1688 409 2113 409 
Q 2538 409 2786 701 
Q 3034 994 3034 1497 
Q 3034 2003 2786 2293 
Q 2538 2584 2113 2584 
z
M 3366 4563 
L 3366 3988 
Q 3128 4100 2886 4159 
Q 2644 4219 2406 4219 
Q 1781 4219 1451 3797 
Q 1122 3375 1075 2522 
Q 1259 2794 1537 2939 
Q 1816 3084 2150 3084 
Q 2853 3084 3261 2657 
Q 3669 2231 3669 1497 
Q 3669 778 3244 343 
Q 2819 -91 2113 -91 
Q 1303 -91 875 529 
Q 447 1150 447 2328 
Q 447 3434 972 4092 
Q 1497 4750 2381 4750 
Q 2619 4750 2861 4703 
Q 3103 4656 3366 4563 
z
" id="DejaVuSans-36" transform="scale(0.015625)"/>
       </defs>
       <use xlink:href="#DejaVuSans-36"/>
       <use x="63.623047" xlink:href="#DejaVuSans-30"/>
      </g>
     </g>
    </g>
    <g id="ytick_4">
     <g id="line2d_7">
      <g>
       <use style="stroke:#000000;stroke-width:0.8;" x="66.05" xlink:href="#mb6055c58ba" y="62.182831"/>
      </g>
     </g>
     <g id="text_8">
      <!-- 80 -->
      <g transform="translate(41.235 67.501737)scale(0.14 -0.14)">
       <defs>
        <path d="M 2034 2216 
Q 1584 2216 1326 1975 
Q 1069 1734 1069 1313 
Q 1069 891 1326 650 
Q 1584 409 2034 409 
Q 2484 409 2743 651 
Q 3003 894 3003 1313 
Q 3003 1734 2745 1975 
Q 2488 2216 2034 2216 
z
M 1403 2484 
Q 997 2584 770 2862 
Q 544 3141 544 3541 
Q 544 4100 942 4425 
Q 1341 4750 2034 4750 
Q 2731 4750 3128 4425 
Q 3525 4100 3525 3541 
Q 3525 3141 3298 2862 
Q 3072 2584 2669 2484 
Q 3125 2378 3379 2068 
Q 3634 1759 3634 1313 
Q 3634 634 3220 271 
Q 2806 -91 2034 -91 
Q 1263 -91 848 271 
Q 434 634 434 1313 
Q 434 1759 690 2068 
Q 947 2378 1403 2484 
z
M 1172 3481 
Q 1172 3119 1398 2916 
Q 1625 2713 2034 2713 
Q 2441 2713 2670 2916 
Q 2900 3119 2900 3481 
Q 2900 3844 2670 4047 
Q 2441 4250 2034 4250 
Q 1625 4250 1398 4047 
Q 1172 3844 1172 3481 
z
" id="DejaVuSans-38" transform="scale(0.015625)"/>
       </defs>
       <use xlink:href="#DejaVuSans-38"/>
       <use x="63.623047" xlink:href="#DejaVuSans-30"/>
      </g>
     </g>
    </g>
    <g id="ytick_5">
     <g id="line2d_8">
      <g>
       <use style="stroke:#000000;stroke-width:0.8;" x="66.05" xlink:href="#mb6055c58ba" y="18.548072"/>
      </g>
     </g>
     <g id="text_9">
      <!-- 100 -->
      <g transform="translate(32.3275 23.866979)scale(0.14 -0.14)">
       <defs>
        <path d="M 794 531 
L 1825 531 
L 1825 4091 
L 703 3866 
L 703 4441 
L 1819 4666 
L 2450 4666 
L 2450 531 
L 3481 531 
L 3481 0 
L 794 0 
L 794 531 
z
" id="DejaVuSans-31" transform="scale(0.015625)"/>
       </defs>
       <use xlink:href="#DejaVuSans-31"/>
       <use x="63.623047" xlink:href="#DejaVuSans-30"/>
       <use x="127.246094" xlink:href="#DejaVuSans-30"/>
      </g>
     </g>
    </g>
    <g id="text_10">
     <!-- Mean Payoff -->
     <g transform="translate(24.584063 177.989844)rotate(-90)scale(0.18 -0.18)">
      <defs>
       <path d="M 628 4666 
L 1569 4666 
L 2759 1491 
L 3956 4666 
L 4897 4666 
L 4897 0 
L 4281 0 
L 4281 4097 
L 3078 897 
L 2444 897 
L 1241 4097 
L 1241 0 
L 628 0 
L 628 4666 
z
" id="DejaVuSans-4d" transform="scale(0.015625)"/>
       <path d="M 2194 1759 
Q 1497 1759 1228 1600 
Q 959 1441 959 1056 
Q 959 750 1161 570 
Q 1363 391 1709 391 
Q 2188 391 2477 730 
Q 2766 1069 2766 1631 
L 2766 1759 
L 2194 1759 
z
M 3341 1997 
L 3341 0 
L 2766 0 
L 2766 531 
Q 2569 213 2275 61 
Q 1981 -91 1556 -91 
Q 1019 -91 701 211 
Q 384 513 384 1019 
Q 384 1609 779 1909 
Q 1175 2209 1959 2209 
L 2766 2209 
L 2766 2266 
Q 2766 2663 2505 2880 
Q 2244 3097 1772 3097 
Q 1472 3097 1187 3025 
Q 903 2953 641 2809 
L 641 3341 
Q 956 3463 1253 3523 
Q 1550 3584 1831 3584 
Q 2591 3584 2966 3190 
Q 3341 2797 3341 1997 
z
" id="DejaVuSans-61" transform="scale(0.015625)"/>
       <path d="M 3513 2113 
L 3513 0 
L 2938 0 
L 2938 2094 
Q 2938 2591 2744 2837 
Q 2550 3084 2163 3084 
Q 1697 3084 1428 2787 
Q 1159 2491 1159 1978 
L 1159 0 
L 581 0 
L 581 3500 
L 1159 3500 
L 1159 2956 
Q 1366 3272 1645 3428 
Q 1925 3584 2291 3584 
Q 2894 3584 3203 3211 
Q 3513 2838 3513 2113 
z
" id="DejaVuSans-6e" transform="scale(0.015625)"/>
       <path id="DejaVuSans-20" transform="scale(0.015625)"/>
       <path d="M 1259 4147 
L 1259 2394 
L 2053 2394 
Q 2494 2394 2734 2622 
Q 2975 2850 2975 3272 
Q 2975 3691 2734 3919 
Q 2494 4147 2053 4147 
L 1259 4147 
z
M 628 4666 
L 2053 4666 
Q 2838 4666 3239 4311 
Q 3641 3956 3641 3272 
Q 3641 2581 3239 2228 
Q 2838 1875 2053 1875 
L 1259 1875 
L 1259 0 
L 628 0 
L 628 4666 
z
" id="DejaVuSans-50" transform="scale(0.015625)"/>
       <path d="M 2059 -325 
Q 1816 -950 1584 -1140 
Q 1353 -1331 966 -1331 
L 506 -1331 
L 506 -850 
L 844 -850 
Q 1081 -850 1212 -737 
Q 1344 -625 1503 -206 
L 1606 56 
L 191 3500 
L 800 3500 
L 1894 763 
L 2988 3500 
L 3597 3500 
L 2059 -325 
z
" id="DejaVuSans-79" transform="scale(0.015625)"/>
       <path d="M 1959 3097 
Q 1497 3097 1228 2736 
Q 959 2375 959 1747 
Q 959 1119 1226 758 
Q 1494 397 1959 397 
Q 2419 397 2687 759 
Q 2956 1122 2956 1747 
Q 2956 2369 2687 2733 
Q 2419 3097 1959 3097 
z
M 1959 3584 
Q 2709 3584 3137 3096 
Q 3566 2609 3566 1747 
Q 3566 888 3137 398 
Q 2709 -91 1959 -91 
Q 1206 -91 779 398 
Q 353 888 353 1747 
Q 353 2609 779 3096 
Q 1206 3584 1959 3584 
z
" id="DejaVuSans-6f" transform="scale(0.015625)"/>
       <path d="M 2375 4863 
L 2375 4384 
L 1825 4384 
Q 1516 4384 1395 4259 
Q 1275 4134 1275 3809 
L 1275 3500 
L 2222 3500 
L 2222 3053 
L 1275 3053 
L 1275 0 
L 697 0 
L 697 3053 
L 147 3053 
L 147 3500 
L 697 3500 
L 697 3744 
Q 697 4328 969 4595 
Q 1241 4863 1831 4863 
L 2375 4863 
z
" id="DejaVuSans-66" transform="scale(0.015625)"/>
      </defs>
      <use xlink:href="#DejaVuSans-4d"/>
      <use x="86.279297" xlink:href="#DejaVuSans-65"/>
      <use x="147.802734" xlink:href="#DejaVuSans-61"/>
      <use x="209.082031" xlink:href="#DejaVuSans-6e"/>
      <use x="272.460938" xlink:href="#DejaVuSans-20"/>
      <use x="304.248047" xlink:href="#DejaVuSans-50"/>
      <use x="360.050781" xlink:href="#DejaVuSans-61"/>
      <use x="421.330078" xlink:href="#DejaVuSans-79"/>
      <use x="480.509766" xlink:href="#DejaVuSans-6f"/>
      <use x="541.691406" xlink:href="#DejaVuSans-66"/>
      <use x="576.896484" xlink:href="#DejaVuSans-66"/>
     </g>
    </g>
   </g>
   <g id="line2d_9">
    <path clip-path="url(#pc384286eb9)" d="M 75.478269 212.871964 
L 76.423458 180.331642 
L 77.841243 125.666741 
L 78.786433 96.003131 
L 79.731623 74.016885 
L 80.676813 59.405273 
L 81.622003 50.412595 
L 82.567192 45.011 
L 83.512382 41.597889 
L 84.457572 39.398607 
L 85.402762 37.848826 
L 86.347952 36.704159 
L 87.765737 35.339858 
L 89.183521 34.329153 
L 91.546496 33.002303 
L 94.382065 31.801574 
L 98.162825 30.568421 
L 101.943584 29.568136 
L 105.724344 28.873626 
L 122.265166 26.416041 
L 135.497824 25.214431 
L 149.675671 24.068799 
L 161.963139 23.326966 
L 176.613582 22.778585 
L 198.825543 22.092231 
L 231.434592 21.359071 
L 264.043642 20.990909 
L 264.043642 20.990909 
" style="fill:none;stroke:#151d3b;stroke-linecap:square;stroke-width:3;"/>
   </g>
   <g id="line2d_10">
    <path clip-path="url(#pc384286eb9)" d="M 75.478269 210.323766 
L 76.423458 169.255546 
L 76.896053 156.253018 
L 77.368648 153.489168 
L 77.841243 153.254244 
L 82.094598 153.240894 
L 264.043642 153.240894 
L 264.043642 153.240894 
" style="fill:none;stroke:#98042d;stroke-dasharray:4,3;stroke-dashoffset:0;stroke-width:2;"/>
   </g>
   <g id="line2d_11">
    <path clip-path="url(#pc384286eb9)" d="M 75.478269 209.253735 
L 77.368648 121.501236 
L 78.313838 89.877447 
L 78.786433 78.876642 
L 79.259028 70.933519 
L 79.731623 65.48788 
L 80.204218 61.899561 
L 80.676813 59.845759 
L 81.149408 58.68493 
L 81.622003 58.011309 
L 82.094598 57.640518 
L 83.039787 57.314569 
L 84.457572 57.238017 
L 98.162825 57.233373 
L 264.043642 57.233373 
L 264.043642 57.233373 
" style="fill:none;stroke:#ff0f39;stroke-dasharray:4,3;stroke-dashoffset:0;stroke-width:2;"/>
   </g>
   <g id="line2d_12">
    <path clip-path="url(#pc384286eb9)" d="M 75.478269 209.61635 
L 76.896053 146.698635 
L 78.786433 91.686695 
L 79.731623 74.676224 
L 80.676813 64.051121 
L 81.149408 60.534193 
L 82.094598 55.740519 
L 83.039787 52.567468 
L 83.984977 50.41709 
L 84.930167 48.77789 
L 85.875357 47.457482 
L 86.820547 46.533066 
L 88.238332 45.566987 
L 90.601306 44.526837 
L 92.019091 44.075698 
L 94.85466 43.37681 
L 99.58061 42.42746 
L 101.943584 42.03681 
L 104.306559 41.653468 
L 108.559913 40.976885 
L 130.771874 39.137875 
L 140.696368 38.725952 
L 144.949722 38.496896 
L 153.45643 38.140403 
L 159.600164 37.865455 
L 163.380924 37.695523 
L 185.592885 37.002577 
L 194.572189 36.776167 
L 222.927884 36.20415 
L 244.194655 35.939789 
L 256.009528 35.807858 
L 264.043642 35.688361 
L 264.043642 35.688361 
" style="fill:none;stroke:#f16745;stroke-dasharray:4,3;stroke-dashoffset:0;stroke-width:2;"/>
   </g>
   <g id="line2d_13">
    <path clip-path="url(#pc384286eb9)" d="M 75.478269 209.52542 
L 76.423458 166.924791 
L 76.896053 152.145731 
L 77.368648 145.47487 
L 78.786433 129.711633 
L 79.731623 119.40806 
L 80.676813 111.911515 
L 81.622003 106.199242 
L 82.567192 101.392701 
L 84.457572 93.313145 
L 85.875357 88.872601 
L 87.293142 85.100068 
L 89.656116 79.577394 
L 91.546496 76.059568 
L 92.491686 74.568711 
L 93.909471 72.47551 
L 95.327255 70.35228 
L 96.74504 68.476334 
L 99.108015 65.673642 
L 100.525799 64.196984 
L 104.306559 60.888806 
L 113.285862 54.253441 
L 116.594027 52.392891 
L 118.484406 51.373797 
L 120.847381 50.194491 
L 128.4089 47.204073 
L 131.717064 46.017144 
L 140.223773 43.29608 
L 142.114152 42.770304 
L 146.840102 41.462513 
L 152.511241 40.115622 
L 159.12757 38.766184 
L 162.435734 38.146462 
L 166.216493 37.432726 
L 168.579468 36.995836 
L 170.942443 36.537673 
L 177.558771 35.363161 
L 186.538075 34.116791 
L 193.626999 33.097597 
L 198.352948 32.509085 
L 201.661112 32.09881 
L 215.83896 30.561247 
L 218.201935 30.308288 
L 221.982694 29.948798 
L 225.290858 29.650647 
L 234.742757 28.860326 
L 241.831681 28.336664 
L 250.810984 27.601656 
L 254.119148 27.328705 
L 260.735477 26.836619 
L 264.043642 26.566216 
L 264.043642 26.566216 
" style="fill:none;stroke:#ffc65d;stroke-dasharray:4,3;stroke-dashoffset:0;stroke-width:2;"/>
   </g>
   <g id="line2d_14">
    <path clip-path="url(#pc384286eb9)" d="M 75.478269 224.809091 
L 84.930167 224.696629 
L 104.779154 224.065658 
L 138.333393 223.92154 
L 264.043642 223.911497 
L 264.043642 223.911497 
" style="fill:none;stroke:#3a6351;stroke-dasharray:4,3;stroke-dashoffset:0;stroke-width:2;"/>
   </g>
   <g id="line2d_15">
    <path clip-path="url(#pc384286eb9)" d="M 75.478269 221.312004 
L 79.259028 192.168613 
L 81.149408 179.569652 
L 83.512382 165.603396 
L 85.402762 154.243943 
L 86.820547 143.958621 
L 87.765737 135.275588 
L 88.710926 124.824961 
L 90.128711 106.187499 
L 92.491686 74.319714 
L 93.436876 63.624584 
L 94.382065 54.95634 
L 95.327255 48.407947 
L 96.272445 43.354322 
L 97.217635 39.622604 
L 98.162825 36.794244 
L 99.108015 34.444122 
L 100.053205 32.56974 
L 100.998394 31.198148 
L 102.416179 29.792732 
L 103.833964 28.64948 
L 105.251749 27.721802 
L 106.669533 27.035048 
L 109.505103 26.025126 
L 112.340672 25.299455 
L 114.703647 24.955729 
L 121.319976 24.291796 
L 127.46371 23.970025 
L 133.607444 23.873466 
L 152.511241 23.803705 
L 258.845098 23.790905 
L 264.043642 23.790905 
L 264.043642 23.790905 
" style="fill:none;stroke:#019267;stroke-dasharray:4,3;stroke-dashoffset:0;stroke-width:2;"/>
   </g>
   <g id="line2d_16">
    <path clip-path="url(#pc384286eb9)" d="M 75.478269 222.188674 
L 78.313838 206.93986 
L 80.676813 195.559173 
L 82.567192 187.301183 
L 86.347952 172.406105 
L 88.238332 164.648528 
L 89.656116 157.945242 
L 91.073901 149.838412 
L 92.491686 140.127563 
L 93.909471 128.993712 
L 95.79985 111.756472 
L 99.108015 81.137062 
L 100.525799 69.459541 
L 101.943584 59.916768 
L 103.361369 51.976525 
L 104.306559 47.765038 
L 105.724344 42.709898 
L 106.669533 39.908088 
L 108.087318 36.680024 
L 109.505103 34.099131 
L 110.922888 32.091753 
L 112.340672 30.452719 
L 113.758457 29.129099 
L 115.176242 28.189369 
L 116.594027 27.458855 
L 118.484406 26.678305 
L 121.792571 25.774097 
L 124.155545 25.292364 
L 126.991115 24.940981 
L 136.915608 23.868306 
L 146.840102 23.217989 
L 190.318834 22.174875 
L 214.89377 21.861061 
L 228.599023 21.746807 
L 264.043642 21.607669 
L 264.043642 21.607669 
" style="fill:none;stroke:#00c897;stroke-dasharray:4,3;stroke-dashoffset:0;stroke-width:2;"/>
   </g>
   <g id="line2d_17">
    <path clip-path="url(#pc384286eb9)" d="M 75.478269 218.426401 
L 76.423458 210.301391 
L 77.368648 204.775798 
L 78.313838 200.485961 
L 79.731623 195.412594 
L 81.149408 191.352796 
L 82.567192 187.909832 
L 84.457572 183.901839 
L 87.765737 177.496333 
L 90.128711 172.911811 
L 95.79985 161.008517 
L 98.63542 154.724235 
L 101.470989 148.300624 
L 107.614723 134.940442 
L 110.450293 129.181829 
L 112.813267 124.793385 
L 115.648837 120.117052 
L 120.847381 112.56844 
L 124.155545 108.384035 
L 128.881495 102.785791 
L 133.134849 98.226682 
L 139.751178 92.190633 
L 141.641557 90.679436 
L 155.34681 81.032313 
L 161.490544 77.490618 
L 165.271303 75.636127 
L 176.140987 69.935881 
L 178.503961 68.831129 
L 182.284721 67.019734 
L 184.1751 66.21633 
L 186.538075 65.345113 
L 191.736619 63.626798 
L 203.551492 59.448984 
L 205.914467 58.673028 
L 217.72934 55.142335 
L 228.126428 52.516616 
L 230.961997 51.79579 
L 233.324972 51.165198 
L 236.633136 50.428492 
L 240.886491 49.451593 
L 247.975415 48.005446 
L 256.482123 46.404647 
L 260.735477 45.558049 
L 264.043642 45.091463 
L 264.043642 45.091463 
" style="fill:none;stroke:#85c88a;stroke-dasharray:4,3;stroke-dashoffset:0;stroke-width:2;"/>
   </g>
   <g id="line2d_18">
    <path clip-path="url(#pc384286eb9)" d="M 75.478269 221.299852 
L 79.731623 188.993511 
L 81.622003 177.11585 
L 83.512382 167.032087 
L 84.930167 160.449783 
L 86.347952 154.663655 
L 87.765737 149.607799 
L 89.183521 145.128705 
L 91.073901 140.028806 
L 92.491686 136.699888 
L 94.382065 132.910801 
L 96.272445 129.694048 
L 98.162825 126.989097 
L 100.053205 124.715202 
L 101.943584 122.812997 
L 103.833964 121.205033 
L 106.196938 119.536604 
L 108.559913 118.183146 
L 110.922888 117.12407 
L 114.231052 115.960502 
L 117.066622 115.208383 
L 120.374786 114.551466 
L 124.155545 114.013064 
L 127.936305 113.633276 
L 134.080039 113.237475 
L 142.586747 112.967862 
L 155.819405 112.815682 
L 178.503961 112.765013 
L 264.043642 112.760061 
L 264.043642 112.760061 
" style="fill:none;stroke:#495371;stroke-dasharray:4,3;stroke-dashoffset:0;stroke-width:2;"/>
   </g>
   <g id="line2d_19">
    <path clip-path="url(#pc384286eb9)" d="M 75.478269 221.889398 
L 78.313838 206.247343 
L 80.676813 194.70694 
L 82.567192 186.428917 
L 84.930167 177.193825 
L 87.293142 169.065818 
L 89.183521 163.249146 
L 91.546496 156.736108 
L 93.909471 150.89604 
L 96.272445 145.652068 
L 98.63542 140.969376 
L 100.998394 136.750848 
L 103.361369 132.917393 
L 105.724344 129.478241 
L 108.559913 125.770441 
L 110.922888 123.001805 
L 114.231052 119.511103 
L 118.484406 115.612698 
L 121.319976 113.297897 
L 124.155545 111.189557 
L 127.936305 108.691366 
L 132.189659 106.248072 
L 136.443013 104.109961 
L 140.696368 102.225767 
L 144.477127 100.71328 
L 149.203076 99.028364 
L 154.874215 97.2633 
L 161.490544 95.487242 
L 169.997253 93.554535 
L 176.613582 92.240486 
L 186.538075 90.510519 
L 196.935163 88.944609 
L 207.804846 87.520866 
L 219.619719 86.144297 
L 237.105731 84.338677 
L 264.043642 81.980898 
L 264.043642 81.980898 
" style="fill:none;stroke:#488fb1;stroke-dasharray:4,3;stroke-dashoffset:0;stroke-width:2;"/>
   </g>
   <g id="line2d_20">
    <path clip-path="url(#pc384286eb9)" d="M 75.478269 218.029245 
L 76.423458 209.719083 
L 77.368648 204.043577 
L 78.313838 199.680126 
L 79.259028 196.119705 
L 80.676813 191.728823 
L 82.094598 188.095798 
L 83.512382 184.998317 
L 85.402762 181.464953 
L 87.293142 178.439633 
L 89.656116 175.177521 
L 92.491686 171.772105 
L 95.327255 168.800862 
L 98.63542 165.779288 
L 102.416179 162.72163 
L 105.724344 160.345683 
L 109.977698 157.610587 
L 115.176242 154.629457 
L 118.484406 152.910409 
L 123.682951 150.432509 
L 129.826684 147.805725 
L 133.134849 146.493431 
L 139.751178 144.07116 
L 145.894912 142.045023 
L 151.566051 140.296505 
L 158.654975 138.272656 
L 164.798709 136.634222 
L 178.976556 133.261327 
L 193.154404 130.26574 
L 203.551492 128.310504 
L 211.113011 126.96705 
L 238.996111 122.578098 
L 255.536933 120.298211 
L 264.043642 119.219676 
L 264.043642 119.219676 
" style="fill:none;stroke:#2fa4ff;stroke-dasharray:4,3;stroke-dashoffset:0;stroke-width:2;"/>
   </g>
   <g id="line2d_21">
    <path clip-path="url(#pc384286eb9)" d="M 75.478269 217.996621 
L 76.423458 200.075624 
L 77.841243 168.768121 
L 78.313838 161.010015 
L 78.786433 156.018461 
L 79.259028 153.350088 
L 79.731623 152.120355 
L 80.204218 151.636725 
L 81.149408 151.401784 
L 83.984977 151.358198 
L 264.043642 151.358198 
L 264.043642 151.358198 
" style="fill:none;stroke:#8267be;stroke-dasharray:4,3;stroke-dashoffset:0;stroke-width:2;"/>
   </g>
   <g id="line2d_22"/>
   <g id="patch_3">
    <path d="M 66.05 235 
L 66.05 10.8 
" style="fill:none;stroke:#000000;stroke-linecap:square;stroke-linejoin:miter;stroke-width:0.8;"/>
   </g>
   <g id="patch_4">
    <path d="M 273.47191 235 
L 273.47191 10.8 
" style="fill:none;stroke:#000000;stroke-linecap:square;stroke-linejoin:miter;stroke-width:0.8;"/>
   </g>
   <g id="patch_5">
    <path d="M 66.05 235 
L 273.47191 235 
" style="fill:none;stroke:#000000;stroke-linecap:square;stroke-linejoin:miter;stroke-width:0.8;"/>
   </g>
   <g id="patch_6">
    <path d="M 66.05 10.8 
L 273.47191 10.8 
" style="fill:none;stroke:#000000;stroke-linecap:square;stroke-linejoin:miter;stroke-width:0.8;"/>
   </g>
   <g id="legend_1">
    <g id="patch_7">
     <path d="M 151.818764 212.58 
L 263.269702 212.58 
Q 266.069702 212.58 266.069702 209.78 
L 266.069702 170.08125 
Q 266.069702 167.28125 263.269702 167.28125 
L 151.818764 167.28125 
Q 149.018764 167.28125 149.018764 170.08125 
L 149.018764 209.78 
Q 149.018764 212.58 151.818764 212.58 
z
" style="fill:#ffffff;opacity:0.8;stroke:#cccccc;stroke-linejoin:miter;"/>
    </g>
    <g id="line2d_23">
     <path d="M 154.618764 178.619062 
L 182.618764 178.619062 
" style="fill:none;stroke:#151d3b;stroke-linecap:square;stroke-width:3;"/>
    </g>
    <g id="line2d_24"/>
    <g id="text_11">
     <!-- RL -->
     <g transform="translate(193.818764 183.519062)scale(0.14 -0.14)">
      <defs>
       <path d="M 2841 2188 
Q 3044 2119 3236 1894 
Q 3428 1669 3622 1275 
L 4263 0 
L 3584 0 
L 2988 1197 
Q 2756 1666 2539 1819 
Q 2322 1972 1947 1972 
L 1259 1972 
L 1259 0 
L 628 0 
L 628 4666 
L 2053 4666 
Q 2853 4666 3247 4331 
Q 3641 3997 3641 3322 
Q 3641 2881 3436 2590 
Q 3231 2300 2841 2188 
z
M 1259 4147 
L 1259 2491 
L 2053 2491 
Q 2509 2491 2742 2702 
Q 2975 2913 2975 3322 
Q 2975 3731 2742 3939 
Q 2509 4147 2053 4147 
L 1259 4147 
z
" id="DejaVuSans-52" transform="scale(0.015625)"/>
       <path d="M 628 4666 
L 1259 4666 
L 1259 531 
L 3531 531 
L 3531 0 
L 628 0 
L 628 4666 
z
" id="DejaVuSans-4c" transform="scale(0.015625)"/>
      </defs>
      <use xlink:href="#DejaVuSans-52"/>
      <use x="69.482422" xlink:href="#DejaVuSans-4c"/>
     </g>
    </g>
    <g id="line2d_25">
     <path d="M 154.618764 199.168437 
L 182.618764 199.168437 
" style="fill:none;stroke:#747474;stroke-dasharray:5,3.75;stroke-dashoffset:0;stroke-width:2.5;"/>
    </g>
    <g id="line2d_26"/>
    <g id="text_12">
     <!-- Baselines -->
     <g transform="translate(193.818764 204.068437)scale(0.14 -0.14)">
      <defs>
       <path d="M 1259 2228 
L 1259 519 
L 2272 519 
Q 2781 519 3026 730 
Q 3272 941 3272 1375 
Q 3272 1813 3026 2020 
Q 2781 2228 2272 2228 
L 1259 2228 
z
M 1259 4147 
L 1259 2741 
L 2194 2741 
Q 2656 2741 2882 2914 
Q 3109 3088 3109 3444 
Q 3109 3797 2882 3972 
Q 2656 4147 2194 4147 
L 1259 4147 
z
M 628 4666 
L 2241 4666 
Q 2963 4666 3353 4366 
Q 3744 4066 3744 3513 
Q 3744 3084 3544 2831 
Q 3344 2578 2956 2516 
Q 3422 2416 3680 2098 
Q 3938 1781 3938 1306 
Q 3938 681 3513 340 
Q 3088 0 2303 0 
L 628 0 
L 628 4666 
z
" id="DejaVuSans-42" transform="scale(0.015625)"/>
       <path d="M 2834 3397 
L 2834 2853 
Q 2591 2978 2328 3040 
Q 2066 3103 1784 3103 
Q 1356 3103 1142 2972 
Q 928 2841 928 2578 
Q 928 2378 1081 2264 
Q 1234 2150 1697 2047 
L 1894 2003 
Q 2506 1872 2764 1633 
Q 3022 1394 3022 966 
Q 3022 478 2636 193 
Q 2250 -91 1575 -91 
Q 1294 -91 989 -36 
Q 684 19 347 128 
L 347 722 
Q 666 556 975 473 
Q 1284 391 1588 391 
Q 1994 391 2212 530 
Q 2431 669 2431 922 
Q 2431 1156 2273 1281 
Q 2116 1406 1581 1522 
L 1381 1569 
Q 847 1681 609 1914 
Q 372 2147 372 2553 
Q 372 3047 722 3315 
Q 1072 3584 1716 3584 
Q 2034 3584 2315 3537 
Q 2597 3491 2834 3397 
z
" id="DejaVuSans-73" transform="scale(0.015625)"/>
       <path d="M 603 4863 
L 1178 4863 
L 1178 0 
L 603 0 
L 603 4863 
z
" id="DejaVuSans-6c" transform="scale(0.015625)"/>
      </defs>
      <use xlink:href="#DejaVuSans-42"/>
      <use x="68.603516" xlink:href="#DejaVuSans-61"/>
      <use x="129.882812" xlink:href="#DejaVuSans-73"/>
      <use x="181.982422" xlink:href="#DejaVuSans-65"/>
      <use x="243.505859" xlink:href="#DejaVuSans-6c"/>
      <use x="271.289062" xlink:href="#DejaVuSans-69"/>
      <use x="299.072266" xlink:href="#DejaVuSans-6e"/>
      <use x="362.451172" xlink:href="#DejaVuSans-65"/>
      <use x="423.974609" xlink:href="#DejaVuSans-73"/>
     </g>
    </g>
   </g>
  </g>
 </g>
 <defs>
  <clipPath id="pc384286eb9">
   <rect height="224.2" width="207.42191" x="66.05" y="10.8"/>
  </clipPath>
 </defs>
</svg>
