<?xml version="1.0" encoding="utf-8" standalone="no"?>
<!DOCTYPE svg PUBLIC "-//W3C//DTD SVG 1.1//EN"
  "http://www.w3.org/Graphics/SVG/1.1/DTD/svg11.dtd">
<svg height="288pt" version="1.1" viewBox="0 0 288 288" width="288pt" xmlns="http://www.w3.org/2000/svg" xmlns:xlink="http://www.w3.org/1999/xlink">
 <metadata>
  <rdf:RDF xmlns:cc="http://creativecommons.org/ns#" xmlns:dc="http://purl.org/dc/elements/1.1/" xmlns:rdf="http://www.w3.org/1999/02/22-rdf-syntax-ns#">
   <cc:Work>
    <dc:type rdf:resource="http://purl.org/dc/dcmitype/StillImage"/>
    <dc:date>2022-03-29T03:38:17.468721</dc:date>
    <dc:format>image/svg+xml</dc:format>
    <dc:creator>
     <cc:Agent>
      <dc:title>Matplotlib v3.4.1, https://matplotlib.org/</dc:title>
     </cc:Agent>
    </dc:creator>
   </cc:Work>
  </rdf:RDF>
 </metadata>
 <defs>
  <style type="text/css">*{stroke-linecap:butt;stroke-linejoin:round;}</style>
 </defs>
 <g id="figure_1">
  <g id="patch_1">
   <path d="M 0 288 
L 288 288 
L 288 0 
L 0 0 
z
" style="fill:none;"/>
  </g>
  <g id="axes_1">
   <g id="patch_2">
    <path d="M 66.05 235 
L 272.960811 235 
L 272.960811 11.621523 
L 66.05 11.621523 
z
" style="fill:none;"/>
   </g>
   <g id="matplotlib.axis_1">
    <g id="xtick_1">
     <g id="line2d_1">
      <defs>
       <path d="M 0 0 
L 0 3.5 
" id="me7cb8a965e" style="stroke:#000000;stroke-width:0.8;"/>
      </defs>
      <g>
       <use style="stroke:#000000;stroke-width:0.8;" x="75.455037" xlink:href="#me7cb8a965e" y="235"/>
      </g>
     </g>
     <g id="text_1">
      <!-- 0 -->
      <g transform="translate(71.001287 252.637812)scale(0.14 -0.14)">
       <defs>
        <path d="M 2034 4250 
Q 1547 4250 1301 3770 
Q 1056 3291 1056 2328 
Q 1056 1369 1301 889 
Q 1547 409 2034 409 
Q 2525 409 2770 889 
Q 3016 1369 3016 2328 
Q 3016 3291 2770 3770 
Q 2525 4250 2034 4250 
z
M 2034 4750 
Q 2819 4750 3233 4129 
Q 3647 3509 3647 2328 
Q 3647 1150 3233 529 
Q 2819 -91 2034 -91 
Q 1250 -91 836 529 
Q 422 1150 422 2328 
Q 422 3509 836 4129 
Q 1250 4750 2034 4750 
z
" id="DejaVuSans-30" transform="scale(0.015625)"/>
       </defs>
       <use xlink:href="#DejaVuSans-30"/>
      </g>
     </g>
    </g>
    <g id="xtick_2">
     <g id="line2d_2">
      <g>
       <use style="stroke:#000000;stroke-width:0.8;" x="169.97802" xlink:href="#me7cb8a965e" y="235"/>
      </g>
     </g>
     <g id="text_2">
      <!-- 100 -->
      <g transform="translate(156.61677 252.637812)scale(0.14 -0.14)">
       <defs>
        <path d="M 794 531 
L 1825 531 
L 1825 4091 
L 703 3866 
L 703 4441 
L 1819 4666 
L 2450 4666 
L 2450 531 
L 3481 531 
L 3481 0 
L 794 0 
L 794 531 
z
" id="DejaVuSans-31" transform="scale(0.015625)"/>
       </defs>
       <use xlink:href="#DejaVuSans-31"/>
       <use x="63.623047" xlink:href="#DejaVuSans-30"/>
       <use x="127.246094" xlink:href="#DejaVuSans-30"/>
      </g>
     </g>
    </g>
    <g id="xtick_3">
     <g id="line2d_3">
      <g>
       <use style="stroke:#000000;stroke-width:0.8;" x="264.501004" xlink:href="#me7cb8a965e" y="235"/>
      </g>
     </g>
     <g id="text_3">
      <!-- 200 -->
      <g transform="translate(251.139754 252.637812)scale(0.14 -0.14)">
       <defs>
        <path d="M 1228 531 
L 3431 531 
L 3431 0 
L 469 0 
L 469 531 
Q 828 903 1448 1529 
Q 2069 2156 2228 2338 
Q 2531 2678 2651 2914 
Q 2772 3150 2772 3378 
Q 2772 3750 2511 3984 
Q 2250 4219 1831 4219 
Q 1534 4219 1204 4116 
Q 875 4013 500 3803 
L 500 4441 
Q 881 4594 1212 4672 
Q 1544 4750 1819 4750 
Q 2544 4750 2975 4387 
Q 3406 4025 3406 3419 
Q 3406 3131 3298 2873 
Q 3191 2616 2906 2266 
Q 2828 2175 2409 1742 
Q 1991 1309 1228 531 
z
" id="DejaVuSans-32" transform="scale(0.015625)"/>
       </defs>
       <use xlink:href="#DejaVuSans-32"/>
       <use x="63.623047" xlink:href="#DejaVuSans-30"/>
       <use x="127.246094" xlink:href="#DejaVuSans-30"/>
      </g>
     </g>
    </g>
    <g id="text_4">
     <!-- Time -->
     <g transform="translate(147.484937 273.226562)scale(0.18 -0.18)">
      <defs>
       <path d="M -19 4666 
L 3928 4666 
L 3928 4134 
L 2272 4134 
L 2272 0 
L 1638 0 
L 1638 4134 
L -19 4134 
L -19 4666 
z
" id="DejaVuSans-54" transform="scale(0.015625)"/>
       <path d="M 603 3500 
L 1178 3500 
L 1178 0 
L 603 0 
L 603 3500 
z
M 603 4863 
L 1178 4863 
L 1178 4134 
L 603 4134 
L 603 4863 
z
" id="DejaVuSans-69" transform="scale(0.015625)"/>
       <path d="M 3328 2828 
Q 3544 3216 3844 3400 
Q 4144 3584 4550 3584 
Q 5097 3584 5394 3201 
Q 5691 2819 5691 2113 
L 5691 0 
L 5113 0 
L 5113 2094 
Q 5113 2597 4934 2840 
Q 4756 3084 4391 3084 
Q 3944 3084 3684 2787 
Q 3425 2491 3425 1978 
L 3425 0 
L 2847 0 
L 2847 2094 
Q 2847 2600 2669 2842 
Q 2491 3084 2119 3084 
Q 1678 3084 1418 2786 
Q 1159 2488 1159 1978 
L 1159 0 
L 581 0 
L 581 3500 
L 1159 3500 
L 1159 2956 
Q 1356 3278 1631 3431 
Q 1906 3584 2284 3584 
Q 2666 3584 2933 3390 
Q 3200 3197 3328 2828 
z
" id="DejaVuSans-6d" transform="scale(0.015625)"/>
       <path d="M 3597 1894 
L 3597 1613 
L 953 1613 
Q 991 1019 1311 708 
Q 1631 397 2203 397 
Q 2534 397 2845 478 
Q 3156 559 3463 722 
L 3463 178 
Q 3153 47 2828 -22 
Q 2503 -91 2169 -91 
Q 1331 -91 842 396 
Q 353 884 353 1716 
Q 353 2575 817 3079 
Q 1281 3584 2069 3584 
Q 2775 3584 3186 3129 
Q 3597 2675 3597 1894 
z
M 3022 2063 
Q 3016 2534 2758 2815 
Q 2500 3097 2075 3097 
Q 1594 3097 1305 2825 
Q 1016 2553 972 2059 
L 3022 2063 
z
" id="DejaVuSans-65" transform="scale(0.015625)"/>
      </defs>
      <use xlink:href="#DejaVuSans-54"/>
      <use x="57.958984" xlink:href="#DejaVuSans-69"/>
      <use x="85.742188" xlink:href="#DejaVuSans-6d"/>
      <use x="183.154297" xlink:href="#DejaVuSans-65"/>
     </g>
    </g>
   </g>
   <g id="matplotlib.axis_2">
    <g id="ytick_1">
     <g id="line2d_4">
      <defs>
       <path d="M 0 0 
L -3.5 0 
" id="maed219334e" style="stroke:#000000;stroke-width:0.8;"/>
      </defs>
      <g>
       <use style="stroke:#000000;stroke-width:0.8;" x="66.05" xlink:href="#maed219334e" y="234.522352"/>
      </g>
     </g>
     <g id="text_5">
      <!-- 0 -->
      <g transform="translate(50.1425 239.841259)scale(0.14 -0.14)">
       <use xlink:href="#DejaVuSans-30"/>
      </g>
     </g>
    </g>
    <g id="ytick_2">
     <g id="line2d_5">
      <g>
       <use style="stroke:#000000;stroke-width:0.8;" x="66.05" xlink:href="#maed219334e" y="190.88289"/>
      </g>
     </g>
     <g id="text_6">
      <!-- 20 -->
      <g transform="translate(41.235 196.201797)scale(0.14 -0.14)">
       <use xlink:href="#DejaVuSans-32"/>
       <use x="63.623047" xlink:href="#DejaVuSans-30"/>
      </g>
     </g>
    </g>
    <g id="ytick_3">
     <g id="line2d_6">
      <g>
       <use style="stroke:#000000;stroke-width:0.8;" x="66.05" xlink:href="#maed219334e" y="147.243428"/>
      </g>
     </g>
     <g id="text_7">
      <!-- 40 -->
      <g transform="translate(41.235 152.562335)scale(0.14 -0.14)">
       <defs>
        <path d="M 2419 4116 
L 825 1625 
L 2419 1625 
L 2419 4116 
z
M 2253 4666 
L 3047 4666 
L 3047 1625 
L 3713 1625 
L 3713 1100 
L 3047 1100 
L 3047 0 
L 2419 0 
L 2419 1100 
L 313 1100 
L 313 1709 
L 2253 4666 
z
" id="DejaVuSans-34" transform="scale(0.015625)"/>
       </defs>
       <use xlink:href="#DejaVuSans-34"/>
       <use x="63.623047" xlink:href="#DejaVuSans-30"/>
      </g>
     </g>
    </g>
    <g id="ytick_4">
     <g id="line2d_7">
      <g>
       <use style="stroke:#000000;stroke-width:0.8;" x="66.05" xlink:href="#maed219334e" y="103.603966"/>
      </g>
     </g>
     <g id="text_8">
      <!-- 60 -->
      <g transform="translate(41.235 108.922873)scale(0.14 -0.14)">
       <defs>
        <path d="M 2113 2584 
Q 1688 2584 1439 2293 
Q 1191 2003 1191 1497 
Q 1191 994 1439 701 
Q 1688 409 2113 409 
Q 2538 409 2786 701 
Q 3034 994 3034 1497 
Q 3034 2003 2786 2293 
Q 2538 2584 2113 2584 
z
M 3366 4563 
L 3366 3988 
Q 3128 4100 2886 4159 
Q 2644 4219 2406 4219 
Q 1781 4219 1451 3797 
Q 1122 3375 1075 2522 
Q 1259 2794 1537 2939 
Q 1816 3084 2150 3084 
Q 2853 3084 3261 2657 
Q 3669 2231 3669 1497 
Q 3669 778 3244 343 
Q 2819 -91 2113 -91 
Q 1303 -91 875 529 
Q 447 1150 447 2328 
Q 447 3434 972 4092 
Q 1497 4750 2381 4750 
Q 2619 4750 2861 4703 
Q 3103 4656 3366 4563 
z
" id="DejaVuSans-36" transform="scale(0.015625)"/>
       </defs>
       <use xlink:href="#DejaVuSans-36"/>
       <use x="63.623047" xlink:href="#DejaVuSans-30"/>
      </g>
     </g>
    </g>
    <g id="ytick_5">
     <g id="line2d_8">
      <g>
       <use style="stroke:#000000;stroke-width:0.8;" x="66.05" xlink:href="#maed219334e" y="59.964504"/>
      </g>
     </g>
     <g id="text_9">
      <!-- 80 -->
      <g transform="translate(41.235 65.28341)scale(0.14 -0.14)">
       <defs>
        <path d="M 2034 2216 
Q 1584 2216 1326 1975 
Q 1069 1734 1069 1313 
Q 1069 891 1326 650 
Q 1584 409 2034 409 
Q 2484 409 2743 651 
Q 3003 894 3003 1313 
Q 3003 1734 2745 1975 
Q 2488 2216 2034 2216 
z
M 1403 2484 
Q 997 2584 770 2862 
Q 544 3141 544 3541 
Q 544 4100 942 4425 
Q 1341 4750 2034 4750 
Q 2731 4750 3128 4425 
Q 3525 4100 3525 3541 
Q 3525 3141 3298 2862 
Q 3072 2584 2669 2484 
Q 3125 2378 3379 2068 
Q 3634 1759 3634 1313 
Q 3634 634 3220 271 
Q 2806 -91 2034 -91 
Q 1263 -91 848 271 
Q 434 634 434 1313 
Q 434 1759 690 2068 
Q 947 2378 1403 2484 
z
M 1172 3481 
Q 1172 3119 1398 2916 
Q 1625 2713 2034 2713 
Q 2441 2713 2670 2916 
Q 2900 3119 2900 3481 
Q 2900 3844 2670 4047 
Q 2441 4250 2034 4250 
Q 1625 4250 1398 4047 
Q 1172 3844 1172 3481 
z
" id="DejaVuSans-38" transform="scale(0.015625)"/>
       </defs>
       <use xlink:href="#DejaVuSans-38"/>
       <use x="63.623047" xlink:href="#DejaVuSans-30"/>
      </g>
     </g>
    </g>
    <g id="ytick_6">
     <g id="line2d_9">
      <g>
       <use style="stroke:#000000;stroke-width:0.8;" x="66.05" xlink:href="#maed219334e" y="16.325042"/>
      </g>
     </g>
     <g id="text_10">
      <!-- 100 -->
      <g transform="translate(32.3275 21.643948)scale(0.14 -0.14)">
       <use xlink:href="#DejaVuSans-31"/>
       <use x="63.623047" xlink:href="#DejaVuSans-30"/>
       <use x="127.246094" xlink:href="#DejaVuSans-30"/>
      </g>
     </g>
    </g>
    <g id="text_11">
     <!-- Mean Payoff -->
     <g transform="translate(24.584063 178.400605)rotate(-90)scale(0.18 -0.18)">
      <defs>
       <path d="M 628 4666 
L 1569 4666 
L 2759 1491 
L 3956 4666 
L 4897 4666 
L 4897 0 
L 4281 0 
L 4281 4097 
L 3078 897 
L 2444 897 
L 1241 4097 
L 1241 0 
L 628 0 
L 628 4666 
z
" id="DejaVuSans-4d" transform="scale(0.015625)"/>
       <path d="M 2194 1759 
Q 1497 1759 1228 1600 
Q 959 1441 959 1056 
Q 959 750 1161 570 
Q 1363 391 1709 391 
Q 2188 391 2477 730 
Q 2766 1069 2766 1631 
L 2766 1759 
L 2194 1759 
z
M 3341 1997 
L 3341 0 
L 2766 0 
L 2766 531 
Q 2569 213 2275 61 
Q 1981 -91 1556 -91 
Q 1019 -91 701 211 
Q 384 513 384 1019 
Q 384 1609 779 1909 
Q 1175 2209 1959 2209 
L 2766 2209 
L 2766 2266 
Q 2766 2663 2505 2880 
Q 2244 3097 1772 3097 
Q 1472 3097 1187 3025 
Q 903 2953 641 2809 
L 641 3341 
Q 956 3463 1253 3523 
Q 1550 3584 1831 3584 
Q 2591 3584 2966 3190 
Q 3341 2797 3341 1997 
z
" id="DejaVuSans-61" transform="scale(0.015625)"/>
       <path d="M 3513 2113 
L 3513 0 
L 2938 0 
L 2938 2094 
Q 2938 2591 2744 2837 
Q 2550 3084 2163 3084 
Q 1697 3084 1428 2787 
Q 1159 2491 1159 1978 
L 1159 0 
L 581 0 
L 581 3500 
L 1159 3500 
L 1159 2956 
Q 1366 3272 1645 3428 
Q 1925 3584 2291 3584 
Q 2894 3584 3203 3211 
Q 3513 2838 3513 2113 
z
" id="DejaVuSans-6e" transform="scale(0.015625)"/>
       <path id="DejaVuSans-20" transform="scale(0.015625)"/>
       <path d="M 1259 4147 
L 1259 2394 
L 2053 2394 
Q 2494 2394 2734 2622 
Q 2975 2850 2975 3272 
Q 2975 3691 2734 3919 
Q 2494 4147 2053 4147 
L 1259 4147 
z
M 628 4666 
L 2053 4666 
Q 2838 4666 3239 4311 
Q 3641 3956 3641 3272 
Q 3641 2581 3239 2228 
Q 2838 1875 2053 1875 
L 1259 1875 
L 1259 0 
L 628 0 
L 628 4666 
z
" id="DejaVuSans-50" transform="scale(0.015625)"/>
       <path d="M 2059 -325 
Q 1816 -950 1584 -1140 
Q 1353 -1331 966 -1331 
L 506 -1331 
L 506 -850 
L 844 -850 
Q 1081 -850 1212 -737 
Q 1344 -625 1503 -206 
L 1606 56 
L 191 3500 
L 800 3500 
L 1894 763 
L 2988 3500 
L 3597 3500 
L 2059 -325 
z
" id="DejaVuSans-79" transform="scale(0.015625)"/>
       <path d="M 1959 3097 
Q 1497 3097 1228 2736 
Q 959 2375 959 1747 
Q 959 1119 1226 758 
Q 1494 397 1959 397 
Q 2419 397 2687 759 
Q 2956 1122 2956 1747 
Q 2956 2369 2687 2733 
Q 2419 3097 1959 3097 
z
M 1959 3584 
Q 2709 3584 3137 3096 
Q 3566 2609 3566 1747 
Q 3566 888 3137 398 
Q 2709 -91 1959 -91 
Q 1206 -91 779 398 
Q 353 888 353 1747 
Q 353 2609 779 3096 
Q 1206 3584 1959 3584 
z
" id="DejaVuSans-6f" transform="scale(0.015625)"/>
       <path d="M 2375 4863 
L 2375 4384 
L 1825 4384 
Q 1516 4384 1395 4259 
Q 1275 4134 1275 3809 
L 1275 3500 
L 2222 3500 
L 2222 3053 
L 1275 3053 
L 1275 0 
L 697 0 
L 697 3053 
L 147 3053 
L 147 3500 
L 697 3500 
L 697 3744 
Q 697 4328 969 4595 
Q 1241 4863 1831 4863 
L 2375 4863 
z
" id="DejaVuSans-66" transform="scale(0.015625)"/>
      </defs>
      <use xlink:href="#DejaVuSans-4d"/>
      <use x="86.279297" xlink:href="#DejaVuSans-65"/>
      <use x="147.802734" xlink:href="#DejaVuSans-61"/>
      <use x="209.082031" xlink:href="#DejaVuSans-6e"/>
      <use x="272.460938" xlink:href="#DejaVuSans-20"/>
      <use x="304.248047" xlink:href="#DejaVuSans-50"/>
      <use x="360.050781" xlink:href="#DejaVuSans-61"/>
      <use x="421.330078" xlink:href="#DejaVuSans-79"/>
      <use x="480.509766" xlink:href="#DejaVuSans-6f"/>
      <use x="541.691406" xlink:href="#DejaVuSans-66"/>
      <use x="576.896484" xlink:href="#DejaVuSans-66"/>
     </g>
    </g>
   </g>
   <g id="line2d_10">
    <path clip-path="url(#pffdab59e3d)" d="M 75.455037 214.655094 
L 78.290726 184.684578 
L 80.181186 166.881531 
L 82.071646 150.970143 
L 83.962105 136.860306 
L 85.852565 124.349706 
L 87.743025 113.275714 
L 89.633484 103.495811 
L 91.523944 94.834754 
L 93.414404 87.087794 
L 95.304863 80.283635 
L 97.195323 74.307942 
L 99.085783 69.090256 
L 100.976242 64.560109 
L 102.866702 60.650601 
L 104.757162 57.276949 
L 106.647621 54.339312 
L 108.538081 51.739987 
L 110.428541 49.460819 
L 112.319 47.473409 
L 114.20946 45.753688 
L 117.04515 43.544542 
L 119.880839 41.691372 
L 122.716529 40.113666 
L 126.497448 38.319887 
L 130.278367 36.780973 
L 135.004516 35.181749 
L 140.675895 33.618562 
L 146.347274 32.40035 
L 152.018653 31.356526 
L 163.361412 29.619149 
L 173.75894 28.157424 
L 183.211238 27.126551 
L 197.389686 25.769193 
L 205.896754 25.146748 
L 220.075202 24.173512 
L 242.760718 22.985916 
L 263.555774 22.099701 
L 263.555774 22.099701 
" style="fill:none;stroke:#151d3b;stroke-linecap:square;stroke-width:3;"/>
   </g>
   <g id="line2d_11">
    <path clip-path="url(#pffdab59e3d)" d="M 75.455037 212.610033 
L 76.400267 202.450632 
L 77.345497 194.569247 
L 78.290726 187.760597 
L 80.181186 176.540185 
L 82.071646 167.080376 
L 83.962105 159.011231 
L 85.852565 152.575586 
L 86.797795 149.982928 
L 87.743025 147.752918 
L 88.688255 145.842764 
L 89.633484 144.231572 
L 90.578714 142.892703 
L 91.523944 141.775901 
L 92.469174 140.882407 
L 94.359634 139.583226 
L 96.250093 138.674112 
L 98.140553 138.045166 
L 100.031013 137.634051 
L 102.866702 137.260043 
L 106.647621 137.031718 
L 112.319 136.927895 
L 153.909113 136.917077 
L 263.555774 136.917077 
L 263.555774 136.917077 
" style="fill:none;stroke:#98042d;stroke-dasharray:4,3;stroke-dashoffset:0;stroke-width:2;"/>
   </g>
   <g id="line2d_12">
    <path clip-path="url(#pffdab59e3d)" d="M 75.455037 211.667912 
L 78.290726 173.712151 
L 80.181186 150.25092 
L 82.071646 129.77208 
L 83.962105 112.496736 
L 85.852565 98.171353 
L 87.743025 86.711804 
L 89.633484 77.668081 
L 90.578714 73.959726 
L 91.523944 70.771853 
L 92.469174 68.031532 
L 93.414404 65.740683 
L 94.359634 63.834298 
L 95.304863 62.193574 
L 96.250093 60.806296 
L 97.195323 59.636771 
L 99.085783 57.81483 
L 100.976242 56.535427 
L 102.866702 55.643697 
L 104.757162 55.041001 
L 106.647621 54.660118 
L 109.483311 54.314885 
L 113.26423 54.094648 
L 121.771299 53.974659 
L 155.799573 53.968322 
L 263.555774 53.968322 
L 263.555774 53.968322 
" style="fill:none;stroke:#ff0f39;stroke-dasharray:4,3;stroke-dashoffset:0;stroke-width:2;"/>
   </g>
   <g id="line2d_13">
    <path clip-path="url(#pffdab59e3d)" d="M 75.455037 211.586753 
L 77.345497 188.567704 
L 80.181186 157.198693 
L 82.071646 138.08139 
L 83.962105 120.971889 
L 85.852565 106.047764 
L 87.743025 93.552042 
L 89.633484 83.259395 
L 91.523944 75.100512 
L 92.469174 71.768525 
L 93.414404 68.861231 
L 94.359634 66.322068 
L 96.250093 62.167325 
L 98.140553 58.962374 
L 100.031013 56.598732 
L 101.921472 54.783039 
L 103.811932 53.415437 
L 105.702392 52.357353 
L 107.592851 51.531902 
L 109.483311 50.920136 
L 112.319 50.22413 
L 115.15469 49.767021 
L 119.880839 49.28598 
L 127.442678 48.788056 
L 140.675895 48.212832 
L 186.046928 47.125533 
L 228.58227 46.500301 
L 243.705947 46.319864 
L 263.555774 46.146486 
L 263.555774 46.146486 
" style="fill:none;stroke:#f16745;stroke-dasharray:4,3;stroke-dashoffset:0;stroke-width:2;"/>
   </g>
   <g id="line2d_14">
    <path clip-path="url(#pffdab59e3d)" d="M 75.455037 211.52892 
L 76.400267 199.682565 
L 78.290726 180.293745 
L 80.181186 163.927941 
L 82.071646 149.58732 
L 83.962105 136.671903 
L 85.852565 125.424471 
L 87.743025 115.576622 
L 89.633484 107.11669 
L 91.523944 99.870676 
L 93.414404 93.599183 
L 95.304863 88.036961 
L 97.195323 83.162093 
L 99.085783 78.746457 
L 100.976242 74.760424 
L 102.866702 71.270709 
L 104.757162 68.15561 
L 106.647621 65.383776 
L 108.538081 62.916978 
L 111.373771 59.60324 
L 114.20946 56.615875 
L 117.04515 53.950342 
L 120.826069 50.797036 
L 123.661758 48.781883 
L 128.387908 45.842808 
L 133.114057 43.137966 
L 135.949746 41.68266 
L 139.730666 39.990006 
L 144.456815 38.183605 
L 150.128194 36.303707 
L 154.854343 34.916163 
L 163.361412 32.780097 
L 174.70417 30.325047 
L 181.320778 29.145746 
L 193.608766 27.368305 
L 203.061065 26.207261 
L 214.403823 25.08199 
L 226.69181 24.067595 
L 254.103476 22.31527 
L 263.555774 21.77509 
L 263.555774 21.77509 
" style="fill:none;stroke:#ffc65d;stroke-dasharray:4,3;stroke-dashoffset:0;stroke-width:2;"/>
   </g>
   <g id="line2d_15">
    <path clip-path="url(#pffdab59e3d)" d="M 75.455037 224.846433 
L 225.746581 224.784625 
L 263.555774 224.782852 
L 263.555774 224.782852 
" style="fill:none;stroke:#3a6351;stroke-dasharray:4,3;stroke-dashoffset:0;stroke-width:2;"/>
   </g>
   <g id="line2d_16">
    <path clip-path="url(#pffdab59e3d)" d="M 75.455037 220.848278 
L 77.345497 213.453069 
L 79.235956 207.096187 
L 81.126416 201.575613 
L 83.016876 196.772534 
L 84.907335 192.538959 
L 86.797795 188.747943 
L 88.688255 185.33279 
L 90.578714 182.227083 
L 93.414404 178.016661 
L 96.250093 174.241454 
L 100.031013 169.730182 
L 103.811932 165.620293 
L 107.592851 161.880744 
L 113.26423 156.745662 
L 117.990379 152.742564 
L 122.716529 149.120068 
L 126.497448 146.528241 
L 131.223597 143.592001 
L 135.004516 141.532163 
L 138.785436 139.686552 
L 142.566355 138.038445 
L 147.292504 136.275056 
L 152.018653 134.71317 
L 156.744803 133.325989 
L 163.361412 131.646918 
L 170.92325 130.024926 
L 178.485089 128.635653 
L 189.827847 126.862766 
L 197.389686 125.903411 
L 210.622903 124.496041 
L 220.075202 123.673107 
L 233.308419 122.730102 
L 254.103476 121.552223 
L 263.555774 121.122753 
L 263.555774 121.122753 
" style="fill:none;stroke:#019267;stroke-dasharray:4,3;stroke-dashoffset:0;stroke-width:2;"/>
   </g>
   <g id="line2d_17">
    <path clip-path="url(#pffdab59e3d)" d="M 75.455037 221.775313 
L 77.345497 216.592161 
L 79.235956 212.049695 
L 81.126416 208.005422 
L 83.016876 204.368566 
L 85.852565 199.50906 
L 88.688255 195.193804 
L 91.523944 191.338708 
L 94.359634 187.797141 
L 98.140553 183.498074 
L 101.921472 179.572794 
L 106.647621 175.054757 
L 113.26423 169.229208 
L 118.935609 164.515007 
L 127.442678 157.760094 
L 135.004516 152.278363 
L 142.566355 147.213851 
L 147.292504 144.23059 
L 154.854343 139.761355 
L 159.580492 137.197778 
L 167.142331 133.392829 
L 171.86848 131.238743 
L 182.266008 126.851087 
L 189.827847 123.89084 
L 197.389686 121.16527 
L 204.006294 119.002931 
L 219.129972 114.38132 
L 232.363189 110.829454 
L 241.815488 108.598025 
L 256.939165 105.275798 
L 263.555774 103.984776 
L 263.555774 103.984776 
" style="fill:none;stroke:#00c897;stroke-dasharray:4,3;stroke-dashoffset:0;stroke-width:2;"/>
   </g>
   <g id="line2d_18">
    <path clip-path="url(#pffdab59e3d)" d="M 75.455037 219.218141 
L 76.400267 215.297502 
L 77.345497 212.180332 
L 78.290726 209.591762 
L 80.181186 205.370229 
L 82.071646 201.974907 
L 83.962105 199.130401 
L 85.852565 196.667223 
L 87.743025 194.463187 
L 90.578714 191.573665 
L 93.414404 189.030784 
L 96.250093 186.756501 
L 100.031013 184.047928 
L 104.757162 181.024315 
L 109.483311 178.28421 
L 115.15469 175.308325 
L 122.716529 171.653507 
L 129.333137 168.766126 
L 135.949746 166.098227 
L 146.347274 162.218617 
L 156.744803 158.782486 
L 172.81371 153.895955 
L 178.485089 152.308332 
L 196.444456 147.679148 
L 218.184742 142.625269 
L 239.925028 138.109083 
L 261.665314 133.838471 
L 263.555774 133.495236 
L 263.555774 133.495236 
" style="fill:none;stroke:#85c88a;stroke-dasharray:4,3;stroke-dashoffset:0;stroke-width:2;"/>
   </g>
   <g id="line2d_19">
    <path clip-path="url(#pffdab59e3d)" d="M 75.455037 220.828849 
L 77.345497 213.427987 
L 79.235956 207.068007 
L 81.126416 201.585789 
L 83.016876 196.828842 
L 84.907335 192.647138 
L 86.797795 188.956943 
L 88.688255 185.671395 
L 90.578714 182.738657 
L 92.469174 180.099421 
L 95.304863 176.604071 
L 98.140553 173.595474 
L 100.976242 170.986986 
L 103.811932 168.723427 
L 106.647621 166.737106 
L 109.483311 165.016318 
L 112.319 163.507565 
L 115.15469 162.176024 
L 118.935609 160.659238 
L 122.716529 159.37022 
L 127.442678 158.061793 
L 133.114057 156.828063 
L 138.785436 155.862294 
L 144.456815 155.130225 
L 152.018653 154.408515 
L 160.525722 153.852085 
L 171.86848 153.391208 
L 185.101698 153.088837 
L 204.951524 152.88581 
L 238.034568 152.789285 
L 263.555774 152.774864 
L 263.555774 152.774864 
" style="fill:none;stroke:#495371;stroke-dasharray:4,3;stroke-dashoffset:0;stroke-width:2;"/>
   </g>
   <g id="line2d_20">
    <path clip-path="url(#pffdab59e3d)" d="M 75.455037 221.764417 
L 77.345497 216.569871 
L 79.235956 212.035027 
L 81.126416 208.006833 
L 83.016876 204.378396 
L 84.907335 201.088938 
L 87.743025 196.666669 
L 90.578714 192.753404 
L 93.414404 189.269544 
L 96.250093 186.077654 
L 99.085783 183.17981 
L 101.921472 180.548563 
L 105.702392 177.34171 
L 109.483311 174.452679 
L 113.26423 171.835686 
L 117.990379 168.859237 
L 122.716529 166.202191 
L 128.387908 163.346346 
L 134.059287 160.798704 
L 139.730666 158.524187 
L 146.347274 156.159069 
L 152.963883 154.039965 
L 159.580492 152.164112 
L 167.142331 150.228938 
L 175.649399 148.30106 
L 183.211238 146.769586 
L 192.663536 145.060876 
L 202.115835 143.537724 
L 213.458593 141.927652 
L 229.5275 139.950934 
L 243.705947 138.441301 
L 258.829625 137.046058 
L 263.555774 136.638565 
L 263.555774 136.638565 
" style="fill:none;stroke:#488fb1;stroke-dasharray:4,3;stroke-dashoffset:0;stroke-width:2;"/>
   </g>
   <g id="line2d_21">
    <path clip-path="url(#pffdab59e3d)" d="M 75.455037 219.228291 
L 76.400267 215.316153 
L 77.345497 212.203211 
L 78.290726 209.608873 
L 80.181186 205.381068 
L 82.071646 201.994679 
L 83.962105 199.159334 
L 85.852565 196.733766 
L 88.688255 193.579276 
L 91.523944 190.871575 
L 94.359634 188.480689 
L 98.140553 185.711376 
L 100.976242 183.852893 
L 104.757162 181.611501 
L 109.483311 179.118305 
L 114.20946 176.877316 
L 119.880839 174.480975 
L 126.497448 171.986243 
L 133.114057 169.744307 
L 139.730666 167.708011 
L 147.292504 165.579564 
L 153.909113 163.882618 
L 163.361412 161.667762 
L 173.75894 159.445269 
L 183.211238 157.602715 
L 193.608766 155.721593 
L 211.568133 152.787979 
L 230.47273 150.060615 
L 244.651177 148.182042 
L 261.665314 146.126993 
L 263.555774 145.909975 
L 263.555774 145.909975 
" style="fill:none;stroke:#2fa4ff;stroke-dasharray:4,3;stroke-dashoffset:0;stroke-width:2;"/>
   </g>
   <g id="line2d_22">
    <path clip-path="url(#pffdab59e3d)" d="M 75.455037 219.511709 
L 77.345497 208.406028 
L 78.290726 203.652771 
L 80.181186 195.812104 
L 82.071646 189.311707 
L 83.962105 183.609833 
L 85.852565 178.574901 
L 88.688255 171.791926 
L 91.523944 165.735589 
L 94.359634 160.384309 
L 96.250093 157.237003 
L 98.140553 154.403034 
L 100.031013 151.882289 
L 101.921472 149.656216 
L 103.811932 147.720939 
L 105.702392 146.040052 
L 107.592851 144.607936 
L 109.483311 143.379368 
L 111.373771 142.348815 
L 114.20946 141.106964 
L 117.04515 140.151892 
L 120.826069 139.205722 
L 123.661758 138.671583 
L 128.387908 138.037455 
L 133.114057 137.613652 
L 139.730666 137.258902 
L 148.237734 137.04427 
L 162.416182 136.943588 
L 208.732444 136.917077 
L 263.555774 136.917077 
L 263.555774 136.917077 
" style="fill:none;stroke:#8267be;stroke-dasharray:4,3;stroke-dashoffset:0;stroke-width:2;"/>
   </g>
   <g id="line2d_23"/>
   <g id="patch_3">
    <path d="M 66.05 235 
L 66.05 11.621523 
" style="fill:none;stroke:#000000;stroke-linecap:square;stroke-linejoin:miter;stroke-width:0.8;"/>
   </g>
   <g id="patch_4">
    <path d="M 272.960811 235 
L 272.960811 11.621523 
" style="fill:none;stroke:#000000;stroke-linecap:square;stroke-linejoin:miter;stroke-width:0.8;"/>
   </g>
   <g id="patch_5">
    <path d="M 66.05 235 
L 272.960811 235 
" style="fill:none;stroke:#000000;stroke-linecap:square;stroke-linejoin:miter;stroke-width:0.8;"/>
   </g>
   <g id="patch_6">
    <path d="M 66.05 11.621523 
L 272.960811 11.621523 
" style="fill:none;stroke:#000000;stroke-linecap:square;stroke-linejoin:miter;stroke-width:0.8;"/>
   </g>
   <g id="legend_1">
    <g id="patch_7">
     <path d="M 151.614324 212.662152 
L 263.065262 212.662152 
Q 265.865262 212.662152 265.865262 209.862152 
L 265.865262 170.163402 
Q 265.865262 167.363402 263.065262 167.363402 
L 151.614324 167.363402 
Q 148.814324 167.363402 148.814324 170.163402 
L 148.814324 209.862152 
Q 148.814324 212.662152 151.614324 212.662152 
z
" style="fill:#ffffff;opacity:0.8;stroke:#cccccc;stroke-linejoin:miter;"/>
    </g>
    <g id="line2d_24">
     <path d="M 154.414324 178.701215 
L 182.414324 178.701215 
" style="fill:none;stroke:#151d3b;stroke-linecap:square;stroke-width:3;"/>
    </g>
    <g id="line2d_25"/>
    <g id="text_12">
     <!-- RL -->
     <g transform="translate(193.614324 183.601215)scale(0.14 -0.14)">
      <defs>
       <path d="M 2841 2188 
Q 3044 2119 3236 1894 
Q 3428 1669 3622 1275 
L 4263 0 
L 3584 0 
L 2988 1197 
Q 2756 1666 2539 1819 
Q 2322 1972 1947 1972 
L 1259 1972 
L 1259 0 
L 628 0 
L 628 4666 
L 2053 4666 
Q 2853 4666 3247 4331 
Q 3641 3997 3641 3322 
Q 3641 2881 3436 2590 
Q 3231 2300 2841 2188 
z
M 1259 4147 
L 1259 2491 
L 2053 2491 
Q 2509 2491 2742 2702 
Q 2975 2913 2975 3322 
Q 2975 3731 2742 3939 
Q 2509 4147 2053 4147 
L 1259 4147 
z
" id="DejaVuSans-52" transform="scale(0.015625)"/>
       <path d="M 628 4666 
L 1259 4666 
L 1259 531 
L 3531 531 
L 3531 0 
L 628 0 
L 628 4666 
z
" id="DejaVuSans-4c" transform="scale(0.015625)"/>
      </defs>
      <use xlink:href="#DejaVuSans-52"/>
      <use x="69.482422" xlink:href="#DejaVuSans-4c"/>
     </g>
    </g>
    <g id="line2d_26">
     <path d="M 154.414324 199.25059 
L 182.414324 199.25059 
" style="fill:none;stroke:#747474;stroke-dasharray:5,3.75;stroke-dashoffset:0;stroke-width:2.5;"/>
    </g>
    <g id="line2d_27"/>
    <g id="text_13">
     <!-- Baselines -->
     <g transform="translate(193.614324 204.15059)scale(0.14 -0.14)">
      <defs>
       <path d="M 1259 2228 
L 1259 519 
L 2272 519 
Q 2781 519 3026 730 
Q 3272 941 3272 1375 
Q 3272 1813 3026 2020 
Q 2781 2228 2272 2228 
L 1259 2228 
z
M 1259 4147 
L 1259 2741 
L 2194 2741 
Q 2656 2741 2882 2914 
Q 3109 3088 3109 3444 
Q 3109 3797 2882 3972 
Q 2656 4147 2194 4147 
L 1259 4147 
z
M 628 4666 
L 2241 4666 
Q 2963 4666 3353 4366 
Q 3744 4066 3744 3513 
Q 3744 3084 3544 2831 
Q 3344 2578 2956 2516 
Q 3422 2416 3680 2098 
Q 3938 1781 3938 1306 
Q 3938 681 3513 340 
Q 3088 0 2303 0 
L 628 0 
L 628 4666 
z
" id="DejaVuSans-42" transform="scale(0.015625)"/>
       <path d="M 2834 3397 
L 2834 2853 
Q 2591 2978 2328 3040 
Q 2066 3103 1784 3103 
Q 1356 3103 1142 2972 
Q 928 2841 928 2578 
Q 928 2378 1081 2264 
Q 1234 2150 1697 2047 
L 1894 2003 
Q 2506 1872 2764 1633 
Q 3022 1394 3022 966 
Q 3022 478 2636 193 
Q 2250 -91 1575 -91 
Q 1294 -91 989 -36 
Q 684 19 347 128 
L 347 722 
Q 666 556 975 473 
Q 1284 391 1588 391 
Q 1994 391 2212 530 
Q 2431 669 2431 922 
Q 2431 1156 2273 1281 
Q 2116 1406 1581 1522 
L 1381 1569 
Q 847 1681 609 1914 
Q 372 2147 372 2553 
Q 372 3047 722 3315 
Q 1072 3584 1716 3584 
Q 2034 3584 2315 3537 
Q 2597 3491 2834 3397 
z
" id="DejaVuSans-73" transform="scale(0.015625)"/>
       <path d="M 603 4863 
L 1178 4863 
L 1178 0 
L 603 0 
L 603 4863 
z
" id="DejaVuSans-6c" transform="scale(0.015625)"/>
      </defs>
      <use xlink:href="#DejaVuSans-42"/>
      <use x="68.603516" xlink:href="#DejaVuSans-61"/>
      <use x="129.882812" xlink:href="#DejaVuSans-73"/>
      <use x="181.982422" xlink:href="#DejaVuSans-65"/>
      <use x="243.505859" xlink:href="#DejaVuSans-6c"/>
      <use x="271.289062" xlink:href="#DejaVuSans-69"/>
      <use x="299.072266" xlink:href="#DejaVuSans-6e"/>
      <use x="362.451172" xlink:href="#DejaVuSans-65"/>
      <use x="423.974609" xlink:href="#DejaVuSans-73"/>
     </g>
    </g>
   </g>
  </g>
 </g>
 <defs>
  <clipPath id="pffdab59e3d">
   <rect height="223.378477" width="206.910811" x="66.05" y="11.621523"/>
  </clipPath>
 </defs>
</svg>
