<?xml version="1.0" encoding="utf-8" standalone="no"?>
<!DOCTYPE svg PUBLIC "-//W3C//DTD SVG 1.1//EN"
  "http://www.w3.org/Graphics/SVG/1.1/DTD/svg11.dtd">
<svg height="288pt" version="1.1" viewBox="0 0 288 288" width="288pt" xmlns="http://www.w3.org/2000/svg" xmlns:xlink="http://www.w3.org/1999/xlink">
 <metadata>
  <rdf:RDF xmlns:cc="http://creativecommons.org/ns#" xmlns:dc="http://purl.org/dc/elements/1.1/" xmlns:rdf="http://www.w3.org/1999/02/22-rdf-syntax-ns#">
   <cc:Work>
    <dc:type rdf:resource="http://purl.org/dc/dcmitype/StillImage"/>
    <dc:date>2022-04-20T13:00:35.907397</dc:date>
    <dc:format>image/svg+xml</dc:format>
    <dc:creator>
     <cc:Agent>
      <dc:title>Matplotlib v3.4.1, https://matplotlib.org/</dc:title>
     </cc:Agent>
    </dc:creator>
   </cc:Work>
  </rdf:RDF>
 </metadata>
 <defs>
  <style type="text/css">*{stroke-linecap:butt;stroke-linejoin:round;}</style>
 </defs>
 <g id="figure_1">
  <g id="patch_1">
   <path d="M 0 288 
L 288 288 
L 288 0 
L 0 0 
z
" style="fill:none;"/>
  </g>
  <g id="axes_1">
   <g id="patch_2">
    <path d="M 57.14 235 
L 272.960811 235 
L 272.960811 10.8 
L 57.14 10.8 
z
" style="fill:none;"/>
   </g>
   <g id="matplotlib.axis_1">
    <g id="xtick_1">
     <g id="line2d_1">
      <defs>
       <path d="M 0 0 
L 0 3.5 
" id="m7067fda174" style="stroke:#000000;stroke-width:0.8;"/>
      </defs>
      <g>
       <use style="stroke:#000000;stroke-width:0.8;" x="66.950037" xlink:href="#m7067fda174" y="235"/>
      </g>
     </g>
     <g id="text_1">
      <!-- 0 -->
      <g transform="translate(62.496287 252.637812)scale(0.14 -0.14)">
       <defs>
        <path d="M 2034 4250 
Q 1547 4250 1301 3770 
Q 1056 3291 1056 2328 
Q 1056 1369 1301 889 
Q 1547 409 2034 409 
Q 2525 409 2770 889 
Q 3016 1369 3016 2328 
Q 3016 3291 2770 3770 
Q 2525 4250 2034 4250 
z
M 2034 4750 
Q 2819 4750 3233 4129 
Q 3647 3509 3647 2328 
Q 3647 1150 3233 529 
Q 2819 -91 2034 -91 
Q 1250 -91 836 529 
Q 422 1150 422 2328 
Q 422 3509 836 4129 
Q 1250 4750 2034 4750 
z
" id="DejaVuSans-30" transform="scale(0.015625)"/>
       </defs>
       <use xlink:href="#DejaVuSans-30"/>
      </g>
     </g>
    </g>
    <g id="xtick_2">
     <g id="line2d_2">
      <g>
       <use style="stroke:#000000;stroke-width:0.8;" x="116.246704" xlink:href="#m7067fda174" y="235"/>
      </g>
     </g>
     <g id="text_2">
      <!-- 50 -->
      <g transform="translate(107.339204 252.637812)scale(0.14 -0.14)">
       <defs>
        <path d="M 691 4666 
L 3169 4666 
L 3169 4134 
L 1269 4134 
L 1269 2991 
Q 1406 3038 1543 3061 
Q 1681 3084 1819 3084 
Q 2600 3084 3056 2656 
Q 3513 2228 3513 1497 
Q 3513 744 3044 326 
Q 2575 -91 1722 -91 
Q 1428 -91 1123 -41 
Q 819 9 494 109 
L 494 744 
Q 775 591 1075 516 
Q 1375 441 1709 441 
Q 2250 441 2565 725 
Q 2881 1009 2881 1497 
Q 2881 1984 2565 2268 
Q 2250 2553 1709 2553 
Q 1456 2553 1204 2497 
Q 953 2441 691 2322 
L 691 4666 
z
" id="DejaVuSans-35" transform="scale(0.015625)"/>
       </defs>
       <use xlink:href="#DejaVuSans-35"/>
       <use x="63.623047" xlink:href="#DejaVuSans-30"/>
      </g>
     </g>
    </g>
    <g id="xtick_3">
     <g id="line2d_3">
      <g>
       <use style="stroke:#000000;stroke-width:0.8;" x="165.543372" xlink:href="#m7067fda174" y="235"/>
      </g>
     </g>
     <g id="text_3">
      <!-- 100 -->
      <g transform="translate(152.182122 252.637812)scale(0.14 -0.14)">
       <defs>
        <path d="M 794 531 
L 1825 531 
L 1825 4091 
L 703 3866 
L 703 4441 
L 1819 4666 
L 2450 4666 
L 2450 531 
L 3481 531 
L 3481 0 
L 794 0 
L 794 531 
z
" id="DejaVuSans-31" transform="scale(0.015625)"/>
       </defs>
       <use xlink:href="#DejaVuSans-31"/>
       <use x="63.623047" xlink:href="#DejaVuSans-30"/>
       <use x="127.246094" xlink:href="#DejaVuSans-30"/>
      </g>
     </g>
    </g>
    <g id="xtick_4">
     <g id="line2d_4">
      <g>
       <use style="stroke:#000000;stroke-width:0.8;" x="214.84004" xlink:href="#m7067fda174" y="235"/>
      </g>
     </g>
     <g id="text_4">
      <!-- 150 -->
      <g transform="translate(201.47879 252.637812)scale(0.14 -0.14)">
       <use xlink:href="#DejaVuSans-31"/>
       <use x="63.623047" xlink:href="#DejaVuSans-35"/>
       <use x="127.246094" xlink:href="#DejaVuSans-30"/>
      </g>
     </g>
    </g>
    <g id="xtick_5">
     <g id="line2d_5">
      <g>
       <use style="stroke:#000000;stroke-width:0.8;" x="264.136707" xlink:href="#m7067fda174" y="235"/>
      </g>
     </g>
     <g id="text_5">
      <!-- 200 -->
      <g transform="translate(250.775457 252.637812)scale(0.14 -0.14)">
       <defs>
        <path d="M 1228 531 
L 3431 531 
L 3431 0 
L 469 0 
L 469 531 
Q 828 903 1448 1529 
Q 2069 2156 2228 2338 
Q 2531 2678 2651 2914 
Q 2772 3150 2772 3378 
Q 2772 3750 2511 3984 
Q 2250 4219 1831 4219 
Q 1534 4219 1204 4116 
Q 875 4013 500 3803 
L 500 4441 
Q 881 4594 1212 4672 
Q 1544 4750 1819 4750 
Q 2544 4750 2975 4387 
Q 3406 4025 3406 3419 
Q 3406 3131 3298 2873 
Q 3191 2616 2906 2266 
Q 2828 2175 2409 1742 
Q 1991 1309 1228 531 
z
" id="DejaVuSans-32" transform="scale(0.015625)"/>
       </defs>
       <use xlink:href="#DejaVuSans-32"/>
       <use x="63.623047" xlink:href="#DejaVuSans-30"/>
       <use x="127.246094" xlink:href="#DejaVuSans-30"/>
      </g>
     </g>
    </g>
    <g id="text_6">
     <!-- Time -->
     <g transform="translate(143.029937 273.226562)scale(0.18 -0.18)">
      <defs>
       <path d="M -19 4666 
L 3928 4666 
L 3928 4134 
L 2272 4134 
L 2272 0 
L 1638 0 
L 1638 4134 
L -19 4134 
L -19 4666 
z
" id="DejaVuSans-54" transform="scale(0.015625)"/>
       <path d="M 603 3500 
L 1178 3500 
L 1178 0 
L 603 0 
L 603 3500 
z
M 603 4863 
L 1178 4863 
L 1178 4134 
L 603 4134 
L 603 4863 
z
" id="DejaVuSans-69" transform="scale(0.015625)"/>
       <path d="M 3328 2828 
Q 3544 3216 3844 3400 
Q 4144 3584 4550 3584 
Q 5097 3584 5394 3201 
Q 5691 2819 5691 2113 
L 5691 0 
L 5113 0 
L 5113 2094 
Q 5113 2597 4934 2840 
Q 4756 3084 4391 3084 
Q 3944 3084 3684 2787 
Q 3425 2491 3425 1978 
L 3425 0 
L 2847 0 
L 2847 2094 
Q 2847 2600 2669 2842 
Q 2491 3084 2119 3084 
Q 1678 3084 1418 2786 
Q 1159 2488 1159 1978 
L 1159 0 
L 581 0 
L 581 3500 
L 1159 3500 
L 1159 2956 
Q 1356 3278 1631 3431 
Q 1906 3584 2284 3584 
Q 2666 3584 2933 3390 
Q 3200 3197 3328 2828 
z
" id="DejaVuSans-6d" transform="scale(0.015625)"/>
       <path d="M 3597 1894 
L 3597 1613 
L 953 1613 
Q 991 1019 1311 708 
Q 1631 397 2203 397 
Q 2534 397 2845 478 
Q 3156 559 3463 722 
L 3463 178 
Q 3153 47 2828 -22 
Q 2503 -91 2169 -91 
Q 1331 -91 842 396 
Q 353 884 353 1716 
Q 353 2575 817 3079 
Q 1281 3584 2069 3584 
Q 2775 3584 3186 3129 
Q 3597 2675 3597 1894 
z
M 3022 2063 
Q 3016 2534 2758 2815 
Q 2500 3097 2075 3097 
Q 1594 3097 1305 2825 
Q 1016 2553 972 2059 
L 3022 2063 
z
" id="DejaVuSans-65" transform="scale(0.015625)"/>
      </defs>
      <use xlink:href="#DejaVuSans-54"/>
      <use x="57.958984" xlink:href="#DejaVuSans-69"/>
      <use x="85.742188" xlink:href="#DejaVuSans-6d"/>
      <use x="183.154297" xlink:href="#DejaVuSans-65"/>
     </g>
    </g>
   </g>
   <g id="matplotlib.axis_2">
    <g id="ytick_1">
     <g id="line2d_6">
      <defs>
       <path d="M 0 0 
L -3.5 0 
" id="m00379dec89" style="stroke:#000000;stroke-width:0.8;"/>
      </defs>
      <g>
       <use style="stroke:#000000;stroke-width:0.8;" x="57.14" xlink:href="#m00379dec89" y="234.950787"/>
      </g>
     </g>
     <g id="text_7">
      <!-- 0 -->
      <g transform="translate(41.2325 240.269693)scale(0.14 -0.14)">
       <use xlink:href="#DejaVuSans-30"/>
      </g>
     </g>
    </g>
    <g id="ytick_2">
     <g id="line2d_7">
      <g>
       <use style="stroke:#000000;stroke-width:0.8;" x="57.14" xlink:href="#m00379dec89" y="186.443847"/>
      </g>
     </g>
     <g id="text_8">
      <!-- 20 -->
      <g transform="translate(32.325 191.762753)scale(0.14 -0.14)">
       <use xlink:href="#DejaVuSans-32"/>
       <use x="63.623047" xlink:href="#DejaVuSans-30"/>
      </g>
     </g>
    </g>
    <g id="ytick_3">
     <g id="line2d_8">
      <g>
       <use style="stroke:#000000;stroke-width:0.8;" x="57.14" xlink:href="#m00379dec89" y="137.936907"/>
      </g>
     </g>
     <g id="text_9">
      <!-- 40 -->
      <g transform="translate(32.325 143.255813)scale(0.14 -0.14)">
       <defs>
        <path d="M 2419 4116 
L 825 1625 
L 2419 1625 
L 2419 4116 
z
M 2253 4666 
L 3047 4666 
L 3047 1625 
L 3713 1625 
L 3713 1100 
L 3047 1100 
L 3047 0 
L 2419 0 
L 2419 1100 
L 313 1100 
L 313 1709 
L 2253 4666 
z
" id="DejaVuSans-34" transform="scale(0.015625)"/>
       </defs>
       <use xlink:href="#DejaVuSans-34"/>
       <use x="63.623047" xlink:href="#DejaVuSans-30"/>
      </g>
     </g>
    </g>
    <g id="ytick_4">
     <g id="line2d_9">
      <g>
       <use style="stroke:#000000;stroke-width:0.8;" x="57.14" xlink:href="#m00379dec89" y="89.429967"/>
      </g>
     </g>
     <g id="text_10">
      <!-- 60 -->
      <g transform="translate(32.325 94.748873)scale(0.14 -0.14)">
       <defs>
        <path d="M 2113 2584 
Q 1688 2584 1439 2293 
Q 1191 2003 1191 1497 
Q 1191 994 1439 701 
Q 1688 409 2113 409 
Q 2538 409 2786 701 
Q 3034 994 3034 1497 
Q 3034 2003 2786 2293 
Q 2538 2584 2113 2584 
z
M 3366 4563 
L 3366 3988 
Q 3128 4100 2886 4159 
Q 2644 4219 2406 4219 
Q 1781 4219 1451 3797 
Q 1122 3375 1075 2522 
Q 1259 2794 1537 2939 
Q 1816 3084 2150 3084 
Q 2853 3084 3261 2657 
Q 3669 2231 3669 1497 
Q 3669 778 3244 343 
Q 2819 -91 2113 -91 
Q 1303 -91 875 529 
Q 447 1150 447 2328 
Q 447 3434 972 4092 
Q 1497 4750 2381 4750 
Q 2619 4750 2861 4703 
Q 3103 4656 3366 4563 
z
" id="DejaVuSans-36" transform="scale(0.015625)"/>
       </defs>
       <use xlink:href="#DejaVuSans-36"/>
       <use x="63.623047" xlink:href="#DejaVuSans-30"/>
      </g>
     </g>
    </g>
    <g id="ytick_5">
     <g id="line2d_10">
      <g>
       <use style="stroke:#000000;stroke-width:0.8;" x="57.14" xlink:href="#m00379dec89" y="40.923027"/>
      </g>
     </g>
     <g id="text_11">
      <!-- 80 -->
      <g transform="translate(32.325 46.241933)scale(0.14 -0.14)">
       <defs>
        <path d="M 2034 2216 
Q 1584 2216 1326 1975 
Q 1069 1734 1069 1313 
Q 1069 891 1326 650 
Q 1584 409 2034 409 
Q 2484 409 2743 651 
Q 3003 894 3003 1313 
Q 3003 1734 2745 1975 
Q 2488 2216 2034 2216 
z
M 1403 2484 
Q 997 2584 770 2862 
Q 544 3141 544 3541 
Q 544 4100 942 4425 
Q 1341 4750 2034 4750 
Q 2731 4750 3128 4425 
Q 3525 4100 3525 3541 
Q 3525 3141 3298 2862 
Q 3072 2584 2669 2484 
Q 3125 2378 3379 2068 
Q 3634 1759 3634 1313 
Q 3634 634 3220 271 
Q 2806 -91 2034 -91 
Q 1263 -91 848 271 
Q 434 634 434 1313 
Q 434 1759 690 2068 
Q 947 2378 1403 2484 
z
M 1172 3481 
Q 1172 3119 1398 2916 
Q 1625 2713 2034 2713 
Q 2441 2713 2670 2916 
Q 2900 3119 2900 3481 
Q 2900 3844 2670 4047 
Q 2441 4250 2034 4250 
Q 1625 4250 1398 4047 
Q 1172 3844 1172 3481 
z
" id="DejaVuSans-38" transform="scale(0.015625)"/>
       </defs>
       <use xlink:href="#DejaVuSans-38"/>
       <use x="63.623047" xlink:href="#DejaVuSans-30"/>
      </g>
     </g>
    </g>
    <g id="text_12">
     <!-- Mean Payoff -->
     <g transform="translate(24.581563 177.989844)rotate(-90)scale(0.18 -0.18)">
      <defs>
       <path d="M 628 4666 
L 1569 4666 
L 2759 1491 
L 3956 4666 
L 4897 4666 
L 4897 0 
L 4281 0 
L 4281 4097 
L 3078 897 
L 2444 897 
L 1241 4097 
L 1241 0 
L 628 0 
L 628 4666 
z
" id="DejaVuSans-4d" transform="scale(0.015625)"/>
       <path d="M 2194 1759 
Q 1497 1759 1228 1600 
Q 959 1441 959 1056 
Q 959 750 1161 570 
Q 1363 391 1709 391 
Q 2188 391 2477 730 
Q 2766 1069 2766 1631 
L 2766 1759 
L 2194 1759 
z
M 3341 1997 
L 3341 0 
L 2766 0 
L 2766 531 
Q 2569 213 2275 61 
Q 1981 -91 1556 -91 
Q 1019 -91 701 211 
Q 384 513 384 1019 
Q 384 1609 779 1909 
Q 1175 2209 1959 2209 
L 2766 2209 
L 2766 2266 
Q 2766 2663 2505 2880 
Q 2244 3097 1772 3097 
Q 1472 3097 1187 3025 
Q 903 2953 641 2809 
L 641 3341 
Q 956 3463 1253 3523 
Q 1550 3584 1831 3584 
Q 2591 3584 2966 3190 
Q 3341 2797 3341 1997 
z
" id="DejaVuSans-61" transform="scale(0.015625)"/>
       <path d="M 3513 2113 
L 3513 0 
L 2938 0 
L 2938 2094 
Q 2938 2591 2744 2837 
Q 2550 3084 2163 3084 
Q 1697 3084 1428 2787 
Q 1159 2491 1159 1978 
L 1159 0 
L 581 0 
L 581 3500 
L 1159 3500 
L 1159 2956 
Q 1366 3272 1645 3428 
Q 1925 3584 2291 3584 
Q 2894 3584 3203 3211 
Q 3513 2838 3513 2113 
z
" id="DejaVuSans-6e" transform="scale(0.015625)"/>
       <path id="DejaVuSans-20" transform="scale(0.015625)"/>
       <path d="M 1259 4147 
L 1259 2394 
L 2053 2394 
Q 2494 2394 2734 2622 
Q 2975 2850 2975 3272 
Q 2975 3691 2734 3919 
Q 2494 4147 2053 4147 
L 1259 4147 
z
M 628 4666 
L 2053 4666 
Q 2838 4666 3239 4311 
Q 3641 3956 3641 3272 
Q 3641 2581 3239 2228 
Q 2838 1875 2053 1875 
L 1259 1875 
L 1259 0 
L 628 0 
L 628 4666 
z
" id="DejaVuSans-50" transform="scale(0.015625)"/>
       <path d="M 2059 -325 
Q 1816 -950 1584 -1140 
Q 1353 -1331 966 -1331 
L 506 -1331 
L 506 -850 
L 844 -850 
Q 1081 -850 1212 -737 
Q 1344 -625 1503 -206 
L 1606 56 
L 191 3500 
L 800 3500 
L 1894 763 
L 2988 3500 
L 3597 3500 
L 2059 -325 
z
" id="DejaVuSans-79" transform="scale(0.015625)"/>
       <path d="M 1959 3097 
Q 1497 3097 1228 2736 
Q 959 2375 959 1747 
Q 959 1119 1226 758 
Q 1494 397 1959 397 
Q 2419 397 2687 759 
Q 2956 1122 2956 1747 
Q 2956 2369 2687 2733 
Q 2419 3097 1959 3097 
z
M 1959 3584 
Q 2709 3584 3137 3096 
Q 3566 2609 3566 1747 
Q 3566 888 3137 398 
Q 2709 -91 1959 -91 
Q 1206 -91 779 398 
Q 353 888 353 1747 
Q 353 2609 779 3096 
Q 1206 3584 1959 3584 
z
" id="DejaVuSans-6f" transform="scale(0.015625)"/>
       <path d="M 2375 4863 
L 2375 4384 
L 1825 4384 
Q 1516 4384 1395 4259 
Q 1275 4134 1275 3809 
L 1275 3500 
L 2222 3500 
L 2222 3053 
L 1275 3053 
L 1275 0 
L 697 0 
L 697 3053 
L 147 3053 
L 147 3500 
L 697 3500 
L 697 3744 
Q 697 4328 969 4595 
Q 1241 4863 1831 4863 
L 2375 4863 
z
" id="DejaVuSans-66" transform="scale(0.015625)"/>
      </defs>
      <use xlink:href="#DejaVuSans-4d"/>
      <use x="86.279297" xlink:href="#DejaVuSans-65"/>
      <use x="147.802734" xlink:href="#DejaVuSans-61"/>
      <use x="209.082031" xlink:href="#DejaVuSans-6e"/>
      <use x="272.460938" xlink:href="#DejaVuSans-20"/>
      <use x="304.248047" xlink:href="#DejaVuSans-50"/>
      <use x="360.050781" xlink:href="#DejaVuSans-61"/>
      <use x="421.330078" xlink:href="#DejaVuSans-79"/>
      <use x="480.509766" xlink:href="#DejaVuSans-6f"/>
      <use x="541.691406" xlink:href="#DejaVuSans-66"/>
      <use x="576.896484" xlink:href="#DejaVuSans-66"/>
     </g>
    </g>
   </g>
   <g id="line2d_11">
    <path clip-path="url(#pa4787e449d)" d="M 66.950037 213.512424 
L 67.93597 199.330603 
L 69.907837 163.648514 
L 70.89377 148.756432 
L 71.879704 137.843786 
L 72.865637 129.723429 
L 73.85157 123.476022 
L 74.837504 118.57941 
L 75.823437 114.436815 
L 77.795304 107.435752 
L 79.76717 101.296352 
L 81.739037 96.183392 
L 83.710904 91.929718 
L 85.682771 88.323127 
L 87.654637 85.068822 
L 89.626504 82.213055 
L 92.584304 78.43904 
L 95.542104 74.987909 
L 98.499904 71.823201 
L 102.443638 68.16416 
L 105.401438 65.906162 
L 116.246704 57.990385 
L 119.204505 56.085147 
L 122.162305 54.531594 
L 133.993505 48.870094 
L 138.923172 46.838474 
L 142.866905 45.409564 
L 163.571505 39.17348 
L 171.458972 37.08818 
L 176.388639 35.899784 
L 180.332372 34.920704 
L 188.219839 33.335935 
L 196.107306 31.779181 
L 201.036973 30.926353 
L 214.84004 28.743315 
L 221.741573 27.872705 
L 226.67124 27.175459 
L 230.614973 26.595805 
L 233.572773 26.191198 
L 241.46024 25.216929 
L 248.361774 24.163685 
L 263.150774 22.486915 
L 263.150774 22.486915 
" style="fill:none;stroke:#151d3b;stroke-linecap:square;stroke-width:3;"/>
   </g>
   <g id="line2d_12">
    <path clip-path="url(#pa4787e449d)" d="M 66.950037 211.955017 
L 68.921904 174.139812 
L 69.907837 161.706175 
L 70.89377 158.959216 
L 71.879704 158.75942 
L 83.710904 158.749229 
L 263.150774 158.749229 
L 263.150774 158.749229 
" style="fill:none;stroke:#98042d;stroke-dasharray:4,3;stroke-dashoffset:0;stroke-width:2;"/>
   </g>
   <g id="line2d_13">
    <path clip-path="url(#pa4787e449d)" d="M 66.950037 211.101584 
L 69.907837 154.651118 
L 70.89377 145.593426 
L 71.879704 139.234782 
L 72.865637 135.500855 
L 73.85157 133.626093 
L 74.837504 132.699851 
L 75.823437 132.300934 
L 76.80937 132.10878 
L 78.781237 132.010302 
L 93.570237 131.999496 
L 263.150774 131.999496 
L 263.150774 131.999496 
" style="fill:none;stroke:#ff0f39;stroke-dasharray:4,3;stroke-dashoffset:0;stroke-width:2;"/>
   </g>
   <g id="line2d_14">
    <path clip-path="url(#pa4787e449d)" d="M 66.950037 211.424766 
L 68.921904 172.306295 
L 69.907837 157.868368 
L 70.89377 150.921799 
L 72.865637 140.514606 
L 73.85157 136.874633 
L 74.837504 134.180276 
L 75.823437 132.052112 
L 77.795304 128.752435 
L 79.76717 126.11643 
L 81.739037 123.978597 
L 83.710904 122.128186 
L 85.682771 120.742797 
L 89.626504 118.310409 
L 95.542104 115.598298 
L 98.499904 114.458604 
L 108.359238 111.444628 
L 115.260771 109.682813 
L 120.190438 108.646899 
L 124.134171 108.029774 
L 127.091971 107.477941 
L 130.049771 106.912757 
L 136.951305 105.666425 
L 139.909105 105.024246 
L 143.852838 104.411433 
L 146.810638 103.893508 
L 173.430839 100.642737 
L 190.191706 99.155003 
L 196.107306 98.697604 
L 217.79784 97.088549 
L 221.741573 96.8309 
L 230.614973 96.243641 
L 233.572773 95.98924 
L 242.446174 95.541223 
L 251.319574 95.064358 
L 259.207041 94.629756 
L 262.164841 94.431968 
L 263.150774 94.391879 
L 263.150774 94.391879 
" style="fill:none;stroke:#f16745;stroke-dasharray:4,3;stroke-dashoffset:0;stroke-width:2;"/>
   </g>
   <g id="line2d_15">
    <path clip-path="url(#pa4787e449d)" d="M 66.950037 211.278252 
L 68.921904 172.083498 
L 69.907837 157.781094 
L 70.89377 151.200477 
L 72.865637 141.408568 
L 75.823437 124.6331 
L 76.80937 120.580138 
L 78.781237 113.957517 
L 80.753104 108.175585 
L 82.72497 103.100614 
L 84.696837 98.794472 
L 86.668704 94.839119 
L 89.626504 89.642189 
L 91.598371 86.539477 
L 94.556171 82.569015 
L 96.528037 80.107373 
L 99.485837 76.898125 
L 106.387371 69.964907 
L 110.331104 66.768871 
L 112.302971 65.239262 
L 114.274838 63.809001 
L 116.246704 62.268068 
L 118.218571 61.088165 
L 122.162305 58.883699 
L 125.120105 57.298986 
L 130.049771 54.88278 
L 133.007571 53.310982 
L 136.951305 51.394123 
L 144.838772 47.895807 
L 152.726239 44.746161 
L 156.669972 43.469556 
L 168.501172 39.767697 
L 171.458972 38.947048 
L 175.402706 37.769939 
L 183.290172 35.709489 
L 192.163573 33.53674 
L 195.121373 32.895134 
L 201.036973 31.547586 
L 222.727507 27.17409 
L 236.530573 24.924437 
L 239.488374 24.421704 
L 242.446174 24.010861 
L 245.403974 23.511255 
L 262.164841 21.119974 
L 263.150774 20.990909 
L 263.150774 20.990909 
" style="fill:none;stroke:#ffc65d;stroke-dasharray:4,3;stroke-dashoffset:0;stroke-width:2;"/>
   </g>
   <g id="line2d_16">
    <path clip-path="url(#pa4787e449d)" d="M 66.950037 224.809091 
L 86.668704 224.703764 
L 118.218571 224.254783 
L 142.866905 224.127201 
L 208.92444 224.083878 
L 263.150774 224.080036 
L 263.150774 224.080036 
" style="fill:none;stroke:#3a6351;stroke-dasharray:4,3;stroke-dashoffset:0;stroke-width:2;"/>
   </g>
   <g id="line2d_17">
    <path clip-path="url(#pa4787e449d)" d="M 66.950037 219.702423 
L 67.93597 215.612736 
L 68.921904 212.186249 
L 70.89377 206.663971 
L 72.865637 202.308938 
L 74.837504 198.710668 
L 76.80937 195.726708 
L 78.781237 193.135501 
L 81.739037 189.855092 
L 84.696837 186.977301 
L 95.542104 177.126018 
L 99.485837 172.731353 
L 102.443638 169.141623 
L 107.373304 162.635438 
L 114.274838 153.268467 
L 119.204505 147.038231 
L 125.120105 140.175892 
L 128.077905 137.164396 
L 132.021638 133.849065 
L 134.979438 131.606805 
L 138.923172 128.976129 
L 141.880972 127.2265 
L 144.838772 125.707188 
L 148.782505 124.007454 
L 151.740305 122.917305 
L 154.698105 122.124282 
L 163.571505 120.082364 
L 167.515239 119.388938 
L 179.346439 117.743939 
L 185.262039 117.382372 
L 203.00884 116.646628 
L 212.868173 116.44142 
L 233.572773 116.293213 
L 263.150774 116.196011 
L 263.150774 116.196011 
" style="fill:none;stroke:#019267;stroke-dasharray:4,3;stroke-dashoffset:0;stroke-width:2;"/>
   </g>
   <g id="line2d_18">
    <path clip-path="url(#pa4787e449d)" d="M 66.950037 221.41536 
L 67.93597 218.479719 
L 69.907837 213.619564 
L 71.879704 209.684245 
L 73.85157 206.366243 
L 75.823437 203.470462 
L 77.795304 200.911155 
L 80.753104 197.581464 
L 83.710904 194.61156 
L 86.668704 191.955696 
L 100.471771 180.002153 
L 105.401438 175.030943 
L 109.345171 170.622418 
L 115.260771 163.777343 
L 118.218571 160.233096 
L 129.063838 147.783523 
L 133.007571 143.250949 
L 136.951305 138.793408 
L 138.923172 136.761204 
L 142.866905 133.145398 
L 146.810638 129.77672 
L 150.754372 126.558295 
L 156.669972 122.346024 
L 159.627772 120.590325 
L 162.585572 118.949026 
L 166.529305 116.63758 
L 169.487106 115.118398 
L 172.444906 113.873824 
L 181.318306 110.384566 
L 191.177639 107.11283 
L 195.121373 106.120196 
L 201.036973 104.826087 
L 214.84004 102.258658 
L 222.727507 101.10157 
L 230.614973 100.194443 
L 247.37584 98.354893 
L 255.263307 97.622859 
L 263.150774 97.048738 
L 263.150774 97.048738 
" style="fill:none;stroke:#00c897;stroke-dasharray:4,3;stroke-dashoffset:0;stroke-width:2;"/>
   </g>
   <g id="line2d_19">
    <path clip-path="url(#pa4787e449d)" d="M 66.950037 219.190064 
L 67.93597 215.12397 
L 68.921904 211.887295 
L 69.907837 209.206298 
L 71.879704 204.840708 
L 73.85157 201.343743 
L 75.823437 198.395079 
L 77.795304 195.835211 
L 80.753104 192.497713 
L 83.710904 189.530742 
L 87.654637 185.97393 
L 102.443638 173.131329 
L 105.401438 170.319181 
L 110.331104 165.276582 
L 122.162305 153.093485 
L 126.106038 148.99479 
L 133.007571 141.909571 
L 135.965372 139.134407 
L 144.838772 131.237587 
L 147.796572 128.859212 
L 151.740305 125.445219 
L 154.698105 122.907683 
L 162.585572 116.960548 
L 165.543372 115.014563 
L 180.332372 105.830406 
L 195.121373 98.053843 
L 198.079173 96.394504 
L 204.980706 92.96938 
L 212.868173 89.455706 
L 215.825973 88.197041 
L 221.741573 85.499695 
L 224.699373 84.183825 
L 229.62904 82.449674 
L 233.572773 80.983802 
L 237.516507 79.530975 
L 242.446174 77.82545 
L 246.389907 76.437896 
L 251.319574 74.663147 
L 256.249241 73.000957 
L 263.150774 70.934698 
L 263.150774 70.934698 
" style="fill:none;stroke:#85c88a;stroke-dasharray:4,3;stroke-dashoffset:0;stroke-width:2;"/>
   </g>
   <g id="line2d_20">
    <path clip-path="url(#pa4787e449d)" d="M 66.950037 219.721699 
L 67.93597 215.607829 
L 68.921904 212.161866 
L 69.907837 209.189152 
L 70.89377 206.59188 
L 72.865637 202.277569 
L 74.837504 198.750812 
L 76.80937 195.77783 
L 78.781237 193.227262 
L 80.753104 191.030846 
L 82.72497 189.09026 
L 84.696837 187.385586 
L 86.668704 185.878973 
L 89.626504 183.93489 
L 92.584304 182.308936 
L 95.542104 180.912851 
L 99.485837 179.358628 
L 103.429571 178.099528 
L 107.373304 177.057465 
L 112.302971 176.010462 
L 118.218571 175.055118 
L 123.148238 174.450063 
L 130.049771 173.807417 
L 136.951305 173.348413 
L 146.810638 172.900969 
L 162.585572 172.535979 
L 182.304239 172.332279 
L 221.741573 172.235869 
L 263.150774 172.223929 
L 263.150774 172.223929 
" style="fill:none;stroke:#495371;stroke-dasharray:4,3;stroke-dashoffset:0;stroke-width:2;"/>
   </g>
   <g id="line2d_21">
    <path clip-path="url(#pa4787e449d)" d="M 66.950037 221.416073 
L 67.93597 218.484518 
L 69.907837 213.628899 
L 71.879704 209.682228 
L 73.85157 206.361502 
L 75.823437 203.499746 
L 77.795304 200.991719 
L 79.76717 198.743756 
L 82.72497 195.742552 
L 85.682771 193.142107 
L 89.626504 190.11072 
L 92.584304 188.089475 
L 96.528037 185.700271 
L 100.471771 183.55277 
L 105.401438 181.199611 
L 110.331104 179.111494 
L 116.246704 176.866384 
L 122.162305 174.907383 
L 129.063838 172.851517 
L 134.979438 171.313129 
L 142.866905 169.446549 
L 149.768438 167.982694 
L 159.627772 166.155158 
L 170.473039 164.383143 
L 184.276106 162.438251 
L 195.121373 161.080331 
L 207.938506 159.675161 
L 227.657173 157.74144 
L 245.403974 156.208732 
L 263.150774 154.864903 
L 263.150774 154.864903 
" style="fill:none;stroke:#488fb1;stroke-dasharray:4,3;stroke-dashoffset:0;stroke-width:2;"/>
   </g>
   <g id="line2d_22">
    <path clip-path="url(#pa4787e449d)" d="M 66.950037 219.174123 
L 67.93597 215.117133 
L 68.921904 211.905441 
L 69.907837 209.20683 
L 70.89377 206.891017 
L 72.865637 203.043701 
L 74.837504 199.846534 
L 76.80937 197.118264 
L 78.781237 194.747059 
L 80.753104 192.62836 
L 82.72497 190.732674 
L 85.682771 188.193514 
L 89.626504 185.240319 
L 93.570237 182.65779 
L 98.499904 179.817183 
L 102.443638 177.772503 
L 106.387371 175.908519 
L 111.317038 173.764867 
L 117.232638 171.462659 
L 125.120105 168.704681 
L 131.035705 166.821438 
L 140.895038 164.0229 
L 152.726239 161.024592 
L 164.557439 158.35702 
L 173.430839 156.52143 
L 187.233906 153.936107 
L 197.093239 152.25138 
L 218.783773 148.871711 
L 227.657173 147.632522 
L 243.432107 145.547721 
L 263.150774 143.191949 
L 263.150774 143.191949 
" style="fill:none;stroke:#2fa4ff;stroke-dasharray:4,3;stroke-dashoffset:0;stroke-width:2;"/>
   </g>
   <g id="line2d_23">
    <path clip-path="url(#pa4787e449d)" d="M 66.950037 219.18353 
L 67.93597 212.033456 
L 68.921904 203.548446 
L 71.879704 175.238853 
L 72.865637 167.966892 
L 73.85157 163.150828 
L 74.837504 160.617723 
L 75.823437 159.481476 
L 76.80937 159.022305 
L 78.781237 158.792195 
L 83.710904 158.749229 
L 263.150774 158.749229 
L 263.150774 158.749229 
" style="fill:none;stroke:#8267be;stroke-dasharray:4,3;stroke-dashoffset:0;stroke-width:2;"/>
   </g>
   <g id="line2d_24"/>
   <g id="patch_3">
    <path d="M 57.14 235 
L 57.14 10.8 
" style="fill:none;stroke:#000000;stroke-linecap:square;stroke-linejoin:miter;stroke-width:0.8;"/>
   </g>
   <g id="patch_4">
    <path d="M 272.960811 235 
L 272.960811 10.8 
" style="fill:none;stroke:#000000;stroke-linecap:square;stroke-linejoin:miter;stroke-width:0.8;"/>
   </g>
   <g id="patch_5">
    <path d="M 57.14 235 
L 272.960811 235 
" style="fill:none;stroke:#000000;stroke-linecap:square;stroke-linejoin:miter;stroke-width:0.8;"/>
   </g>
   <g id="patch_6">
    <path d="M 57.14 10.8 
L 272.960811 10.8 
" style="fill:none;stroke:#000000;stroke-linecap:square;stroke-linejoin:miter;stroke-width:0.8;"/>
   </g>
   <g id="legend_1">
    <g id="patch_7">
     <path d="M 146.268324 212.58 
L 257.719262 212.58 
Q 260.519262 212.58 260.519262 209.78 
L 260.519262 170.08125 
Q 260.519262 167.28125 257.719262 167.28125 
L 146.268324 167.28125 
Q 143.468324 167.28125 143.468324 170.08125 
L 143.468324 209.78 
Q 143.468324 212.58 146.268324 212.58 
z
" style="fill:#ffffff;opacity:0.8;stroke:#cccccc;stroke-linejoin:miter;"/>
    </g>
    <g id="line2d_25">
     <path d="M 149.068324 178.619062 
L 177.068324 178.619062 
" style="fill:none;stroke:#151d3b;stroke-linecap:square;stroke-width:3;"/>
    </g>
    <g id="line2d_26"/>
    <g id="text_13">
     <!-- RL -->
     <g transform="translate(188.268324 183.519062)scale(0.14 -0.14)">
      <defs>
       <path d="M 2841 2188 
Q 3044 2119 3236 1894 
Q 3428 1669 3622 1275 
L 4263 0 
L 3584 0 
L 2988 1197 
Q 2756 1666 2539 1819 
Q 2322 1972 1947 1972 
L 1259 1972 
L 1259 0 
L 628 0 
L 628 4666 
L 2053 4666 
Q 2853 4666 3247 4331 
Q 3641 3997 3641 3322 
Q 3641 2881 3436 2590 
Q 3231 2300 2841 2188 
z
M 1259 4147 
L 1259 2491 
L 2053 2491 
Q 2509 2491 2742 2702 
Q 2975 2913 2975 3322 
Q 2975 3731 2742 3939 
Q 2509 4147 2053 4147 
L 1259 4147 
z
" id="DejaVuSans-52" transform="scale(0.015625)"/>
       <path d="M 628 4666 
L 1259 4666 
L 1259 531 
L 3531 531 
L 3531 0 
L 628 0 
L 628 4666 
z
" id="DejaVuSans-4c" transform="scale(0.015625)"/>
      </defs>
      <use xlink:href="#DejaVuSans-52"/>
      <use x="69.482422" xlink:href="#DejaVuSans-4c"/>
     </g>
    </g>
    <g id="line2d_27">
     <path d="M 149.068324 199.168437 
L 177.068324 199.168437 
" style="fill:none;stroke:#747474;stroke-dasharray:5,3.75;stroke-dashoffset:0;stroke-width:2.5;"/>
    </g>
    <g id="line2d_28"/>
    <g id="text_14">
     <!-- Baselines -->
     <g transform="translate(188.268324 204.068437)scale(0.14 -0.14)">
      <defs>
       <path d="M 1259 2228 
L 1259 519 
L 2272 519 
Q 2781 519 3026 730 
Q 3272 941 3272 1375 
Q 3272 1813 3026 2020 
Q 2781 2228 2272 2228 
L 1259 2228 
z
M 1259 4147 
L 1259 2741 
L 2194 2741 
Q 2656 2741 2882 2914 
Q 3109 3088 3109 3444 
Q 3109 3797 2882 3972 
Q 2656 4147 2194 4147 
L 1259 4147 
z
M 628 4666 
L 2241 4666 
Q 2963 4666 3353 4366 
Q 3744 4066 3744 3513 
Q 3744 3084 3544 2831 
Q 3344 2578 2956 2516 
Q 3422 2416 3680 2098 
Q 3938 1781 3938 1306 
Q 3938 681 3513 340 
Q 3088 0 2303 0 
L 628 0 
L 628 4666 
z
" id="DejaVuSans-42" transform="scale(0.015625)"/>
       <path d="M 2834 3397 
L 2834 2853 
Q 2591 2978 2328 3040 
Q 2066 3103 1784 3103 
Q 1356 3103 1142 2972 
Q 928 2841 928 2578 
Q 928 2378 1081 2264 
Q 1234 2150 1697 2047 
L 1894 2003 
Q 2506 1872 2764 1633 
Q 3022 1394 3022 966 
Q 3022 478 2636 193 
Q 2250 -91 1575 -91 
Q 1294 -91 989 -36 
Q 684 19 347 128 
L 347 722 
Q 666 556 975 473 
Q 1284 391 1588 391 
Q 1994 391 2212 530 
Q 2431 669 2431 922 
Q 2431 1156 2273 1281 
Q 2116 1406 1581 1522 
L 1381 1569 
Q 847 1681 609 1914 
Q 372 2147 372 2553 
Q 372 3047 722 3315 
Q 1072 3584 1716 3584 
Q 2034 3584 2315 3537 
Q 2597 3491 2834 3397 
z
" id="DejaVuSans-73" transform="scale(0.015625)"/>
       <path d="M 603 4863 
L 1178 4863 
L 1178 0 
L 603 0 
L 603 4863 
z
" id="DejaVuSans-6c" transform="scale(0.015625)"/>
      </defs>
      <use xlink:href="#DejaVuSans-42"/>
      <use x="68.603516" xlink:href="#DejaVuSans-61"/>
      <use x="129.882812" xlink:href="#DejaVuSans-73"/>
      <use x="181.982422" xlink:href="#DejaVuSans-65"/>
      <use x="243.505859" xlink:href="#DejaVuSans-6c"/>
      <use x="271.289062" xlink:href="#DejaVuSans-69"/>
      <use x="299.072266" xlink:href="#DejaVuSans-6e"/>
      <use x="362.451172" xlink:href="#DejaVuSans-65"/>
      <use x="423.974609" xlink:href="#DejaVuSans-73"/>
     </g>
    </g>
   </g>
  </g>
 </g>
 <defs>
  <clipPath id="pa4787e449d">
   <rect height="224.2" width="215.820811" x="57.14" y="10.8"/>
  </clipPath>
 </defs>
</svg>
