<?xml version="1.0" encoding="utf-8" standalone="no"?>
<!DOCTYPE svg PUBLIC "-//W3C//DTD SVG 1.1//EN"
  "http://www.w3.org/Graphics/SVG/1.1/DTD/svg11.dtd">
<svg height="288pt" version="1.1" viewBox="0 0 360 288" width="360pt" xmlns="http://www.w3.org/2000/svg" xmlns:xlink="http://www.w3.org/1999/xlink">
 <metadata>
  <rdf:RDF xmlns:cc="http://creativecommons.org/ns#" xmlns:dc="http://purl.org/dc/elements/1.1/" xmlns:rdf="http://www.w3.org/1999/02/22-rdf-syntax-ns#">
   <cc:Work>
    <dc:type rdf:resource="http://purl.org/dc/dcmitype/StillImage"/>
    <dc:date>2022-04-21T13:56:41.517858</dc:date>
    <dc:format>image/svg+xml</dc:format>
    <dc:creator>
     <cc:Agent>
      <dc:title>Matplotlib v3.4.1, https://matplotlib.org/</dc:title>
     </cc:Agent>
    </dc:creator>
   </cc:Work>
  </rdf:RDF>
 </metadata>
 <defs>
  <style type="text/css">*{stroke-linecap:butt;stroke-linejoin:round;}</style>
 </defs>
 <g id="figure_1">
  <g id="patch_1">
   <path d="M 0 288 
L 360 288 
L 360 0 
L 0 0 
z
" style="fill:none;"/>
  </g>
  <g id="axes_1">
   <g id="patch_2">
    <path d="M 66.05 235 
L 331.38 235 
L 331.38 10.8 
L 66.05 10.8 
z
" style="fill:none;"/>
   </g>
   <g id="matplotlib.axis_1">
    <g id="xtick_1">
     <g id="line2d_1">
      <defs>
       <path d="M 0 0 
L 0 3.5 
" id="mb6a808b219" style="stroke:#000000;stroke-width:0.8;"/>
      </defs>
      <g>
       <use style="stroke:#000000;stroke-width:0.8;" x="78.684762" xlink:href="#mb6a808b219" y="235"/>
      </g>
     </g>
     <g id="text_1">
      <!-- 0 -->
      <g transform="translate(74.231012 252.637812)scale(0.14 -0.14)">
       <defs>
        <path d="M 2034 4250 
Q 1547 4250 1301 3770 
Q 1056 3291 1056 2328 
Q 1056 1369 1301 889 
Q 1547 409 2034 409 
Q 2525 409 2770 889 
Q 3016 1369 3016 2328 
Q 3016 3291 2770 3770 
Q 2525 4250 2034 4250 
z
M 2034 4750 
Q 2819 4750 3233 4129 
Q 3647 3509 3647 2328 
Q 3647 1150 3233 529 
Q 2819 -91 2034 -91 
Q 1250 -91 836 529 
Q 422 1150 422 2328 
Q 422 3509 836 4129 
Q 1250 4750 2034 4750 
z
" id="DejaVuSans-30" transform="scale(0.015625)"/>
       </defs>
       <use xlink:href="#DejaVuSans-30"/>
      </g>
     </g>
    </g>
    <g id="xtick_2">
     <g id="line2d_2">
      <g>
       <use style="stroke:#000000;stroke-width:0.8;" x="129.22381" xlink:href="#mb6a808b219" y="235"/>
      </g>
     </g>
     <g id="text_2">
      <!-- 200 -->
      <g transform="translate(115.86256 252.637812)scale(0.14 -0.14)">
       <defs>
        <path d="M 1228 531 
L 3431 531 
L 3431 0 
L 469 0 
L 469 531 
Q 828 903 1448 1529 
Q 2069 2156 2228 2338 
Q 2531 2678 2651 2914 
Q 2772 3150 2772 3378 
Q 2772 3750 2511 3984 
Q 2250 4219 1831 4219 
Q 1534 4219 1204 4116 
Q 875 4013 500 3803 
L 500 4441 
Q 881 4594 1212 4672 
Q 1544 4750 1819 4750 
Q 2544 4750 2975 4387 
Q 3406 4025 3406 3419 
Q 3406 3131 3298 2873 
Q 3191 2616 2906 2266 
Q 2828 2175 2409 1742 
Q 1991 1309 1228 531 
z
" id="DejaVuSans-32" transform="scale(0.015625)"/>
       </defs>
       <use xlink:href="#DejaVuSans-32"/>
       <use x="63.623047" xlink:href="#DejaVuSans-30"/>
       <use x="127.246094" xlink:href="#DejaVuSans-30"/>
      </g>
     </g>
    </g>
    <g id="xtick_3">
     <g id="line2d_3">
      <g>
       <use style="stroke:#000000;stroke-width:0.8;" x="179.762857" xlink:href="#mb6a808b219" y="235"/>
      </g>
     </g>
     <g id="text_3">
      <!-- 400 -->
      <g transform="translate(166.401607 252.637812)scale(0.14 -0.14)">
       <defs>
        <path d="M 2419 4116 
L 825 1625 
L 2419 1625 
L 2419 4116 
z
M 2253 4666 
L 3047 4666 
L 3047 1625 
L 3713 1625 
L 3713 1100 
L 3047 1100 
L 3047 0 
L 2419 0 
L 2419 1100 
L 313 1100 
L 313 1709 
L 2253 4666 
z
" id="DejaVuSans-34" transform="scale(0.015625)"/>
       </defs>
       <use xlink:href="#DejaVuSans-34"/>
       <use x="63.623047" xlink:href="#DejaVuSans-30"/>
       <use x="127.246094" xlink:href="#DejaVuSans-30"/>
      </g>
     </g>
    </g>
    <g id="xtick_4">
     <g id="line2d_4">
      <g>
       <use style="stroke:#000000;stroke-width:0.8;" x="230.301905" xlink:href="#mb6a808b219" y="235"/>
      </g>
     </g>
     <g id="text_4">
      <!-- 600 -->
      <g transform="translate(216.940655 252.637812)scale(0.14 -0.14)">
       <defs>
        <path d="M 2113 2584 
Q 1688 2584 1439 2293 
Q 1191 2003 1191 1497 
Q 1191 994 1439 701 
Q 1688 409 2113 409 
Q 2538 409 2786 701 
Q 3034 994 3034 1497 
Q 3034 2003 2786 2293 
Q 2538 2584 2113 2584 
z
M 3366 4563 
L 3366 3988 
Q 3128 4100 2886 4159 
Q 2644 4219 2406 4219 
Q 1781 4219 1451 3797 
Q 1122 3375 1075 2522 
Q 1259 2794 1537 2939 
Q 1816 3084 2150 3084 
Q 2853 3084 3261 2657 
Q 3669 2231 3669 1497 
Q 3669 778 3244 343 
Q 2819 -91 2113 -91 
Q 1303 -91 875 529 
Q 447 1150 447 2328 
Q 447 3434 972 4092 
Q 1497 4750 2381 4750 
Q 2619 4750 2861 4703 
Q 3103 4656 3366 4563 
z
" id="DejaVuSans-36" transform="scale(0.015625)"/>
       </defs>
       <use xlink:href="#DejaVuSans-36"/>
       <use x="63.623047" xlink:href="#DejaVuSans-30"/>
       <use x="127.246094" xlink:href="#DejaVuSans-30"/>
      </g>
     </g>
    </g>
    <g id="xtick_5">
     <g id="line2d_5">
      <g>
       <use style="stroke:#000000;stroke-width:0.8;" x="280.840952" xlink:href="#mb6a808b219" y="235"/>
      </g>
     </g>
     <g id="text_5">
      <!-- 800 -->
      <g transform="translate(267.479702 252.637812)scale(0.14 -0.14)">
       <defs>
        <path d="M 2034 2216 
Q 1584 2216 1326 1975 
Q 1069 1734 1069 1313 
Q 1069 891 1326 650 
Q 1584 409 2034 409 
Q 2484 409 2743 651 
Q 3003 894 3003 1313 
Q 3003 1734 2745 1975 
Q 2488 2216 2034 2216 
z
M 1403 2484 
Q 997 2584 770 2862 
Q 544 3141 544 3541 
Q 544 4100 942 4425 
Q 1341 4750 2034 4750 
Q 2731 4750 3128 4425 
Q 3525 4100 3525 3541 
Q 3525 3141 3298 2862 
Q 3072 2584 2669 2484 
Q 3125 2378 3379 2068 
Q 3634 1759 3634 1313 
Q 3634 634 3220 271 
Q 2806 -91 2034 -91 
Q 1263 -91 848 271 
Q 434 634 434 1313 
Q 434 1759 690 2068 
Q 947 2378 1403 2484 
z
M 1172 3481 
Q 1172 3119 1398 2916 
Q 1625 2713 2034 2713 
Q 2441 2713 2670 2916 
Q 2900 3119 2900 3481 
Q 2900 3844 2670 4047 
Q 2441 4250 2034 4250 
Q 1625 4250 1398 4047 
Q 1172 3844 1172 3481 
z
" id="DejaVuSans-38" transform="scale(0.015625)"/>
       </defs>
       <use xlink:href="#DejaVuSans-38"/>
       <use x="63.623047" xlink:href="#DejaVuSans-30"/>
       <use x="127.246094" xlink:href="#DejaVuSans-30"/>
      </g>
     </g>
    </g>
    <g id="xtick_6">
     <g id="line2d_6">
      <g>
       <use style="stroke:#000000;stroke-width:0.8;" x="331.38" xlink:href="#mb6a808b219" y="235"/>
      </g>
     </g>
     <g id="text_6">
      <!-- 1000 -->
      <g transform="translate(313.565 252.637812)scale(0.14 -0.14)">
       <defs>
        <path d="M 794 531 
L 1825 531 
L 1825 4091 
L 703 3866 
L 703 4441 
L 1819 4666 
L 2450 4666 
L 2450 531 
L 3481 531 
L 3481 0 
L 794 0 
L 794 531 
z
" id="DejaVuSans-31" transform="scale(0.015625)"/>
       </defs>
       <use xlink:href="#DejaVuSans-31"/>
       <use x="63.623047" xlink:href="#DejaVuSans-30"/>
       <use x="127.246094" xlink:href="#DejaVuSans-30"/>
       <use x="190.869141" xlink:href="#DejaVuSans-30"/>
      </g>
     </g>
    </g>
    <g id="text_7">
     <!-- Epoch -->
     <g transform="translate(171.155312 273.226562)scale(0.18 -0.18)">
      <defs>
       <path d="M 628 4666 
L 3578 4666 
L 3578 4134 
L 1259 4134 
L 1259 2753 
L 3481 2753 
L 3481 2222 
L 1259 2222 
L 1259 531 
L 3634 531 
L 3634 0 
L 628 0 
L 628 4666 
z
" id="DejaVuSans-45" transform="scale(0.015625)"/>
       <path d="M 1159 525 
L 1159 -1331 
L 581 -1331 
L 581 3500 
L 1159 3500 
L 1159 2969 
Q 1341 3281 1617 3432 
Q 1894 3584 2278 3584 
Q 2916 3584 3314 3078 
Q 3713 2572 3713 1747 
Q 3713 922 3314 415 
Q 2916 -91 2278 -91 
Q 1894 -91 1617 61 
Q 1341 213 1159 525 
z
M 3116 1747 
Q 3116 2381 2855 2742 
Q 2594 3103 2138 3103 
Q 1681 3103 1420 2742 
Q 1159 2381 1159 1747 
Q 1159 1113 1420 752 
Q 1681 391 2138 391 
Q 2594 391 2855 752 
Q 3116 1113 3116 1747 
z
" id="DejaVuSans-70" transform="scale(0.015625)"/>
       <path d="M 1959 3097 
Q 1497 3097 1228 2736 
Q 959 2375 959 1747 
Q 959 1119 1226 758 
Q 1494 397 1959 397 
Q 2419 397 2687 759 
Q 2956 1122 2956 1747 
Q 2956 2369 2687 2733 
Q 2419 3097 1959 3097 
z
M 1959 3584 
Q 2709 3584 3137 3096 
Q 3566 2609 3566 1747 
Q 3566 888 3137 398 
Q 2709 -91 1959 -91 
Q 1206 -91 779 398 
Q 353 888 353 1747 
Q 353 2609 779 3096 
Q 1206 3584 1959 3584 
z
" id="DejaVuSans-6f" transform="scale(0.015625)"/>
       <path d="M 3122 3366 
L 3122 2828 
Q 2878 2963 2633 3030 
Q 2388 3097 2138 3097 
Q 1578 3097 1268 2742 
Q 959 2388 959 1747 
Q 959 1106 1268 751 
Q 1578 397 2138 397 
Q 2388 397 2633 464 
Q 2878 531 3122 666 
L 3122 134 
Q 2881 22 2623 -34 
Q 2366 -91 2075 -91 
Q 1284 -91 818 406 
Q 353 903 353 1747 
Q 353 2603 823 3093 
Q 1294 3584 2113 3584 
Q 2378 3584 2631 3529 
Q 2884 3475 3122 3366 
z
" id="DejaVuSans-63" transform="scale(0.015625)"/>
       <path d="M 3513 2113 
L 3513 0 
L 2938 0 
L 2938 2094 
Q 2938 2591 2744 2837 
Q 2550 3084 2163 3084 
Q 1697 3084 1428 2787 
Q 1159 2491 1159 1978 
L 1159 0 
L 581 0 
L 581 4863 
L 1159 4863 
L 1159 2956 
Q 1366 3272 1645 3428 
Q 1925 3584 2291 3584 
Q 2894 3584 3203 3211 
Q 3513 2838 3513 2113 
z
" id="DejaVuSans-68" transform="scale(0.015625)"/>
      </defs>
      <use xlink:href="#DejaVuSans-45"/>
      <use x="63.183594" xlink:href="#DejaVuSans-70"/>
      <use x="126.660156" xlink:href="#DejaVuSans-6f"/>
      <use x="187.841797" xlink:href="#DejaVuSans-63"/>
      <use x="242.822266" xlink:href="#DejaVuSans-68"/>
     </g>
    </g>
   </g>
   <g id="matplotlib.axis_2">
    <g id="ytick_1">
     <g id="line2d_7">
      <defs>
       <path d="M 0 0 
L -3.5 0 
" id="mc428003f0f" style="stroke:#000000;stroke-width:0.8;"/>
      </defs>
      <g>
       <use style="stroke:#000000;stroke-width:0.8;" x="66.05" xlink:href="#mc428003f0f" y="235"/>
      </g>
     </g>
     <g id="text_8">
      <!-- 0 -->
      <g transform="translate(50.1425 240.318906)scale(0.14 -0.14)">
       <use xlink:href="#DejaVuSans-30"/>
      </g>
     </g>
    </g>
    <g id="ytick_2">
     <g id="line2d_8">
      <g>
       <use style="stroke:#000000;stroke-width:0.8;" x="66.05" xlink:href="#mc428003f0f" y="192.295238"/>
      </g>
     </g>
     <g id="text_9">
      <!-- 20 -->
      <g transform="translate(41.235 197.614144)scale(0.14 -0.14)">
       <use xlink:href="#DejaVuSans-32"/>
       <use x="63.623047" xlink:href="#DejaVuSans-30"/>
      </g>
     </g>
    </g>
    <g id="ytick_3">
     <g id="line2d_9">
      <g>
       <use style="stroke:#000000;stroke-width:0.8;" x="66.05" xlink:href="#mc428003f0f" y="149.590476"/>
      </g>
     </g>
     <g id="text_10">
      <!-- 40 -->
      <g transform="translate(41.235 154.909382)scale(0.14 -0.14)">
       <use xlink:href="#DejaVuSans-34"/>
       <use x="63.623047" xlink:href="#DejaVuSans-30"/>
      </g>
     </g>
    </g>
    <g id="ytick_4">
     <g id="line2d_10">
      <g>
       <use style="stroke:#000000;stroke-width:0.8;" x="66.05" xlink:href="#mc428003f0f" y="106.885714"/>
      </g>
     </g>
     <g id="text_11">
      <!-- 60 -->
      <g transform="translate(41.235 112.204621)scale(0.14 -0.14)">
       <use xlink:href="#DejaVuSans-36"/>
       <use x="63.623047" xlink:href="#DejaVuSans-30"/>
      </g>
     </g>
    </g>
    <g id="ytick_5">
     <g id="line2d_11">
      <g>
       <use style="stroke:#000000;stroke-width:0.8;" x="66.05" xlink:href="#mc428003f0f" y="64.180952"/>
      </g>
     </g>
     <g id="text_12">
      <!-- 80 -->
      <g transform="translate(41.235 69.499859)scale(0.14 -0.14)">
       <use xlink:href="#DejaVuSans-38"/>
       <use x="63.623047" xlink:href="#DejaVuSans-30"/>
      </g>
     </g>
    </g>
    <g id="ytick_6">
     <g id="line2d_12">
      <g>
       <use style="stroke:#000000;stroke-width:0.8;" x="66.05" xlink:href="#mc428003f0f" y="21.47619"/>
      </g>
     </g>
     <g id="text_13">
      <!-- 100 -->
      <g transform="translate(32.3275 26.795097)scale(0.14 -0.14)">
       <use xlink:href="#DejaVuSans-31"/>
       <use x="63.623047" xlink:href="#DejaVuSans-30"/>
       <use x="127.246094" xlink:href="#DejaVuSans-30"/>
      </g>
     </g>
    </g>
    <g id="text_14">
     <!-- Average Mean Payoff -->
     <g transform="translate(24.584062 217.809219)rotate(-90)scale(0.18 -0.18)">
      <defs>
       <path d="M 2188 4044 
L 1331 1722 
L 3047 1722 
L 2188 4044 
z
M 1831 4666 
L 2547 4666 
L 4325 0 
L 3669 0 
L 3244 1197 
L 1141 1197 
L 716 0 
L 50 0 
L 1831 4666 
z
" id="DejaVuSans-41" transform="scale(0.015625)"/>
       <path d="M 191 3500 
L 800 3500 
L 1894 563 
L 2988 3500 
L 3597 3500 
L 2284 0 
L 1503 0 
L 191 3500 
z
" id="DejaVuSans-76" transform="scale(0.015625)"/>
       <path d="M 3597 1894 
L 3597 1613 
L 953 1613 
Q 991 1019 1311 708 
Q 1631 397 2203 397 
Q 2534 397 2845 478 
Q 3156 559 3463 722 
L 3463 178 
Q 3153 47 2828 -22 
Q 2503 -91 2169 -91 
Q 1331 -91 842 396 
Q 353 884 353 1716 
Q 353 2575 817 3079 
Q 1281 3584 2069 3584 
Q 2775 3584 3186 3129 
Q 3597 2675 3597 1894 
z
M 3022 2063 
Q 3016 2534 2758 2815 
Q 2500 3097 2075 3097 
Q 1594 3097 1305 2825 
Q 1016 2553 972 2059 
L 3022 2063 
z
" id="DejaVuSans-65" transform="scale(0.015625)"/>
       <path d="M 2631 2963 
Q 2534 3019 2420 3045 
Q 2306 3072 2169 3072 
Q 1681 3072 1420 2755 
Q 1159 2438 1159 1844 
L 1159 0 
L 581 0 
L 581 3500 
L 1159 3500 
L 1159 2956 
Q 1341 3275 1631 3429 
Q 1922 3584 2338 3584 
Q 2397 3584 2469 3576 
Q 2541 3569 2628 3553 
L 2631 2963 
z
" id="DejaVuSans-72" transform="scale(0.015625)"/>
       <path d="M 2194 1759 
Q 1497 1759 1228 1600 
Q 959 1441 959 1056 
Q 959 750 1161 570 
Q 1363 391 1709 391 
Q 2188 391 2477 730 
Q 2766 1069 2766 1631 
L 2766 1759 
L 2194 1759 
z
M 3341 1997 
L 3341 0 
L 2766 0 
L 2766 531 
Q 2569 213 2275 61 
Q 1981 -91 1556 -91 
Q 1019 -91 701 211 
Q 384 513 384 1019 
Q 384 1609 779 1909 
Q 1175 2209 1959 2209 
L 2766 2209 
L 2766 2266 
Q 2766 2663 2505 2880 
Q 2244 3097 1772 3097 
Q 1472 3097 1187 3025 
Q 903 2953 641 2809 
L 641 3341 
Q 956 3463 1253 3523 
Q 1550 3584 1831 3584 
Q 2591 3584 2966 3190 
Q 3341 2797 3341 1997 
z
" id="DejaVuSans-61" transform="scale(0.015625)"/>
       <path d="M 2906 1791 
Q 2906 2416 2648 2759 
Q 2391 3103 1925 3103 
Q 1463 3103 1205 2759 
Q 947 2416 947 1791 
Q 947 1169 1205 825 
Q 1463 481 1925 481 
Q 2391 481 2648 825 
Q 2906 1169 2906 1791 
z
M 3481 434 
Q 3481 -459 3084 -895 
Q 2688 -1331 1869 -1331 
Q 1566 -1331 1297 -1286 
Q 1028 -1241 775 -1147 
L 775 -588 
Q 1028 -725 1275 -790 
Q 1522 -856 1778 -856 
Q 2344 -856 2625 -561 
Q 2906 -266 2906 331 
L 2906 616 
Q 2728 306 2450 153 
Q 2172 0 1784 0 
Q 1141 0 747 490 
Q 353 981 353 1791 
Q 353 2603 747 3093 
Q 1141 3584 1784 3584 
Q 2172 3584 2450 3431 
Q 2728 3278 2906 2969 
L 2906 3500 
L 3481 3500 
L 3481 434 
z
" id="DejaVuSans-67" transform="scale(0.015625)"/>
       <path id="DejaVuSans-20" transform="scale(0.015625)"/>
       <path d="M 628 4666 
L 1569 4666 
L 2759 1491 
L 3956 4666 
L 4897 4666 
L 4897 0 
L 4281 0 
L 4281 4097 
L 3078 897 
L 2444 897 
L 1241 4097 
L 1241 0 
L 628 0 
L 628 4666 
z
" id="DejaVuSans-4d" transform="scale(0.015625)"/>
       <path d="M 3513 2113 
L 3513 0 
L 2938 0 
L 2938 2094 
Q 2938 2591 2744 2837 
Q 2550 3084 2163 3084 
Q 1697 3084 1428 2787 
Q 1159 2491 1159 1978 
L 1159 0 
L 581 0 
L 581 3500 
L 1159 3500 
L 1159 2956 
Q 1366 3272 1645 3428 
Q 1925 3584 2291 3584 
Q 2894 3584 3203 3211 
Q 3513 2838 3513 2113 
z
" id="DejaVuSans-6e" transform="scale(0.015625)"/>
       <path d="M 1259 4147 
L 1259 2394 
L 2053 2394 
Q 2494 2394 2734 2622 
Q 2975 2850 2975 3272 
Q 2975 3691 2734 3919 
Q 2494 4147 2053 4147 
L 1259 4147 
z
M 628 4666 
L 2053 4666 
Q 2838 4666 3239 4311 
Q 3641 3956 3641 3272 
Q 3641 2581 3239 2228 
Q 2838 1875 2053 1875 
L 1259 1875 
L 1259 0 
L 628 0 
L 628 4666 
z
" id="DejaVuSans-50" transform="scale(0.015625)"/>
       <path d="M 2059 -325 
Q 1816 -950 1584 -1140 
Q 1353 -1331 966 -1331 
L 506 -1331 
L 506 -850 
L 844 -850 
Q 1081 -850 1212 -737 
Q 1344 -625 1503 -206 
L 1606 56 
L 191 3500 
L 800 3500 
L 1894 763 
L 2988 3500 
L 3597 3500 
L 2059 -325 
z
" id="DejaVuSans-79" transform="scale(0.015625)"/>
       <path d="M 2375 4863 
L 2375 4384 
L 1825 4384 
Q 1516 4384 1395 4259 
Q 1275 4134 1275 3809 
L 1275 3500 
L 2222 3500 
L 2222 3053 
L 1275 3053 
L 1275 0 
L 697 0 
L 697 3053 
L 147 3053 
L 147 3500 
L 697 3500 
L 697 3744 
Q 697 4328 969 4595 
Q 1241 4863 1831 4863 
L 2375 4863 
z
" id="DejaVuSans-66" transform="scale(0.015625)"/>
      </defs>
      <use xlink:href="#DejaVuSans-41"/>
      <use x="62.533203" xlink:href="#DejaVuSans-76"/>
      <use x="121.712891" xlink:href="#DejaVuSans-65"/>
      <use x="183.236328" xlink:href="#DejaVuSans-72"/>
      <use x="224.349609" xlink:href="#DejaVuSans-61"/>
      <use x="285.628906" xlink:href="#DejaVuSans-67"/>
      <use x="349.105469" xlink:href="#DejaVuSans-65"/>
      <use x="410.628906" xlink:href="#DejaVuSans-20"/>
      <use x="442.416016" xlink:href="#DejaVuSans-4d"/>
      <use x="528.695312" xlink:href="#DejaVuSans-65"/>
      <use x="590.21875" xlink:href="#DejaVuSans-61"/>
      <use x="651.498047" xlink:href="#DejaVuSans-6e"/>
      <use x="714.876953" xlink:href="#DejaVuSans-20"/>
      <use x="746.664062" xlink:href="#DejaVuSans-50"/>
      <use x="802.466797" xlink:href="#DejaVuSans-61"/>
      <use x="863.746094" xlink:href="#DejaVuSans-79"/>
      <use x="922.925781" xlink:href="#DejaVuSans-6f"/>
      <use x="984.107422" xlink:href="#DejaVuSans-66"/>
      <use x="1019.3125" xlink:href="#DejaVuSans-66"/>
     </g>
    </g>
   </g>
   <g id="line2d_13">
    <path clip-path="url(#p3338c07889)" d="M 78.684762 177.117389 
L 79.442848 168.656963 
L 79.695543 166.091212 
L 80.200933 151.067954 
L 80.453629 121.582238 
L 80.706324 66.612839 
L 80.959019 36.0476 
L 81.211714 27.983371 
L 81.46441 30.55296 
L 81.717105 29.830779 
L 81.9698 29.702174 
L 82.222495 31.954479 
L 82.47519 32.731959 
L 82.727886 38.881093 
L 82.980581 35.590499 
L 83.233276 52.083633 
L 83.485971 34.494609 
L 83.738667 45.636538 
L 83.991362 30.494016 
L 84.244057 28.018197 
L 84.496752 34.407235 
L 84.749448 28.115553 
L 85.002143 33.965454 
L 85.254838 25.796055 
L 85.760229 22.907483 
L 86.012924 23.467129 
L 86.265619 24.821995 
L 86.518314 28.008964 
L 86.77101 25.272366 
L 87.023705 25.228801 
L 87.2764 28.001158 
L 87.529095 24.5842 
L 87.78179 22.853024 
L 88.034486 24.115225 
L 88.287181 26.489623 
L 88.539876 25.09966 
L 88.792571 25.428781 
L 89.045267 23.452772 
L 89.297962 23.459229 
L 89.803352 25.891382 
L 90.056048 23.802639 
L 90.308743 23.783401 
L 90.561438 22.471211 
L 90.814133 24.067708 
L 91.066829 23.414154 
L 91.319524 23.423677 
L 91.572219 22.419517 
L 91.824914 23.602493 
L 92.07761 22.713262 
L 92.330305 23.017928 
L 92.583 24.428742 
L 93.08839 22.128612 
L 93.341086 21.930292 
L 93.593781 22.317795 
L 93.846476 22.483126 
L 94.351867 21.691544 
L 94.604562 22.161666 
L 94.857257 22.356741 
L 95.109952 23.18847 
L 95.362648 22.163396 
L 95.615343 21.843059 
L 95.868038 22.40598 
L 96.120733 22.658942 
L 96.626124 21.882484 
L 97.131514 22.64392 
L 97.38421 22.435476 
L 97.636905 21.98326 
L 97.8896 21.791864 
L 98.142295 22.248592 
L 98.39499 22.122647 
L 98.647686 21.682369 
L 98.900381 22.164677 
L 99.153076 22.18478 
L 99.405771 21.908655 
L 99.658467 22.539774 
L 99.911162 22.124321 
L 100.163857 22.01047 
L 100.669248 22.153904 
L 100.921943 21.916925 
L 101.174638 22.640521 
L 101.427333 21.930646 
L 101.680029 21.67639 
L 101.932724 22.107474 
L 102.185419 22.213531 
L 102.438114 21.855545 
L 102.69081 21.803555 
L 102.943505 22.289716 
L 103.70159 21.831921 
L 103.954286 21.931466 
L 104.459676 21.680981 
L 104.712371 22.365184 
L 104.965067 22.271844 
L 105.217762 21.620947 
L 105.470457 21.550817 
L 105.975848 21.982605 
L 106.228543 22.110136 
L 106.481238 21.732312 
L 106.733933 22.109566 
L 107.239324 21.573643 
L 107.492019 21.555322 
L 107.99741 21.802604 
L 108.250105 22.497069 
L 108.5028 21.979417 
L 108.755495 21.718589 
L 109.00819 21.81814 
L 109.260886 21.66735 
L 109.766276 21.812095 
L 110.018971 21.591237 
L 110.777057 21.961637 
L 111.029752 21.718042 
L 111.535143 22.552233 
L 111.787838 22.389532 
L 112.040533 21.761937 
L 112.545924 21.557543 
L 113.051314 21.616441 
L 113.30401 22.099266 
L 113.556705 21.822569 
L 114.062095 21.819708 
L 114.31479 21.97242 
L 114.567486 21.730361 
L 115.072876 21.673785 
L 116.083657 21.87975 
L 116.336352 21.667508 
L 116.589048 22.301823 
L 116.841743 21.90397 
L 117.347133 21.662654 
L 118.105219 21.573387 
L 118.357914 21.924142 
L 118.61061 21.98793 
L 118.863305 21.776332 
L 119.116 22.131666 
L 119.368695 22.060819 
L 119.62139 22.161879 
L 120.126781 21.595145 
L 120.379476 21.663131 
L 120.632171 21.956192 
L 120.884867 21.639899 
L 121.895648 21.929743 
L 122.148343 21.59397 
L 122.653733 21.731672 
L 122.906429 21.951751 
L 123.411819 21.570626 
L 123.91721 21.854501 
L 124.169905 21.711451 
L 124.4226 21.769892 
L 124.675295 22.142171 
L 125.180686 21.622134 
L 125.433381 21.75192 
L 125.686076 22.071474 
L 125.938771 21.955978 
L 126.191467 22.308335 
L 126.444162 21.583016 
L 126.696857 21.84955 
L 127.202248 21.589473 
L 127.960333 21.650063 
L 128.213029 21.929704 
L 128.465724 21.698697 
L 128.718419 21.749693 
L 128.971114 21.561322 
L 129.22381 22.210106 
L 129.476505 21.736164 
L 129.7292 22.047659 
L 130.23459 21.78375 
L 130.487286 21.917702 
L 130.739981 21.786654 
L 130.992676 21.80854 
L 131.245371 21.613732 
L 131.498067 21.720056 
L 131.750762 21.52841 
L 132.003457 21.534149 
L 132.256152 21.754848 
L 132.761543 21.686768 
L 133.266933 21.749465 
L 133.519629 21.677748 
L 134.025019 21.73903 
L 134.53041 21.486119 
L 134.783105 21.543984 
L 135.0358 21.795485 
L 135.54119 21.673422 
L 135.793886 21.688591 
L 136.046581 21.846825 
L 136.299276 21.562505 
L 136.551971 21.666205 
L 136.804667 21.619444 
L 137.057362 21.941452 
L 137.310057 21.659351 
L 137.562752 21.751348 
L 137.815448 22.055715 
L 138.068143 21.713714 
L 138.573533 21.527658 
L 139.078924 21.581223 
L 139.331619 21.678398 
L 139.584314 21.555728 
L 140.089705 21.589145 
L 140.3424 21.897089 
L 141.605876 21.66357 
L 141.858571 21.890544 
L 142.363962 21.877842 
L 142.869352 21.583187 
L 143.627438 22.054669 
L 143.880133 21.659543 
L 144.132829 21.580678 
L 144.385524 21.670497 
L 144.638219 21.935352 
L 145.14361 22.012532 
L 145.396305 21.676958 
L 145.901695 21.501416 
L 146.15439 21.793572 
L 146.407086 21.743661 
L 146.659781 21.935566 
L 147.417867 21.605471 
L 147.923257 21.70639 
L 148.175952 21.617159 
L 148.428648 21.715252 
L 148.934038 22.545112 
L 149.186733 21.782085 
L 149.439429 22.213147 
L 149.692124 22.179047 
L 150.197514 21.512246 
L 150.45021 21.565777 
L 150.702905 22.033456 
L 150.9556 21.786184 
L 151.208295 22.017266 
L 151.46099 21.997722 
L 151.713686 21.585664 
L 151.966381 21.562967 
L 152.219076 21.952925 
L 152.471771 21.522771 
L 152.724467 21.528119 
L 152.977162 21.731159 
L 153.482552 21.694284 
L 154.240638 21.535016 
L 154.746029 21.971075 
L 154.998724 21.698479 
L 155.251419 21.784882 
L 155.504114 21.564453 
L 155.75681 21.549173 
L 156.009505 21.89995 
L 156.2622 21.563693 
L 156.514895 21.530639 
L 156.76759 21.664668 
L 157.020286 21.551827 
L 157.272981 22.019188 
L 157.525676 21.515058 
L 157.778371 21.608054 
L 158.031067 21.522675 
L 158.283762 21.636385 
L 158.536457 21.920311 
L 158.789152 21.688689 
L 159.294543 21.705976 
L 159.547238 21.893352 
L 160.052629 21.810398 
L 160.305324 22.312435 
L 160.558019 21.73148 
L 161.821495 21.871573 
L 162.07419 21.684366 
L 162.326886 21.717408 
L 162.579581 21.541828 
L 163.084971 21.648611 
L 163.590362 21.693366 
L 163.843057 21.530361 
L 164.095752 21.606141 
L 164.601143 21.505742 
L 165.359229 21.538646 
L 165.611924 21.500218 
L 165.864619 21.795142 
L 166.117314 21.771408 
L 166.37001 21.625834 
L 166.622705 22.035964 
L 166.8754 22.115239 
L 167.886181 21.508625 
L 168.138876 21.796314 
L 168.391571 21.570696 
L 168.644267 21.996902 
L 168.896962 21.529998 
L 169.907743 21.525237 
L 170.160438 21.518724 
L 170.918524 21.916861 
L 171.171219 21.596511 
L 171.929305 21.672995 
L 172.434695 21.94763 
L 172.68739 21.572191 
L 173.445476 21.542063 
L 173.698171 21.730399 
L 174.203562 21.491107 
L 174.708952 21.521116 
L 174.961648 21.855607 
L 175.214343 21.584298 
L 175.719733 21.916754 
L 175.972429 21.507365 
L 176.730514 22.030434 
L 176.98321 21.755245 
L 177.741295 21.567258 
L 177.99399 21.898968 
L 178.246686 21.479957 
L 178.499381 21.841893 
L 179.004771 21.694839 
L 179.257467 21.835508 
L 179.510162 21.590951 
L 179.762857 21.507143 
L 180.015552 21.637977 
L 180.268248 21.492354 
L 180.773638 21.526134 
L 181.026333 21.598881 
L 181.531724 21.505665 
L 182.037114 21.668266 
L 182.28981 21.524374 
L 182.7952 21.714974 
L 183.047895 21.49229 
L 186.585629 21.7217 
L 187.091019 21.581748 
L 187.343714 21.671855 
L 187.59641 21.527522 
L 189.365276 21.690105 
L 189.617971 21.845394 
L 189.870667 21.488968 
L 190.881448 21.625145 
L 191.134143 21.502204 
L 191.386838 21.755394 
L 191.639533 21.483429 
L 191.892229 21.599266 
L 192.397619 21.479158 
L 192.650314 21.805572 
L 193.155705 21.600397 
L 193.661095 21.546152 
L 193.91379 21.938907 
L 194.166486 21.642611 
L 195.177267 21.489642 
L 195.429962 21.731949 
L 195.682657 21.525087 
L 195.935352 21.541379 
L 196.188048 21.695578 
L 196.440743 21.485442 
L 196.946133 21.726931 
L 197.198829 21.703647 
L 197.451524 21.904647 
L 197.704219 21.62002 
L 197.956914 21.539137 
L 198.20961 21.583798 
L 198.462305 21.47619 
L 199.22039 21.629009 
L 199.473086 21.49718 
L 199.978476 21.591088 
L 200.231171 21.665595 
L 201.241952 21.501578 
L 201.747343 21.484774 
L 202.000038 21.777998 
L 202.252733 21.763871 
L 202.505429 21.516931 
L 202.758124 21.629857 
L 203.010819 21.483557 
L 203.768905 21.682091 
L 204.274295 21.689507 
L 204.52699 21.560362 
L 204.779686 21.744603 
L 205.790467 21.558077 
L 206.043162 21.879601 
L 206.295857 21.642406 
L 207.053943 21.487956 
L 207.306638 21.487037 
L 207.559333 21.679416 
L 208.064724 21.507651 
L 208.82281 21.632874 
L 209.3282 21.617671 
L 210.086286 21.720633 
L 210.338981 21.486717 
L 210.844371 21.760241 
L 211.349762 21.565507 
L 211.855152 21.536789 
L 213.118629 21.604593 
L 213.371324 21.47619 
L 213.876714 21.558589 
L 214.12941 21.48187 
L 214.382105 21.767757 
L 214.887495 21.583849 
L 215.14019 21.890798 
L 215.392886 21.86206 
L 215.645581 21.523625 
L 216.909057 21.571123 
L 217.667143 21.486013 
L 218.172533 21.502945 
L 218.425229 21.73417 
L 218.677924 21.47619 
L 218.930619 21.691999 
L 219.183314 21.728063 
L 219.9414 21.47619 
L 220.194095 21.6497 
L 220.44679 21.47619 
L 222.215657 21.47619 
L 222.721048 21.616689 
L 223.226438 21.47619 
L 223.479133 21.61676 
L 223.731829 21.47619 
L 224.237219 21.605586 
L 224.489914 21.485748 
L 225.248 21.627088 
L 225.500695 21.625288 
L 225.75339 21.47619 
L 226.006086 21.730647 
L 226.258781 21.47982 
L 228.027648 21.47619 
L 228.280343 21.801579 
L 228.785733 21.47619 
L 229.038429 21.576419 
L 229.543819 21.478454 
L 230.807295 21.667123 
L 231.05999 21.480867 
L 232.323467 21.605383 
L 232.828857 21.47619 
L 233.081552 21.639643 
L 233.334248 21.497714 
L 233.586943 21.710648 
L 233.839638 21.47619 
L 234.092333 21.682711 
L 234.345029 21.47619 
L 234.850419 21.47619 
L 235.103114 21.603079 
L 235.35581 21.47619 
L 236.871981 21.48184 
L 237.124676 21.695082 
L 237.377371 21.47619 
L 238.388152 21.524502 
L 238.640848 21.623061 
L 238.893543 21.47619 
L 239.904324 21.539778 
L 240.409714 21.47619 
L 240.66241 21.521756 
L 240.915105 21.865344 
L 241.1678 21.47619 
L 241.925886 21.689661 
L 242.178581 21.527949 
L 242.936667 21.537045 
L 243.442057 21.588312 
L 243.694752 21.47619 
L 244.200143 21.648795 
L 244.452838 21.47619 
L 244.705533 21.688745 
L 244.958229 21.47619 
L 245.210924 21.47619 
L 245.463619 21.614682 
L 245.716314 21.47619 
L 245.96901 21.47619 
L 246.221705 21.614355 
L 246.4744 21.47619 
L 247.485181 21.47619 
L 247.737876 21.688617 
L 247.990571 21.55548 
L 248.243267 21.814207 
L 248.495962 21.47619 
L 249.001352 21.47619 
L 249.254048 21.622646 
L 249.506743 21.52617 
L 249.759438 21.609352 
L 250.517524 21.47619 
L 255.066038 21.535721 
L 255.318733 21.646313 
L 255.571429 21.531408 
L 256.076819 21.47619 
L 256.329514 21.814207 
L 256.58221 21.593661 
L 256.834905 21.791843 
L 257.0876 21.47619 
L 258.856467 21.47619 
L 259.109162 21.607266 
L 259.361857 21.47619 
L 259.867248 21.47619 
L 261.636114 21.47619 
L 261.88881 21.615686 
L 262.141505 21.47619 
L 262.89959 21.47619 
L 263.152286 21.597472 
L 263.657676 21.47619 
L 265.426543 21.47619 
L 265.679238 21.773202 
L 265.931933 21.47619 
L 266.184629 21.47619 
L 266.437324 21.640228 
L 266.690019 21.47619 
L 266.942714 21.559604 
L 267.448105 21.47619 
L 275.281657 21.47619 
L 275.534352 21.602582 
L 275.787048 21.47619 
L 281.851733 21.47619 
L 282.104429 21.617928 
L 282.357124 21.47619 
L 282.862514 21.522248 
L 283.6206 21.47619 
L 284.631381 21.47619 
L 284.884076 21.624854 
L 285.136771 21.47619 
L 286.905638 21.561536 
L 287.411029 21.47619 
L 287.916419 21.47619 
L 288.169114 21.628698 
L 288.674505 21.478112 
L 289.179895 21.529379 
L 289.43259 21.598382 
L 289.685286 21.47619 
L 290.190676 21.557244 
L 290.443371 21.47619 
L 290.696067 21.744769 
L 291.201457 21.593063 
L 291.706848 21.47619 
L 292.717629 21.620148 
L 292.970324 21.47619 
L 296.255362 21.526475 
L 296.508057 21.636611 
L 296.760752 21.483899 
L 299.5404 21.47619 
L 300.551181 21.699359 
L 300.803876 21.47619 
L 301.309267 21.47619 
L 301.561962 21.62713 
L 302.572743 21.47619 
L 303.078133 21.615856 
L 303.330829 21.47619 
L 303.583524 21.549408 
L 304.088914 21.47619 
L 308.384733 21.506009 
L 308.637429 21.624248 
L 308.890124 21.47619 
L 314.95481 21.47619 
L 315.207505 21.601858 
L 315.712895 21.47619 
L 315.96559 21.616162 
L 316.218286 21.47619 
L 318.997933 21.47619 
L 319.250629 21.639515 
L 319.503324 21.47619 
L 329.611133 21.483066 
L 329.863829 21.603118 
L 330.116524 21.47619 
L 330.369219 21.687357 
L 330.621914 21.47619 
L 330.87461 21.47619 
L 331.127305 21.62479 
L 331.38 21.47619 
L 331.632695 21.47619 
L 331.632695 21.47619 
" style="fill:none;stroke:#5d8bf4;stroke-linecap:square;"/>
   </g>
   <g id="line2d_14">
    <path clip-path="url(#p3338c07889)" d="M 78.684762 154.164086 
L 78.937457 156.201265 
L 79.190152 156.8213 
L 79.442848 153.56288 
L 79.695543 155.966122 
L 79.948238 154.355392 
L 80.200933 151.059029 
L 80.706324 153.744125 
L 80.959019 152.532292 
L 81.211714 153.578183 
L 81.46441 152.064346 
L 81.717105 151.715077 
L 81.9698 150.681359 
L 82.47519 150.87589 
L 82.980581 154.126732 
L 83.233276 153.936454 
L 83.738667 152.006914 
L 83.991362 152.250438 
L 84.244057 148.094635 
L 84.496752 150.647141 
L 85.002143 148.40505 
L 85.254838 149.325549 
L 85.507533 151.245158 
L 85.760229 151.755556 
L 86.265619 150.624316 
L 86.518314 149.077558 
L 86.77101 150.383017 
L 87.023705 149.421028 
L 87.529095 148.392793 
L 87.78179 148.437606 
L 88.034486 150.611639 
L 88.287181 147.098538 
L 88.539876 151.278922 
L 88.792571 150.517891 
L 89.045267 152.196726 
L 89.297962 150.2685 
L 89.550657 147.083762 
L 89.803352 150.72265 
L 90.308743 148.531415 
L 90.561438 150.723726 
L 90.814133 147.154003 
L 91.066829 146.411414 
L 91.319524 144.598247 
L 91.572219 146.675073 
L 92.07761 146.656409 
L 92.330305 145.050292 
L 92.583 142.034411 
L 92.835695 144.927902 
L 93.08839 143.466037 
L 93.341086 143.979275 
L 93.593781 147.274725 
L 93.846476 146.177911 
L 94.099171 145.986856 
L 94.351867 151.726163 
L 94.604562 142.196132 
L 94.857257 143.003452 
L 95.109952 142.634571 
L 95.615343 134.137288 
L 96.120733 142.489522 
L 96.373429 127.919552 
L 96.626124 152.640796 
L 97.131514 146.702003 
L 97.38421 146.607912 
L 97.636905 141.435325 
L 97.8896 152.726351 
L 98.142295 152.785469 
L 98.39499 140.539458 
L 98.647686 152.083123 
L 98.900381 151.566223 
L 99.153076 142.857949 
L 99.405771 153.19652 
L 99.658467 127.3456 
L 99.911162 146.706145 
L 100.416552 121.569853 
L 100.669248 155.139947 
L 100.921943 140.907466 
L 101.174638 159.07976 
L 101.427333 148.601077 
L 101.680029 154.411003 
L 102.185419 116.482422 
L 102.438114 153.401663 
L 102.69081 106.442962 
L 102.943505 155.795393 
L 103.1962 72.082187 
L 103.448895 141.278133 
L 103.70159 140.723349 
L 103.954286 108.440765 
L 104.206981 141.114108 
L 104.459676 76.082054 
L 104.712371 82.448627 
L 104.965067 81.277157 
L 105.217762 94.378672 
L 105.723152 51.258513 
L 105.975848 89.831235 
L 106.228543 154.123394 
L 106.481238 63.694609 
L 106.733933 74.615252 
L 106.986629 141.52455 
L 107.239324 52.859523 
L 107.492019 65.320029 
L 107.744714 67.143708 
L 107.99741 71.47215 
L 108.250105 138.48164 
L 108.5028 47.015165 
L 108.755495 149.90963 
L 109.00819 55.524877 
L 109.260886 110.304508 
L 109.513581 50.471949 
L 109.766276 147.73267 
L 110.018971 60.897255 
L 110.271667 139.845455 
L 110.524362 50.025861 
L 110.777057 115.785365 
L 111.029752 52.715663 
L 111.282448 85.032656 
L 111.787838 56.994125 
L 112.040533 114.729289 
L 112.293229 50.598863 
L 112.545924 67.496031 
L 112.798619 56.269853 
L 113.051314 58.639155 
L 113.30401 59.893651 
L 113.556705 74.483019 
L 113.8094 67.753727 
L 114.062095 52.670845 
L 114.31479 54.923679 
L 114.567486 48.805423 
L 114.820181 96.080086 
L 115.072876 48.508967 
L 115.325571 87.90845 
L 115.578267 46.093017 
L 115.830962 66.505565 
L 116.083657 48.739701 
L 116.336352 60.322022 
L 116.589048 62.485558 
L 116.841743 55.786563 
L 117.094438 77.456725 
L 117.347133 54.419613 
L 117.599829 57.114329 
L 117.852524 124.990697 
L 118.105219 55.101386 
L 118.357914 60.17175 
L 118.61061 53.142305 
L 118.863305 86.738558 
L 119.368695 47.138769 
L 119.62139 89.024341 
L 119.874086 55.870051 
L 120.126781 52.811471 
L 120.379476 100.232953 
L 120.632171 58.162015 
L 120.884867 57.381009 
L 121.137562 76.327446 
L 121.895648 46.061172 
L 122.148343 62.865411 
L 122.401038 60.323816 
L 122.653733 51.372244 
L 122.906429 56.687121 
L 123.159124 68.527364 
L 123.411819 54.446071 
L 123.91721 68.737881 
L 124.169905 49.671348 
L 124.4226 76.270009 
L 124.675295 57.100405 
L 124.92799 63.05685 
L 125.180686 65.873748 
L 125.433381 56.202763 
L 125.686076 87.498777 
L 125.938771 67.671586 
L 126.191467 117.519381 
L 126.444162 69.309688 
L 126.696857 62.420372 
L 126.949552 88.404537 
L 127.202248 56.487156 
L 127.454943 56.008521 
L 127.707638 65.944253 
L 127.960333 56.167382 
L 128.213029 70.076291 
L 128.465724 61.621165 
L 128.718419 65.153739 
L 128.971114 48.866192 
L 129.22381 92.389156 
L 129.476505 51.654098 
L 129.7292 88.217562 
L 129.981895 59.869281 
L 130.23459 60.645254 
L 130.487286 61.965899 
L 130.739981 61.530829 
L 130.992676 67.791183 
L 131.245371 57.254069 
L 131.498067 65.748104 
L 131.750762 62.395787 
L 132.003457 52.071676 
L 132.256152 55.170675 
L 132.508848 51.104904 
L 132.761543 55.894661 
L 133.014238 64.187542 
L 133.266933 79.801955 
L 133.519629 64.106603 
L 133.772324 104.809088 
L 134.277714 54.407827 
L 134.53041 51.434849 
L 134.783105 56.996489 
L 135.0358 55.551516 
L 135.288495 58.861242 
L 135.54119 64.395565 
L 135.793886 54.558566 
L 136.046581 54.876193 
L 136.299276 73.119422 
L 136.551971 57.346077 
L 136.804667 53.955496 
L 137.057362 65.691811 
L 137.310057 67.033838 
L 137.562752 74.979934 
L 137.815448 78.777974 
L 138.068143 76.969491 
L 138.320838 77.789273 
L 138.573533 56.118379 
L 138.826229 53.314158 
L 139.078924 77.201344 
L 139.331619 56.797222 
L 139.584314 57.495543 
L 139.83701 58.862266 
L 140.089705 48.449041 
L 140.3424 50.136082 
L 140.595095 55.444305 
L 140.84779 56.020008 
L 141.100486 58.757309 
L 141.605876 52.195974 
L 141.858571 73.113251 
L 142.111267 58.687732 
L 142.363962 55.953929 
L 142.616657 98.63667 
L 142.869352 57.402746 
L 143.122048 61.41125 
L 143.374743 59.82654 
L 143.627438 73.539893 
L 143.880133 72.025113 
L 144.132829 67.752181 
L 144.385524 101.650858 
L 144.638219 60.479111 
L 144.890914 60.496834 
L 145.14361 60.309736 
L 145.396305 45.248744 
L 145.649 56.698032 
L 145.901695 56.60675 
L 146.15439 55.439074 
L 146.407086 47.885819 
L 146.659781 47.996232 
L 146.912476 53.654421 
L 147.165171 63.400779 
L 147.417867 56.719777 
L 147.670562 53.034582 
L 147.923257 61.576188 
L 148.175952 47.393817 
L 148.428648 45.972938 
L 148.681343 59.849814 
L 148.934038 48.26777 
L 149.186733 45.66989 
L 149.439429 60.30652 
L 149.692124 59.953501 
L 149.944819 67.114996 
L 150.197514 67.504075 
L 150.45021 60.840906 
L 150.702905 50.511173 
L 150.9556 54.545101 
L 151.208295 63.608538 
L 151.713686 52.035761 
L 151.966381 60.72334 
L 152.219076 49.880259 
L 152.471771 66.94378 
L 152.724467 68.826996 
L 152.977162 47.674373 
L 153.229857 61.991629 
L 153.482552 59.373436 
L 153.735248 50.821637 
L 153.987943 54.880966 
L 154.493333 56.195183 
L 154.998724 71.47642 
L 155.251419 50.681913 
L 155.504114 60.786564 
L 155.75681 48.964626 
L 156.009505 48.898391 
L 156.2622 58.273938 
L 156.514895 75.288013 
L 156.76759 52.437378 
L 157.020286 50.483784 
L 157.272981 61.48893 
L 158.031067 46.186917 
L 158.283762 54.333286 
L 158.536457 54.143924 
L 158.789152 54.756345 
L 159.041848 53.93892 
L 159.294543 54.346003 
L 159.547238 49.474286 
L 159.799933 53.489815 
L 160.052629 44.170944 
L 160.305324 55.567882 
L 160.558019 47.657128 
L 160.810714 46.435672 
L 161.06341 44.370598 
L 161.316105 52.2626 
L 161.5688 43.475363 
L 161.821495 45.742061 
L 162.07419 44.077122 
L 162.326886 49.887754 
L 162.579581 51.930807 
L 163.084971 49.74054 
L 163.337667 50.055968 
L 163.590362 44.609552 
L 163.843057 55.342006 
L 164.095752 49.195254 
L 164.348448 53.125085 
L 164.601143 54.913942 
L 164.853838 44.350292 
L 165.359229 51.975581 
L 165.611924 47.641283 
L 165.864619 54.624427 
L 166.117314 48.82321 
L 166.37001 53.200569 
L 166.622705 45.615612 
L 166.8754 52.030905 
L 167.128095 45.968813 
L 167.633486 67.615034 
L 167.886181 49.059339 
L 168.138876 46.368156 
L 168.391571 49.603368 
L 168.644267 44.985909 
L 168.896962 42.607169 
L 169.149657 44.09212 
L 169.402352 42.169082 
L 169.655048 45.040016 
L 169.907743 44.336391 
L 170.160438 51.695052 
L 170.413133 48.113051 
L 170.665829 47.359406 
L 170.918524 50.296278 
L 171.171219 42.049402 
L 171.67661 49.176677 
L 171.929305 52.425965 
L 172.182 50.96773 
L 172.434695 50.759324 
L 172.68739 58.96132 
L 172.940086 49.131431 
L 173.192781 51.896686 
L 173.445476 44.454884 
L 173.698171 48.770335 
L 173.950867 46.680242 
L 174.456257 49.356705 
L 174.708952 48.326822 
L 174.961648 50.980633 
L 175.214343 47.765519 
L 175.467038 57.645044 
L 175.719733 51.59092 
L 175.972429 49.831029 
L 176.225124 53.179785 
L 176.477819 71.487033 
L 176.730514 46.880826 
L 176.98321 50.596533 
L 177.235905 57.402009 
L 177.741295 45.680438 
L 177.99399 52.927791 
L 178.246686 49.759413 
L 178.499381 58.650579 
L 179.004771 53.94679 
L 179.257467 54.182495 
L 179.510162 46.976259 
L 179.762857 46.217397 
L 180.268248 55.078262 
L 180.520943 70.21631 
L 180.773638 51.929332 
L 181.026333 46.485551 
L 181.279029 48.572582 
L 181.531724 49.257368 
L 181.784419 54.692544 
L 182.037114 51.012875 
L 182.28981 50.261954 
L 182.542505 50.726155 
L 183.047895 57.200528 
L 183.30059 52.796881 
L 183.553286 53.706328 
L 183.805981 55.205543 
L 184.058676 53.442413 
L 184.311371 68.17587 
L 184.564067 67.78356 
L 184.816762 53.349067 
L 185.322152 49.036405 
L 185.574848 46.718689 
L 185.827543 51.547603 
L 186.080238 59.113862 
L 186.332933 51.330043 
L 186.585629 51.617873 
L 186.838324 62.555024 
L 187.091019 53.828976 
L 187.59641 61.150921 
L 187.849105 61.843037 
L 188.1018 58.157766 
L 188.354495 50.032737 
L 188.859886 55.460469 
L 189.112581 63.465477 
L 189.365276 56.590437 
L 189.617971 53.238406 
L 189.870667 55.715673 
L 190.123362 49.602422 
L 190.628752 53.113544 
L 190.881448 50.680675 
L 191.134143 55.445352 
L 191.386838 55.671943 
L 191.639533 46.828342 
L 191.892229 47.123891 
L 192.144924 51.616485 
L 192.397619 52.367929 
L 192.650314 54.322985 
L 192.90301 53.24958 
L 193.155705 58.48131 
L 193.4084 57.042269 
L 193.661095 47.062458 
L 194.166486 58.727106 
L 194.419181 50.566845 
L 194.671876 56.498558 
L 194.924571 51.12945 
L 195.177267 53.745104 
L 195.429962 46.723246 
L 195.682657 43.523506 
L 196.440743 59.98395 
L 196.693438 55.292874 
L 196.946133 48.418433 
L 197.198829 48.252525 
L 197.451524 49.950624 
L 197.704219 60.168913 
L 197.956914 58.1373 
L 198.20961 51.82133 
L 198.462305 55.718481 
L 198.967695 48.009107 
L 199.22039 52.642094 
L 199.473086 49.272109 
L 199.978476 50.175413 
L 200.231171 51.345366 
L 200.483867 46.898534 
L 200.736562 50.377311 
L 200.989257 50.655671 
L 201.241952 60.837981 
L 201.494648 59.200909 
L 201.747343 52.752844 
L 202.252733 54.810981 
L 202.505429 56.584491 
L 202.758124 57.013289 
L 203.010819 50.458354 
L 203.263514 56.132578 
L 203.51621 68.491627 
L 203.768905 69.878643 
L 204.0216 56.600067 
L 204.274295 63.969058 
L 204.52699 61.674994 
L 204.779686 63.96303 
L 205.032381 54.544567 
L 205.285076 52.555883 
L 205.537771 52.058821 
L 205.790467 53.219323 
L 206.043162 49.991783 
L 206.295857 44.1177 
L 206.548552 45.714986 
L 206.801248 50.705806 
L 207.053943 50.284964 
L 207.306638 47.264208 
L 207.559333 47.498905 
L 207.812029 49.791668 
L 208.064724 54.308103 
L 208.317419 51.052185 
L 208.570114 51.433651 
L 208.82281 63.65989 
L 209.075505 59.566199 
L 209.3282 48.190154 
L 209.580895 49.902957 
L 209.83359 47.868032 
L 210.086286 48.867313 
L 210.338981 50.936583 
L 210.591676 54.020998 
L 210.844371 47.387698 
L 211.097067 56.395951 
L 211.349762 59.08779 
L 211.602457 55.786405 
L 211.855152 49.152954 
L 212.107848 48.979387 
L 212.360543 51.501567 
L 212.613238 59.399565 
L 212.865933 55.351408 
L 213.118629 49.461625 
L 213.371324 47.229062 
L 213.624019 47.010634 
L 214.12941 43.466162 
L 214.382105 45.820175 
L 214.6348 46.27276 
L 214.887495 48.539885 
L 215.14019 43.895529 
L 215.392886 43.566061 
L 215.645581 45.332928 
L 215.898276 48.437408 
L 216.150971 47.056401 
L 216.403667 46.834897 
L 216.656362 47.352024 
L 216.909057 48.821636 
L 217.161752 46.821061 
L 217.414448 50.269812 
L 217.667143 50.745629 
L 217.919838 45.270024 
L 218.425229 54.851136 
L 218.677924 55.655459 
L 218.930619 54.380412 
L 219.183314 51.387503 
L 219.43601 60.476592 
L 219.688705 53.406968 
L 219.9414 53.009579 
L 220.194095 45.544584 
L 220.44679 45.84666 
L 220.699486 47.514586 
L 220.952181 45.17839 
L 221.204876 48.921409 
L 221.457571 57.347849 
L 221.710267 49.102243 
L 221.962962 52.019768 
L 222.215657 52.651499 
L 222.468352 69.329844 
L 222.721048 67.046826 
L 222.973743 55.305771 
L 223.226438 50.114943 
L 223.479133 58.757042 
L 223.731829 46.648589 
L 224.489914 57.830936 
L 224.74261 52.2369 
L 225.248 56.798036 
L 225.75339 54.432608 
L 226.006086 50.796437 
L 226.511476 58.912359 
L 226.764171 52.521506 
L 227.016867 73.052205 
L 227.269562 49.081178 
L 227.522257 53.470547 
L 227.774952 52.766642 
L 228.027648 48.252153 
L 228.533038 55.061778 
L 228.785733 43.753685 
L 229.038429 45.159034 
L 229.291124 49.114606 
L 229.543819 58.763328 
L 229.796514 49.709291 
L 230.04921 46.370099 
L 230.301905 47.753925 
L 230.5546 60.321497 
L 230.807295 47.223383 
L 231.05999 50.215562 
L 231.312686 46.275273 
L 231.565381 52.267114 
L 231.818076 45.820382 
L 232.070771 55.845495 
L 232.323467 52.806998 
L 232.576162 54.355366 
L 232.828857 44.772556 
L 233.081552 50.915944 
L 233.334248 53.814978 
L 233.586943 48.743971 
L 234.092333 44.968586 
L 234.345029 48.61126 
L 234.597724 45.809791 
L 234.850419 51.387716 
L 235.103114 46.022503 
L 235.35581 63.23546 
L 235.608505 55.753836 
L 235.8612 52.18243 
L 236.113895 53.069835 
L 236.36659 58.471576 
L 236.619286 51.251232 
L 236.871981 48.861003 
L 237.124676 50.673532 
L 237.377371 45.819955 
L 237.882762 57.209784 
L 238.388152 49.594564 
L 238.640848 47.721534 
L 238.893543 44.061757 
L 239.146238 48.79006 
L 239.651629 42.561615 
L 239.904324 43.171952 
L 240.157019 49.783191 
L 240.409714 52.727072 
L 240.66241 46.933374 
L 240.915105 56.222536 
L 241.1678 46.755381 
L 241.420495 46.471021 
L 241.925886 52.878134 
L 242.178581 44.933126 
L 242.431276 46.401737 
L 242.683971 53.6473 
L 242.936667 50.298886 
L 243.189362 48.886099 
L 243.442057 56.708067 
L 243.694752 45.766772 
L 244.200143 56.647909 
L 244.452838 52.537115 
L 244.705533 45.4228 
L 244.958229 47.599983 
L 245.210924 57.842669 
L 245.463619 48.938662 
L 245.716314 53.468014 
L 245.96901 48.446404 
L 246.221705 53.942197 
L 246.4744 52.591884 
L 246.727095 57.260014 
L 246.97979 48.667743 
L 247.232486 46.853068 
L 247.485181 49.578753 
L 247.737876 48.753217 
L 247.990571 46.852727 
L 248.243267 48.450418 
L 248.495962 49.307426 
L 248.748657 48.705558 
L 249.001352 51.069694 
L 249.254048 45.090621 
L 249.506743 51.901256 
L 249.759438 50.826874 
L 250.012133 56.76473 
L 250.264829 49.637355 
L 250.517524 49.806414 
L 250.770219 56.436284 
L 251.022914 56.22766 
L 251.27561 52.335222 
L 251.781 49.094855 
L 252.033695 51.789034 
L 252.28639 52.795372 
L 252.539086 48.342237 
L 252.791781 51.931254 
L 253.044476 50.626141 
L 253.297171 47.562757 
L 253.549867 49.263571 
L 253.802562 48.651654 
L 254.055257 45.699218 
L 254.307952 56.679348 
L 254.560648 56.768388 
L 254.813343 50.175734 
L 255.066038 51.212712 
L 255.318733 47.022371 
L 255.571429 51.683306 
L 255.824124 53.155896 
L 256.076819 45.000847 
L 256.329514 44.313489 
L 257.0876 69.110918 
L 257.340295 54.668979 
L 257.845686 46.346867 
L 258.098381 45.62325 
L 258.351076 50.32933 
L 258.603771 45.945154 
L 258.856467 48.829756 
L 259.109162 45.517998 
L 259.361857 51.325602 
L 259.614552 47.517939 
L 259.867248 48.173948 
L 260.119943 52.385705 
L 260.372638 60.065505 
L 260.625333 49.895078 
L 260.878029 50.336827 
L 261.130724 43.433645 
L 261.636114 55.157016 
L 261.88881 44.914913 
L 262.141505 54.419882 
L 262.3942 49.125111 
L 262.646895 48.565017 
L 262.89959 45.156323 
L 263.404981 53.37587 
L 263.657676 42.035352 
L 263.910371 45.407909 
L 264.163067 54.706314 
L 264.415762 59.592112 
L 264.668457 46.311755 
L 264.921152 53.1455 
L 265.426543 48.554014 
L 265.679238 50.471571 
L 265.931933 49.146036 
L 266.184629 50.554888 
L 266.437324 48.076139 
L 266.690019 53.8134 
L 266.942714 50.864487 
L 267.19541 46.603918 
L 267.448105 47.428259 
L 267.7008 46.886357 
L 267.953495 49.068143 
L 268.20619 46.150517 
L 268.458886 47.994844 
L 268.711581 44.515822 
L 268.964276 46.175933 
L 269.216971 46.497957 
L 269.469667 47.336343 
L 269.722362 46.827339 
L 269.975057 43.283606 
L 270.227752 41.788766 
L 270.480448 48.439102 
L 270.733143 58.104172 
L 271.238533 46.913782 
L 271.491229 44.00212 
L 271.743924 59.926405 
L 271.996619 45.248808 
L 272.249314 45.147323 
L 272.50201 52.244865 
L 272.754705 47.807007 
L 273.0074 49.333766 
L 273.260095 52.290174 
L 273.765486 46.560583 
L 274.018181 57.254567 
L 274.270876 48.366845 
L 274.523571 46.433665 
L 274.776267 47.312742 
L 275.028962 46.778901 
L 275.281657 51.443198 
L 275.534352 46.115109 
L 275.787048 44.129672 
L 276.039743 43.590232 
L 276.292438 42.471444 
L 276.545133 49.037983 
L 276.797829 45.095778 
L 277.050524 48.51123 
L 277.303219 47.03754 
L 277.555914 50.51624 
L 277.80861 47.870829 
L 278.061305 48.589751 
L 278.314 47.723007 
L 278.566695 47.918031 
L 278.81939 55.983788 
L 279.072086 49.30541 
L 279.324781 50.933175 
L 280.082867 46.302847 
L 280.335562 48.494597 
L 280.588257 52.657969 
L 280.840952 50.22194 
L 281.093648 52.589492 
L 281.346343 52.93264 
L 281.851733 45.679371 
L 282.104429 48.729729 
L 282.357124 48.030225 
L 282.609819 48.404255 
L 282.862514 50.545386 
L 283.11521 44.106746 
L 283.6206 54.904026 
L 283.873295 55.854186 
L 284.12599 49.883005 
L 284.378686 49.176442 
L 284.631381 49.854967 
L 284.884076 51.938522 
L 285.136771 46.422036 
L 285.389467 44.771382 
L 285.642162 49.251773 
L 285.894857 46.817687 
L 286.147552 47.480222 
L 286.400248 43.497136 
L 286.652943 43.892027 
L 287.158333 52.09875 
L 287.411029 44.828359 
L 287.663724 44.126745 
L 287.916419 44.796428 
L 288.169114 52.772687 
L 288.42181 49.464614 
L 288.674505 51.709454 
L 288.9272 43.935607 
L 289.179895 53.045878 
L 289.43259 54.031397 
L 289.685286 78.130164 
L 289.937981 51.950928 
L 290.190676 44.875716 
L 290.443371 45.216045 
L 290.696067 56.279602 
L 290.948762 61.720398 
L 291.201457 45.476788 
L 291.454152 44.736648 
L 291.706848 49.477434 
L 291.959543 46.00212 
L 292.212238 48.588235 
L 292.717629 57.20246 
L 292.970324 70.695372 
L 293.223019 45.363046 
L 293.475714 43.120651 
L 293.72841 45.843613 
L 293.981105 44.281289 
L 294.2338 47.333785 
L 294.486495 51.821355 
L 294.73919 50.514041 
L 294.991886 45.702068 
L 295.244581 45.212765 
L 295.749971 51.149786 
L 296.002667 43.752393 
L 296.255362 52.494688 
L 296.508057 49.449923 
L 296.760752 53.884734 
L 297.013448 46.450063 
L 297.518838 44.295459 
L 297.771533 45.403946 
L 298.024229 43.398402 
L 298.276924 44.558445 
L 298.529619 44.725143 
L 298.782314 43.783956 
L 299.03501 46.85104 
L 299.287705 44.723916 
L 299.5404 43.543695 
L 299.793095 44.673374 
L 300.04579 47.454578 
L 300.298486 44.509815 
L 300.551181 43.4368 
L 300.803876 42.985845 
L 301.309267 44.324128 
L 301.561962 43.486639 
L 302.320048 56.857577 
L 302.572743 49.99186 
L 303.078133 43.959863 
L 303.330829 45.511099 
L 303.583524 41.797753 
L 303.836219 43.688325 
L 304.088914 42.41911 
L 304.34161 42.838757 
L 304.594305 44.071835 
L 304.847 44.176056 
L 305.099695 42.768428 
L 305.35239 40.543645 
L 305.605086 41.714596 
L 305.857781 49.228499 
L 306.110476 43.585086 
L 306.615867 49.759341 
L 306.868562 44.375317 
L 307.121257 53.753368 
L 307.373952 48.990689 
L 307.626648 47.275598 
L 307.879343 48.890982 
L 308.132038 45.73223 
L 308.384733 46.429913 
L 308.637429 46.649123 
L 308.890124 43.627065 
L 309.142819 42.202573 
L 309.395514 47.838769 
L 309.64821 61.049028 
L 309.900905 42.670564 
L 310.1536 43.978781 
L 310.406295 42.955197 
L 310.65899 44.55978 
L 310.911686 41.922355 
L 311.669771 47.681498 
L 311.922467 49.181289 
L 312.175162 46.438106 
L 312.427857 46.489309 
L 312.680552 45.737398 
L 313.185943 57.246404 
L 313.438638 48.557821 
L 313.691333 56.31687 
L 313.944029 52.390531 
L 314.196724 57.454788 
L 314.449419 48.092175 
L 314.702114 51.130036 
L 314.95481 46.040034 
L 315.207505 45.63295 
L 315.4602 49.245511 
L 315.712895 49.427269 
L 315.96559 49.025566 
L 316.470981 43.548275 
L 316.723676 50.540304 
L 316.976371 47.637973 
L 317.481762 53.319466 
L 317.734457 45.484295 
L 317.987152 52.474018 
L 318.239848 49.45805 
L 318.492543 51.915064 
L 318.745238 51.65571 
L 318.997933 54.935527 
L 319.250629 46.55311 
L 319.503324 47.336764 
L 319.756019 43.887564 
L 320.008714 42.694543 
L 320.26141 49.846309 
L 320.514105 51.979348 
L 320.7668 47.282877 
L 321.019495 46.374455 
L 321.27219 55.72178 
L 321.524886 45.755449 
L 321.777581 47.375518 
L 322.030276 46.870171 
L 322.535667 44.989253 
L 322.788362 45.795378 
L 323.041057 52.800825 
L 323.293752 48.035465 
L 323.546448 49.722615 
L 323.799143 47.104492 
L 324.051838 50.995153 
L 324.557229 47.293568 
L 325.062619 50.438944 
L 325.315314 54.979067 
L 325.820705 45.358636 
L 326.0734 45.710622 
L 326.326095 52.369242 
L 326.831486 48.028752 
L 327.084181 51.514329 
L 327.336876 72.809556 
L 327.589571 59.620874 
L 327.842267 64.365467 
L 328.094962 58.873391 
L 328.347657 47.928972 
L 328.600352 47.724438 
L 328.853048 60.145587 
L 329.105743 53.050832 
L 329.358438 51.057937 
L 329.611133 50.535372 
L 329.863829 60.634493 
L 330.116524 50.613116 
L 330.369219 52.607385 
L 330.87461 48.416319 
L 331.127305 51.409293 
L 331.38 49.640009 
L 331.632695 43.519449 
L 331.632695 43.519449 
" style="fill:none;stroke:#fc4f4f;stroke-linecap:square;"/>
   </g>
   <g id="patch_3">
    <path d="M 66.05 235 
L 66.05 10.8 
" style="fill:none;stroke:#000000;stroke-linecap:square;stroke-linejoin:miter;stroke-width:0.8;"/>
   </g>
   <g id="patch_4">
    <path d="M 331.38 235 
L 331.38 10.8 
" style="fill:none;stroke:#000000;stroke-linecap:square;stroke-linejoin:miter;stroke-width:0.8;"/>
   </g>
   <g id="patch_5">
    <path d="M 66.05 235 
L 331.38 235 
" style="fill:none;stroke:#000000;stroke-linecap:square;stroke-linejoin:miter;stroke-width:0.8;"/>
   </g>
   <g id="patch_6">
    <path d="M 66.05 10.8 
L 331.38 10.8 
" style="fill:none;stroke:#000000;stroke-linecap:square;stroke-linejoin:miter;stroke-width:0.8;"/>
   </g>
  </g>
  <g id="legend_1">
   <g id="patch_7">
    <path d="M 170.614337 197.61875 
L 316.2734 197.61875 
Q 319.0734 197.61875 319.0734 194.81875 
L 319.0734 155.12 
Q 319.0734 152.32 316.2734 152.32 
L 170.614337 152.32 
Q 167.814337 152.32 167.814337 155.12 
L 167.814337 194.81875 
Q 167.814337 197.61875 170.614337 197.61875 
z
" style="fill:#ffffff;opacity:0.8;stroke:#cccccc;stroke-linejoin:miter;"/>
   </g>
   <g id="line2d_15">
    <path d="M 173.414337 163.657813 
L 201.414337 163.657813 
" style="fill:none;stroke:#5d8bf4;stroke-linecap:square;"/>
   </g>
   <g id="line2d_16"/>
   <g id="text_15">
    <!-- 1 landscape -->
    <g transform="translate(212.614337 168.557813)scale(0.14 -0.14)">
     <defs>
      <path d="M 603 4863 
L 1178 4863 
L 1178 0 
L 603 0 
L 603 4863 
z
" id="DejaVuSans-6c" transform="scale(0.015625)"/>
      <path d="M 2906 2969 
L 2906 4863 
L 3481 4863 
L 3481 0 
L 2906 0 
L 2906 525 
Q 2725 213 2448 61 
Q 2172 -91 1784 -91 
Q 1150 -91 751 415 
Q 353 922 353 1747 
Q 353 2572 751 3078 
Q 1150 3584 1784 3584 
Q 2172 3584 2448 3432 
Q 2725 3281 2906 2969 
z
M 947 1747 
Q 947 1113 1208 752 
Q 1469 391 1925 391 
Q 2381 391 2643 752 
Q 2906 1113 2906 1747 
Q 2906 2381 2643 2742 
Q 2381 3103 1925 3103 
Q 1469 3103 1208 2742 
Q 947 2381 947 1747 
z
" id="DejaVuSans-64" transform="scale(0.015625)"/>
      <path d="M 2834 3397 
L 2834 2853 
Q 2591 2978 2328 3040 
Q 2066 3103 1784 3103 
Q 1356 3103 1142 2972 
Q 928 2841 928 2578 
Q 928 2378 1081 2264 
Q 1234 2150 1697 2047 
L 1894 2003 
Q 2506 1872 2764 1633 
Q 3022 1394 3022 966 
Q 3022 478 2636 193 
Q 2250 -91 1575 -91 
Q 1294 -91 989 -36 
Q 684 19 347 128 
L 347 722 
Q 666 556 975 473 
Q 1284 391 1588 391 
Q 1994 391 2212 530 
Q 2431 669 2431 922 
Q 2431 1156 2273 1281 
Q 2116 1406 1581 1522 
L 1381 1569 
Q 847 1681 609 1914 
Q 372 2147 372 2553 
Q 372 3047 722 3315 
Q 1072 3584 1716 3584 
Q 2034 3584 2315 3537 
Q 2597 3491 2834 3397 
z
" id="DejaVuSans-73" transform="scale(0.015625)"/>
     </defs>
     <use xlink:href="#DejaVuSans-31"/>
     <use x="63.623047" xlink:href="#DejaVuSans-20"/>
     <use x="95.410156" xlink:href="#DejaVuSans-6c"/>
     <use x="123.193359" xlink:href="#DejaVuSans-61"/>
     <use x="184.472656" xlink:href="#DejaVuSans-6e"/>
     <use x="247.851562" xlink:href="#DejaVuSans-64"/>
     <use x="311.328125" xlink:href="#DejaVuSans-73"/>
     <use x="363.427734" xlink:href="#DejaVuSans-63"/>
     <use x="418.408203" xlink:href="#DejaVuSans-61"/>
     <use x="479.6875" xlink:href="#DejaVuSans-70"/>
     <use x="543.164062" xlink:href="#DejaVuSans-65"/>
    </g>
   </g>
   <g id="line2d_17">
    <path d="M 173.414337 184.207188 
L 201.414337 184.207188 
" style="fill:none;stroke:#fc4f4f;stroke-linecap:square;"/>
   </g>
   <g id="line2d_18"/>
   <g id="text_16">
    <!-- 10 landscapes -->
    <g transform="translate(212.614337 189.107188)scale(0.14 -0.14)">
     <use xlink:href="#DejaVuSans-31"/>
     <use x="63.623047" xlink:href="#DejaVuSans-30"/>
     <use x="127.246094" xlink:href="#DejaVuSans-20"/>
     <use x="159.033203" xlink:href="#DejaVuSans-6c"/>
     <use x="186.816406" xlink:href="#DejaVuSans-61"/>
     <use x="248.095703" xlink:href="#DejaVuSans-6e"/>
     <use x="311.474609" xlink:href="#DejaVuSans-64"/>
     <use x="374.951172" xlink:href="#DejaVuSans-73"/>
     <use x="427.050781" xlink:href="#DejaVuSans-63"/>
     <use x="482.03125" xlink:href="#DejaVuSans-61"/>
     <use x="543.310547" xlink:href="#DejaVuSans-70"/>
     <use x="606.787109" xlink:href="#DejaVuSans-65"/>
     <use x="668.310547" xlink:href="#DejaVuSans-73"/>
    </g>
   </g>
  </g>
 </g>
 <defs>
  <clipPath id="p3338c07889">
   <rect height="224.2" width="265.33" x="66.05" y="10.8"/>
  </clipPath>
 </defs>
</svg>
